<?xml version="1.0"?>
<!DOCTYPE lmms-project>
<lmms-project version="20" creatorversion="0.0.3" type="midiclip" creator="SWAR">
    <head/>
    <midiclip steps="16" muted="0" name="10" color="#58D46F" type="1" pos="0">
        <note pan="0" vol="100" key="62" len="48" pos="0" name="D: 48" />
        <note pan="0" vol="100" key="62" len="48" pos="48" name="D: 48" />
        <note pan="0" vol="100" key="62" len="48" pos="96" name="D: 48" />
        <note pan="0" vol="100" key="60" len="48" pos="144" name="C: 48" />
        <note pan="0" vol="100" key="62" len="24" pos="192" name="D: 24" />
        <note pan="0" vol="100" key="64" len="120" pos="216" name="E: 120" />
        <note pan="0" vol="100" key="67" len="48" pos="336" name="G: 48" />
        <note pan="0" vol="100" key="67" len="96" pos="384" name="G: 96" />
        <note pan="0" vol="100" key="69" len="48" pos="480" name="A: 48" />
        <note pan="0" vol="100" key="72" len="48" pos="528" name="C*: 48" />
        <note pan="0" vol="100" key="72" len="48" pos="576" name="C*: 48" />
        <note pan="0" vol="100" key="69" len="48" pos="624" name="A: 48" />
        <note pan="0" vol="100" key="69" len="48" pos="672" name="A: 48" />
        <note pan="0" vol="100" key="72" len="48" pos="720" name="C*: 48" />
        <note pan="0" vol="100" key="69" len="48" pos="768" name="A: 48" />
        <note pan="0" vol="100" key="67" len="48" pos="816" name="G: 48" />
        <note pan="0" vol="100" key="64" len="24" pos="864" name="E: 24" />
        <note pan="0" vol="100" key="62" len="24" pos="888" name="D: 24" />
        <note pan="0" vol="100" key="64" len="144" pos="912" name="E: 144" />
        <note pan="0" vol="100" key="64" len="48" pos="1056" name="E: 48" />
        <note pan="0" vol="100" key="62" len="48" pos="1104" name="D: 48" />
        <note pan="0" vol="100" key="64" len="48" pos="1152" name="E: 48" />
        <note pan="0" vol="100" key="60" len="48" pos="1200" name="C: 48" />
        <note pan="0" vol="100" key="62" len="48" pos="1248" name="D: 48" />
        <note pan="0" vol="100" key="64" len="48" pos="1296" name="E: 48" />
        <note pan="0" vol="100" key="67" len="48" pos="1344" name="G: 48" />
        <note pan="0" vol="100" key="67" len="48" pos="1392" name="G: 48" />
        <note pan="0" vol="100" key="69" len="48" pos="1440" name="A: 48" />
        <note pan="0" vol="100" key="72" len="96" pos="1488" name="C*: 96" />
        <note pan="0" vol="100" key="72" len="192" pos="1584" name="C*: 192" />
        <note pan="0" vol="100" key="69" len="48" pos="1776" name="A: 48" />
        <note pan="0" vol="100" key="64" len="48" pos="1824" name="E: 48" />
        <note pan="0" vol="100" key="62" len="48" pos="1872" name="D: 48" />
        <note pan="0" vol="100" key="62" len="144" pos="1920" name="D: 144" />
        <note pan="0" vol="100" key="64" len="48" pos="2064" name="E: 48" />
        <note pan="0" vol="100" key="62" len="48" pos="2112" name="D: 48" />
        <note pan="0" vol="100" key="62" len="48" pos="2160" name="D: 48" />
        <note pan="0" vol="100" key="60" len="48" pos="2208" name="C: 48" />
        <note pan="0" vol="100" key="60" len="48" pos="2256" name="C: 48" />
        <note pan="0" vol="100" key="60" len="48" pos="2304" name="C: 48" />
        <note pan="0" vol="100" key="62" len="48" pos="2352" name="D: 48" />
        <note pan="0" vol="100" key="60" len="24" pos="2400" name="C: 24" />
        <note pan="0" vol="100" key="64" len="24" pos="2424" name="E: 24" />
        <note pan="0" vol="100" key="67" len="48" pos="2448" name="G: 48" />
        <note pan="0" vol="100" key="62" len="24" pos="2496" name="D: 24" />
        <note pan="0" vol="100" key="64" len="72" pos="2520" name="E: 72" />
        <note pan="0" vol="100" key="60" len="48" pos="2592" name="C: 48" />
        <note pan="0" vol="100" key="62" len="48" pos="2640" name="D: 48" />
        <note pan="0" vol="100" key="64" len="48" pos="2688" name="E: 48" />
        <note pan="0" vol="100" key="64" len="48" pos="2736" name="E: 48" />
        <note pan="0" vol="100" key="67" len="48" pos="2784" name="G: 48" />
        <note pan="0" vol="100" key="69" len="96" pos="2832" name="A: 96" />
        <note pan="0" vol="100" key="64" len="48" pos="2928" name="E: 48" />
        <note pan="0" vol="100" key="67" len="96" pos="2976" name="G: 96" />
        <note pan="0" vol="100" key="69" len="48" pos="3072" name="A: 48" />
        <note pan="0" vol="100" key="72" len="48" pos="3120" name="C*: 48" />
        <note pan="0" vol="100" key="72" len="48" pos="3168" name="C*: 48" />
        <note pan="0" vol="100" key="69" len="144" pos="3216" name="A: 144" />
        <note pan="0" vol="100" key="72" len="48" pos="3360" name="C*: 48" />
        <note pan="0" vol="100" key="72" len="48" pos="3408" name="C*: 48" />
        <note pan="0" vol="100" key="67" len="48" pos="3456" name="G: 48" />
        <note pan="0" vol="100" key="62" len="96" pos="3504" name="D: 96" />
        <note pan="0" vol="100" key="60" len="48" pos="3600" name="C: 48" />
        <note pan="0" vol="100" key="60" len="96" pos="3648" name="C: 96" />
        <note pan="0" vol="100" key="62" len="192" pos="3744" name="D: 192" />
        <note pan="0" vol="100" key="64" len="96" pos="3936" name="E: 96" />
        <note pan="0" vol="100" key="67" len="24" pos="4032" name="G: 24" />
        <note pan="0" vol="100" key="72" len="72" pos="4056" name="C*: 72" />
        <note pan="0" vol="100" key="72" len="24" pos="4128" name="C*: 24" />
        <note pan="0" vol="100" key="69" len="24" pos="4152" name="A: 24" />
        <note pan="0" vol="100" key="67" len="48" pos="4176" name="G: 48" />
        <note pan="0" vol="100" key="64" len="48" pos="4224" name="E: 48" />
        <note pan="0" vol="100" key="64" len="48" pos="4272" name="E: 48" />
        <note pan="0" vol="100" key="62" len="48" pos="4320" name="D: 48" />
        <note pan="0" vol="100" key="60" len="48" pos="4368" name="C: 48" />
        <note pan="0" vol="100" key="60" len="48" pos="4416" name="C: 48" />
        <note pan="0" vol="100" key="62" len="48" pos="4464" name="D: 48" />
        <note pan="0" vol="100" key="67" len="24" pos="4512" name="G: 24" />
        <note pan="0" vol="100" key="62" len="24" pos="4536" name="D: 24" />
        <note pan="0" vol="100" key="60" len="48" pos="4560" name="C: 48" />
        <note pan="0" vol="100" key="64" len="96" pos="4608" name="E: 96" />
        <note pan="0" vol="100" key="62" len="24" pos="4704" name="D: 24" />
        <note pan="0" vol="100" key="60" len="24" pos="4728" name="C: 24" />
        <note pan="0" vol="100" key="62" len="48" pos="4752" name="D: 48" />
        <note pan="0" vol="100" key="64" len="96" pos="4800" name="E: 96" />
        <note pan="0" vol="100" key="64" len="24" pos="4896" name="E: 24" />
        <note pan="0" vol="100" key="67" len="24" pos="4920" name="G: 24" />
        <note pan="0" vol="100" key="69" len="48" pos="4944" name="A: 48" />
        <note pan="0" vol="100" key="72" len="96" pos="4992" name="C*: 96" />
        <note pan="0" vol="100" key="72" len="48" pos="5088" name="C*: 48" />
        <note pan="0" vol="100" key="69" len="48" pos="5136" name="A: 48" />
        <note pan="0" vol="100" key="67" len="48" pos="5184" name="G: 48" />
        <note pan="0" vol="100" key="64" len="144" pos="5232" name="E: 144" />
        <note pan="0" vol="100" key="62" len="48" pos="5376" name="D: 48" />
        <note pan="0" vol="100" key="60" len="96" pos="5424" name="C: 96" />
        <note pan="0" vol="100" key="60" len="48" pos="5520" name="C: 48" />
        <note pan="0" vol="100" key="62" len="96" pos="5568" name="D: 96" />
        <note pan="0" vol="100" key="64" len="48" pos="5664" name="E: 48" />
        <note pan="0" vol="100" key="60" len="48" pos="5712" name="C: 48" />
        <note pan="0" vol="100" key="60" len="48" pos="5760" name="C: 48" />
        <note pan="0" vol="100" key="62" len="96" pos="5808" name="D: 96" />
        <note pan="0" vol="100" key="64" len="48" pos="5904" name="E: 48" />
        <note pan="0" vol="100" key="67" len="96" pos="5952" name="G: 96" />
        <note pan="0" vol="100" key="67" len="48" pos="6048" name="G: 48" />
        <note pan="0" vol="100" key="69" len="48" pos="6096" name="A: 48" />
        <note pan="0" vol="100" key="72" len="96" pos="6144" name="C*: 96" />
        <note pan="0" vol="100" key="72" len="24" pos="6240" name="C*: 24" />
        <note pan="0" vol="100" key="72" len="24" pos="6264" name="C*: 24" />
        <note pan="0" vol="100" key="72" len="48" pos="6288" name="C*: 48" />
        <note pan="0" vol="100" key="72" len="96" pos="6336" name="C*: 96" />
        <note pan="0" vol="100" key="69" len="24" pos="6432" name="A: 24" />
        <note pan="0" vol="100" key="72" len="24" pos="6456" name="C*: 24" />
        <note pan="0" vol="100" key="69" len="144" pos="6480" name="A: 144" />
        <note pan="0" vol="100" key="72" len="96" pos="6624" name="C*: 96" />
        <note pan="0" vol="100" key="72" len="24" pos="6720" name="C*: 24" />
        <note pan="0" vol="100" key="69" len="72" pos="6744" name="A: 72" />
        <note pan="0" vol="100" key="64" len="48" pos="6816" name="E: 48" />
        <note pan="0" vol="100" key="60" len="24" pos="6864" name="C: 24" />
        <note pan="0" vol="100" key="60" len="24" pos="6888" name="C: 24" />
        <note pan="0" vol="100" key="60" len="48" pos="6912" name="C: 48" />
        <note pan="0" vol="100" key="60" len="48" pos="6960" name="C: 48" />
        <note pan="0" vol="100" key="64" len="96" pos="7008" name="E: 96" />
        <note pan="0" vol="100" key="67" len="48" pos="7104" name="G: 48" />
        <note pan="0" vol="100" key="67" len="48" pos="7152" name="G: 48" />
        <note pan="0" vol="100" key="67" len="48" pos="7200" name="G: 48" />
        <note pan="0" vol="100" key="64" len="48" pos="7248" name="E: 48" />
        <note pan="0" vol="100" key="62" len="48" pos="7296" name="D: 48" />
        <note pan="0" vol="100" key="62" len="192" pos="7344" name="D: 192" />
        <note pan="0" vol="100" key="60" len="48" pos="7536" name="C: 48" />
        <note pan="0" vol="100" key="60" len="144" pos="7584" name="C: 144" />
        <note pan="0" vol="100" key="60" len="48" pos="7728" name="C: 48" />
        <note pan="0" vol="100" key="62" len="48" pos="7776" name="D: 48" />
        <note pan="0" vol="100" key="64" len="96" pos="7824" name="E: 96" />
        <note pan="0" vol="100" key="67" len="48" pos="7920" name="G: 48" />
        <note pan="0" vol="100" key="67" len="48" pos="7968" name="G: 48" />
        <note pan="0" vol="100" key="69" len="48" pos="8016" name="A: 48" />
        <note pan="0" vol="100" key="72" len="48" pos="8064" name="C*: 48" />
        <note pan="0" vol="100" key="69" len="48" pos="8112" name="A: 48" />
        <note pan="0" vol="100" key="69" len="96" pos="8160" name="A: 96" />
        <note pan="0" vol="100" key="72" len="48" pos="8256" name="C*: 48" />
        <note pan="0" vol="100" key="72" len="24" pos="8304" name="C*: 24" />
        <note pan="0" vol="100" key="69" len="24" pos="8328" name="A: 24" />
        <note pan="0" vol="100" key="69" len="48" pos="8352" name="A: 48" />
        <note pan="0" vol="100" key="69" len="96" pos="8400" name="A: 96" />
        <note pan="0" vol="100" key="72" len="48" pos="8496" name="C*: 48" />
        <note pan="0" vol="100" key="72" len="48" pos="8544" name="C*: 48" />
        <note pan="0" vol="100" key="69" len="96" pos="8592" name="A: 96" />
        <note pan="0" vol="100" key="67" len="48" pos="8688" name="G: 48" />
        <note pan="0" vol="100" key="64" len="48" pos="8736" name="E: 48" />
        <note pan="0" vol="100" key="64" len="96" pos="8784" name="E: 96" />
        <note pan="0" vol="100" key="62" len="24" pos="8880" name="D: 24" />
        <note pan="0" vol="100" key="67" len="24" pos="8904" name="G: 24" />
        <note pan="0" vol="100" key="72" len="96" pos="8928" name="C*: 96" />
        <note pan="0" vol="100" key="72" len="96" pos="9024" name="C*: 96" />
        <note pan="0" vol="100" key="69" len="48" pos="9120" name="A: 48" />
        <note pan="0" vol="100" key="69" len="24" pos="9168" name="A: 24" />
        <note pan="0" vol="100" key="69" len="24" pos="9192" name="A: 24" />
        <note pan="0" vol="100" key="69" len="48" pos="9216" name="A: 48" />
        <note pan="0" vol="100" key="69" len="48" pos="9264" name="A: 48" />
        <note pan="0" vol="100" key="67" len="144" pos="9312" name="G: 144" />
        <note pan="0" vol="100" key="67" len="24" pos="9456" name="G: 24" />
        <note pan="0" vol="100" key="64" len="24" pos="9480" name="E: 24" />
        <note pan="0" vol="100" key="62" len="48" pos="9504" name="D: 48" />
        <note pan="0" vol="100" key="62" len="24" pos="9552" name="D: 24" />
        <note pan="0" vol="100" key="67" len="24" pos="9576" name="G: 24" />
        <note pan="0" vol="100" key="72" len="24" pos="9600" name="C*: 24" />
        <note pan="0" vol="100" key="67" len="72" pos="9624" name="G: 72" />
        <note pan="0" vol="100" key="64" len="48" pos="9696" name="E: 48" />
        <note pan="0" vol="100" key="60" len="48" pos="9744" name="C: 48" />
        <note pan="0" vol="100" key="60" len="48" pos="9792" name="C: 48" />
        <note pan="0" vol="100" key="60" len="48" pos="9840" name="C: 48" />
        <note pan="0" vol="100" key="60" len="48" pos="9888" name="C: 48" />
        <note pan="0" vol="100" key="60" len="48" pos="9936" name="C: 48" />
        <note pan="0" vol="100" key="62" len="24" pos="9984" name="D: 24" />
        <note pan="0" vol="100" key="64" len="24" pos="10008" name="E: 24" />
        <note pan="0" vol="100" key="60" len="24" pos="10032" name="C: 24" />
        <note pan="0" vol="100" key="60" len="24" pos="10056" name="C: 24" />
        <note pan="0" vol="100" key="60" len="48" pos="10080" name="C: 48" />
        <note pan="0" vol="100" key="62" len="48" pos="10128" name="D: 48" />
        <note pan="0" vol="100" key="64" len="48" pos="10176" name="E: 48" />
        <note pan="0" vol="100" key="64" len="96" pos="10224" name="E: 96" />
        <note pan="0" vol="100" key="60" len="48" pos="10320" name="C: 48" />
        <note pan="0" vol="100" key="62" len="48" pos="10368" name="D: 48" />
        <note pan="0" vol="100" key="64" len="48" pos="10416" name="E: 48" />
        <note pan="0" vol="100" key="67" len="24" pos="10464" name="G: 24" />
        <note pan="0" vol="100" key="67" len="72" pos="10488" name="G: 72" />
        <note pan="0" vol="100" key="69" len="48" pos="10560" name="A: 48" />
        <note pan="0" vol="100" key="67" len="144" pos="10608" name="G: 144" />
        <note pan="0" vol="100" key="62" len="24" pos="10752" name="D: 24" />
        <note pan="0" vol="100" key="64" len="24" pos="10776" name="E: 24" />
        <note pan="0" vol="100" key="62" len="48" pos="10800" name="D: 48" />
        <note pan="0" vol="100" key="64" len="48" pos="10848" name="E: 48" />
        <note pan="0" vol="100" key="67" len="48" pos="10896" name="G: 48" />
        <note pan="0" vol="100" key="72" len="48" pos="10944" name="C*: 48" />
        <note pan="0" vol="100" key="72" len="48" pos="10992" name="C*: 48" />
        <note pan="0" vol="100" key="69" len="96" pos="11040" name="A: 96" />
        <note pan="0" vol="100" key="64" len="24" pos="11136" name="E: 24" />
        <note pan="0" vol="100" key="67" len="120" pos="11160" name="G: 120" />
        <note pan="0" vol="100" key="67" len="48" pos="11280" name="G: 48" />
        <note pan="0" vol="100" key="72" len="48" pos="11328" name="C*: 48" />
        <note pan="0" vol="100" key="69" len="48" pos="11376" name="A: 48" />
        <note pan="0" vol="100" key="67" len="24" pos="11424" name="G: 24" />
        <note pan="0" vol="100" key="67" len="24" pos="11448" name="G: 24" />
        <note pan="0" vol="100" key="64" len="48" pos="11472" name="E: 48" />
        <note pan="0" vol="100" key="69" len="24" pos="11520" name="A: 24" />
        <note pan="0" vol="100" key="64" len="24" pos="11544" name="E: 24" />
        <note pan="0" vol="100" key="62" len="48" pos="11568" name="D: 48" />
        <note pan="0" vol="100" key="62" len="24" pos="11616" name="D: 24" />
        <note pan="0" vol="100" key="60" len="24" pos="11640" name="C: 24" />
        <note pan="0" vol="100" key="60" len="24" pos="11664" name="C: 24" />
        <note pan="0" vol="100" key="62" len="24" pos="11688" name="D: 24" />
        <note pan="0" vol="100" key="64" len="24" pos="11712" name="E: 24" />
        <note pan="0" vol="100" key="69" len="24" pos="11736" name="A: 24" />
        <note pan="0" vol="100" key="67" len="48" pos="11760" name="G: 48" />
        <note pan="0" vol="100" key="67" len="96" pos="11808" name="G: 96" />
        <note pan="0" vol="100" key="69" len="48" pos="11904" name="A: 48" />
        <note pan="0" vol="100" key="72" len="48" pos="11952" name="C*: 48" />
        <note pan="0" vol="100" key="72" len="144" pos="12000" name="C*: 144" />
        <note pan="0" vol="100" key="69" len="48" pos="12144" name="A: 48" />
        <note pan="0" vol="100" key="72" len="48" pos="12192" name="C*: 48" />
        <note pan="0" vol="100" key="72" len="48" pos="12240" name="C*: 48" />
    </midiclip>
</lmms-project>