<?xml version="1.0"?>
<!DOCTYPE lmms-project>
<lmms-project version="20" creatorversion="0.0.3" type="midiclip" creator="SWAR">
    <head/>
    <midiclip steps="16" muted="0" name="15" color="#C75151" type="1" pos="0">
        <note pan="0" vol="100" key="62" len="48" pos="0" name="D: 48" />
        <note pan="0" vol="100" key="62" len="48" pos="48" name="D: 48" />
        <note pan="0" vol="100" key="60" len="48" pos="96" name="C: 48" />
        <note pan="0" vol="100" key="62" len="48" pos="144" name="D: 48" />
        <note pan="0" vol="100" key="62" len="96" pos="192" name="D: 96" />
        <note pan="0" vol="100" key="64" len="48" pos="288" name="E: 48" />
        <note pan="0" vol="100" key="64" len="96" pos="336" name="E: 96" />
        <note pan="0" vol="100" key="67" len="48" pos="432" name="G: 48" />
        <note pan="0" vol="100" key="69" len="144" pos="480" name="A: 144" />
        <note pan="0" vol="100" key="64" len="24" pos="624" name="E: 24" />
        <note pan="0" vol="100" key="67" len="24" pos="648" name="G: 24" />
        <note pan="0" vol="100" key="62" len="48" pos="672" name="D: 48" />
        <note pan="0" vol="100" key="64" len="96" pos="720" name="E: 96" />
        <note pan="0" vol="100" key="62" len="96" pos="816" name="D: 96" />
        <note pan="0" vol="100" key="64" len="48" pos="912" name="E: 48" />
        <note pan="0" vol="100" key="67" len="48" pos="960" name="G: 48" />
        <note pan="0" vol="100" key="69" len="24" pos="1008" name="A: 24" />
        <note pan="0" vol="100" key="69" len="24" pos="1032" name="A: 24" />
        <note pan="0" vol="100" key="72" len="48" pos="1056" name="C*: 48" />
        <note pan="0" vol="100" key="69" len="48" pos="1104" name="A: 48" />
        <note pan="0" vol="100" key="72" len="48" pos="1152" name="C*: 48" />
        <note pan="0" vol="100" key="72" len="48" pos="1200" name="C*: 48" />
        <note pan="0" vol="100" key="69" len="48" pos="1248" name="A: 48" />
        <note pan="0" vol="100" key="72" len="96" pos="1296" name="C*: 96" />
        <note pan="0" vol="100" key="67" len="48" pos="1392" name="G: 48" />
        <note pan="0" vol="100" key="67" len="48" pos="1440" name="G: 48" />
        <note pan="0" vol="100" key="67" len="96" pos="1488" name="G: 96" />
        <note pan="0" vol="100" key="62" len="96" pos="1584" name="D: 96" />
        <note pan="0" vol="100" key="64" len="48" pos="1680" name="E: 48" />
        <note pan="0" vol="100" key="67" len="96" pos="1728" name="G: 96" />
        <note pan="0" vol="100" key="69" len="48" pos="1824" name="A: 48" />
        <note pan="0" vol="100" key="69" len="144" pos="1872" name="A: 144" />
        <note pan="0" vol="100" key="69" len="48" pos="2016" name="A: 48" />
        <note pan="0" vol="100" key="72" len="48" pos="2064" name="C*: 48" />
        <note pan="0" vol="100" key="72" len="24" pos="2112" name="C*: 24" />
        <note pan="0" vol="100" key="72" len="24" pos="2136" name="C*: 24" />
        <note pan="0" vol="100" key="72" len="48" pos="2160" name="C*: 48" />
        <note pan="0" vol="100" key="69" len="192" pos="2208" name="A: 192" />
        <note pan="0" vol="100" key="72" len="48" pos="2400" name="C*: 48" />
        <note pan="0" vol="100" key="72" len="144" pos="2448" name="C*: 144" />
        <note pan="0" vol="100" key="69" len="48" pos="2592" name="A: 48" />
        <note pan="0" vol="100" key="67" len="48" pos="2640" name="G: 48" />
        <note pan="0" vol="100" key="64" len="48" pos="2688" name="E: 48" />
        <note pan="0" vol="100" key="67" len="48" pos="2736" name="G: 48" />
        <note pan="0" vol="100" key="64" len="48" pos="2784" name="E: 48" />
        <note pan="0" vol="100" key="62" len="48" pos="2832" name="D: 48" />
        <note pan="0" vol="100" key="60" len="288" pos="2880" name="C: 288" />
        <note pan="0" vol="100" key="62" len="48" pos="3168" name="D: 48" />
        <note pan="0" vol="100" key="60" len="48" pos="3216" name="C: 48" />
        <note pan="0" vol="100" key="60" len="48" pos="3264" name="C: 48" />
        <note pan="0" vol="100" key="62" len="48" pos="3312" name="D: 48" />
        <note pan="0" vol="100" key="64" len="48" pos="3360" name="E: 48" />
        <note pan="0" vol="100" key="67" len="48" pos="3408" name="G: 48" />
        <note pan="0" vol="100" key="67" len="96" pos="3456" name="G: 96" />
        <note pan="0" vol="100" key="72" len="48" pos="3552" name="C*: 48" />
        <note pan="0" vol="100" key="69" len="48" pos="3600" name="A: 48" />
        <note pan="0" vol="100" key="72" len="144" pos="3648" name="C*: 144" />
        <note pan="0" vol="100" key="72" len="96" pos="3792" name="C*: 96" />
        <note pan="0" vol="100" key="72" len="24" pos="3888" name="C*: 24" />
        <note pan="0" vol="100" key="72" len="24" pos="3912" name="C*: 24" />
        <note pan="0" vol="100" key="69" len="48" pos="3936" name="A: 48" />
        <note pan="0" vol="100" key="67" len="48" pos="3984" name="G: 48" />
        <note pan="0" vol="100" key="64" len="96" pos="4032" name="E: 96" />
        <note pan="0" vol="100" key="64" len="96" pos="4128" name="E: 96" />
        <note pan="0" vol="100" key="62" len="24" pos="4224" name="D: 24" />
        <note pan="0" vol="100" key="62" len="24" pos="4248" name="D: 24" />
        <note pan="0" vol="100" key="60" len="48" pos="4272" name="C: 48" />
        <note pan="0" vol="100" key="62" len="24" pos="4320" name="D: 24" />
        <note pan="0" vol="100" key="64" len="24" pos="4344" name="E: 24" />
        <note pan="0" vol="100" key="67" len="48" pos="4368" name="G: 48" />
        <note pan="0" vol="100" key="67" len="24" pos="4416" name="G: 24" />
        <note pan="0" vol="100" key="69" len="312" pos="4440" name="A: 312" />
        <note pan="0" vol="100" key="64" len="96" pos="4752" name="E: 96" />
        <note pan="0" vol="100" key="64" len="48" pos="4848" name="E: 48" />
        <note pan="0" vol="100" key="62" len="48" pos="4896" name="D: 48" />
        <note pan="0" vol="100" key="62" len="48" pos="4944" name="D: 48" />
        <note pan="0" vol="100" key="60" len="48" pos="4992" name="C: 48" />
        <note pan="0" vol="100" key="60" len="96" pos="5040" name="C: 96" />
        <note pan="0" vol="100" key="62" len="48" pos="5136" name="D: 48" />
        <note pan="0" vol="100" key="64" len="48" pos="5184" name="E: 48" />
        <note pan="0" vol="100" key="64" len="96" pos="5232" name="E: 96" />
        <note pan="0" vol="100" key="67" len="48" pos="5328" name="G: 48" />
        <note pan="0" vol="100" key="69" len="48" pos="5376" name="A: 48" />
        <note pan="0" vol="100" key="72" len="48" pos="5424" name="C*: 48" />
        <note pan="0" vol="100" key="69" len="48" pos="5472" name="A: 48" />
        <note pan="0" vol="100" key="67" len="24" pos="5520" name="G: 24" />
        <note pan="0" vol="100" key="67" len="72" pos="5544" name="G: 72" />
        <note pan="0" vol="100" key="64" len="24" pos="5616" name="E: 24" />
        <note pan="0" vol="100" key="62" len="24" pos="5640" name="D: 24" />
        <note pan="0" vol="100" key="60" len="48" pos="5664" name="C: 48" />
        <note pan="0" vol="100" key="62" len="48" pos="5712" name="D: 48" />
        <note pan="0" vol="100" key="60" len="48" pos="5760" name="C: 48" />
        <note pan="0" vol="100" key="60" len="24" pos="5808" name="C: 24" />
        <note pan="0" vol="100" key="60" len="24" pos="5832" name="C: 24" />
        <note pan="0" vol="100" key="62" len="24" pos="5856" name="D: 24" />
        <note pan="0" vol="100" key="60" len="24" pos="5880" name="C: 24" />
        <note pan="0" vol="100" key="60" len="48" pos="5904" name="C: 48" />
        <note pan="0" vol="100" key="60" len="48" pos="5952" name="C: 48" />
        <note pan="0" vol="100" key="62" len="96" pos="6000" name="D: 96" />
        <note pan="0" vol="100" key="64" len="48" pos="6096" name="E: 48" />
        <note pan="0" vol="100" key="69" len="48" pos="6144" name="A: 48" />
        <note pan="0" vol="100" key="67" len="48" pos="6192" name="G: 48" />
        <note pan="0" vol="100" key="69" len="144" pos="6240" name="A: 144" />
        <note pan="0" vol="100" key="72" len="48" pos="6384" name="C*: 48" />
        <note pan="0" vol="100" key="72" len="24" pos="6432" name="C*: 24" />
        <note pan="0" vol="100" key="69" len="24" pos="6456" name="A: 24" />
        <note pan="0" vol="100" key="67" len="48" pos="6480" name="G: 48" />
        <note pan="0" vol="100" key="64" len="48" pos="6528" name="E: 48" />
        <note pan="0" vol="100" key="62" len="144" pos="6576" name="D: 144" />
        <note pan="0" vol="100" key="60" len="48" pos="6720" name="C: 48" />
        <note pan="0" vol="100" key="64" len="48" pos="6768" name="E: 48" />
        <note pan="0" vol="100" key="62" len="96" pos="6816" name="D: 96" />
        <note pan="0" vol="100" key="60" len="48" pos="6912" name="C: 48" />
        <note pan="0" vol="100" key="60" len="144" pos="6960" name="C: 144" />
        <note pan="0" vol="100" key="64" len="96" pos="7104" name="E: 96" />
        <note pan="0" vol="100" key="67" len="96" pos="7200" name="G: 96" />
        <note pan="0" vol="100" key="69" len="192" pos="7296" name="A: 192" />
        <note pan="0" vol="100" key="67" len="48" pos="7488" name="G: 48" />
        <note pan="0" vol="100" key="72" len="48" pos="7536" name="C*: 48" />
        <note pan="0" vol="100" key="72" len="96" pos="7584" name="C*: 96" />
        <note pan="0" vol="100" key="72" len="48" pos="7680" name="C*: 48" />
        <note pan="0" vol="100" key="69" len="48" pos="7728" name="A: 48" />
        <note pan="0" vol="100" key="72" len="48" pos="7776" name="C*: 48" />
        <note pan="0" vol="100" key="72" len="48" pos="7824" name="C*: 48" />
        <note pan="0" vol="100" key="72" len="48" pos="7872" name="C*: 48" />
        <note pan="0" vol="100" key="69" len="48" pos="7920" name="A: 48" />
        <note pan="0" vol="100" key="67" len="48" pos="7968" name="G: 48" />
        <note pan="0" vol="100" key="64" len="48" pos="8016" name="E: 48" />
        <note pan="0" vol="100" key="62" len="48" pos="8064" name="D: 48" />
        <note pan="0" vol="100" key="60" len="96" pos="8112" name="C: 96" />
        <note pan="0" vol="100" key="60" len="96" pos="8208" name="C: 96" />
        <note pan="0" vol="100" key="62" len="48" pos="8304" name="D: 48" />
        <note pan="0" vol="100" key="62" len="48" pos="8352" name="D: 48" />
        <note pan="0" vol="100" key="67" len="24" pos="8400" name="G: 24" />
        <note pan="0" vol="100" key="67" len="24" pos="8424" name="G: 24" />
        <note pan="0" vol="100" key="64" len="48" pos="8448" name="E: 48" />
        <note pan="0" vol="100" key="67" len="144" pos="8496" name="G: 144" />
        <note pan="0" vol="100" key="72" len="48" pos="8640" name="C*: 48" />
        <note pan="0" vol="100" key="67" len="24" pos="8688" name="G: 24" />
        <note pan="0" vol="100" key="69" len="168" pos="8712" name="A: 168" />
        <note pan="0" vol="100" key="72" len="48" pos="8880" name="C*: 48" />
        <note pan="0" vol="100" key="72" len="24" pos="8928" name="C*: 24" />
        <note pan="0" vol="100" key="72" len="72" pos="8952" name="C*: 72" />
        <note pan="0" vol="100" key="72" len="48" pos="9024" name="C*: 48" />
        <note pan="0" vol="100" key="69" len="24" pos="9072" name="A: 24" />
        <note pan="0" vol="100" key="64" len="24" pos="9096" name="E: 24" />
        <note pan="0" vol="100" key="64" len="96" pos="9120" name="E: 96" />
        <note pan="0" vol="100" key="62" len="48" pos="9216" name="D: 48" />
        <note pan="0" vol="100" key="62" len="48" pos="9264" name="D: 48" />
        <note pan="0" vol="100" key="62" len="48" pos="9312" name="D: 48" />
        <note pan="0" vol="100" key="67" len="96" pos="9360" name="G: 96" />
        <note pan="0" vol="100" key="67" len="48" pos="9456" name="G: 48" />
        <note pan="0" vol="100" key="64" len="48" pos="9504" name="E: 48" />
        <note pan="0" vol="100" key="62" len="96" pos="9552" name="D: 96" />
        <note pan="0" vol="100" key="60" len="192" pos="9648" name="C: 192" />
        <note pan="0" vol="100" key="62" len="48" pos="9840" name="D: 48" />
        <note pan="0" vol="100" key="62" len="48" pos="9888" name="D: 48" />
        <note pan="0" vol="100" key="60" len="48" pos="9936" name="C: 48" />
        <note pan="0" vol="100" key="64" len="48" pos="9984" name="E: 48" />
        <note pan="0" vol="100" key="69" len="48" pos="10032" name="A: 48" />
        <note pan="0" vol="100" key="69" len="48" pos="10080" name="A: 48" />
        <note pan="0" vol="100" key="64" len="48" pos="10128" name="E: 48" />
        <note pan="0" vol="100" key="67" len="48" pos="10176" name="G: 48" />
        <note pan="0" vol="100" key="72" len="48" pos="10224" name="C*: 48" />
        <note pan="0" vol="100" key="72" len="48" pos="10272" name="C*: 48" />
        <note pan="0" vol="100" key="72" len="48" pos="10320" name="C*: 48" />
        <note pan="0" vol="100" key="72" len="144" pos="10368" name="C*: 144" />
        <note pan="0" vol="100" key="69" len="24" pos="10512" name="A: 24" />
        <note pan="0" vol="100" key="72" len="24" pos="10536" name="C*: 24" />
        <note pan="0" vol="100" key="72" len="48" pos="10560" name="C*: 48" />
        <note pan="0" vol="100" key="72" len="144" pos="10608" name="C*: 144" />
        <note pan="0" vol="100" key="72" len="96" pos="10752" name="C*: 96" />
        <note pan="0" vol="100" key="72" len="24" pos="10848" name="C*: 24" />
        <note pan="0" vol="100" key="67" len="72" pos="10872" name="G: 72" />
        <note pan="0" vol="100" key="69" len="48" pos="10944" name="A: 48" />
        <note pan="0" vol="100" key="72" len="48" pos="10992" name="C*: 48" />
        <note pan="0" vol="100" key="72" len="48" pos="11040" name="C*: 48" />
        <note pan="0" vol="100" key="69" len="96" pos="11088" name="A: 96" />
        <note pan="0" vol="100" key="72" len="24" pos="11184" name="C*: 24" />
        <note pan="0" vol="100" key="67" len="24" pos="11208" name="G: 24" />
        <note pan="0" vol="100" key="72" len="48" pos="11232" name="C*: 48" />
        <note pan="0" vol="100" key="72" len="48" pos="11280" name="C*: 48" />
        <note pan="0" vol="100" key="69" len="240" pos="11328" name="A: 240" />
        <note pan="0" vol="100" key="67" len="48" pos="11568" name="G: 48" />
        <note pan="0" vol="100" key="69" len="96" pos="11616" name="A: 96" />
        <note pan="0" vol="100" key="69" len="48" pos="11712" name="A: 48" />
        <note pan="0" vol="100" key="67" len="48" pos="11760" name="G: 48" />
        <note pan="0" vol="100" key="64" len="48" pos="11808" name="E: 48" />
        <note pan="0" vol="100" key="62" len="48" pos="11856" name="D: 48" />
        <note pan="0" vol="100" key="62" len="48" pos="11904" name="D: 48" />
        <note pan="0" vol="100" key="60" len="48" pos="11952" name="C: 48" />
        <note pan="0" vol="100" key="60" len="48" pos="12000" name="C: 48" />
        <note pan="0" vol="100" key="64" len="96" pos="12048" name="E: 96" />
        <note pan="0" vol="100" key="67" len="144" pos="12144" name="G: 144" />
    </midiclip>
</lmms-project>