<?xml version="1.0"?>
<!DOCTYPE lmms-project>
<lmms-project version="20" creatorversion="0.0.3" type="midiclip" creator="SWAR">
    <head/>
    <midiclip steps="16" muted="0" name="65" color="#FF58C6" type="1" pos="0">
        <note pan="0" vol="100" key="62" len="144" pos="0" name="D: 144" />
        <note pan="0" vol="100" key="62" len="96" pos="144" name="D: 96" />
        <note pan="0" vol="100" key="60" len="48" pos="240" name="C: 48" />
        <note pan="0" vol="100" key="64" len="48" pos="288" name="E: 48" />
        <note pan="0" vol="100" key="62" len="48" pos="336" name="D: 48" />
        <note pan="0" vol="100" key="67" len="48" pos="384" name="G: 48" />
        <note pan="0" vol="100" key="64" len="96" pos="432" name="E: 96" />
        <note pan="0" vol="100" key="62" len="48" pos="528" name="D: 48" />
        <note pan="0" vol="100" key="67" len="48" pos="576" name="G: 48" />
        <note pan="0" vol="100" key="67" len="96" pos="624" name="G: 96" />
        <note pan="0" vol="100" key="67" len="48" pos="720" name="G: 48" />
        <note pan="0" vol="100" key="67" len="48" pos="768" name="G: 48" />
        <note pan="0" vol="100" key="64" len="24" pos="816" name="E: 24" />
        <note pan="0" vol="100" key="60" len="24" pos="840" name="C: 24" />
        <note pan="0" vol="100" key="62" len="48" pos="864" name="D: 48" />
        <note pan="0" vol="100" key="60" len="48" pos="912" name="C: 48" />
        <note pan="0" vol="100" key="62" len="48" pos="960" name="D: 48" />
        <note pan="0" vol="100" key="60" len="48" pos="1008" name="C: 48" />
        <note pan="0" vol="100" key="64" len="96" pos="1056" name="E: 96" />
        <note pan="0" vol="100" key="62" len="48" pos="1152" name="D: 48" />
        <note pan="0" vol="100" key="62" len="48" pos="1200" name="D: 48" />
        <note pan="0" vol="100" key="62" len="48" pos="1248" name="D: 48" />
        <note pan="0" vol="100" key="64" len="48" pos="1296" name="E: 48" />
        <note pan="0" vol="100" key="67" len="48" pos="1344" name="G: 48" />
        <note pan="0" vol="100" key="69" len="48" pos="1392" name="A: 48" />
        <note pan="0" vol="100" key="69" len="144" pos="1440" name="A: 144" />
        <note pan="0" vol="100" key="72" len="48" pos="1584" name="C*: 48" />
        <note pan="0" vol="100" key="72" len="96" pos="1632" name="C*: 96" />
        <note pan="0" vol="100" key="72" len="24" pos="1728" name="C*: 24" />
        <note pan="0" vol="100" key="69" len="24" pos="1752" name="A: 24" />
        <note pan="0" vol="100" key="69" len="144" pos="1776" name="A: 144" />
        <note pan="0" vol="100" key="64" len="48" pos="1920" name="E: 48" />
        <note pan="0" vol="100" key="64" len="96" pos="1968" name="E: 96" />
        <note pan="0" vol="100" key="62" len="48" pos="2064" name="D: 48" />
        <note pan="0" vol="100" key="62" len="48" pos="2112" name="D: 48" />
        <note pan="0" vol="100" key="60" len="48" pos="2160" name="C: 48" />
        <note pan="0" vol="100" key="60" len="48" pos="2208" name="C: 48" />
        <note pan="0" vol="100" key="60" len="48" pos="2256" name="C: 48" />
        <note pan="0" vol="100" key="64" len="24" pos="2304" name="E: 24" />
        <note pan="0" vol="100" key="62" len="72" pos="2328" name="D: 72" />
        <note pan="0" vol="100" key="60" len="48" pos="2400" name="C: 48" />
        <note pan="0" vol="100" key="62" len="48" pos="2448" name="D: 48" />
        <note pan="0" vol="100" key="60" len="24" pos="2496" name="C: 24" />
        <note pan="0" vol="100" key="62" len="24" pos="2520" name="D: 24" />
        <note pan="0" vol="100" key="64" len="48" pos="2544" name="E: 48" />
        <note pan="0" vol="100" key="67" len="24" pos="2592" name="G: 24" />
        <note pan="0" vol="100" key="69" len="24" pos="2616" name="A: 24" />
        <note pan="0" vol="100" key="67" len="48" pos="2640" name="G: 48" />
        <note pan="0" vol="100" key="72" len="48" pos="2688" name="C*: 48" />
        <note pan="0" vol="100" key="72" len="48" pos="2736" name="C*: 48" />
        <note pan="0" vol="100" key="69" len="48" pos="2784" name="A: 48" />
        <note pan="0" vol="100" key="72" len="144" pos="2832" name="C*: 144" />
        <note pan="0" vol="100" key="72" len="48" pos="2976" name="C*: 48" />
        <note pan="0" vol="100" key="69" len="24" pos="3024" name="A: 24" />
        <note pan="0" vol="100" key="67" len="24" pos="3048" name="G: 24" />
        <note pan="0" vol="100" key="72" len="48" pos="3072" name="C*: 48" />
        <note pan="0" vol="100" key="67" len="48" pos="3120" name="G: 48" />
        <note pan="0" vol="100" key="72" len="48" pos="3168" name="C*: 48" />
        <note pan="0" vol="100" key="69" len="48" pos="3216" name="A: 48" />
        <note pan="0" vol="100" key="72" len="96" pos="3264" name="C*: 96" />
        <note pan="0" vol="100" key="69" len="192" pos="3360" name="A: 192" />
        <note pan="0" vol="100" key="72" len="48" pos="3552" name="C*: 48" />
        <note pan="0" vol="100" key="69" len="48" pos="3600" name="A: 48" />
        <note pan="0" vol="100" key="64" len="48" pos="3648" name="E: 48" />
        <note pan="0" vol="100" key="60" len="48" pos="3696" name="C: 48" />
        <note pan="0" vol="100" key="60" len="48" pos="3744" name="C: 48" />
        <note pan="0" vol="100" key="60" len="48" pos="3792" name="C: 48" />
        <note pan="0" vol="100" key="60" len="48" pos="3840" name="C: 48" />
        <note pan="0" vol="100" key="62" len="48" pos="3888" name="D: 48" />
        <note pan="0" vol="100" key="64" len="96" pos="3936" name="E: 96" />
        <note pan="0" vol="100" key="64" len="48" pos="4032" name="E: 48" />
        <note pan="0" vol="100" key="67" len="96" pos="4080" name="G: 96" />
        <note pan="0" vol="100" key="69" len="48" pos="4176" name="A: 48" />
        <note pan="0" vol="100" key="69" len="96" pos="4224" name="A: 96" />
        <note pan="0" vol="100" key="72" len="48" pos="4320" name="C*: 48" />
        <note pan="0" vol="100" key="72" len="48" pos="4368" name="C*: 48" />
        <note pan="0" vol="100" key="67" len="24" pos="4416" name="G: 24" />
        <note pan="0" vol="100" key="64" len="24" pos="4440" name="E: 24" />
        <note pan="0" vol="100" key="62" len="48" pos="4464" name="D: 48" />
        <note pan="0" vol="100" key="60" len="48" pos="4512" name="C: 48" />
        <note pan="0" vol="100" key="60" len="48" pos="4560" name="C: 48" />
        <note pan="0" vol="100" key="62" len="48" pos="4608" name="D: 48" />
        <note pan="0" vol="100" key="64" len="24" pos="4656" name="E: 24" />
        <note pan="0" vol="100" key="64" len="72" pos="4680" name="E: 72" />
        <note pan="0" vol="100" key="67" len="48" pos="4752" name="G: 48" />
        <note pan="0" vol="100" key="72" len="48" pos="4800" name="C*: 48" />
        <note pan="0" vol="100" key="72" len="48" pos="4848" name="C*: 48" />
        <note pan="0" vol="100" key="67" len="48" pos="4896" name="G: 48" />
        <note pan="0" vol="100" key="64" len="48" pos="4944" name="E: 48" />
        <note pan="0" vol="100" key="64" len="48" pos="4992" name="E: 48" />
        <note pan="0" vol="100" key="62" len="48" pos="5040" name="D: 48" />
        <note pan="0" vol="100" key="64" len="48" pos="5088" name="E: 48" />
        <note pan="0" vol="100" key="64" len="48" pos="5136" name="E: 48" />
        <note pan="0" vol="100" key="62" len="24" pos="5184" name="D: 24" />
        <note pan="0" vol="100" key="60" len="24" pos="5208" name="C: 24" />
        <note pan="0" vol="100" key="62" len="48" pos="5232" name="D: 48" />
        <note pan="0" vol="100" key="60" len="48" pos="5280" name="C: 48" />
        <note pan="0" vol="100" key="62" len="48" pos="5328" name="D: 48" />
        <note pan="0" vol="100" key="62" len="48" pos="5376" name="D: 48" />
        <note pan="0" vol="100" key="67" len="48" pos="5424" name="G: 48" />
        <note pan="0" vol="100" key="69" len="48" pos="5472" name="A: 48" />
        <note pan="0" vol="100" key="69" len="96" pos="5520" name="A: 96" />
        <note pan="0" vol="100" key="72" len="48" pos="5616" name="C*: 48" />
        <note pan="0" vol="100" key="72" len="48" pos="5664" name="C*: 48" />
        <note pan="0" vol="100" key="69" len="48" pos="5712" name="A: 48" />
        <note pan="0" vol="100" key="67" len="96" pos="5760" name="G: 96" />
        <note pan="0" vol="100" key="67" len="144" pos="5856" name="G: 144" />
        <note pan="0" vol="100" key="69" len="48" pos="6000" name="A: 48" />
        <note pan="0" vol="100" key="72" len="24" pos="6048" name="C*: 24" />
        <note pan="0" vol="100" key="72" len="24" pos="6072" name="C*: 24" />
        <note pan="0" vol="100" key="69" len="96" pos="6096" name="A: 96" />
        <note pan="0" vol="100" key="69" len="96" pos="6192" name="A: 96" />
        <note pan="0" vol="100" key="67" len="48" pos="6288" name="G: 48" />
        <note pan="0" vol="100" key="72" len="48" pos="6336" name="C*: 48" />
        <note pan="0" vol="100" key="69" len="48" pos="6384" name="A: 48" />
        <note pan="0" vol="100" key="67" len="96" pos="6432" name="G: 96" />
        <note pan="0" vol="100" key="62" len="24" pos="6528" name="D: 24" />
        <note pan="0" vol="100" key="62" len="24" pos="6552" name="D: 24" />
        <note pan="0" vol="100" key="62" len="48" pos="6576" name="D: 48" />
        <note pan="0" vol="100" key="60" len="144" pos="6624" name="C: 144" />
        <note pan="0" vol="100" key="60" len="96" pos="6768" name="C: 96" />
        <note pan="0" vol="100" key="62" len="96" pos="6864" name="D: 96" />
        <note pan="0" vol="100" key="62" len="144" pos="6960" name="D: 144" />
        <note pan="0" vol="100" key="64" len="48" pos="7104" name="E: 48" />
        <note pan="0" vol="100" key="60" len="24" pos="7152" name="C: 24" />
        <note pan="0" vol="100" key="60" len="72" pos="7176" name="C: 72" />
        <note pan="0" vol="100" key="64" len="48" pos="7248" name="E: 48" />
        <note pan="0" vol="100" key="67" len="144" pos="7296" name="G: 144" />
        <note pan="0" vol="100" key="67" len="48" pos="7440" name="G: 48" />
        <note pan="0" vol="100" key="69" len="96" pos="7488" name="A: 96" />
        <note pan="0" vol="100" key="72" len="48" pos="7584" name="C*: 48" />
        <note pan="0" vol="100" key="72" len="96" pos="7632" name="C*: 96" />
        <note pan="0" vol="100" key="67" len="24" pos="7728" name="G: 24" />
        <note pan="0" vol="100" key="67" len="24" pos="7752" name="G: 24" />
        <note pan="0" vol="100" key="64" len="24" pos="7776" name="E: 24" />
        <note pan="0" vol="100" key="60" len="24" pos="7800" name="C: 24" />
        <note pan="0" vol="100" key="60" len="48" pos="7824" name="C: 48" />
        <note pan="0" vol="100" key="62" len="48" pos="7872" name="D: 48" />
        <note pan="0" vol="100" key="60" len="48" pos="7920" name="C: 48" />
        <note pan="0" vol="100" key="60" len="48" pos="7968" name="C: 48" />
        <note pan="0" vol="100" key="60" len="24" pos="8016" name="C: 24" />
        <note pan="0" vol="100" key="60" len="72" pos="8040" name="C: 72" />
        <note pan="0" vol="100" key="62" len="48" pos="8112" name="D: 48" />
        <note pan="0" vol="100" key="64" len="24" pos="8160" name="E: 24" />
        <note pan="0" vol="100" key="67" len="24" pos="8184" name="G: 24" />
        <note pan="0" vol="100" key="64" len="48" pos="8208" name="E: 48" />
        <note pan="0" vol="100" key="64" len="48" pos="8256" name="E: 48" />
        <note pan="0" vol="100" key="62" len="48" pos="8304" name="D: 48" />
        <note pan="0" vol="100" key="64" len="96" pos="8352" name="E: 96" />
        <note pan="0" vol="100" key="67" len="96" pos="8448" name="G: 96" />
        <note pan="0" vol="100" key="69" len="48" pos="8544" name="A: 48" />
        <note pan="0" vol="100" key="72" len="48" pos="8592" name="C*: 48" />
        <note pan="0" vol="100" key="69" len="48" pos="8640" name="A: 48" />
        <note pan="0" vol="100" key="72" len="24" pos="8688" name="C*: 24" />
        <note pan="0" vol="100" key="72" len="24" pos="8712" name="C*: 24" />
        <note pan="0" vol="100" key="69" len="48" pos="8736" name="A: 48" />
        <note pan="0" vol="100" key="72" len="48" pos="8784" name="C*: 48" />
        <note pan="0" vol="100" key="72" len="96" pos="8832" name="C*: 96" />
        <note pan="0" vol="100" key="72" len="48" pos="8928" name="C*: 48" />
        <note pan="0" vol="100" key="67" len="48" pos="8976" name="G: 48" />
        <note pan="0" vol="100" key="64" len="48" pos="9024" name="E: 48" />
        <note pan="0" vol="100" key="62" len="48" pos="9072" name="D: 48" />
        <note pan="0" vol="100" key="67" len="48" pos="9120" name="G: 48" />
        <note pan="0" vol="100" key="69" len="96" pos="9168" name="A: 96" />
        <note pan="0" vol="100" key="67" len="48" pos="9264" name="G: 48" />
        <note pan="0" vol="100" key="64" len="48" pos="9312" name="E: 48" />
        <note pan="0" vol="100" key="64" len="48" pos="9360" name="E: 48" />
        <note pan="0" vol="100" key="64" len="48" pos="9408" name="E: 48" />
        <note pan="0" vol="100" key="67" len="48" pos="9456" name="G: 48" />
        <note pan="0" vol="100" key="72" len="96" pos="9504" name="C*: 96" />
        <note pan="0" vol="100" key="69" len="48" pos="9600" name="A: 48" />
        <note pan="0" vol="100" key="67" len="48" pos="9648" name="G: 48" />
        <note pan="0" vol="100" key="67" len="96" pos="9696" name="G: 96" />
        <note pan="0" vol="100" key="69" len="144" pos="9792" name="A: 144" />
        <note pan="0" vol="100" key="72" len="48" pos="9936" name="C*: 48" />
        <note pan="0" vol="100" key="72" len="48" pos="9984" name="C*: 48" />
        <note pan="0" vol="100" key="67" len="96" pos="10032" name="G: 96" />
        <note pan="0" vol="100" key="72" len="96" pos="10128" name="C*: 96" />
        <note pan="0" vol="100" key="72" len="48" pos="10224" name="C*: 48" />
        <note pan="0" vol="100" key="72" len="48" pos="10272" name="C*: 48" />
        <note pan="0" vol="100" key="69" len="48" pos="10320" name="A: 48" />
        <note pan="0" vol="100" key="67" len="24" pos="10368" name="G: 24" />
        <note pan="0" vol="100" key="64" len="24" pos="10392" name="E: 24" />
        <note pan="0" vol="100" key="62" len="48" pos="10416" name="D: 48" />
        <note pan="0" vol="100" key="60" len="48" pos="10464" name="C: 48" />
        <note pan="0" vol="100" key="60" len="48" pos="10512" name="C: 48" />
        <note pan="0" vol="100" key="60" len="96" pos="10560" name="C: 96" />
        <note pan="0" vol="100" key="60" len="48" pos="10656" name="C: 48" />
        <note pan="0" vol="100" key="62" len="48" pos="10704" name="D: 48" />
        <note pan="0" vol="100" key="64" len="48" pos="10752" name="E: 48" />
        <note pan="0" vol="100" key="69" len="48" pos="10800" name="A: 48" />
        <note pan="0" vol="100" key="67" len="48" pos="10848" name="G: 48" />
        <note pan="0" vol="100" key="69" len="24" pos="10896" name="A: 24" />
        <note pan="0" vol="100" key="72" len="24" pos="10920" name="C*: 24" />
        <note pan="0" vol="100" key="67" len="48" pos="10944" name="G: 48" />
        <note pan="0" vol="100" key="64" len="48" pos="10992" name="E: 48" />
        <note pan="0" vol="100" key="60" len="96" pos="11040" name="C: 96" />
        <note pan="0" vol="100" key="60" len="48" pos="11136" name="C: 48" />
        <note pan="0" vol="100" key="60" len="48" pos="11184" name="C: 48" />
        <note pan="0" vol="100" key="60" len="48" pos="11232" name="C: 48" />
        <note pan="0" vol="100" key="64" len="48" pos="11280" name="E: 48" />
        <note pan="0" vol="100" key="64" len="96" pos="11328" name="E: 96" />
        <note pan="0" vol="100" key="62" len="48" pos="11424" name="D: 48" />
        <note pan="0" vol="100" key="64" len="48" pos="11472" name="E: 48" />
        <note pan="0" vol="100" key="64" len="48" pos="11520" name="E: 48" />
        <note pan="0" vol="100" key="67" len="48" pos="11568" name="G: 48" />
        <note pan="0" vol="100" key="64" len="48" pos="11616" name="E: 48" />
        <note pan="0" vol="100" key="67" len="24" pos="11664" name="G: 24" />
        <note pan="0" vol="100" key="69" len="24" pos="11688" name="A: 24" />
        <note pan="0" vol="100" key="72" len="48" pos="11712" name="C*: 48" />
        <note pan="0" vol="100" key="67" len="24" pos="11760" name="G: 24" />
        <note pan="0" vol="100" key="69" len="72" pos="11784" name="A: 72" />
        <note pan="0" vol="100" key="72" len="48" pos="11856" name="C*: 48" />
        <note pan="0" vol="100" key="72" len="24" pos="11904" name="C*: 24" />
        <note pan="0" vol="100" key="69" len="24" pos="11928" name="A: 24" />
        <note pan="0" vol="100" key="69" len="96" pos="11952" name="A: 96" />
        <note pan="0" vol="100" key="72" len="48" pos="12048" name="C*: 48" />
        <note pan="0" vol="100" key="69" len="96" pos="12096" name="A: 96" />
        <note pan="0" vol="100" key="72" len="48" pos="12192" name="C*: 48" />
        <note pan="0" vol="100" key="69" len="48" pos="12240" name="A: 48" />
    </midiclip>
</lmms-project>