<?xml version="1.0"?>
<!DOCTYPE lmms-project>
<lmms-project version="20" creatorversion="0.0.3" type="midiclip" creator="SWAR">
    <head/>
    <midiclip steps="16" muted="0" name="72" color="#4C72B8" type="1" pos="0">
        <note pan="0" vol="100" key="60" len="48" pos="0" name="C: 48" />
        <note pan="0" vol="100" key="62" len="48" pos="48" name="D: 48" />
        <note pan="0" vol="100" key="64" len="24" pos="96" name="E: 24" />
        <note pan="0" vol="100" key="67" len="24" pos="120" name="G: 24" />
        <note pan="0" vol="100" key="69" len="96" pos="144" name="A: 96" />
        <note pan="0" vol="100" key="72" len="96" pos="240" name="C*: 96" />
        <note pan="0" vol="100" key="67" len="48" pos="336" name="G: 48" />
        <note pan="0" vol="100" key="64" len="48" pos="384" name="E: 48" />
        <note pan="0" vol="100" key="62" len="48" pos="432" name="D: 48" />
        <note pan="0" vol="100" key="64" len="96" pos="480" name="E: 96" />
        <note pan="0" vol="100" key="60" len="48" pos="576" name="C: 48" />
        <note pan="0" vol="100" key="62" len="48" pos="624" name="D: 48" />
        <note pan="0" vol="100" key="60" len="48" pos="672" name="C: 48" />
        <note pan="0" vol="100" key="62" len="192" pos="720" name="D: 192" />
        <note pan="0" vol="100" key="64" len="96" pos="912" name="E: 96" />
        <note pan="0" vol="100" key="67" len="48" pos="1008" name="G: 48" />
        <note pan="0" vol="100" key="72" len="24" pos="1056" name="C*: 24" />
        <note pan="0" vol="100" key="72" len="72" pos="1080" name="C*: 72" />
        <note pan="0" vol="100" key="72" len="48" pos="1152" name="C*: 48" />
        <note pan="0" vol="100" key="69" len="96" pos="1200" name="A: 96" />
        <note pan="0" vol="100" key="67" len="48" pos="1296" name="G: 48" />
        <note pan="0" vol="100" key="64" len="96" pos="1344" name="E: 96" />
        <note pan="0" vol="100" key="62" len="96" pos="1440" name="D: 96" />
        <note pan="0" vol="100" key="60" len="48" pos="1536" name="C: 48" />
        <note pan="0" vol="100" key="62" len="48" pos="1584" name="D: 48" />
        <note pan="0" vol="100" key="67" len="48" pos="1632" name="G: 48" />
        <note pan="0" vol="100" key="67" len="48" pos="1680" name="G: 48" />
        <note pan="0" vol="100" key="64" len="24" pos="1728" name="E: 24" />
        <note pan="0" vol="100" key="67" len="24" pos="1752" name="G: 24" />
        <note pan="0" vol="100" key="69" len="48" pos="1776" name="A: 48" />
        <note pan="0" vol="100" key="72" len="48" pos="1824" name="C*: 48" />
        <note pan="0" vol="100" key="72" len="48" pos="1872" name="C*: 48" />
        <note pan="0" vol="100" key="69" len="48" pos="1920" name="A: 48" />
        <note pan="0" vol="100" key="67" len="48" pos="1968" name="G: 48" />
        <note pan="0" vol="100" key="64" len="48" pos="2016" name="E: 48" />
        <note pan="0" vol="100" key="62" len="48" pos="2064" name="D: 48" />
        <note pan="0" vol="100" key="64" len="48" pos="2112" name="E: 48" />
        <note pan="0" vol="100" key="62" len="48" pos="2160" name="D: 48" />
        <note pan="0" vol="100" key="60" len="48" pos="2208" name="C: 48" />
        <note pan="0" vol="100" key="60" len="48" pos="2256" name="C: 48" />
        <note pan="0" vol="100" key="62" len="48" pos="2304" name="D: 48" />
        <note pan="0" vol="100" key="64" len="48" pos="2352" name="E: 48" />
        <note pan="0" vol="100" key="67" len="96" pos="2400" name="G: 96" />
        <note pan="0" vol="100" key="67" len="48" pos="2496" name="G: 48" />
        <note pan="0" vol="100" key="69" len="48" pos="2544" name="A: 48" />
        <note pan="0" vol="100" key="72" len="144" pos="2592" name="C*: 144" />
        <note pan="0" vol="100" key="72" len="48" pos="2736" name="C*: 48" />
        <note pan="0" vol="100" key="72" len="48" pos="2784" name="C*: 48" />
        <note pan="0" vol="100" key="69" len="24" pos="2832" name="A: 24" />
        <note pan="0" vol="100" key="67" len="24" pos="2856" name="G: 24" />
        <note pan="0" vol="100" key="64" len="48" pos="2880" name="E: 48" />
        <note pan="0" vol="100" key="62" len="48" pos="2928" name="D: 48" />
        <note pan="0" vol="100" key="60" len="48" pos="2976" name="C: 48" />
        <note pan="0" vol="100" key="62" len="48" pos="3024" name="D: 48" />
        <note pan="0" vol="100" key="64" len="48" pos="3072" name="E: 48" />
        <note pan="0" vol="100" key="67" len="96" pos="3120" name="G: 96" />
        <note pan="0" vol="100" key="67" len="48" pos="3216" name="G: 48" />
        <note pan="0" vol="100" key="72" len="48" pos="3264" name="C*: 48" />
        <note pan="0" vol="100" key="72" len="96" pos="3312" name="C*: 96" />
        <note pan="0" vol="100" key="72" len="24" pos="3408" name="C*: 24" />
        <note pan="0" vol="100" key="69" len="24" pos="3432" name="A: 24" />
        <note pan="0" vol="100" key="72" len="48" pos="3456" name="C*: 48" />
        <note pan="0" vol="100" key="69" len="96" pos="3504" name="A: 96" />
        <note pan="0" vol="100" key="67" len="48" pos="3600" name="G: 48" />
        <note pan="0" vol="100" key="64" len="96" pos="3648" name="E: 96" />
        <note pan="0" vol="100" key="62" len="96" pos="3744" name="D: 96" />
        <note pan="0" vol="100" key="60" len="192" pos="3840" name="C: 192" />
        <note pan="0" vol="100" key="60" len="48" pos="4032" name="C: 48" />
        <note pan="0" vol="100" key="60" len="144" pos="4080" name="C: 144" />
        <note pan="0" vol="100" key="60" len="96" pos="4224" name="C: 96" />
        <note pan="0" vol="100" key="60" len="48" pos="4320" name="C: 48" />
        <note pan="0" vol="100" key="60" len="144" pos="4368" name="C: 144" />
        <note pan="0" vol="100" key="62" len="48" pos="4512" name="D: 48" />
        <note pan="0" vol="100" key="64" len="48" pos="4560" name="E: 48" />
        <note pan="0" vol="100" key="60" len="48" pos="4608" name="C: 48" />
        <note pan="0" vol="100" key="60" len="96" pos="4656" name="C: 96" />
        <note pan="0" vol="100" key="60" len="48" pos="4752" name="C: 48" />
        <note pan="0" vol="100" key="60" len="96" pos="4800" name="C: 96" />
        <note pan="0" vol="100" key="62" len="48" pos="4896" name="D: 48" />
        <note pan="0" vol="100" key="62" len="96" pos="4944" name="D: 96" />
        <note pan="0" vol="100" key="67" len="24" pos="5040" name="G: 24" />
        <note pan="0" vol="100" key="62" len="24" pos="5064" name="D: 24" />
        <note pan="0" vol="100" key="67" len="24" pos="5088" name="G: 24" />
        <note pan="0" vol="100" key="69" len="120" pos="5112" name="A: 120" />
        <note pan="0" vol="100" key="67" len="48" pos="5232" name="G: 48" />
        <note pan="0" vol="100" key="69" len="48" pos="5280" name="A: 48" />
        <note pan="0" vol="100" key="72" len="24" pos="5328" name="C*: 24" />
        <note pan="0" vol="100" key="69" len="24" pos="5352" name="A: 24" />
        <note pan="0" vol="100" key="72" len="96" pos="5376" name="C*: 96" />
        <note pan="0" vol="100" key="69" len="48" pos="5472" name="A: 48" />
        <note pan="0" vol="100" key="67" len="48" pos="5520" name="G: 48" />
        <note pan="0" vol="100" key="72" len="144" pos="5568" name="C*: 144" />
        <note pan="0" vol="100" key="69" len="48" pos="5712" name="A: 48" />
        <note pan="0" vol="100" key="67" len="48" pos="5760" name="G: 48" />
        <note pan="0" vol="100" key="64" len="48" pos="5808" name="E: 48" />
        <note pan="0" vol="100" key="69" len="48" pos="5856" name="A: 48" />
        <note pan="0" vol="100" key="67" len="48" pos="5904" name="G: 48" />
        <note pan="0" vol="100" key="72" len="48" pos="5952" name="C*: 48" />
        <note pan="0" vol="100" key="72" len="48" pos="6000" name="C*: 48" />
        <note pan="0" vol="100" key="69" len="48" pos="6048" name="A: 48" />
        <note pan="0" vol="100" key="67" len="144" pos="6096" name="G: 144" />
        <note pan="0" vol="100" key="67" len="96" pos="6240" name="G: 96" />
        <note pan="0" vol="100" key="72" len="48" pos="6336" name="C*: 48" />
        <note pan="0" vol="100" key="72" len="96" pos="6384" name="C*: 96" />
        <note pan="0" vol="100" key="72" len="48" pos="6480" name="C*: 48" />
        <note pan="0" vol="100" key="69" len="48" pos="6528" name="A: 48" />
        <note pan="0" vol="100" key="72" len="48" pos="6576" name="C*: 48" />
        <note pan="0" vol="100" key="69" len="48" pos="6624" name="A: 48" />
        <note pan="0" vol="100" key="72" len="48" pos="6672" name="C*: 48" />
        <note pan="0" vol="100" key="69" len="48" pos="6720" name="A: 48" />
        <note pan="0" vol="100" key="64" len="48" pos="6768" name="E: 48" />
        <note pan="0" vol="100" key="64" len="48" pos="6816" name="E: 48" />
        <note pan="0" vol="100" key="64" len="24" pos="6864" name="E: 24" />
        <note pan="0" vol="100" key="67" len="120" pos="6888" name="G: 120" />
        <note pan="0" vol="100" key="69" len="24" pos="7008" name="A: 24" />
        <note pan="0" vol="100" key="72" len="24" pos="7032" name="C*: 24" />
        <note pan="0" vol="100" key="72" len="192" pos="7056" name="C*: 192" />
        <note pan="0" vol="100" key="67" len="48" pos="7248" name="G: 48" />
        <note pan="0" vol="100" key="64" len="48" pos="7296" name="E: 48" />
        <note pan="0" vol="100" key="60" len="48" pos="7344" name="C: 48" />
        <note pan="0" vol="100" key="62" len="48" pos="7392" name="D: 48" />
        <note pan="0" vol="100" key="64" len="96" pos="7440" name="E: 96" />
        <note pan="0" vol="100" key="67" len="48" pos="7536" name="G: 48" />
        <note pan="0" vol="100" key="69" len="192" pos="7584" name="A: 192" />
        <note pan="0" vol="100" key="72" len="48" pos="7776" name="C*: 48" />
        <note pan="0" vol="100" key="69" len="96" pos="7824" name="A: 96" />
        <note pan="0" vol="100" key="69" len="96" pos="7920" name="A: 96" />
        <note pan="0" vol="100" key="72" len="144" pos="8016" name="C*: 144" />
        <note pan="0" vol="100" key="72" len="24" pos="8160" name="C*: 24" />
        <note pan="0" vol="100" key="69" len="24" pos="8184" name="A: 24" />
        <note pan="0" vol="100" key="69" len="48" pos="8208" name="A: 48" />
        <note pan="0" vol="100" key="72" len="48" pos="8256" name="C*: 48" />
        <note pan="0" vol="100" key="69" len="24" pos="8304" name="A: 24" />
        <note pan="0" vol="100" key="69" len="24" pos="8328" name="A: 24" />
        <note pan="0" vol="100" key="69" len="48" pos="8352" name="A: 48" />
        <note pan="0" vol="100" key="67" len="48" pos="8400" name="G: 48" />
        <note pan="0" vol="100" key="64" len="48" pos="8448" name="E: 48" />
        <note pan="0" vol="100" key="60" len="48" pos="8496" name="C: 48" />
        <note pan="0" vol="100" key="64" len="96" pos="8544" name="E: 96" />
        <note pan="0" vol="100" key="62" len="96" pos="8640" name="D: 96" />
        <note pan="0" vol="100" key="60" len="48" pos="8736" name="C: 48" />
        <note pan="0" vol="100" key="62" len="48" pos="8784" name="D: 48" />
        <note pan="0" vol="100" key="64" len="48" pos="8832" name="E: 48" />
        <note pan="0" vol="100" key="67" len="96" pos="8880" name="G: 96" />
        <note pan="0" vol="100" key="67" len="48" pos="8976" name="G: 48" />
        <note pan="0" vol="100" key="69" len="48" pos="9024" name="A: 48" />
        <note pan="0" vol="100" key="72" len="48" pos="9072" name="C*: 48" />
        <note pan="0" vol="100" key="72" len="48" pos="9120" name="C*: 48" />
        <note pan="0" vol="100" key="69" len="48" pos="9168" name="A: 48" />
        <note pan="0" vol="100" key="72" len="24" pos="9216" name="C*: 24" />
        <note pan="0" vol="100" key="72" len="24" pos="9240" name="C*: 24" />
        <note pan="0" vol="100" key="69" len="96" pos="9264" name="A: 96" />
        <note pan="0" vol="100" key="67" len="48" pos="9360" name="G: 48" />
        <note pan="0" vol="100" key="69" len="48" pos="9408" name="A: 48" />
        <note pan="0" vol="100" key="72" len="96" pos="9456" name="C*: 96" />
        <note pan="0" vol="100" key="72" len="48" pos="9552" name="C*: 48" />
        <note pan="0" vol="100" key="72" len="48" pos="9600" name="C*: 48" />
        <note pan="0" vol="100" key="67" len="48" pos="9648" name="G: 48" />
        <note pan="0" vol="100" key="62" len="48" pos="9696" name="D: 48" />
        <note pan="0" vol="100" key="64" len="24" pos="9744" name="E: 24" />
        <note pan="0" vol="100" key="67" len="72" pos="9768" name="G: 72" />
        <note pan="0" vol="100" key="67" len="24" pos="9840" name="G: 24" />
        <note pan="0" vol="100" key="67" len="24" pos="9864" name="G: 24" />
        <note pan="0" vol="100" key="69" len="48" pos="9888" name="A: 48" />
        <note pan="0" vol="100" key="72" len="96" pos="9936" name="C*: 96" />
        <note pan="0" vol="100" key="72" len="48" pos="10032" name="C*: 48" />
        <note pan="0" vol="100" key="67" len="48" pos="10080" name="G: 48" />
        <note pan="0" vol="100" key="67" len="96" pos="10128" name="G: 96" />
        <note pan="0" vol="100" key="62" len="48" pos="10224" name="D: 48" />
        <note pan="0" vol="100" key="60" len="48" pos="10272" name="C: 48" />
        <note pan="0" vol="100" key="60" len="96" pos="10320" name="C: 96" />
        <note pan="0" vol="100" key="62" len="48" pos="10416" name="D: 48" />
        <note pan="0" vol="100" key="60" len="48" pos="10464" name="C: 48" />
        <note pan="0" vol="100" key="60" len="48" pos="10512" name="C: 48" />
        <note pan="0" vol="100" key="60" len="48" pos="10560" name="C: 48" />
        <note pan="0" vol="100" key="60" len="48" pos="10608" name="C: 48" />
        <note pan="0" vol="100" key="60" len="192" pos="10656" name="C: 192" />
        <note pan="0" vol="100" key="62" len="24" pos="10848" name="D: 24" />
        <note pan="0" vol="100" key="67" len="72" pos="10872" name="G: 72" />
        <note pan="0" vol="100" key="64" len="96" pos="10944" name="E: 96" />
        <note pan="0" vol="100" key="62" len="48" pos="11040" name="D: 48" />
        <note pan="0" vol="100" key="60" len="144" pos="11088" name="C: 144" />
        <note pan="0" vol="100" key="60" len="48" pos="11232" name="C: 48" />
        <note pan="0" vol="100" key="62" len="24" pos="11280" name="D: 24" />
        <note pan="0" vol="100" key="62" len="24" pos="11304" name="D: 24" />
        <note pan="0" vol="100" key="64" len="24" pos="11328" name="E: 24" />
        <note pan="0" vol="100" key="67" len="24" pos="11352" name="G: 24" />
        <note pan="0" vol="100" key="69" len="48" pos="11376" name="A: 48" />
        <note pan="0" vol="100" key="64" len="96" pos="11424" name="E: 96" />
        <note pan="0" vol="100" key="60" len="48" pos="11520" name="C: 48" />
        <note pan="0" vol="100" key="64" len="48" pos="11568" name="E: 48" />
        <note pan="0" vol="100" key="67" len="48" pos="11616" name="G: 48" />
        <note pan="0" vol="100" key="69" len="96" pos="11664" name="A: 96" />
        <note pan="0" vol="100" key="69" len="48" pos="11760" name="A: 48" />
        <note pan="0" vol="100" key="69" len="48" pos="11808" name="A: 48" />
        <note pan="0" vol="100" key="67" len="48" pos="11856" name="G: 48" />
        <note pan="0" vol="100" key="69" len="48" pos="11904" name="A: 48" />
        <note pan="0" vol="100" key="72" len="48" pos="11952" name="C*: 48" />
        <note pan="0" vol="100" key="72" len="96" pos="12000" name="C*: 96" />
        <note pan="0" vol="100" key="72" len="48" pos="12096" name="C*: 48" />
        <note pan="0" vol="100" key="72" len="48" pos="12144" name="C*: 48" />
        <note pan="0" vol="100" key="72" len="24" pos="12192" name="C*: 24" />
        <note pan="0" vol="100" key="69" len="72" pos="12216" name="A: 72" />
    </midiclip>
</lmms-project>