<?xml version="1.0"?>
<!DOCTYPE lmms-project>
<lmms-project version="20" creatorversion="0.0.3" type="midiclip" creator="SWAR">
    <head/>
    <midiclip steps="16" muted="0" name="86" color="#786C50" type="1" pos="0">
        <note pan="0" vol="100" key="62" len="24" pos="0" name="D: 24" />
        <note pan="0" vol="100" key="64" len="24" pos="24" name="E: 24" />
        <note pan="0" vol="100" key="67" len="48" pos="48" name="G: 48" />
        <note pan="0" vol="100" key="69" len="48" pos="96" name="A: 48" />
        <note pan="0" vol="100" key="72" len="48" pos="144" name="C*: 48" />
        <note pan="0" vol="100" key="72" len="48" pos="192" name="C*: 48" />
        <note pan="0" vol="100" key="69" len="96" pos="240" name="A: 96" />
        <note pan="0" vol="100" key="64" len="48" pos="336" name="E: 48" />
        <note pan="0" vol="100" key="67" len="96" pos="384" name="G: 96" />
        <note pan="0" vol="100" key="67" len="96" pos="480" name="G: 96" />
        <note pan="0" vol="100" key="64" len="240" pos="576" name="E: 240" />
        <note pan="0" vol="100" key="62" len="48" pos="816" name="D: 48" />
        <note pan="0" vol="100" key="60" len="48" pos="864" name="C: 48" />
        <note pan="0" vol="100" key="62" len="48" pos="912" name="D: 48" />
        <note pan="0" vol="100" key="60" len="48" pos="960" name="C: 48" />
        <note pan="0" vol="100" key="60" len="96" pos="1008" name="C: 96" />
        <note pan="0" vol="100" key="62" len="48" pos="1104" name="D: 48" />
        <note pan="0" vol="100" key="60" len="48" pos="1152" name="C: 48" />
        <note pan="0" vol="100" key="60" len="48" pos="1200" name="C: 48" />
        <note pan="0" vol="100" key="62" len="48" pos="1248" name="D: 48" />
        <note pan="0" vol="100" key="64" len="96" pos="1296" name="E: 96" />
        <note pan="0" vol="100" key="60" len="24" pos="1392" name="C: 24" />
        <note pan="0" vol="100" key="60" len="24" pos="1416" name="C: 24" />
        <note pan="0" vol="100" key="62" len="48" pos="1440" name="D: 48" />
        <note pan="0" vol="100" key="60" len="24" pos="1488" name="C: 24" />
        <note pan="0" vol="100" key="62" len="24" pos="1512" name="D: 24" />
        <note pan="0" vol="100" key="64" len="96" pos="1536" name="E: 96" />
        <note pan="0" vol="100" key="64" len="48" pos="1632" name="E: 48" />
        <note pan="0" vol="100" key="67" len="48" pos="1680" name="G: 48" />
        <note pan="0" vol="100" key="69" len="48" pos="1728" name="A: 48" />
        <note pan="0" vol="100" key="67" len="96" pos="1776" name="G: 96" />
        <note pan="0" vol="100" key="69" len="24" pos="1872" name="A: 24" />
        <note pan="0" vol="100" key="69" len="120" pos="1896" name="A: 120" />
        <note pan="0" vol="100" key="72" len="48" pos="2016" name="C*: 48" />
        <note pan="0" vol="100" key="72" len="96" pos="2064" name="C*: 96" />
        <note pan="0" vol="100" key="72" len="288" pos="2160" name="C*: 288" />
        <note pan="0" vol="100" key="67" len="48" pos="2448" name="G: 48" />
        <note pan="0" vol="100" key="64" len="24" pos="2496" name="E: 24" />
        <note pan="0" vol="100" key="64" len="24" pos="2520" name="E: 24" />
        <note pan="0" vol="100" key="60" len="48" pos="2544" name="C: 48" />
        <note pan="0" vol="100" key="60" len="96" pos="2592" name="C: 96" />
        <note pan="0" vol="100" key="62" len="48" pos="2688" name="D: 48" />
        <note pan="0" vol="100" key="64" len="48" pos="2736" name="E: 48" />
        <note pan="0" vol="100" key="64" len="48" pos="2784" name="E: 48" />
        <note pan="0" vol="100" key="67" len="96" pos="2832" name="G: 96" />
        <note pan="0" vol="100" key="62" len="48" pos="2928" name="D: 48" />
        <note pan="0" vol="100" key="64" len="48" pos="2976" name="E: 48" />
        <note pan="0" vol="100" key="67" len="48" pos="3024" name="G: 48" />
        <note pan="0" vol="100" key="62" len="24" pos="3072" name="D: 24" />
        <note pan="0" vol="100" key="67" len="24" pos="3096" name="G: 24" />
        <note pan="0" vol="100" key="69" len="48" pos="3120" name="A: 48" />
        <note pan="0" vol="100" key="72" len="24" pos="3168" name="C*: 24" />
        <note pan="0" vol="100" key="67" len="24" pos="3192" name="G: 24" />
        <note pan="0" vol="100" key="67" len="96" pos="3216" name="G: 96" />
        <note pan="0" vol="100" key="67" len="48" pos="3312" name="G: 48" />
        <note pan="0" vol="100" key="69" len="48" pos="3360" name="A: 48" />
        <note pan="0" vol="100" key="72" len="48" pos="3408" name="C*: 48" />
        <note pan="0" vol="100" key="72" len="48" pos="3456" name="C*: 48" />
        <note pan="0" vol="100" key="69" len="192" pos="3504" name="A: 192" />
        <note pan="0" vol="100" key="72" len="48" pos="3696" name="C*: 48" />
        <note pan="0" vol="100" key="72" len="96" pos="3744" name="C*: 96" />
        <note pan="0" vol="100" key="69" len="48" pos="3840" name="A: 48" />
        <note pan="0" vol="100" key="67" len="48" pos="3888" name="G: 48" />
        <note pan="0" vol="100" key="72" len="48" pos="3936" name="C*: 48" />
        <note pan="0" vol="100" key="69" len="48" pos="3984" name="A: 48" />
        <note pan="0" vol="100" key="64" len="48" pos="4032" name="E: 48" />
        <note pan="0" vol="100" key="62" len="24" pos="4080" name="D: 24" />
        <note pan="0" vol="100" key="60" len="24" pos="4104" name="C: 24" />
        <note pan="0" vol="100" key="60" len="48" pos="4128" name="C: 48" />
        <note pan="0" vol="100" key="62" len="48" pos="4176" name="D: 48" />
        <note pan="0" vol="100" key="60" len="24" pos="4224" name="C: 24" />
        <note pan="0" vol="100" key="60" len="24" pos="4248" name="C: 24" />
        <note pan="0" vol="100" key="64" len="48" pos="4272" name="E: 48" />
        <note pan="0" vol="100" key="67" len="48" pos="4320" name="G: 48" />
        <note pan="0" vol="100" key="62" len="96" pos="4368" name="D: 96" />
        <note pan="0" vol="100" key="64" len="48" pos="4464" name="E: 48" />
        <note pan="0" vol="100" key="67" len="48" pos="4512" name="G: 48" />
        <note pan="0" vol="100" key="69" len="96" pos="4560" name="A: 96" />
        <note pan="0" vol="100" key="72" len="48" pos="4656" name="C*: 48" />
        <note pan="0" vol="100" key="69" len="48" pos="4704" name="A: 48" />
        <note pan="0" vol="100" key="69" len="48" pos="4752" name="A: 48" />
        <note pan="0" vol="100" key="72" len="96" pos="4800" name="C*: 96" />
        <note pan="0" vol="100" key="72" len="48" pos="4896" name="C*: 48" />
        <note pan="0" vol="100" key="69" len="48" pos="4944" name="A: 48" />
        <note pan="0" vol="100" key="67" len="48" pos="4992" name="G: 48" />
        <note pan="0" vol="100" key="64" len="48" pos="5040" name="E: 48" />
        <note pan="0" vol="100" key="60" len="48" pos="5088" name="C: 48" />
        <note pan="0" vol="100" key="62" len="24" pos="5136" name="D: 24" />
        <note pan="0" vol="100" key="60" len="24" pos="5160" name="C: 24" />
        <note pan="0" vol="100" key="62" len="24" pos="5184" name="D: 24" />
        <note pan="0" vol="100" key="62" len="24" pos="5208" name="D: 24" />
        <note pan="0" vol="100" key="62" len="48" pos="5232" name="D: 48" />
        <note pan="0" vol="100" key="64" len="48" pos="5280" name="E: 48" />
        <note pan="0" vol="100" key="67" len="48" pos="5328" name="G: 48" />
        <note pan="0" vol="100" key="69" len="24" pos="5376" name="A: 24" />
        <note pan="0" vol="100" key="72" len="72" pos="5400" name="C*: 72" />
        <note pan="0" vol="100" key="72" len="48" pos="5472" name="C*: 48" />
        <note pan="0" vol="100" key="72" len="48" pos="5520" name="C*: 48" />
        <note pan="0" vol="100" key="69" len="48" pos="5568" name="A: 48" />
        <note pan="0" vol="100" key="72" len="48" pos="5616" name="C*: 48" />
        <note pan="0" vol="100" key="72" len="96" pos="5664" name="C*: 96" />
        <note pan="0" vol="100" key="69" len="96" pos="5760" name="A: 96" />
        <note pan="0" vol="100" key="72" len="96" pos="5856" name="C*: 96" />
        <note pan="0" vol="100" key="69" len="48" pos="5952" name="A: 48" />
        <note pan="0" vol="100" key="67" len="48" pos="6000" name="G: 48" />
        <note pan="0" vol="100" key="64" len="96" pos="6048" name="E: 96" />
        <note pan="0" vol="100" key="67" len="48" pos="6144" name="G: 48" />
        <note pan="0" vol="100" key="64" len="24" pos="6192" name="E: 24" />
        <note pan="0" vol="100" key="62" len="24" pos="6216" name="D: 24" />
        <note pan="0" vol="100" key="64" len="48" pos="6240" name="E: 48" />
        <note pan="0" vol="100" key="62" len="48" pos="6288" name="D: 48" />
        <note pan="0" vol="100" key="60" len="48" pos="6336" name="C: 48" />
        <note pan="0" vol="100" key="60" len="48" pos="6384" name="C: 48" />
        <note pan="0" vol="100" key="62" len="48" pos="6432" name="D: 48" />
        <note pan="0" vol="100" key="62" len="144" pos="6480" name="D: 144" />
        <note pan="0" vol="100" key="64" len="48" pos="6624" name="E: 48" />
        <note pan="0" vol="100" key="64" len="24" pos="6672" name="E: 24" />
        <note pan="0" vol="100" key="67" len="72" pos="6696" name="G: 72" />
        <note pan="0" vol="100" key="69" len="48" pos="6768" name="A: 48" />
        <note pan="0" vol="100" key="72" len="48" pos="6816" name="C*: 48" />
        <note pan="0" vol="100" key="72" len="24" pos="6864" name="C*: 24" />
        <note pan="0" vol="100" key="72" len="24" pos="6888" name="C*: 24" />
        <note pan="0" vol="100" key="72" len="96" pos="6912" name="C*: 96" />
        <note pan="0" vol="100" key="69" len="48" pos="7008" name="A: 48" />
        <note pan="0" vol="100" key="72" len="48" pos="7056" name="C*: 48" />
        <note pan="0" vol="100" key="69" len="96" pos="7104" name="A: 96" />
        <note pan="0" vol="100" key="67" len="48" pos="7200" name="G: 48" />
        <note pan="0" vol="100" key="64" len="48" pos="7248" name="E: 48" />
        <note pan="0" vol="100" key="69" len="48" pos="7296" name="A: 48" />
        <note pan="0" vol="100" key="67" len="96" pos="7344" name="G: 96" />
        <note pan="0" vol="100" key="69" len="48" pos="7440" name="A: 48" />
        <note pan="0" vol="100" key="67" len="144" pos="7488" name="G: 144" />
        <note pan="0" vol="100" key="64" len="48" pos="7632" name="E: 48" />
        <note pan="0" vol="100" key="69" len="24" pos="7680" name="A: 24" />
        <note pan="0" vol="100" key="67" len="24" pos="7704" name="G: 24" />
        <note pan="0" vol="100" key="64" len="48" pos="7728" name="E: 48" />
        <note pan="0" vol="100" key="67" len="96" pos="7776" name="G: 96" />
        <note pan="0" vol="100" key="64" len="48" pos="7872" name="E: 48" />
        <note pan="0" vol="100" key="67" len="48" pos="7920" name="G: 48" />
        <note pan="0" vol="100" key="67" len="96" pos="7968" name="G: 96" />
        <note pan="0" vol="100" key="64" len="48" pos="8064" name="E: 48" />
        <note pan="0" vol="100" key="69" len="96" pos="8112" name="A: 96" />
        <note pan="0" vol="100" key="72" len="48" pos="8208" name="C*: 48" />
        <note pan="0" vol="100" key="72" len="48" pos="8256" name="C*: 48" />
        <note pan="0" vol="100" key="69" len="144" pos="8304" name="A: 144" />
        <note pan="0" vol="100" key="64" len="48" pos="8448" name="E: 48" />
        <note pan="0" vol="100" key="69" len="144" pos="8496" name="A: 144" />
        <note pan="0" vol="100" key="67" len="48" pos="8640" name="G: 48" />
        <note pan="0" vol="100" key="62" len="48" pos="8688" name="D: 48" />
        <note pan="0" vol="100" key="60" len="48" pos="8736" name="C: 48" />
        <note pan="0" vol="100" key="60" len="24" pos="8784" name="C: 24" />
        <note pan="0" vol="100" key="60" len="24" pos="8808" name="C: 24" />
        <note pan="0" vol="100" key="64" len="96" pos="8832" name="E: 96" />
        <note pan="0" vol="100" key="69" len="48" pos="8928" name="A: 48" />
        <note pan="0" vol="100" key="64" len="144" pos="8976" name="E: 144" />
        <note pan="0" vol="100" key="69" len="96" pos="9120" name="A: 96" />
        <note pan="0" vol="100" key="67" len="48" pos="9216" name="G: 48" />
        <note pan="0" vol="100" key="67" len="48" pos="9264" name="G: 48" />
        <note pan="0" vol="100" key="67" len="96" pos="9312" name="G: 96" />
        <note pan="0" vol="100" key="67" len="48" pos="9408" name="G: 48" />
        <note pan="0" vol="100" key="62" len="96" pos="9456" name="D: 96" />
        <note pan="0" vol="100" key="64" len="48" pos="9552" name="E: 48" />
        <note pan="0" vol="100" key="67" len="48" pos="9600" name="G: 48" />
        <note pan="0" vol="100" key="69" len="48" pos="9648" name="A: 48" />
        <note pan="0" vol="100" key="72" len="48" pos="9696" name="C*: 48" />
        <note pan="0" vol="100" key="72" len="24" pos="9744" name="C*: 24" />
        <note pan="0" vol="100" key="69" len="24" pos="9768" name="A: 24" />
        <note pan="0" vol="100" key="64" len="96" pos="9792" name="E: 96" />
        <note pan="0" vol="100" key="62" len="48" pos="9888" name="D: 48" />
        <note pan="0" vol="100" key="60" len="24" pos="9936" name="C: 24" />
        <note pan="0" vol="100" key="60" len="24" pos="9960" name="C: 24" />
        <note pan="0" vol="100" key="62" len="48" pos="9984" name="D: 48" />
        <note pan="0" vol="100" key="62" len="48" pos="10032" name="D: 48" />
        <note pan="0" vol="100" key="64" len="48" pos="10080" name="E: 48" />
        <note pan="0" vol="100" key="67" len="48" pos="10128" name="G: 48" />
        <note pan="0" vol="100" key="62" len="48" pos="10176" name="D: 48" />
        <note pan="0" vol="100" key="67" len="48" pos="10224" name="G: 48" />
        <note pan="0" vol="100" key="64" len="24" pos="10272" name="E: 24" />
        <note pan="0" vol="100" key="67" len="24" pos="10296" name="G: 24" />
        <note pan="0" vol="100" key="64" len="24" pos="10320" name="E: 24" />
        <note pan="0" vol="100" key="69" len="24" pos="10344" name="A: 24" />
        <note pan="0" vol="100" key="72" len="48" pos="10368" name="C*: 48" />
        <note pan="0" vol="100" key="72" len="48" pos="10416" name="C*: 48" />
        <note pan="0" vol="100" key="69" len="144" pos="10464" name="A: 144" />
        <note pan="0" vol="100" key="69" len="48" pos="10608" name="A: 48" />
        <note pan="0" vol="100" key="67" len="24" pos="10656" name="G: 24" />
        <note pan="0" vol="100" key="67" len="24" pos="10680" name="G: 24" />
        <note pan="0" vol="100" key="64" len="48" pos="10704" name="E: 48" />
        <note pan="0" vol="100" key="62" len="48" pos="10752" name="D: 48" />
        <note pan="0" vol="100" key="60" len="48" pos="10800" name="C: 48" />
        <note pan="0" vol="100" key="60" len="48" pos="10848" name="C: 48" />
        <note pan="0" vol="100" key="62" len="48" pos="10896" name="D: 48" />
        <note pan="0" vol="100" key="64" len="48" pos="10944" name="E: 48" />
        <note pan="0" vol="100" key="67" len="48" pos="10992" name="G: 48" />
        <note pan="0" vol="100" key="69" len="48" pos="11040" name="A: 48" />
        <note pan="0" vol="100" key="72" len="96" pos="11088" name="C*: 96" />
        <note pan="0" vol="100" key="72" len="48" pos="11184" name="C*: 48" />
        <note pan="0" vol="100" key="72" len="48" pos="11232" name="C*: 48" />
        <note pan="0" vol="100" key="69" len="48" pos="11280" name="A: 48" />
        <note pan="0" vol="100" key="69" len="48" pos="11328" name="A: 48" />
        <note pan="0" vol="100" key="67" len="48" pos="11376" name="G: 48" />
        <note pan="0" vol="100" key="62" len="96" pos="11424" name="D: 96" />
        <note pan="0" vol="100" key="62" len="48" pos="11520" name="D: 48" />
        <note pan="0" vol="100" key="60" len="48" pos="11568" name="C: 48" />
        <note pan="0" vol="100" key="64" len="48" pos="11616" name="E: 48" />
        <note pan="0" vol="100" key="62" len="48" pos="11664" name="D: 48" />
        <note pan="0" vol="100" key="60" len="48" pos="11712" name="C: 48" />
        <note pan="0" vol="100" key="62" len="96" pos="11760" name="D: 96" />
        <note pan="0" vol="100" key="67" len="48" pos="11856" name="G: 48" />
        <note pan="0" vol="100" key="67" len="24" pos="11904" name="G: 24" />
        <note pan="0" vol="100" key="67" len="24" pos="11928" name="G: 24" />
        <note pan="0" vol="100" key="67" len="48" pos="11952" name="G: 48" />
        <note pan="0" vol="100" key="69" len="48" pos="12000" name="A: 48" />
        <note pan="0" vol="100" key="64" len="48" pos="12048" name="E: 48" />
        <note pan="0" vol="100" key="67" len="48" pos="12096" name="G: 48" />
        <note pan="0" vol="100" key="67" len="48" pos="12144" name="G: 48" />
        <note pan="0" vol="100" key="64" len="48" pos="12192" name="E: 48" />
        <note pan="0" vol="100" key="67" len="48" pos="12240" name="G: 48" />
    </midiclip>
</lmms-project>