<?xml version="1.0"?>
<!DOCTYPE lmms-project>
<lmms-project version="20" creatorversion="0.0.3" type="midiclip" creator="SWAR">
    <head/>
    <midiclip steps="16" muted="0" name="95" color="#FF58C6" type="1" pos="0">
        <note pan="0" vol="100" key="62" len="96" pos="0" name="D: 96" />
        <note pan="0" vol="100" key="62" len="24" pos="96" name="D: 24" />
        <note pan="0" vol="100" key="67" len="24" pos="120" name="G: 24" />
        <note pan="0" vol="100" key="69" len="48" pos="144" name="A: 48" />
        <note pan="0" vol="100" key="72" len="48" pos="192" name="C*: 48" />
        <note pan="0" vol="100" key="72" len="192" pos="240" name="C*: 192" />
        <note pan="0" vol="100" key="69" len="24" pos="432" name="A: 24" />
        <note pan="0" vol="100" key="72" len="24" pos="456" name="C*: 24" />
        <note pan="0" vol="100" key="72" len="48" pos="480" name="C*: 48" />
        <note pan="0" vol="100" key="72" len="48" pos="528" name="C*: 48" />
        <note pan="0" vol="100" key="72" len="144" pos="576" name="C*: 144" />
        <note pan="0" vol="100" key="72" len="48" pos="720" name="C*: 48" />
        <note pan="0" vol="100" key="67" len="24" pos="768" name="G: 24" />
        <note pan="0" vol="100" key="64" len="24" pos="792" name="E: 24" />
        <note pan="0" vol="100" key="60" len="48" pos="816" name="C: 48" />
        <note pan="0" vol="100" key="60" len="96" pos="864" name="C: 96" />
        <note pan="0" vol="100" key="62" len="48" pos="960" name="D: 48" />
        <note pan="0" vol="100" key="64" len="96" pos="1008" name="E: 96" />
        <note pan="0" vol="100" key="67" len="48" pos="1104" name="G: 48" />
        <note pan="0" vol="100" key="64" len="48" pos="1152" name="E: 48" />
        <note pan="0" vol="100" key="67" len="96" pos="1200" name="G: 96" />
        <note pan="0" vol="100" key="69" len="48" pos="1296" name="A: 48" />
        <note pan="0" vol="100" key="72" len="48" pos="1344" name="C*: 48" />
        <note pan="0" vol="100" key="67" len="96" pos="1392" name="G: 96" />
        <note pan="0" vol="100" key="62" len="24" pos="1488" name="D: 24" />
        <note pan="0" vol="100" key="64" len="24" pos="1512" name="E: 24" />
        <note pan="0" vol="100" key="60" len="48" pos="1536" name="C: 48" />
        <note pan="0" vol="100" key="62" len="48" pos="1584" name="D: 48" />
        <note pan="0" vol="100" key="64" len="96" pos="1632" name="E: 96" />
        <note pan="0" vol="100" key="64" len="48" pos="1728" name="E: 48" />
        <note pan="0" vol="100" key="60" len="48" pos="1776" name="C: 48" />
        <note pan="0" vol="100" key="64" len="48" pos="1824" name="E: 48" />
        <note pan="0" vol="100" key="64" len="48" pos="1872" name="E: 48" />
        <note pan="0" vol="100" key="60" len="24" pos="1920" name="C: 24" />
        <note pan="0" vol="100" key="60" len="24" pos="1944" name="C: 24" />
        <note pan="0" vol="100" key="62" len="48" pos="1968" name="D: 48" />
        <note pan="0" vol="100" key="60" len="192" pos="2016" name="C: 192" />
        <note pan="0" vol="100" key="60" len="48" pos="2208" name="C: 48" />
        <note pan="0" vol="100" key="60" len="96" pos="2256" name="C: 96" />
        <note pan="0" vol="100" key="60" len="48" pos="2352" name="C: 48" />
        <note pan="0" vol="100" key="62" len="48" pos="2400" name="D: 48" />
        <note pan="0" vol="100" key="67" len="48" pos="2448" name="G: 48" />
        <note pan="0" vol="100" key="69" len="48" pos="2496" name="A: 48" />
        <note pan="0" vol="100" key="72" len="48" pos="2544" name="C*: 48" />
        <note pan="0" vol="100" key="72" len="48" pos="2592" name="C*: 48" />
        <note pan="0" vol="100" key="69" len="48" pos="2640" name="A: 48" />
        <note pan="0" vol="100" key="72" len="48" pos="2688" name="C*: 48" />
        <note pan="0" vol="100" key="69" len="48" pos="2736" name="A: 48" />
        <note pan="0" vol="100" key="67" len="48" pos="2784" name="G: 48" />
        <note pan="0" vol="100" key="62" len="48" pos="2832" name="D: 48" />
        <note pan="0" vol="100" key="60" len="48" pos="2880" name="C: 48" />
        <note pan="0" vol="100" key="60" len="96" pos="2928" name="C: 96" />
        <note pan="0" vol="100" key="60" len="48" pos="3024" name="C: 48" />
        <note pan="0" vol="100" key="60" len="48" pos="3072" name="C: 48" />
        <note pan="0" vol="100" key="62" len="48" pos="3120" name="D: 48" />
        <note pan="0" vol="100" key="64" len="24" pos="3168" name="E: 24" />
        <note pan="0" vol="100" key="67" len="24" pos="3192" name="G: 24" />
        <note pan="0" vol="100" key="62" len="48" pos="3216" name="D: 48" />
        <note pan="0" vol="100" key="64" len="48" pos="3264" name="E: 48" />
        <note pan="0" vol="100" key="67" len="48" pos="3312" name="G: 48" />
        <note pan="0" vol="100" key="69" len="48" pos="3360" name="A: 48" />
        <note pan="0" vol="100" key="72" len="24" pos="3408" name="C*: 24" />
        <note pan="0" vol="100" key="69" len="24" pos="3432" name="A: 24" />
        <note pan="0" vol="100" key="69" len="48" pos="3456" name="A: 48" />
        <note pan="0" vol="100" key="67" len="96" pos="3504" name="G: 96" />
        <note pan="0" vol="100" key="64" len="48" pos="3600" name="E: 48" />
        <note pan="0" vol="100" key="60" len="144" pos="3648" name="C: 144" />
        <note pan="0" vol="100" key="60" len="96" pos="3792" name="C: 96" />
        <note pan="0" vol="100" key="60" len="48" pos="3888" name="C: 48" />
        <note pan="0" vol="100" key="62" len="24" pos="3936" name="D: 24" />
        <note pan="0" vol="100" key="60" len="120" pos="3960" name="C: 120" />
        <note pan="0" vol="100" key="60" len="48" pos="4080" name="C: 48" />
        <note pan="0" vol="100" key="60" len="48" pos="4128" name="C: 48" />
        <note pan="0" vol="100" key="62" len="48" pos="4176" name="D: 48" />
        <note pan="0" vol="100" key="64" len="96" pos="4224" name="E: 96" />
        <note pan="0" vol="100" key="62" len="48" pos="4320" name="D: 48" />
        <note pan="0" vol="100" key="60" len="192" pos="4368" name="C: 192" />
        <note pan="0" vol="100" key="64" len="96" pos="4560" name="E: 96" />
        <note pan="0" vol="100" key="62" len="48" pos="4656" name="D: 48" />
        <note pan="0" vol="100" key="67" len="48" pos="4704" name="G: 48" />
        <note pan="0" vol="100" key="64" len="96" pos="4752" name="E: 96" />
        <note pan="0" vol="100" key="69" len="48" pos="4848" name="A: 48" />
        <note pan="0" vol="100" key="67" len="48" pos="4896" name="G: 48" />
        <note pan="0" vol="100" key="64" len="48" pos="4944" name="E: 48" />
        <note pan="0" vol="100" key="62" len="48" pos="4992" name="D: 48" />
        <note pan="0" vol="100" key="60" len="48" pos="5040" name="C: 48" />
        <note pan="0" vol="100" key="64" len="48" pos="5088" name="E: 48" />
        <note pan="0" vol="100" key="69" len="48" pos="5136" name="A: 48" />
        <note pan="0" vol="100" key="67" len="96" pos="5184" name="G: 96" />
        <note pan="0" vol="100" key="64" len="24" pos="5280" name="E: 24" />
        <note pan="0" vol="100" key="62" len="72" pos="5304" name="D: 72" />
        <note pan="0" vol="100" key="60" len="48" pos="5376" name="C: 48" />
        <note pan="0" vol="100" key="60" len="240" pos="5424" name="C: 240" />
        <note pan="0" vol="100" key="60" len="96" pos="5664" name="C: 96" />
        <note pan="0" vol="100" key="64" len="144" pos="5760" name="E: 144" />
        <note pan="0" vol="100" key="69" len="48" pos="5904" name="A: 48" />
        <note pan="0" vol="100" key="72" len="96" pos="5952" name="C*: 96" />
        <note pan="0" vol="100" key="72" len="24" pos="6048" name="C*: 24" />
        <note pan="0" vol="100" key="72" len="72" pos="6072" name="C*: 72" />
        <note pan="0" vol="100" key="69" len="48" pos="6144" name="A: 48" />
        <note pan="0" vol="100" key="72" len="48" pos="6192" name="C*: 48" />
        <note pan="0" vol="100" key="72" len="96" pos="6240" name="C*: 96" />
        <note pan="0" vol="100" key="69" len="48" pos="6336" name="A: 48" />
        <note pan="0" vol="100" key="72" len="48" pos="6384" name="C*: 48" />
        <note pan="0" vol="100" key="69" len="96" pos="6432" name="A: 96" />
        <note pan="0" vol="100" key="72" len="48" pos="6528" name="C*: 48" />
        <note pan="0" vol="100" key="72" len="96" pos="6576" name="C*: 96" />
        <note pan="0" vol="100" key="69" len="48" pos="6672" name="A: 48" />
        <note pan="0" vol="100" key="72" len="48" pos="6720" name="C*: 48" />
        <note pan="0" vol="100" key="69" len="48" pos="6768" name="A: 48" />
        <note pan="0" vol="100" key="67" len="48" pos="6816" name="G: 48" />
        <note pan="0" vol="100" key="69" len="48" pos="6864" name="A: 48" />
        <note pan="0" vol="100" key="67" len="48" pos="6912" name="G: 48" />
        <note pan="0" vol="100" key="67" len="96" pos="6960" name="G: 96" />
        <note pan="0" vol="100" key="64" len="48" pos="7056" name="E: 48" />
        <note pan="0" vol="100" key="67" len="48" pos="7104" name="G: 48" />
        <note pan="0" vol="100" key="69" len="96" pos="7152" name="A: 96" />
        <note pan="0" vol="100" key="72" len="48" pos="7248" name="C*: 48" />
        <note pan="0" vol="100" key="69" len="48" pos="7296" name="A: 48" />
        <note pan="0" vol="100" key="72" len="96" pos="7344" name="C*: 96" />
        <note pan="0" vol="100" key="72" len="48" pos="7440" name="C*: 48" />
        <note pan="0" vol="100" key="67" len="48" pos="7488" name="G: 48" />
        <note pan="0" vol="100" key="69" len="48" pos="7536" name="A: 48" />
        <note pan="0" vol="100" key="72" len="48" pos="7584" name="C*: 48" />
        <note pan="0" vol="100" key="72" len="48" pos="7632" name="C*: 48" />
        <note pan="0" vol="100" key="69" len="48" pos="7680" name="A: 48" />
        <note pan="0" vol="100" key="69" len="48" pos="7728" name="A: 48" />
        <note pan="0" vol="100" key="72" len="48" pos="7776" name="C*: 48" />
        <note pan="0" vol="100" key="72" len="48" pos="7824" name="C*: 48" />
        <note pan="0" vol="100" key="69" len="144" pos="7872" name="A: 144" />
        <note pan="0" vol="100" key="67" len="48" pos="8016" name="G: 48" />
        <note pan="0" vol="100" key="62" len="48" pos="8064" name="D: 48" />
        <note pan="0" vol="100" key="62" len="48" pos="8112" name="D: 48" />
        <note pan="0" vol="100" key="62" len="48" pos="8160" name="D: 48" />
        <note pan="0" vol="100" key="64" len="48" pos="8208" name="E: 48" />
        <note pan="0" vol="100" key="62" len="96" pos="8256" name="D: 96" />
        <note pan="0" vol="100" key="60" len="48" pos="8352" name="C: 48" />
        <note pan="0" vol="100" key="60" len="96" pos="8400" name="C: 96" />
        <note pan="0" vol="100" key="62" len="48" pos="8496" name="D: 48" />
        <note pan="0" vol="100" key="64" len="48" pos="8544" name="E: 48" />
        <note pan="0" vol="100" key="67" len="48" pos="8592" name="G: 48" />
        <note pan="0" vol="100" key="69" len="24" pos="8640" name="A: 24" />
        <note pan="0" vol="100" key="72" len="24" pos="8664" name="C*: 24" />
        <note pan="0" vol="100" key="72" len="48" pos="8688" name="C*: 48" />
        <note pan="0" vol="100" key="67" len="48" pos="8736" name="G: 48" />
        <note pan="0" vol="100" key="62" len="144" pos="8784" name="D: 144" />
        <note pan="0" vol="100" key="64" len="48" pos="8928" name="E: 48" />
        <note pan="0" vol="100" key="62" len="96" pos="8976" name="D: 96" />
        <note pan="0" vol="100" key="60" len="48" pos="9072" name="C: 48" />
        <note pan="0" vol="100" key="60" len="48" pos="9120" name="C: 48" />
        <note pan="0" vol="100" key="60" len="96" pos="9168" name="C: 96" />
        <note pan="0" vol="100" key="62" len="48" pos="9264" name="D: 48" />
        <note pan="0" vol="100" key="64" len="48" pos="9312" name="E: 48" />
        <note pan="0" vol="100" key="64" len="48" pos="9360" name="E: 48" />
        <note pan="0" vol="100" key="67" len="96" pos="9408" name="G: 96" />
        <note pan="0" vol="100" key="62" len="24" pos="9504" name="D: 24" />
        <note pan="0" vol="100" key="67" len="24" pos="9528" name="G: 24" />
        <note pan="0" vol="100" key="72" len="48" pos="9552" name="C*: 48" />
        <note pan="0" vol="100" key="69" len="48" pos="9600" name="A: 48" />
        <note pan="0" vol="100" key="67" len="48" pos="9648" name="G: 48" />
        <note pan="0" vol="100" key="67" len="48" pos="9696" name="G: 48" />
        <note pan="0" vol="100" key="64" len="48" pos="9744" name="E: 48" />
        <note pan="0" vol="100" key="64" len="48" pos="9792" name="E: 48" />
        <note pan="0" vol="100" key="64" len="96" pos="9840" name="E: 96" />
        <note pan="0" vol="100" key="62" len="144" pos="9936" name="D: 144" />
        <note pan="0" vol="100" key="67" len="48" pos="10080" name="G: 48" />
        <note pan="0" vol="100" key="67" len="24" pos="10128" name="G: 24" />
        <note pan="0" vol="100" key="69" len="72" pos="10152" name="A: 72" />
        <note pan="0" vol="100" key="72" len="96" pos="10224" name="C*: 96" />
        <note pan="0" vol="100" key="69" len="48" pos="10320" name="A: 48" />
        <note pan="0" vol="100" key="67" len="48" pos="10368" name="G: 48" />
        <note pan="0" vol="100" key="64" len="48" pos="10416" name="E: 48" />
        <note pan="0" vol="100" key="67" len="48" pos="10464" name="G: 48" />
        <note pan="0" vol="100" key="67" len="48" pos="10512" name="G: 48" />
        <note pan="0" vol="100" key="64" len="48" pos="10560" name="E: 48" />
        <note pan="0" vol="100" key="62" len="48" pos="10608" name="D: 48" />
        <note pan="0" vol="100" key="62" len="48" pos="10656" name="D: 48" />
        <note pan="0" vol="100" key="62" len="48" pos="10704" name="D: 48" />
        <note pan="0" vol="100" key="60" len="48" pos="10752" name="C: 48" />
        <note pan="0" vol="100" key="60" len="48" pos="10800" name="C: 48" />
        <note pan="0" vol="100" key="64" len="96" pos="10848" name="E: 96" />
        <note pan="0" vol="100" key="64" len="240" pos="10944" name="E: 240" />
        <note pan="0" vol="100" key="67" len="96" pos="11184" name="G: 96" />
        <note pan="0" vol="100" key="62" len="48" pos="11280" name="D: 48" />
        <note pan="0" vol="100" key="60" len="48" pos="11328" name="C: 48" />
        <note pan="0" vol="100" key="64" len="48" pos="11376" name="E: 48" />
        <note pan="0" vol="100" key="62" len="48" pos="11424" name="D: 48" />
        <note pan="0" vol="100" key="60" len="24" pos="11472" name="C: 24" />
        <note pan="0" vol="100" key="64" len="24" pos="11496" name="E: 24" />
        <note pan="0" vol="100" key="62" len="24" pos="11520" name="D: 24" />
        <note pan="0" vol="100" key="60" len="24" pos="11544" name="C: 24" />
        <note pan="0" vol="100" key="60" len="48" pos="11568" name="C: 48" />
        <note pan="0" vol="100" key="62" len="48" pos="11616" name="D: 48" />
        <note pan="0" vol="100" key="64" len="48" pos="11664" name="E: 48" />
        <note pan="0" vol="100" key="64" len="48" pos="11712" name="E: 48" />
        <note pan="0" vol="100" key="60" len="48" pos="11760" name="C: 48" />
        <note pan="0" vol="100" key="60" len="48" pos="11808" name="C: 48" />
        <note pan="0" vol="100" key="60" len="48" pos="11856" name="C: 48" />
        <note pan="0" vol="100" key="64" len="96" pos="11904" name="E: 96" />
        <note pan="0" vol="100" key="60" len="48" pos="12000" name="C: 48" />
        <note pan="0" vol="100" key="62" len="48" pos="12048" name="D: 48" />
        <note pan="0" vol="100" key="64" len="96" pos="12096" name="E: 96" />
        <note pan="0" vol="100" key="67" len="48" pos="12192" name="G: 48" />
        <note pan="0" vol="100" key="69" len="48" pos="12240" name="A: 48" />
    </midiclip>
</lmms-project>