<?xml version="1.0"?>
<!DOCTYPE lmms-project>
<lmms-project version="20" creatorversion="0.0.3" type="midiclip" creator="SWAR">
    <head/>
    <midiclip steps="16" muted="0" name="18" color="#4C72B8" type="1" pos="0">
        <note pan="0" vol="100" key="60" len="48" pos="0" name="C: 48" />
        <note pan="0" vol="100" key="64" len="48" pos="48" name="E: 48" />
        <note pan="0" vol="100" key="61" len="48" pos="96" name="C#: 48" />
        <note pan="0" vol="100" key="60" len="48" pos="144" name="C: 48" />
        <note pan="0" vol="100" key="60" len="48" pos="192" name="C: 48" />
        <note pan="0" vol="100" key="61" len="48" pos="240" name="C#: 48" />
        <note pan="0" vol="100" key="64" len="48" pos="288" name="E: 48" />
        <note pan="0" vol="100" key="67" len="24" pos="336" name="G: 24" />
        <note pan="0" vol="100" key="64" len="24" pos="360" name="E: 24" />
        <note pan="0" vol="100" key="61" len="48" pos="384" name="C#: 48" />
        <note pan="0" vol="100" key="67" len="96" pos="432" name="G: 96" />
        <note pan="0" vol="100" key="67" len="48" pos="528" name="G: 48" />
        <note pan="0" vol="100" key="61" len="48" pos="576" name="C#: 48" />
        <note pan="0" vol="100" key="64" len="48" pos="624" name="E: 48" />
        <note pan="0" vol="100" key="64" len="48" pos="672" name="E: 48" />
        <note pan="0" vol="100" key="67" len="48" pos="720" name="G: 48" />
        <note pan="0" vol="100" key="68" len="48" pos="768" name="G#: 48" />
        <note pan="0" vol="100" key="68" len="144" pos="816" name="G#: 144" />
        <note pan="0" vol="100" key="67" len="144" pos="960" name="G: 144" />
        <note pan="0" vol="100" key="67" len="24" pos="1104" name="G: 24" />
        <note pan="0" vol="100" key="64" len="24" pos="1128" name="E: 24" />
        <note pan="0" vol="100" key="67" len="48" pos="1152" name="G: 48" />
        <note pan="0" vol="100" key="61" len="48" pos="1200" name="C#: 48" />
        <note pan="0" vol="100" key="64" len="48" pos="1248" name="E: 48" />
        <note pan="0" vol="100" key="64" len="24" pos="1296" name="E: 24" />
        <note pan="0" vol="100" key="61" len="72" pos="1320" name="C#: 72" />
        <note pan="0" vol="100" key="60" len="48" pos="1392" name="C: 48" />
        <note pan="0" vol="100" key="61" len="48" pos="1440" name="C#: 48" />
        <note pan="0" vol="100" key="64" len="48" pos="1488" name="E: 48" />
        <note pan="0" vol="100" key="61" len="24" pos="1536" name="C#: 24" />
        <note pan="0" vol="100" key="61" len="24" pos="1560" name="C#: 24" />
        <note pan="0" vol="100" key="60" len="48" pos="1584" name="C: 48" />
        <note pan="0" vol="100" key="61" len="96" pos="1632" name="C#: 96" />
        <note pan="0" vol="100" key="67" len="48" pos="1728" name="G: 48" />
        <note pan="0" vol="100" key="68" len="48" pos="1776" name="G#: 48" />
        <note pan="0" vol="100" key="67" len="48" pos="1824" name="G: 48" />
        <note pan="0" vol="100" key="68" len="48" pos="1872" name="G#: 48" />
        <note pan="0" vol="100" key="67" len="48" pos="1920" name="G: 48" />
        <note pan="0" vol="100" key="67" len="48" pos="1968" name="G: 48" />
        <note pan="0" vol="100" key="68" len="144" pos="2016" name="G#: 144" />
        <note pan="0" vol="100" key="68" len="96" pos="2160" name="G#: 96" />
        <note pan="0" vol="100" key="67" len="144" pos="2256" name="G: 144" />
        <note pan="0" vol="100" key="72" len="48" pos="2400" name="C*: 48" />
        <note pan="0" vol="100" key="67" len="24" pos="2448" name="G: 24" />
        <note pan="0" vol="100" key="72" len="24" pos="2472" name="C*: 24" />
        <note pan="0" vol="100" key="68" len="48" pos="2496" name="G#: 48" />
        <note pan="0" vol="100" key="68" len="48" pos="2544" name="G#: 48" />
        <note pan="0" vol="100" key="67" len="48" pos="2592" name="G: 48" />
        <note pan="0" vol="100" key="64" len="48" pos="2640" name="E: 48" />
        <note pan="0" vol="100" key="67" len="96" pos="2688" name="G: 96" />
        <note pan="0" vol="100" key="68" len="96" pos="2784" name="G#: 96" />
        <note pan="0" vol="100" key="64" len="48" pos="2880" name="E: 48" />
        <note pan="0" vol="100" key="68" len="96" pos="2928" name="G#: 96" />
        <note pan="0" vol="100" key="67" len="192" pos="3024" name="G: 192" />
        <note pan="0" vol="100" key="67" len="48" pos="3216" name="G: 48" />
        <note pan="0" vol="100" key="67" len="48" pos="3264" name="G: 48" />
        <note pan="0" vol="100" key="68" len="48" pos="3312" name="G#: 48" />
        <note pan="0" vol="100" key="67" len="48" pos="3360" name="G: 48" />
        <note pan="0" vol="100" key="64" len="48" pos="3408" name="E: 48" />
        <note pan="0" vol="100" key="67" len="48" pos="3456" name="G: 48" />
        <note pan="0" vol="100" key="64" len="48" pos="3504" name="E: 48" />
        <note pan="0" vol="100" key="61" len="48" pos="3552" name="C#: 48" />
        <note pan="0" vol="100" key="60" len="48" pos="3600" name="C: 48" />
        <note pan="0" vol="100" key="60" len="48" pos="3648" name="C: 48" />
        <note pan="0" vol="100" key="61" len="48" pos="3696" name="C#: 48" />
        <note pan="0" vol="100" key="60" len="24" pos="3744" name="C: 24" />
        <note pan="0" vol="100" key="60" len="24" pos="3768" name="C: 24" />
        <note pan="0" vol="100" key="64" len="144" pos="3792" name="E: 144" />
        <note pan="0" vol="100" key="67" len="48" pos="3936" name="G: 48" />
        <note pan="0" vol="100" key="68" len="48" pos="3984" name="G#: 48" />
        <note pan="0" vol="100" key="67" len="24" pos="4032" name="G: 24" />
        <note pan="0" vol="100" key="72" len="24" pos="4056" name="C*: 24" />
        <note pan="0" vol="100" key="72" len="96" pos="4080" name="C*: 96" />
        <note pan="0" vol="100" key="68" len="24" pos="4176" name="G#: 24" />
        <note pan="0" vol="100" key="68" len="24" pos="4200" name="G#: 24" />
        <note pan="0" vol="100" key="67" len="48" pos="4224" name="G: 48" />
        <note pan="0" vol="100" key="64" len="48" pos="4272" name="E: 48" />
        <note pan="0" vol="100" key="64" len="48" pos="4320" name="E: 48" />
        <note pan="0" vol="100" key="67" len="48" pos="4368" name="G: 48" />
        <note pan="0" vol="100" key="68" len="48" pos="4416" name="G#: 48" />
        <note pan="0" vol="100" key="68" len="48" pos="4464" name="G#: 48" />
        <note pan="0" vol="100" key="68" len="48" pos="4512" name="G#: 48" />
        <note pan="0" vol="100" key="67" len="48" pos="4560" name="G: 48" />
        <note pan="0" vol="100" key="64" len="48" pos="4608" name="E: 48" />
        <note pan="0" vol="100" key="61" len="48" pos="4656" name="C#: 48" />
        <note pan="0" vol="100" key="60" len="48" pos="4704" name="C: 48" />
        <note pan="0" vol="100" key="61" len="48" pos="4752" name="C#: 48" />
        <note pan="0" vol="100" key="61" len="48" pos="4800" name="C#: 48" />
        <note pan="0" vol="100" key="64" len="48" pos="4848" name="E: 48" />
        <note pan="0" vol="100" key="64" len="48" pos="4896" name="E: 48" />
        <note pan="0" vol="100" key="68" len="48" pos="4944" name="G#: 48" />
        <note pan="0" vol="100" key="67" len="48" pos="4992" name="G: 48" />
        <note pan="0" vol="100" key="72" len="48" pos="5040" name="C*: 48" />
        <note pan="0" vol="100" key="72" len="144" pos="5088" name="C*: 144" />
        <note pan="0" vol="100" key="68" len="96" pos="5232" name="G#: 96" />
        <note pan="0" vol="100" key="67" len="48" pos="5328" name="G: 48" />
        <note pan="0" vol="100" key="64" len="48" pos="5376" name="E: 48" />
        <note pan="0" vol="100" key="67" len="48" pos="5424" name="G: 48" />
        <note pan="0" vol="100" key="68" len="48" pos="5472" name="G#: 48" />
        <note pan="0" vol="100" key="68" len="48" pos="5520" name="G#: 48" />
        <note pan="0" vol="100" key="67" len="48" pos="5568" name="G: 48" />
        <note pan="0" vol="100" key="67" len="48" pos="5616" name="G: 48" />
        <note pan="0" vol="100" key="67" len="48" pos="5664" name="G: 48" />
        <note pan="0" vol="100" key="64" len="48" pos="5712" name="E: 48" />
        <note pan="0" vol="100" key="64" len="48" pos="5760" name="E: 48" />
        <note pan="0" vol="100" key="61" len="96" pos="5808" name="C#: 96" />
        <note pan="0" vol="100" key="60" len="144" pos="5904" name="C: 144" />
        <note pan="0" vol="100" key="64" len="48" pos="6048" name="E: 48" />
        <note pan="0" vol="100" key="67" len="24" pos="6096" name="G: 24" />
        <note pan="0" vol="100" key="68" len="24" pos="6120" name="G#: 24" />
        <note pan="0" vol="100" key="68" len="48" pos="6144" name="G#: 48" />
        <note pan="0" vol="100" key="67" len="48" pos="6192" name="G: 48" />
        <note pan="0" vol="100" key="72" len="48" pos="6240" name="C*: 48" />
        <note pan="0" vol="100" key="72" len="48" pos="6288" name="C*: 48" />
        <note pan="0" vol="100" key="72" len="96" pos="6336" name="C*: 96" />
        <note pan="0" vol="100" key="68" len="48" pos="6432" name="G#: 48" />
        <note pan="0" vol="100" key="68" len="24" pos="6480" name="G#: 24" />
        <note pan="0" vol="100" key="72" len="24" pos="6504" name="C*: 24" />
        <note pan="0" vol="100" key="72" len="96" pos="6528" name="C*: 96" />
        <note pan="0" vol="100" key="68" len="24" pos="6624" name="G#: 24" />
        <note pan="0" vol="100" key="68" len="24" pos="6648" name="G#: 24" />
        <note pan="0" vol="100" key="67" len="96" pos="6672" name="G: 96" />
        <note pan="0" vol="100" key="67" len="24" pos="6768" name="G: 24" />
        <note pan="0" vol="100" key="68" len="24" pos="6792" name="G#: 24" />
        <note pan="0" vol="100" key="67" len="48" pos="6816" name="G: 48" />
        <note pan="0" vol="100" key="67" len="96" pos="6864" name="G: 96" />
        <note pan="0" vol="100" key="64" len="48" pos="6960" name="E: 48" />
        <note pan="0" vol="100" key="61" len="48" pos="7008" name="C#: 48" />
        <note pan="0" vol="100" key="60" len="48" pos="7056" name="C: 48" />
        <note pan="0" vol="100" key="60" len="48" pos="7104" name="C: 48" />
        <note pan="0" vol="100" key="61" len="96" pos="7152" name="C#: 96" />
        <note pan="0" vol="100" key="64" len="48" pos="7248" name="E: 48" />
        <note pan="0" vol="100" key="61" len="48" pos="7296" name="C#: 48" />
        <note pan="0" vol="100" key="61" len="48" pos="7344" name="C#: 48" />
        <note pan="0" vol="100" key="64" len="96" pos="7392" name="E: 96" />
        <note pan="0" vol="100" key="67" len="96" pos="7488" name="G: 96" />
        <note pan="0" vol="100" key="64" len="48" pos="7584" name="E: 48" />
        <note pan="0" vol="100" key="67" len="48" pos="7632" name="G: 48" />
        <note pan="0" vol="100" key="68" len="48" pos="7680" name="G#: 48" />
        <note pan="0" vol="100" key="67" len="48" pos="7728" name="G: 48" />
        <note pan="0" vol="100" key="72" len="24" pos="7776" name="C*: 24" />
        <note pan="0" vol="100" key="72" len="24" pos="7800" name="C*: 24" />
        <note pan="0" vol="100" key="72" len="24" pos="7824" name="C*: 24" />
        <note pan="0" vol="100" key="72" len="24" pos="7848" name="C*: 24" />
        <note pan="0" vol="100" key="72" len="48" pos="7872" name="C*: 48" />
        <note pan="0" vol="100" key="68" len="24" pos="7920" name="G#: 24" />
        <note pan="0" vol="100" key="72" len="24" pos="7944" name="C*: 24" />
        <note pan="0" vol="100" key="72" len="96" pos="7968" name="C*: 96" />
        <note pan="0" vol="100" key="68" len="48" pos="8064" name="G#: 48" />
        <note pan="0" vol="100" key="67" len="48" pos="8112" name="G: 48" />
        <note pan="0" vol="100" key="64" len="48" pos="8160" name="E: 48" />
        <note pan="0" vol="100" key="67" len="48" pos="8208" name="G: 48" />
        <note pan="0" vol="100" key="64" len="48" pos="8256" name="E: 48" />
        <note pan="0" vol="100" key="67" len="96" pos="8304" name="G: 96" />
        <note pan="0" vol="100" key="64" len="48" pos="8400" name="E: 48" />
        <note pan="0" vol="100" key="64" len="48" pos="8448" name="E: 48" />
        <note pan="0" vol="100" key="67" len="96" pos="8496" name="G: 96" />
        <note pan="0" vol="100" key="68" len="48" pos="8592" name="G#: 48" />
        <note pan="0" vol="100" key="67" len="48" pos="8640" name="G: 48" />
        <note pan="0" vol="100" key="68" len="96" pos="8688" name="G#: 96" />
        <note pan="0" vol="100" key="64" len="48" pos="8784" name="E: 48" />
        <note pan="0" vol="100" key="64" len="48" pos="8832" name="E: 48" />
        <note pan="0" vol="100" key="67" len="48" pos="8880" name="G: 48" />
        <note pan="0" vol="100" key="68" len="48" pos="8928" name="G#: 48" />
        <note pan="0" vol="100" key="67" len="96" pos="8976" name="G: 96" />
        <note pan="0" vol="100" key="67" len="48" pos="9072" name="G: 48" />
        <note pan="0" vol="100" key="67" len="48" pos="9120" name="G: 48" />
        <note pan="0" vol="100" key="64" len="48" pos="9168" name="E: 48" />
        <note pan="0" vol="100" key="64" len="48" pos="9216" name="E: 48" />
        <note pan="0" vol="100" key="60" len="48" pos="9264" name="C: 48" />
        <note pan="0" vol="100" key="60" len="48" pos="9312" name="C: 48" />
        <note pan="0" vol="100" key="61" len="48" pos="9360" name="C#: 48" />
        <note pan="0" vol="100" key="64" len="48" pos="9408" name="E: 48" />
        <note pan="0" vol="100" key="67" len="96" pos="9456" name="G: 96" />
        <note pan="0" vol="100" key="68" len="48" pos="9552" name="G#: 48" />
        <note pan="0" vol="100" key="72" len="96" pos="9600" name="C*: 96" />
        <note pan="0" vol="100" key="72" len="48" pos="9696" name="C*: 48" />
        <note pan="0" vol="100" key="72" len="96" pos="9744" name="C*: 96" />
        <note pan="0" vol="100" key="67" len="48" pos="9840" name="G: 48" />
        <note pan="0" vol="100" key="72" len="144" pos="9888" name="C*: 144" />
        <note pan="0" vol="100" key="67" len="96" pos="10032" name="G: 96" />
        <note pan="0" vol="100" key="72" len="96" pos="10128" name="C*: 96" />
        <note pan="0" vol="100" key="67" len="96" pos="10224" name="G: 96" />
        <note pan="0" vol="100" key="72" len="96" pos="10320" name="C*: 96" />
        <note pan="0" vol="100" key="72" len="144" pos="10416" name="C*: 144" />
        <note pan="0" vol="100" key="68" len="48" pos="10560" name="G#: 48" />
        <note pan="0" vol="100" key="67" len="96" pos="10608" name="G: 96" />
        <note pan="0" vol="100" key="64" len="48" pos="10704" name="E: 48" />
        <note pan="0" vol="100" key="64" len="96" pos="10752" name="E: 96" />
        <note pan="0" vol="100" key="64" len="48" pos="10848" name="E: 48" />
        <note pan="0" vol="100" key="64" len="48" pos="10896" name="E: 48" />
        <note pan="0" vol="100" key="67" len="48" pos="10944" name="G: 48" />
        <note pan="0" vol="100" key="67" len="48" pos="10992" name="G: 48" />
        <note pan="0" vol="100" key="67" len="24" pos="11040" name="G: 24" />
        <note pan="0" vol="100" key="67" len="72" pos="11064" name="G: 72" />
        <note pan="0" vol="100" key="64" len="96" pos="11136" name="E: 96" />
        <note pan="0" vol="100" key="61" len="96" pos="11232" name="C#: 96" />
        <note pan="0" vol="100" key="61" len="48" pos="11328" name="C#: 48" />
        <note pan="0" vol="100" key="61" len="96" pos="11376" name="C#: 96" />
        <note pan="0" vol="100" key="60" len="48" pos="11472" name="C: 48" />
        <note pan="0" vol="100" key="60" len="48" pos="11520" name="C: 48" />
        <note pan="0" vol="100" key="60" len="96" pos="11568" name="C: 96" />
        <note pan="0" vol="100" key="64" len="24" pos="11664" name="E: 24" />
        <note pan="0" vol="100" key="67" len="24" pos="11688" name="G: 24" />
    </midiclip>
</lmms-project>