<?xml version="1.0"?>
<!DOCTYPE lmms-project>
<lmms-project version="20" creatorversion="0.0.3" type="midiclip" creator="SWAR">
    <head/>
    <midiclip steps="16" muted="0" name="37" color="#C7A651" type="1" pos="0">
        <note pan="0" vol="100" key="61" len="48" pos="0" name="C#: 48" />
        <note pan="0" vol="100" key="61" len="48" pos="48" name="C#: 48" />
        <note pan="0" vol="100" key="64" len="48" pos="96" name="E: 48" />
        <note pan="0" vol="100" key="67" len="24" pos="144" name="G: 24" />
        <note pan="0" vol="100" key="61" len="24" pos="168" name="C#: 24" />
        <note pan="0" vol="100" key="64" len="48" pos="192" name="E: 48" />
        <note pan="0" vol="100" key="60" len="144" pos="240" name="C: 144" />
        <note pan="0" vol="100" key="64" len="24" pos="384" name="E: 24" />
        <note pan="0" vol="100" key="61" len="24" pos="408" name="C#: 24" />
        <note pan="0" vol="100" key="64" len="48" pos="432" name="E: 48" />
        <note pan="0" vol="100" key="67" len="48" pos="480" name="G: 48" />
        <note pan="0" vol="100" key="68" len="48" pos="528" name="G#: 48" />
        <note pan="0" vol="100" key="64" len="24" pos="576" name="E: 24" />
        <note pan="0" vol="100" key="67" len="24" pos="600" name="G: 24" />
        <note pan="0" vol="100" key="68" len="24" pos="624" name="G#: 24" />
        <note pan="0" vol="100" key="72" len="72" pos="648" name="C*: 72" />
        <note pan="0" vol="100" key="72" len="24" pos="720" name="C*: 24" />
        <note pan="0" vol="100" key="67" len="24" pos="744" name="G: 24" />
        <note pan="0" vol="100" key="72" len="96" pos="768" name="C*: 96" />
        <note pan="0" vol="100" key="72" len="48" pos="864" name="C*: 48" />
        <note pan="0" vol="100" key="68" len="48" pos="912" name="G#: 48" />
        <note pan="0" vol="100" key="68" len="48" pos="960" name="G#: 48" />
        <note pan="0" vol="100" key="68" len="96" pos="1008" name="G#: 96" />
        <note pan="0" vol="100" key="67" len="96" pos="1104" name="G: 96" />
        <note pan="0" vol="100" key="67" len="48" pos="1200" name="G: 48" />
        <note pan="0" vol="100" key="72" len="48" pos="1248" name="C*: 48" />
        <note pan="0" vol="100" key="72" len="48" pos="1296" name="C*: 48" />
        <note pan="0" vol="100" key="72" len="96" pos="1344" name="C*: 96" />
        <note pan="0" vol="100" key="68" len="96" pos="1440" name="G#: 96" />
        <note pan="0" vol="100" key="72" len="48" pos="1536" name="C*: 48" />
        <note pan="0" vol="100" key="72" len="24" pos="1584" name="C*: 24" />
        <note pan="0" vol="100" key="67" len="24" pos="1608" name="G: 24" />
        <note pan="0" vol="100" key="68" len="48" pos="1632" name="G#: 48" />
        <note pan="0" vol="100" key="67" len="48" pos="1680" name="G: 48" />
        <note pan="0" vol="100" key="67" len="48" pos="1728" name="G: 48" />
        <note pan="0" vol="100" key="68" len="48" pos="1776" name="G#: 48" />
        <note pan="0" vol="100" key="67" len="48" pos="1824" name="G: 48" />
        <note pan="0" vol="100" key="64" len="48" pos="1872" name="E: 48" />
        <note pan="0" vol="100" key="61" len="96" pos="1920" name="C#: 96" />
        <note pan="0" vol="100" key="64" len="24" pos="2016" name="E: 24" />
        <note pan="0" vol="100" key="67" len="24" pos="2040" name="G: 24" />
        <note pan="0" vol="100" key="67" len="48" pos="2064" name="G: 48" />
        <note pan="0" vol="100" key="67" len="96" pos="2112" name="G: 96" />
        <note pan="0" vol="100" key="67" len="24" pos="2208" name="G: 24" />
        <note pan="0" vol="100" key="64" len="24" pos="2232" name="E: 24" />
        <note pan="0" vol="100" key="64" len="48" pos="2256" name="E: 48" />
        <note pan="0" vol="100" key="64" len="48" pos="2304" name="E: 48" />
        <note pan="0" vol="100" key="61" len="48" pos="2352" name="C#: 48" />
        <note pan="0" vol="100" key="60" len="48" pos="2400" name="C: 48" />
        <note pan="0" vol="100" key="60" len="48" pos="2448" name="C: 48" />
        <note pan="0" vol="100" key="60" len="48" pos="2496" name="C: 48" />
        <note pan="0" vol="100" key="61" len="48" pos="2544" name="C#: 48" />
        <note pan="0" vol="100" key="61" len="48" pos="2592" name="C#: 48" />
        <note pan="0" vol="100" key="67" len="96" pos="2640" name="G: 96" />
        <note pan="0" vol="100" key="67" len="96" pos="2736" name="G: 96" />
        <note pan="0" vol="100" key="68" len="48" pos="2832" name="G#: 48" />
        <note pan="0" vol="100" key="68" len="48" pos="2880" name="G#: 48" />
        <note pan="0" vol="100" key="67" len="48" pos="2928" name="G: 48" />
        <note pan="0" vol="100" key="64" len="48" pos="2976" name="E: 48" />
        <note pan="0" vol="100" key="67" len="48" pos="3024" name="G: 48" />
        <note pan="0" vol="100" key="68" len="96" pos="3072" name="G#: 96" />
        <note pan="0" vol="100" key="67" len="48" pos="3168" name="G: 48" />
        <note pan="0" vol="100" key="68" len="48" pos="3216" name="G#: 48" />
        <note pan="0" vol="100" key="67" len="48" pos="3264" name="G: 48" />
        <note pan="0" vol="100" key="64" len="24" pos="3312" name="E: 24" />
        <note pan="0" vol="100" key="67" len="72" pos="3336" name="G: 72" />
        <note pan="0" vol="100" key="67" len="24" pos="3408" name="G: 24" />
        <note pan="0" vol="100" key="68" len="24" pos="3432" name="G#: 24" />
        <note pan="0" vol="100" key="67" len="48" pos="3456" name="G: 48" />
        <note pan="0" vol="100" key="67" len="48" pos="3504" name="G: 48" />
        <note pan="0" vol="100" key="67" len="48" pos="3552" name="G: 48" />
        <note pan="0" vol="100" key="68" len="48" pos="3600" name="G#: 48" />
        <note pan="0" vol="100" key="67" len="48" pos="3648" name="G: 48" />
        <note pan="0" vol="100" key="72" len="96" pos="3696" name="C*: 96" />
        <note pan="0" vol="100" key="72" len="48" pos="3792" name="C*: 48" />
        <note pan="0" vol="100" key="68" len="48" pos="3840" name="G#: 48" />
        <note pan="0" vol="100" key="72" len="48" pos="3888" name="C*: 48" />
        <note pan="0" vol="100" key="68" len="48" pos="3936" name="G#: 48" />
        <note pan="0" vol="100" key="68" len="24" pos="3984" name="G#: 24" />
        <note pan="0" vol="100" key="67" len="24" pos="4008" name="G: 24" />
        <note pan="0" vol="100" key="67" len="48" pos="4032" name="G: 48" />
        <note pan="0" vol="100" key="68" len="96" pos="4080" name="G#: 96" />
        <note pan="0" vol="100" key="72" len="24" pos="4176" name="C*: 24" />
        <note pan="0" vol="100" key="72" len="24" pos="4200" name="C*: 24" />
        <note pan="0" vol="100" key="72" len="24" pos="4224" name="C*: 24" />
        <note pan="0" vol="100" key="72" len="24" pos="4248" name="C*: 24" />
        <note pan="0" vol="100" key="68" len="48" pos="4272" name="G#: 48" />
        <note pan="0" vol="100" key="67" len="48" pos="4320" name="G: 48" />
        <note pan="0" vol="100" key="67" len="96" pos="4368" name="G: 96" />
        <note pan="0" vol="100" key="64" len="48" pos="4464" name="E: 48" />
        <note pan="0" vol="100" key="64" len="48" pos="4512" name="E: 48" />
        <note pan="0" vol="100" key="68" len="24" pos="4560" name="G#: 24" />
        <note pan="0" vol="100" key="68" len="24" pos="4584" name="G#: 24" />
        <note pan="0" vol="100" key="68" len="96" pos="4608" name="G#: 96" />
        <note pan="0" vol="100" key="67" len="48" pos="4704" name="G: 48" />
        <note pan="0" vol="100" key="67" len="96" pos="4752" name="G: 96" />
        <note pan="0" vol="100" key="68" len="24" pos="4848" name="G#: 24" />
        <note pan="0" vol="100" key="67" len="24" pos="4872" name="G: 24" />
        <note pan="0" vol="100" key="72" len="48" pos="4896" name="C*: 48" />
        <note pan="0" vol="100" key="68" len="48" pos="4944" name="G#: 48" />
        <note pan="0" vol="100" key="64" len="48" pos="4992" name="E: 48" />
        <note pan="0" vol="100" key="68" len="48" pos="5040" name="G#: 48" />
        <note pan="0" vol="100" key="67" len="48" pos="5088" name="G: 48" />
        <note pan="0" vol="100" key="64" len="48" pos="5136" name="E: 48" />
        <note pan="0" vol="100" key="67" len="48" pos="5184" name="G: 48" />
        <note pan="0" vol="100" key="67" len="48" pos="5232" name="G: 48" />
        <note pan="0" vol="100" key="68" len="96" pos="5280" name="G#: 96" />
        <note pan="0" vol="100" key="64" len="48" pos="5376" name="E: 48" />
        <note pan="0" vol="100" key="67" len="96" pos="5424" name="G: 96" />
        <note pan="0" vol="100" key="68" len="48" pos="5520" name="G#: 48" />
        <note pan="0" vol="100" key="67" len="48" pos="5568" name="G: 48" />
        <note pan="0" vol="100" key="67" len="48" pos="5616" name="G: 48" />
        <note pan="0" vol="100" key="67" len="48" pos="5664" name="G: 48" />
        <note pan="0" vol="100" key="64" len="48" pos="5712" name="E: 48" />
        <note pan="0" vol="100" key="64" len="48" pos="5760" name="E: 48" />
        <note pan="0" vol="100" key="67" len="48" pos="5808" name="G: 48" />
        <note pan="0" vol="100" key="68" len="24" pos="5856" name="G#: 24" />
        <note pan="0" vol="100" key="64" len="72" pos="5880" name="E: 72" />
        <note pan="0" vol="100" key="67" len="48" pos="5952" name="G: 48" />
        <note pan="0" vol="100" key="68" len="48" pos="6000" name="G#: 48" />
        <note pan="0" vol="100" key="68" len="144" pos="6048" name="G#: 144" />
        <note pan="0" vol="100" key="67" len="48" pos="6192" name="G: 48" />
        <note pan="0" vol="100" key="68" len="96" pos="6240" name="G#: 96" />
        <note pan="0" vol="100" key="64" len="144" pos="6336" name="E: 144" />
        <note pan="0" vol="100" key="64" len="48" pos="6480" name="E: 48" />
        <note pan="0" vol="100" key="60" len="48" pos="6528" name="C: 48" />
        <note pan="0" vol="100" key="64" len="48" pos="6576" name="E: 48" />
        <note pan="0" vol="100" key="61" len="96" pos="6624" name="C#: 96" />
        <note pan="0" vol="100" key="60" len="48" pos="6720" name="C: 48" />
        <note pan="0" vol="100" key="60" len="144" pos="6768" name="C: 144" />
        <note pan="0" vol="100" key="61" len="24" pos="6912" name="C#: 24" />
        <note pan="0" vol="100" key="64" len="72" pos="6936" name="E: 72" />
        <note pan="0" vol="100" key="67" len="48" pos="7008" name="G: 48" />
        <note pan="0" vol="100" key="64" len="48" pos="7056" name="E: 48" />
        <note pan="0" vol="100" key="67" len="96" pos="7104" name="G: 96" />
        <note pan="0" vol="100" key="68" len="48" pos="7200" name="G#: 48" />
        <note pan="0" vol="100" key="67" len="24" pos="7248" name="G: 24" />
        <note pan="0" vol="100" key="72" len="72" pos="7272" name="C*: 72" />
        <note pan="0" vol="100" key="68" len="48" pos="7344" name="G#: 48" />
        <note pan="0" vol="100" key="68" len="48" pos="7392" name="G#: 48" />
        <note pan="0" vol="100" key="67" len="48" pos="7440" name="G: 48" />
        <note pan="0" vol="100" key="64" len="48" pos="7488" name="E: 48" />
        <note pan="0" vol="100" key="64" len="48" pos="7536" name="E: 48" />
        <note pan="0" vol="100" key="67" len="48" pos="7584" name="G: 48" />
        <note pan="0" vol="100" key="68" len="48" pos="7632" name="G#: 48" />
        <note pan="0" vol="100" key="68" len="48" pos="7680" name="G#: 48" />
        <note pan="0" vol="100" key="67" len="48" pos="7728" name="G: 48" />
        <note pan="0" vol="100" key="67" len="96" pos="7776" name="G: 96" />
        <note pan="0" vol="100" key="68" len="48" pos="7872" name="G#: 48" />
        <note pan="0" vol="100" key="67" len="48" pos="7920" name="G: 48" />
        <note pan="0" vol="100" key="64" len="48" pos="7968" name="E: 48" />
        <note pan="0" vol="100" key="61" len="48" pos="8016" name="C#: 48" />
        <note pan="0" vol="100" key="64" len="48" pos="8064" name="E: 48" />
        <note pan="0" vol="100" key="64" len="48" pos="8112" name="E: 48" />
        <note pan="0" vol="100" key="60" len="192" pos="8160" name="C: 192" />
        <note pan="0" vol="100" key="60" len="48" pos="8352" name="C: 48" />
        <note pan="0" vol="100" key="60" len="48" pos="8400" name="C: 48" />
        <note pan="0" vol="100" key="60" len="48" pos="8448" name="C: 48" />
        <note pan="0" vol="100" key="64" len="48" pos="8496" name="E: 48" />
        <note pan="0" vol="100" key="68" len="96" pos="8544" name="G#: 96" />
        <note pan="0" vol="100" key="68" len="96" pos="8640" name="G#: 96" />
        <note pan="0" vol="100" key="68" len="48" pos="8736" name="G#: 48" />
        <note pan="0" vol="100" key="67" len="48" pos="8784" name="G: 48" />
        <note pan="0" vol="100" key="72" len="48" pos="8832" name="C*: 48" />
        <note pan="0" vol="100" key="68" len="48" pos="8880" name="G#: 48" />
        <note pan="0" vol="100" key="68" len="48" pos="8928" name="G#: 48" />
        <note pan="0" vol="100" key="64" len="48" pos="8976" name="E: 48" />
        <note pan="0" vol="100" key="67" len="48" pos="9024" name="G: 48" />
        <note pan="0" vol="100" key="67" len="96" pos="9072" name="G: 96" />
        <note pan="0" vol="100" key="64" len="48" pos="9168" name="E: 48" />
        <note pan="0" vol="100" key="60" len="48" pos="9216" name="C: 48" />
        <note pan="0" vol="100" key="60" len="48" pos="9264" name="C: 48" />
        <note pan="0" vol="100" key="60" len="48" pos="9312" name="C: 48" />
        <note pan="0" vol="100" key="61" len="24" pos="9360" name="C#: 24" />
        <note pan="0" vol="100" key="64" len="24" pos="9384" name="E: 24" />
        <note pan="0" vol="100" key="68" len="144" pos="9408" name="G#: 144" />
        <note pan="0" vol="100" key="68" len="48" pos="9552" name="G#: 48" />
        <note pan="0" vol="100" key="67" len="48" pos="9600" name="G: 48" />
        <note pan="0" vol="100" key="67" len="144" pos="9648" name="G: 144" />
        <note pan="0" vol="100" key="72" len="24" pos="9792" name="C*: 24" />
        <note pan="0" vol="100" key="68" len="24" pos="9816" name="G#: 24" />
        <note pan="0" vol="100" key="67" len="48" pos="9840" name="G: 48" />
        <note pan="0" vol="100" key="64" len="48" pos="9888" name="E: 48" />
        <note pan="0" vol="100" key="67" len="48" pos="9936" name="G: 48" />
        <note pan="0" vol="100" key="68" len="48" pos="9984" name="G#: 48" />
        <note pan="0" vol="100" key="67" len="144" pos="10032" name="G: 144" />
        <note pan="0" vol="100" key="64" len="48" pos="10176" name="E: 48" />
        <note pan="0" vol="100" key="64" len="48" pos="10224" name="E: 48" />
        <note pan="0" vol="100" key="64" len="48" pos="10272" name="E: 48" />
        <note pan="0" vol="100" key="61" len="48" pos="10320" name="C#: 48" />
        <note pan="0" vol="100" key="61" len="96" pos="10368" name="C#: 96" />
        <note pan="0" vol="100" key="60" len="48" pos="10464" name="C: 48" />
        <note pan="0" vol="100" key="64" len="48" pos="10512" name="E: 48" />
        <note pan="0" vol="100" key="61" len="48" pos="10560" name="C#: 48" />
        <note pan="0" vol="100" key="60" len="48" pos="10608" name="C: 48" />
        <note pan="0" vol="100" key="61" len="96" pos="10656" name="C#: 96" />
        <note pan="0" vol="100" key="60" len="48" pos="10752" name="C: 48" />
        <note pan="0" vol="100" key="60" len="48" pos="10800" name="C: 48" />
        <note pan="0" vol="100" key="60" len="48" pos="10848" name="C: 48" />
        <note pan="0" vol="100" key="64" len="144" pos="10896" name="E: 144" />
        <note pan="0" vol="100" key="67" len="48" pos="11040" name="G: 48" />
        <note pan="0" vol="100" key="61" len="48" pos="11088" name="C#: 48" />
        <note pan="0" vol="100" key="64" len="48" pos="11136" name="E: 48" />
        <note pan="0" vol="100" key="67" len="48" pos="11184" name="G: 48" />
        <note pan="0" vol="100" key="68" len="96" pos="11232" name="G#: 96" />
        <note pan="0" vol="100" key="67" len="48" pos="11328" name="G: 48" />
        <note pan="0" vol="100" key="67" len="96" pos="11376" name="G: 96" />
        <note pan="0" vol="100" key="68" len="48" pos="11472" name="G#: 48" />
        <note pan="0" vol="100" key="67" len="24" pos="11520" name="G: 24" />
        <note pan="0" vol="100" key="72" len="24" pos="11544" name="C*: 24" />
        <note pan="0" vol="100" key="72" len="144" pos="11568" name="C*: 144" />
        <note pan="0" vol="100" key="72" len="48" pos="11712" name="C*: 48" />
        <note pan="0" vol="100" key="67" len="48" pos="11760" name="G: 48" />
        <note pan="0" vol="100" key="67" len="48" pos="11808" name="G: 48" />
    </midiclip>
</lmms-project>