<?xml version="1.0"?>
<!DOCTYPE lmms-project>
<lmms-project version="20" creatorversion="0.0.3" type="midiclip" creator="SWAR">
    <head/>
    <midiclip steps="16" muted="0" name="49" color="#C7A651" type="1" pos="0">
        <note pan="0" vol="100" key="61" len="48" pos="0" name="C#: 48" />
        <note pan="0" vol="100" key="61" len="144" pos="48" name="C#: 144" />
        <note pan="0" vol="100" key="61" len="48" pos="192" name="C#: 48" />
        <note pan="0" vol="100" key="64" len="48" pos="240" name="E: 48" />
        <note pan="0" vol="100" key="60" len="48" pos="288" name="C: 48" />
        <note pan="0" vol="100" key="64" len="48" pos="336" name="E: 48" />
        <note pan="0" vol="100" key="61" len="96" pos="384" name="C#: 96" />
        <note pan="0" vol="100" key="60" len="48" pos="480" name="C: 48" />
        <note pan="0" vol="100" key="60" len="48" pos="528" name="C: 48" />
        <note pan="0" vol="100" key="64" len="96" pos="576" name="E: 96" />
        <note pan="0" vol="100" key="68" len="96" pos="672" name="G#: 96" />
        <note pan="0" vol="100" key="68" len="48" pos="768" name="G#: 48" />
        <note pan="0" vol="100" key="68" len="24" pos="816" name="G#: 24" />
        <note pan="0" vol="100" key="64" len="24" pos="840" name="E: 24" />
        <note pan="0" vol="100" key="60" len="48" pos="864" name="C: 48" />
        <note pan="0" vol="100" key="60" len="48" pos="912" name="C: 48" />
        <note pan="0" vol="100" key="61" len="48" pos="960" name="C#: 48" />
        <note pan="0" vol="100" key="61" len="96" pos="1008" name="C#: 96" />
        <note pan="0" vol="100" key="60" len="96" pos="1104" name="C: 96" />
        <note pan="0" vol="100" key="61" len="48" pos="1200" name="C#: 48" />
        <note pan="0" vol="100" key="67" len="48" pos="1248" name="G: 48" />
        <note pan="0" vol="100" key="67" len="48" pos="1296" name="G: 48" />
        <note pan="0" vol="100" key="61" len="24" pos="1344" name="C#: 24" />
        <note pan="0" vol="100" key="64" len="72" pos="1368" name="E: 72" />
        <note pan="0" vol="100" key="67" len="48" pos="1440" name="G: 48" />
        <note pan="0" vol="100" key="61" len="48" pos="1488" name="C#: 48" />
        <note pan="0" vol="100" key="61" len="48" pos="1536" name="C#: 48" />
        <note pan="0" vol="100" key="61" len="48" pos="1584" name="C#: 48" />
        <note pan="0" vol="100" key="61" len="24" pos="1632" name="C#: 24" />
        <note pan="0" vol="100" key="60" len="24" pos="1656" name="C: 24" />
        <note pan="0" vol="100" key="61" len="24" pos="1680" name="C#: 24" />
        <note pan="0" vol="100" key="64" len="24" pos="1704" name="E: 24" />
        <note pan="0" vol="100" key="67" len="96" pos="1728" name="G: 96" />
        <note pan="0" vol="100" key="68" len="48" pos="1824" name="G#: 48" />
        <note pan="0" vol="100" key="67" len="96" pos="1872" name="G: 96" />
        <note pan="0" vol="100" key="72" len="48" pos="1968" name="C*: 48" />
        <note pan="0" vol="100" key="68" len="96" pos="2016" name="G#: 96" />
        <note pan="0" vol="100" key="67" len="48" pos="2112" name="G: 48" />
        <note pan="0" vol="100" key="67" len="48" pos="2160" name="G: 48" />
        <note pan="0" vol="100" key="72" len="48" pos="2208" name="C*: 48" />
        <note pan="0" vol="100" key="72" len="48" pos="2256" name="C*: 48" />
        <note pan="0" vol="100" key="68" len="48" pos="2304" name="G#: 48" />
        <note pan="0" vol="100" key="68" len="144" pos="2352" name="G#: 144" />
        <note pan="0" vol="100" key="67" len="48" pos="2496" name="G: 48" />
        <note pan="0" vol="100" key="64" len="48" pos="2544" name="E: 48" />
        <note pan="0" vol="100" key="67" len="48" pos="2592" name="G: 48" />
        <note pan="0" vol="100" key="64" len="48" pos="2640" name="E: 48" />
        <note pan="0" vol="100" key="67" len="24" pos="2688" name="G: 24" />
        <note pan="0" vol="100" key="68" len="24" pos="2712" name="G#: 24" />
        <note pan="0" vol="100" key="67" len="48" pos="2736" name="G: 48" />
        <note pan="0" vol="100" key="67" len="48" pos="2784" name="G: 48" />
        <note pan="0" vol="100" key="64" len="48" pos="2832" name="E: 48" />
        <note pan="0" vol="100" key="67" len="48" pos="2880" name="G: 48" />
        <note pan="0" vol="100" key="68" len="48" pos="2928" name="G#: 48" />
        <note pan="0" vol="100" key="67" len="48" pos="2976" name="G: 48" />
        <note pan="0" vol="100" key="67" len="48" pos="3024" name="G: 48" />
        <note pan="0" vol="100" key="67" len="96" pos="3072" name="G: 96" />
        <note pan="0" vol="100" key="67" len="48" pos="3168" name="G: 48" />
        <note pan="0" vol="100" key="67" len="144" pos="3216" name="G: 144" />
        <note pan="0" vol="100" key="64" len="48" pos="3360" name="E: 48" />
        <note pan="0" vol="100" key="64" len="48" pos="3408" name="E: 48" />
        <note pan="0" vol="100" key="67" len="48" pos="3456" name="G: 48" />
        <note pan="0" vol="100" key="67" len="144" pos="3504" name="G: 144" />
        <note pan="0" vol="100" key="64" len="48" pos="3648" name="E: 48" />
        <note pan="0" vol="100" key="67" len="48" pos="3696" name="G: 48" />
        <note pan="0" vol="100" key="64" len="24" pos="3744" name="E: 24" />
        <note pan="0" vol="100" key="67" len="24" pos="3768" name="G: 24" />
        <note pan="0" vol="100" key="67" len="48" pos="3792" name="G: 48" />
        <note pan="0" vol="100" key="64" len="96" pos="3840" name="E: 96" />
        <note pan="0" vol="100" key="64" len="48" pos="3936" name="E: 48" />
        <note pan="0" vol="100" key="64" len="48" pos="3984" name="E: 48" />
        <note pan="0" vol="100" key="67" len="48" pos="4032" name="G: 48" />
        <note pan="0" vol="100" key="64" len="192" pos="4080" name="E: 192" />
        <note pan="0" vol="100" key="67" len="48" pos="4272" name="G: 48" />
        <note pan="0" vol="100" key="67" len="48" pos="4320" name="G: 48" />
        <note pan="0" vol="100" key="67" len="48" pos="4368" name="G: 48" />
        <note pan="0" vol="100" key="64" len="48" pos="4416" name="E: 48" />
        <note pan="0" vol="100" key="64" len="48" pos="4464" name="E: 48" />
        <note pan="0" vol="100" key="61" len="48" pos="4512" name="C#: 48" />
        <note pan="0" vol="100" key="64" len="48" pos="4560" name="E: 48" />
        <note pan="0" vol="100" key="60" len="48" pos="4608" name="C: 48" />
        <note pan="0" vol="100" key="64" len="24" pos="4656" name="E: 24" />
        <note pan="0" vol="100" key="67" len="24" pos="4680" name="G: 24" />
        <note pan="0" vol="100" key="67" len="48" pos="4704" name="G: 48" />
        <note pan="0" vol="100" key="67" len="48" pos="4752" name="G: 48" />
        <note pan="0" vol="100" key="68" len="48" pos="4800" name="G#: 48" />
        <note pan="0" vol="100" key="67" len="48" pos="4848" name="G: 48" />
        <note pan="0" vol="100" key="64" len="48" pos="4896" name="E: 48" />
        <note pan="0" vol="100" key="64" len="48" pos="4944" name="E: 48" />
        <note pan="0" vol="100" key="61" len="48" pos="4992" name="C#: 48" />
        <note pan="0" vol="100" key="60" len="48" pos="5040" name="C: 48" />
        <note pan="0" vol="100" key="60" len="48" pos="5088" name="C: 48" />
        <note pan="0" vol="100" key="60" len="48" pos="5136" name="C: 48" />
        <note pan="0" vol="100" key="60" len="48" pos="5184" name="C: 48" />
        <note pan="0" vol="100" key="61" len="48" pos="5232" name="C#: 48" />
        <note pan="0" vol="100" key="64" len="48" pos="5280" name="E: 48" />
        <note pan="0" vol="100" key="68" len="48" pos="5328" name="G#: 48" />
        <note pan="0" vol="100" key="67" len="48" pos="5376" name="G: 48" />
        <note pan="0" vol="100" key="67" len="48" pos="5424" name="G: 48" />
        <note pan="0" vol="100" key="68" len="48" pos="5472" name="G#: 48" />
        <note pan="0" vol="100" key="67" len="48" pos="5520" name="G: 48" />
        <note pan="0" vol="100" key="72" len="48" pos="5568" name="C*: 48" />
        <note pan="0" vol="100" key="72" len="48" pos="5616" name="C*: 48" />
        <note pan="0" vol="100" key="68" len="96" pos="5664" name="G#: 96" />
        <note pan="0" vol="100" key="67" len="144" pos="5760" name="G: 144" />
        <note pan="0" vol="100" key="67" len="48" pos="5904" name="G: 48" />
        <note pan="0" vol="100" key="68" len="48" pos="5952" name="G#: 48" />
        <note pan="0" vol="100" key="64" len="48" pos="6000" name="E: 48" />
        <note pan="0" vol="100" key="67" len="96" pos="6048" name="G: 96" />
        <note pan="0" vol="100" key="64" len="48" pos="6144" name="E: 48" />
        <note pan="0" vol="100" key="67" len="96" pos="6192" name="G: 96" />
        <note pan="0" vol="100" key="67" len="48" pos="6288" name="G: 48" />
        <note pan="0" vol="100" key="67" len="96" pos="6336" name="G: 96" />
        <note pan="0" vol="100" key="68" len="96" pos="6432" name="G#: 96" />
        <note pan="0" vol="100" key="68" len="48" pos="6528" name="G#: 48" />
        <note pan="0" vol="100" key="67" len="48" pos="6576" name="G: 48" />
        <note pan="0" vol="100" key="61" len="48" pos="6624" name="C#: 48" />
        <note pan="0" vol="100" key="60" len="48" pos="6672" name="C: 48" />
        <note pan="0" vol="100" key="60" len="48" pos="6720" name="C: 48" />
        <note pan="0" vol="100" key="61" len="48" pos="6768" name="C#: 48" />
        <note pan="0" vol="100" key="60" len="48" pos="6816" name="C: 48" />
        <note pan="0" vol="100" key="64" len="48" pos="6864" name="E: 48" />
        <note pan="0" vol="100" key="61" len="48" pos="6912" name="C#: 48" />
        <note pan="0" vol="100" key="64" len="96" pos="6960" name="E: 96" />
        <note pan="0" vol="100" key="61" len="48" pos="7056" name="C#: 48" />
        <note pan="0" vol="100" key="60" len="48" pos="7104" name="C: 48" />
        <note pan="0" vol="100" key="60" len="48" pos="7152" name="C: 48" />
        <note pan="0" vol="100" key="60" len="24" pos="7200" name="C: 24" />
        <note pan="0" vol="100" key="61" len="120" pos="7224" name="C#: 120" />
        <note pan="0" vol="100" key="60" len="48" pos="7344" name="C: 48" />
        <note pan="0" vol="100" key="61" len="48" pos="7392" name="C#: 48" />
        <note pan="0" vol="100" key="64" len="48" pos="7440" name="E: 48" />
        <note pan="0" vol="100" key="68" len="48" pos="7488" name="G#: 48" />
        <note pan="0" vol="100" key="64" len="48" pos="7536" name="E: 48" />
        <note pan="0" vol="100" key="64" len="48" pos="7584" name="E: 48" />
        <note pan="0" vol="100" key="61" len="48" pos="7632" name="C#: 48" />
        <note pan="0" vol="100" key="64" len="48" pos="7680" name="E: 48" />
        <note pan="0" vol="100" key="67" len="96" pos="7728" name="G: 96" />
        <note pan="0" vol="100" key="68" len="48" pos="7824" name="G#: 48" />
        <note pan="0" vol="100" key="67" len="48" pos="7872" name="G: 48" />
        <note pan="0" vol="100" key="72" len="144" pos="7920" name="C*: 144" />
        <note pan="0" vol="100" key="68" len="48" pos="8064" name="G#: 48" />
        <note pan="0" vol="100" key="72" len="48" pos="8112" name="C*: 48" />
        <note pan="0" vol="100" key="67" len="48" pos="8160" name="G: 48" />
        <note pan="0" vol="100" key="64" len="48" pos="8208" name="E: 48" />
        <note pan="0" vol="100" key="67" len="24" pos="8256" name="G: 24" />
        <note pan="0" vol="100" key="67" len="24" pos="8280" name="G: 24" />
        <note pan="0" vol="100" key="68" len="24" pos="8304" name="G#: 24" />
        <note pan="0" vol="100" key="67" len="24" pos="8328" name="G: 24" />
        <note pan="0" vol="100" key="67" len="48" pos="8352" name="G: 48" />
        <note pan="0" vol="100" key="67" len="48" pos="8400" name="G: 48" />
        <note pan="0" vol="100" key="64" len="48" pos="8448" name="E: 48" />
        <note pan="0" vol="100" key="61" len="48" pos="8496" name="C#: 48" />
        <note pan="0" vol="100" key="60" len="96" pos="8544" name="C: 96" />
        <note pan="0" vol="100" key="60" len="48" pos="8640" name="C: 48" />
        <note pan="0" vol="100" key="60" len="48" pos="8688" name="C: 48" />
        <note pan="0" vol="100" key="60" len="48" pos="8736" name="C: 48" />
        <note pan="0" vol="100" key="60" len="48" pos="8784" name="C: 48" />
        <note pan="0" vol="100" key="61" len="48" pos="8832" name="C#: 48" />
        <note pan="0" vol="100" key="64" len="24" pos="8880" name="E: 24" />
        <note pan="0" vol="100" key="64" len="24" pos="8904" name="E: 24" />
        <note pan="0" vol="100" key="67" len="48" pos="8928" name="G: 48" />
        <note pan="0" vol="100" key="68" len="48" pos="8976" name="G#: 48" />
        <note pan="0" vol="100" key="68" len="240" pos="9024" name="G#: 240" />
        <note pan="0" vol="100" key="72" len="24" pos="9264" name="C*: 24" />
        <note pan="0" vol="100" key="72" len="24" pos="9288" name="C*: 24" />
        <note pan="0" vol="100" key="72" len="48" pos="9312" name="C*: 48" />
        <note pan="0" vol="100" key="72" len="48" pos="9360" name="C*: 48" />
        <note pan="0" vol="100" key="68" len="48" pos="9408" name="G#: 48" />
        <note pan="0" vol="100" key="64" len="48" pos="9456" name="E: 48" />
        <note pan="0" vol="100" key="67" len="48" pos="9504" name="G: 48" />
        <note pan="0" vol="100" key="64" len="24" pos="9552" name="E: 24" />
        <note pan="0" vol="100" key="64" len="24" pos="9576" name="E: 24" />
        <note pan="0" vol="100" key="64" len="48" pos="9600" name="E: 48" />
        <note pan="0" vol="100" key="67" len="48" pos="9648" name="G: 48" />
        <note pan="0" vol="100" key="64" len="24" pos="9696" name="E: 24" />
        <note pan="0" vol="100" key="67" len="72" pos="9720" name="G: 72" />
        <note pan="0" vol="100" key="68" len="96" pos="9792" name="G#: 96" />
        <note pan="0" vol="100" key="67" len="48" pos="9888" name="G: 48" />
        <note pan="0" vol="100" key="64" len="96" pos="9936" name="E: 96" />
        <note pan="0" vol="100" key="64" len="24" pos="10032" name="E: 24" />
        <note pan="0" vol="100" key="61" len="24" pos="10056" name="C#: 24" />
        <note pan="0" vol="100" key="64" len="96" pos="10080" name="E: 96" />
        <note pan="0" vol="100" key="67" len="48" pos="10176" name="G: 48" />
        <note pan="0" vol="100" key="64" len="96" pos="10224" name="E: 96" />
        <note pan="0" vol="100" key="61" len="96" pos="10320" name="C#: 96" />
        <note pan="0" vol="100" key="60" len="48" pos="10416" name="C: 48" />
        <note pan="0" vol="100" key="60" len="48" pos="10464" name="C: 48" />
        <note pan="0" vol="100" key="61" len="48" pos="10512" name="C#: 48" />
        <note pan="0" vol="100" key="64" len="48" pos="10560" name="E: 48" />
        <note pan="0" vol="100" key="67" len="96" pos="10608" name="G: 96" />
        <note pan="0" vol="100" key="67" len="48" pos="10704" name="G: 48" />
        <note pan="0" vol="100" key="67" len="96" pos="10752" name="G: 96" />
        <note pan="0" vol="100" key="68" len="96" pos="10848" name="G#: 96" />
        <note pan="0" vol="100" key="72" len="48" pos="10944" name="C*: 48" />
        <note pan="0" vol="100" key="72" len="48" pos="10992" name="C*: 48" />
        <note pan="0" vol="100" key="72" len="48" pos="11040" name="C*: 48" />
        <note pan="0" vol="100" key="72" len="48" pos="11088" name="C*: 48" />
        <note pan="0" vol="100" key="68" len="48" pos="11136" name="G#: 48" />
        <note pan="0" vol="100" key="67" len="48" pos="11184" name="G: 48" />
        <note pan="0" vol="100" key="64" len="48" pos="11232" name="E: 48" />
        <note pan="0" vol="100" key="68" len="24" pos="11280" name="G#: 24" />
        <note pan="0" vol="100" key="67" len="72" pos="11304" name="G: 72" />
        <note pan="0" vol="100" key="67" len="48" pos="11376" name="G: 48" />
        <note pan="0" vol="100" key="67" len="96" pos="11424" name="G: 96" />
        <note pan="0" vol="100" key="68" len="24" pos="11520" name="G#: 24" />
        <note pan="0" vol="100" key="67" len="72" pos="11544" name="G: 72" />
        <note pan="0" vol="100" key="64" len="24" pos="11616" name="E: 24" />
        <note pan="0" vol="100" key="61" len="24" pos="11640" name="C#: 24" />
        <note pan="0" vol="100" key="60" len="48" pos="11664" name="C: 48" />
        <note pan="0" vol="100" key="60" len="24" pos="11712" name="C: 24" />
        <note pan="0" vol="100" key="60" len="24" pos="11736" name="C: 24" />
    </midiclip>
</lmms-project>