<?xml version="1.0"?>
<!DOCTYPE lmms-project>
<lmms-project version="20" creatorversion="0.0.3" type="midiclip" creator="SWAR">
    <head/>
    <midiclip steps="16" muted="0" name="56" color="#786C50" type="1" pos="0">
        <note pan="0" vol="100" key="61" len="96" pos="0" name="C#: 96" />
        <note pan="0" vol="100" key="61" len="48" pos="96" name="C#: 48" />
        <note pan="0" vol="100" key="67" len="24" pos="144" name="G: 24" />
        <note pan="0" vol="100" key="68" len="24" pos="168" name="G#: 24" />
        <note pan="0" vol="100" key="67" len="48" pos="192" name="G: 48" />
        <note pan="0" vol="100" key="68" len="48" pos="240" name="G#: 48" />
        <note pan="0" vol="100" key="64" len="96" pos="288" name="E: 96" />
        <note pan="0" vol="100" key="67" len="96" pos="384" name="G: 96" />
        <note pan="0" vol="100" key="67" len="48" pos="480" name="G: 48" />
        <note pan="0" vol="100" key="72" len="48" pos="528" name="C*: 48" />
        <note pan="0" vol="100" key="72" len="96" pos="576" name="C*: 96" />
        <note pan="0" vol="100" key="67" len="24" pos="672" name="G: 24" />
        <note pan="0" vol="100" key="72" len="120" pos="696" name="C*: 120" />
        <note pan="0" vol="100" key="68" len="48" pos="816" name="G#: 48" />
        <note pan="0" vol="100" key="67" len="48" pos="864" name="G: 48" />
        <note pan="0" vol="100" key="68" len="96" pos="912" name="G#: 96" />
        <note pan="0" vol="100" key="67" len="96" pos="1008" name="G: 96" />
        <note pan="0" vol="100" key="67" len="48" pos="1104" name="G: 48" />
        <note pan="0" vol="100" key="67" len="48" pos="1152" name="G: 48" />
        <note pan="0" vol="100" key="67" len="48" pos="1200" name="G: 48" />
        <note pan="0" vol="100" key="64" len="96" pos="1248" name="E: 96" />
        <note pan="0" vol="100" key="67" len="48" pos="1344" name="G: 48" />
        <note pan="0" vol="100" key="72" len="48" pos="1392" name="C*: 48" />
        <note pan="0" vol="100" key="68" len="48" pos="1440" name="G#: 48" />
        <note pan="0" vol="100" key="64" len="48" pos="1488" name="E: 48" />
        <note pan="0" vol="100" key="67" len="24" pos="1536" name="G: 24" />
        <note pan="0" vol="100" key="64" len="24" pos="1560" name="E: 24" />
        <note pan="0" vol="100" key="67" len="24" pos="1584" name="G: 24" />
        <note pan="0" vol="100" key="68" len="24" pos="1608" name="G#: 24" />
        <note pan="0" vol="100" key="64" len="96" pos="1632" name="E: 96" />
        <note pan="0" vol="100" key="61" len="48" pos="1728" name="C#: 48" />
        <note pan="0" vol="100" key="60" len="48" pos="1776" name="C: 48" />
        <note pan="0" vol="100" key="60" len="24" pos="1824" name="C: 24" />
        <note pan="0" vol="100" key="61" len="24" pos="1848" name="C#: 24" />
        <note pan="0" vol="100" key="60" len="24" pos="1872" name="C: 24" />
        <note pan="0" vol="100" key="60" len="24" pos="1896" name="C: 24" />
        <note pan="0" vol="100" key="60" len="48" pos="1920" name="C: 48" />
        <note pan="0" vol="100" key="60" len="48" pos="1968" name="C: 48" />
        <note pan="0" vol="100" key="60" len="24" pos="2016" name="C: 24" />
        <note pan="0" vol="100" key="61" len="24" pos="2040" name="C#: 24" />
        <note pan="0" vol="100" key="67" len="96" pos="2064" name="G: 96" />
        <note pan="0" vol="100" key="68" len="48" pos="2160" name="G#: 48" />
        <note pan="0" vol="100" key="68" len="48" pos="2208" name="G#: 48" />
        <note pan="0" vol="100" key="67" len="48" pos="2256" name="G: 48" />
        <note pan="0" vol="100" key="68" len="48" pos="2304" name="G#: 48" />
        <note pan="0" vol="100" key="67" len="48" pos="2352" name="G: 48" />
        <note pan="0" vol="100" key="67" len="24" pos="2400" name="G: 24" />
        <note pan="0" vol="100" key="67" len="24" pos="2424" name="G: 24" />
        <note pan="0" vol="100" key="68" len="48" pos="2448" name="G#: 48" />
        <note pan="0" vol="100" key="68" len="48" pos="2496" name="G#: 48" />
        <note pan="0" vol="100" key="67" len="24" pos="2544" name="G: 24" />
        <note pan="0" vol="100" key="72" len="24" pos="2568" name="C*: 24" />
        <note pan="0" vol="100" key="67" len="24" pos="2592" name="G: 24" />
        <note pan="0" vol="100" key="72" len="24" pos="2616" name="C*: 24" />
        <note pan="0" vol="100" key="72" len="48" pos="2640" name="C*: 48" />
        <note pan="0" vol="100" key="72" len="48" pos="2688" name="C*: 48" />
        <note pan="0" vol="100" key="67" len="24" pos="2736" name="G: 24" />
        <note pan="0" vol="100" key="72" len="24" pos="2760" name="C*: 24" />
        <note pan="0" vol="100" key="68" len="144" pos="2784" name="G#: 144" />
        <note pan="0" vol="100" key="67" len="48" pos="2928" name="G: 48" />
        <note pan="0" vol="100" key="68" len="144" pos="2976" name="G#: 144" />
        <note pan="0" vol="100" key="67" len="24" pos="3120" name="G: 24" />
        <note pan="0" vol="100" key="72" len="24" pos="3144" name="C*: 24" />
        <note pan="0" vol="100" key="72" len="48" pos="3168" name="C*: 48" />
        <note pan="0" vol="100" key="68" len="96" pos="3216" name="G#: 96" />
        <note pan="0" vol="100" key="68" len="48" pos="3312" name="G#: 48" />
        <note pan="0" vol="100" key="72" len="48" pos="3360" name="C*: 48" />
        <note pan="0" vol="100" key="72" len="48" pos="3408" name="C*: 48" />
        <note pan="0" vol="100" key="72" len="48" pos="3456" name="C*: 48" />
        <note pan="0" vol="100" key="68" len="48" pos="3504" name="G#: 48" />
        <note pan="0" vol="100" key="67" len="48" pos="3552" name="G: 48" />
        <note pan="0" vol="100" key="67" len="96" pos="3600" name="G: 96" />
        <note pan="0" vol="100" key="72" len="48" pos="3696" name="C*: 48" />
        <note pan="0" vol="100" key="67" len="48" pos="3744" name="G: 48" />
        <note pan="0" vol="100" key="67" len="48" pos="3792" name="G: 48" />
        <note pan="0" vol="100" key="72" len="96" pos="3840" name="C*: 96" />
        <note pan="0" vol="100" key="72" len="48" pos="3936" name="C*: 48" />
        <note pan="0" vol="100" key="67" len="144" pos="3984" name="G: 144" />
        <note pan="0" vol="100" key="67" len="48" pos="4128" name="G: 48" />
        <note pan="0" vol="100" key="67" len="96" pos="4176" name="G: 96" />
        <note pan="0" vol="100" key="67" len="48" pos="4272" name="G: 48" />
        <note pan="0" vol="100" key="72" len="48" pos="4320" name="C*: 48" />
        <note pan="0" vol="100" key="72" len="48" pos="4368" name="C*: 48" />
        <note pan="0" vol="100" key="68" len="48" pos="4416" name="G#: 48" />
        <note pan="0" vol="100" key="68" len="48" pos="4464" name="G#: 48" />
        <note pan="0" vol="100" key="68" len="240" pos="4512" name="G#: 240" />
        <note pan="0" vol="100" key="64" len="24" pos="4752" name="E: 24" />
        <note pan="0" vol="100" key="68" len="24" pos="4776" name="G#: 24" />
        <note pan="0" vol="100" key="67" len="96" pos="4800" name="G: 96" />
        <note pan="0" vol="100" key="67" len="24" pos="4896" name="G: 24" />
        <note pan="0" vol="100" key="68" len="24" pos="4920" name="G#: 24" />
        <note pan="0" vol="100" key="67" len="48" pos="4944" name="G: 48" />
        <note pan="0" vol="100" key="67" len="48" pos="4992" name="G: 48" />
        <note pan="0" vol="100" key="68" len="48" pos="5040" name="G#: 48" />
        <note pan="0" vol="100" key="68" len="96" pos="5088" name="G#: 96" />
        <note pan="0" vol="100" key="64" len="48" pos="5184" name="E: 48" />
        <note pan="0" vol="100" key="67" len="48" pos="5232" name="G: 48" />
        <note pan="0" vol="100" key="67" len="24" pos="5280" name="G: 24" />
        <note pan="0" vol="100" key="64" len="24" pos="5304" name="E: 24" />
        <note pan="0" vol="100" key="67" len="24" pos="5328" name="G: 24" />
        <note pan="0" vol="100" key="67" len="72" pos="5352" name="G: 72" />
        <note pan="0" vol="100" key="68" len="48" pos="5424" name="G#: 48" />
        <note pan="0" vol="100" key="68" len="48" pos="5472" name="G#: 48" />
        <note pan="0" vol="100" key="67" len="48" pos="5520" name="G: 48" />
        <note pan="0" vol="100" key="67" len="96" pos="5568" name="G: 96" />
        <note pan="0" vol="100" key="64" len="24" pos="5664" name="E: 24" />
        <note pan="0" vol="100" key="61" len="24" pos="5688" name="C#: 24" />
        <note pan="0" vol="100" key="64" len="48" pos="5712" name="E: 48" />
        <note pan="0" vol="100" key="61" len="96" pos="5760" name="C#: 96" />
        <note pan="0" vol="100" key="61" len="48" pos="5856" name="C#: 48" />
        <note pan="0" vol="100" key="61" len="24" pos="5904" name="C#: 24" />
        <note pan="0" vol="100" key="60" len="24" pos="5928" name="C: 24" />
        <note pan="0" vol="100" key="61" len="48" pos="5952" name="C#: 48" />
        <note pan="0" vol="100" key="64" len="48" pos="6000" name="E: 48" />
        <note pan="0" vol="100" key="64" len="48" pos="6048" name="E: 48" />
        <note pan="0" vol="100" key="61" len="48" pos="6096" name="C#: 48" />
        <note pan="0" vol="100" key="61" len="96" pos="6144" name="C#: 96" />
        <note pan="0" vol="100" key="61" len="48" pos="6240" name="C#: 48" />
        <note pan="0" vol="100" key="64" len="24" pos="6288" name="E: 24" />
        <note pan="0" vol="100" key="67" len="24" pos="6312" name="G: 24" />
        <note pan="0" vol="100" key="68" len="24" pos="6336" name="G#: 24" />
        <note pan="0" vol="100" key="68" len="24" pos="6360" name="G#: 24" />
        <note pan="0" vol="100" key="67" len="48" pos="6384" name="G: 48" />
        <note pan="0" vol="100" key="68" len="96" pos="6432" name="G#: 96" />
        <note pan="0" vol="100" key="68" len="144" pos="6528" name="G#: 144" />
        <note pan="0" vol="100" key="68" len="48" pos="6672" name="G#: 48" />
        <note pan="0" vol="100" key="67" len="24" pos="6720" name="G: 24" />
        <note pan="0" vol="100" key="68" len="72" pos="6744" name="G#: 72" />
        <note pan="0" vol="100" key="67" len="96" pos="6816" name="G: 96" />
        <note pan="0" vol="100" key="72" len="48" pos="6912" name="C*: 48" />
        <note pan="0" vol="100" key="72" len="96" pos="6960" name="C*: 96" />
        <note pan="0" vol="100" key="67" len="48" pos="7056" name="G: 48" />
        <note pan="0" vol="100" key="64" len="96" pos="7104" name="E: 96" />
        <note pan="0" vol="100" key="68" len="48" pos="7200" name="G#: 48" />
        <note pan="0" vol="100" key="67" len="48" pos="7248" name="G: 48" />
        <note pan="0" vol="100" key="64" len="48" pos="7296" name="E: 48" />
        <note pan="0" vol="100" key="64" len="48" pos="7344" name="E: 48" />
        <note pan="0" vol="100" key="61" len="24" pos="7392" name="C#: 24" />
        <note pan="0" vol="100" key="60" len="24" pos="7416" name="C: 24" />
        <note pan="0" vol="100" key="61" len="48" pos="7440" name="C#: 48" />
        <note pan="0" vol="100" key="64" len="48" pos="7488" name="E: 48" />
        <note pan="0" vol="100" key="64" len="48" pos="7536" name="E: 48" />
        <note pan="0" vol="100" key="64" len="48" pos="7584" name="E: 48" />
        <note pan="0" vol="100" key="64" len="48" pos="7632" name="E: 48" />
        <note pan="0" vol="100" key="60" len="48" pos="7680" name="C: 48" />
        <note pan="0" vol="100" key="61" len="48" pos="7728" name="C#: 48" />
        <note pan="0" vol="100" key="64" len="48" pos="7776" name="E: 48" />
        <note pan="0" vol="100" key="67" len="96" pos="7824" name="G: 96" />
        <note pan="0" vol="100" key="64" len="48" pos="7920" name="E: 48" />
        <note pan="0" vol="100" key="68" len="96" pos="7968" name="G#: 96" />
        <note pan="0" vol="100" key="67" len="48" pos="8064" name="G: 48" />
        <note pan="0" vol="100" key="67" len="24" pos="8112" name="G: 24" />
        <note pan="0" vol="100" key="67" len="24" pos="8136" name="G: 24" />
        <note pan="0" vol="100" key="72" len="48" pos="8160" name="C*: 48" />
        <note pan="0" vol="100" key="68" len="144" pos="8208" name="G#: 144" />
        <note pan="0" vol="100" key="67" len="24" pos="8352" name="G: 24" />
        <note pan="0" vol="100" key="64" len="72" pos="8376" name="E: 72" />
        <note pan="0" vol="100" key="67" len="48" pos="8448" name="G: 48" />
        <note pan="0" vol="100" key="64" len="48" pos="8496" name="E: 48" />
        <note pan="0" vol="100" key="68" len="192" pos="8544" name="G#: 192" />
        <note pan="0" vol="100" key="67" len="144" pos="8736" name="G: 144" />
        <note pan="0" vol="100" key="64" len="48" pos="8880" name="E: 48" />
        <note pan="0" vol="100" key="67" len="24" pos="8928" name="G: 24" />
        <note pan="0" vol="100" key="68" len="24" pos="8952" name="G#: 24" />
        <note pan="0" vol="100" key="67" len="48" pos="8976" name="G: 48" />
        <note pan="0" vol="100" key="64" len="48" pos="9024" name="E: 48" />
        <note pan="0" vol="100" key="61" len="24" pos="9072" name="C#: 24" />
        <note pan="0" vol="100" key="61" len="24" pos="9096" name="C#: 24" />
        <note pan="0" vol="100" key="61" len="48" pos="9120" name="C#: 48" />
        <note pan="0" vol="100" key="60" len="48" pos="9168" name="C: 48" />
        <note pan="0" vol="100" key="64" len="48" pos="9216" name="E: 48" />
        <note pan="0" vol="100" key="67" len="24" pos="9264" name="G: 24" />
        <note pan="0" vol="100" key="61" len="24" pos="9288" name="C#: 24" />
        <note pan="0" vol="100" key="64" len="48" pos="9312" name="E: 48" />
        <note pan="0" vol="100" key="64" len="48" pos="9360" name="E: 48" />
        <note pan="0" vol="100" key="67" len="48" pos="9408" name="G: 48" />
        <note pan="0" vol="100" key="68" len="48" pos="9456" name="G#: 48" />
        <note pan="0" vol="100" key="67" len="24" pos="9504" name="G: 24" />
        <note pan="0" vol="100" key="67" len="120" pos="9528" name="G: 120" />
        <note pan="0" vol="100" key="68" len="48" pos="9648" name="G#: 48" />
        <note pan="0" vol="100" key="64" len="48" pos="9696" name="E: 48" />
        <note pan="0" vol="100" key="64" len="48" pos="9744" name="E: 48" />
        <note pan="0" vol="100" key="67" len="48" pos="9792" name="G: 48" />
        <note pan="0" vol="100" key="68" len="48" pos="9840" name="G#: 48" />
        <note pan="0" vol="100" key="68" len="96" pos="9888" name="G#: 96" />
        <note pan="0" vol="100" key="67" len="48" pos="9984" name="G: 48" />
        <note pan="0" vol="100" key="68" len="48" pos="10032" name="G#: 48" />
        <note pan="0" vol="100" key="67" len="96" pos="10080" name="G: 96" />
        <note pan="0" vol="100" key="72" len="48" pos="10176" name="C*: 48" />
        <note pan="0" vol="100" key="72" len="48" pos="10224" name="C*: 48" />
        <note pan="0" vol="100" key="72" len="96" pos="10272" name="C*: 96" />
        <note pan="0" vol="100" key="67" len="48" pos="10368" name="G: 48" />
        <note pan="0" vol="100" key="72" len="144" pos="10416" name="C*: 144" />
        <note pan="0" vol="100" key="72" len="48" pos="10560" name="C*: 48" />
        <note pan="0" vol="100" key="72" len="48" pos="10608" name="C*: 48" />
        <note pan="0" vol="100" key="72" len="48" pos="10656" name="C*: 48" />
        <note pan="0" vol="100" key="67" len="48" pos="10704" name="G: 48" />
        <note pan="0" vol="100" key="72" len="48" pos="10752" name="C*: 48" />
        <note pan="0" vol="100" key="72" len="48" pos="10800" name="C*: 48" />
        <note pan="0" vol="100" key="68" len="96" pos="10848" name="G#: 96" />
        <note pan="0" vol="100" key="67" len="24" pos="10944" name="G: 24" />
        <note pan="0" vol="100" key="67" len="24" pos="10968" name="G: 24" />
        <note pan="0" vol="100" key="68" len="48" pos="10992" name="G#: 48" />
        <note pan="0" vol="100" key="67" len="144" pos="11040" name="G: 144" />
        <note pan="0" vol="100" key="67" len="24" pos="11184" name="G: 24" />
        <note pan="0" vol="100" key="67" len="24" pos="11208" name="G: 24" />
        <note pan="0" vol="100" key="67" len="24" pos="11232" name="G: 24" />
        <note pan="0" vol="100" key="64" len="24" pos="11256" name="E: 24" />
        <note pan="0" vol="100" key="67" len="24" pos="11280" name="G: 24" />
        <note pan="0" vol="100" key="68" len="72" pos="11304" name="G#: 72" />
        <note pan="0" vol="100" key="67" len="48" pos="11376" name="G: 48" />
        <note pan="0" vol="100" key="61" len="48" pos="11424" name="C#: 48" />
        <note pan="0" vol="100" key="60" len="48" pos="11472" name="C: 48" />
        <note pan="0" vol="100" key="60" len="24" pos="11520" name="C: 24" />
        <note pan="0" vol="100" key="60" len="72" pos="11544" name="C: 72" />
        <note pan="0" vol="100" key="61" len="24" pos="11616" name="C#: 24" />
        <note pan="0" vol="100" key="64" len="24" pos="11640" name="E: 24" />
        <note pan="0" vol="100" key="67" len="192" pos="11664" name="G: 192" />
        <note pan="0" vol="100" key="68" len="48" pos="11856" name="G#: 48" />
        <note pan="0" vol="100" key="67" len="48" pos="11904" name="G: 48" />
        <note pan="0" vol="100" key="68" len="48" pos="11952" name="G#: 48" />
        <note pan="0" vol="100" key="68" len="144" pos="12000" name="G#: 144" />
    </midiclip>
</lmms-project>