<?xml version="1.0"?>
<!DOCTYPE lmms-project>
<lmms-project version="20" creatorversion="0.0.3" type="midiclip" creator="SWAR">
    <head/>
    <midiclip steps="16" muted="0" name="61" color="#C7A651" type="1" pos="0">
        <note pan="0" vol="100" key="61" len="24" pos="0" name="C#: 24" />
        <note pan="0" vol="100" key="60" len="24" pos="24" name="C: 24" />
        <note pan="0" vol="100" key="61" len="48" pos="48" name="C#: 48" />
        <note pan="0" vol="100" key="61" len="48" pos="96" name="C#: 48" />
        <note pan="0" vol="100" key="61" len="96" pos="144" name="C#: 96" />
        <note pan="0" vol="100" key="60" len="24" pos="240" name="C: 24" />
        <note pan="0" vol="100" key="60" len="24" pos="264" name="C: 24" />
        <note pan="0" vol="100" key="61" len="48" pos="288" name="C#: 48" />
        <note pan="0" vol="100" key="61" len="96" pos="336" name="C#: 96" />
        <note pan="0" vol="100" key="60" len="48" pos="432" name="C: 48" />
        <note pan="0" vol="100" key="64" len="48" pos="480" name="E: 48" />
        <note pan="0" vol="100" key="61" len="48" pos="528" name="C#: 48" />
        <note pan="0" vol="100" key="60" len="48" pos="576" name="C: 48" />
        <note pan="0" vol="100" key="61" len="48" pos="624" name="C#: 48" />
        <note pan="0" vol="100" key="64" len="96" pos="672" name="E: 96" />
        <note pan="0" vol="100" key="67" len="48" pos="768" name="G: 48" />
        <note pan="0" vol="100" key="67" len="48" pos="816" name="G: 48" />
        <note pan="0" vol="100" key="72" len="48" pos="864" name="C*: 48" />
        <note pan="0" vol="100" key="67" len="96" pos="912" name="G: 96" />
        <note pan="0" vol="100" key="64" len="96" pos="1008" name="E: 96" />
        <note pan="0" vol="100" key="67" len="48" pos="1104" name="G: 48" />
        <note pan="0" vol="100" key="67" len="48" pos="1152" name="G: 48" />
        <note pan="0" vol="100" key="68" len="24" pos="1200" name="G#: 24" />
        <note pan="0" vol="100" key="68" len="24" pos="1224" name="G#: 24" />
        <note pan="0" vol="100" key="67" len="96" pos="1248" name="G: 96" />
        <note pan="0" vol="100" key="67" len="48" pos="1344" name="G: 48" />
        <note pan="0" vol="100" key="67" len="48" pos="1392" name="G: 48" />
        <note pan="0" vol="100" key="67" len="96" pos="1440" name="G: 96" />
        <note pan="0" vol="100" key="68" len="96" pos="1536" name="G#: 96" />
        <note pan="0" vol="100" key="64" len="48" pos="1632" name="E: 48" />
        <note pan="0" vol="100" key="64" len="48" pos="1680" name="E: 48" />
        <note pan="0" vol="100" key="61" len="96" pos="1728" name="C#: 96" />
        <note pan="0" vol="100" key="60" len="48" pos="1824" name="C: 48" />
        <note pan="0" vol="100" key="60" len="48" pos="1872" name="C: 48" />
        <note pan="0" vol="100" key="60" len="24" pos="1920" name="C: 24" />
        <note pan="0" vol="100" key="60" len="24" pos="1944" name="C: 24" />
        <note pan="0" vol="100" key="64" len="48" pos="1968" name="E: 48" />
        <note pan="0" vol="100" key="67" len="48" pos="2016" name="G: 48" />
        <note pan="0" vol="100" key="67" len="48" pos="2064" name="G: 48" />
        <note pan="0" vol="100" key="67" len="48" pos="2112" name="G: 48" />
        <note pan="0" vol="100" key="68" len="48" pos="2160" name="G#: 48" />
        <note pan="0" vol="100" key="67" len="144" pos="2208" name="G: 144" />
        <note pan="0" vol="100" key="72" len="192" pos="2352" name="C*: 192" />
        <note pan="0" vol="100" key="67" len="24" pos="2544" name="G: 24" />
        <note pan="0" vol="100" key="67" len="24" pos="2568" name="G: 24" />
        <note pan="0" vol="100" key="68" len="48" pos="2592" name="G#: 48" />
        <note pan="0" vol="100" key="67" len="48" pos="2640" name="G: 48" />
        <note pan="0" vol="100" key="67" len="24" pos="2688" name="G: 24" />
        <note pan="0" vol="100" key="67" len="24" pos="2712" name="G: 24" />
        <note pan="0" vol="100" key="68" len="96" pos="2736" name="G#: 96" />
        <note pan="0" vol="100" key="67" len="48" pos="2832" name="G: 48" />
        <note pan="0" vol="100" key="67" len="96" pos="2880" name="G: 96" />
        <note pan="0" vol="100" key="67" len="96" pos="2976" name="G: 96" />
        <note pan="0" vol="100" key="67" len="48" pos="3072" name="G: 48" />
        <note pan="0" vol="100" key="72" len="48" pos="3120" name="C*: 48" />
        <note pan="0" vol="100" key="72" len="96" pos="3168" name="C*: 96" />
        <note pan="0" vol="100" key="68" len="96" pos="3264" name="G#: 96" />
        <note pan="0" vol="100" key="72" len="48" pos="3360" name="C*: 48" />
        <note pan="0" vol="100" key="72" len="96" pos="3408" name="C*: 96" />
        <note pan="0" vol="100" key="72" len="24" pos="3504" name="C*: 24" />
        <note pan="0" vol="100" key="72" len="24" pos="3528" name="C*: 24" />
        <note pan="0" vol="100" key="68" len="48" pos="3552" name="G#: 48" />
        <note pan="0" vol="100" key="72" len="48" pos="3600" name="C*: 48" />
        <note pan="0" vol="100" key="72" len="48" pos="3648" name="C*: 48" />
        <note pan="0" vol="100" key="68" len="48" pos="3696" name="G#: 48" />
        <note pan="0" vol="100" key="72" len="48" pos="3744" name="C*: 48" />
        <note pan="0" vol="100" key="72" len="24" pos="3792" name="C*: 24" />
        <note pan="0" vol="100" key="67" len="72" pos="3816" name="G: 72" />
        <note pan="0" vol="100" key="64" len="96" pos="3888" name="E: 96" />
        <note pan="0" vol="100" key="64" len="48" pos="3984" name="E: 48" />
        <note pan="0" vol="100" key="67" len="96" pos="4032" name="G: 96" />
        <note pan="0" vol="100" key="64" len="48" pos="4128" name="E: 48" />
        <note pan="0" vol="100" key="67" len="48" pos="4176" name="G: 48" />
        <note pan="0" vol="100" key="68" len="48" pos="4224" name="G#: 48" />
        <note pan="0" vol="100" key="67" len="96" pos="4272" name="G: 96" />
        <note pan="0" vol="100" key="67" len="48" pos="4368" name="G: 48" />
        <note pan="0" vol="100" key="68" len="48" pos="4416" name="G#: 48" />
        <note pan="0" vol="100" key="68" len="48" pos="4464" name="G#: 48" />
        <note pan="0" vol="100" key="67" len="48" pos="4512" name="G: 48" />
        <note pan="0" vol="100" key="67" len="48" pos="4560" name="G: 48" />
        <note pan="0" vol="100" key="64" len="48" pos="4608" name="E: 48" />
        <note pan="0" vol="100" key="61" len="96" pos="4656" name="C#: 96" />
        <note pan="0" vol="100" key="64" len="48" pos="4752" name="E: 48" />
        <note pan="0" vol="100" key="60" len="48" pos="4800" name="C: 48" />
        <note pan="0" vol="100" key="61" len="48" pos="4848" name="C#: 48" />
        <note pan="0" vol="100" key="60" len="48" pos="4896" name="C: 48" />
        <note pan="0" vol="100" key="61" len="96" pos="4944" name="C#: 96" />
        <note pan="0" vol="100" key="67" len="48" pos="5040" name="G: 48" />
        <note pan="0" vol="100" key="67" len="48" pos="5088" name="G: 48" />
        <note pan="0" vol="100" key="64" len="96" pos="5136" name="E: 96" />
        <note pan="0" vol="100" key="67" len="48" pos="5232" name="G: 48" />
        <note pan="0" vol="100" key="68" len="24" pos="5280" name="G#: 24" />
        <note pan="0" vol="100" key="68" len="168" pos="5304" name="G#: 168" />
        <note pan="0" vol="100" key="67" len="48" pos="5472" name="G: 48" />
        <note pan="0" vol="100" key="67" len="24" pos="5520" name="G: 24" />
        <note pan="0" vol="100" key="72" len="24" pos="5544" name="C*: 24" />
        <note pan="0" vol="100" key="72" len="96" pos="5568" name="C*: 96" />
        <note pan="0" vol="100" key="67" len="48" pos="5664" name="G: 48" />
        <note pan="0" vol="100" key="67" len="48" pos="5712" name="G: 48" />
        <note pan="0" vol="100" key="72" len="96" pos="5760" name="C*: 96" />
        <note pan="0" vol="100" key="72" len="48" pos="5856" name="C*: 48" />
        <note pan="0" vol="100" key="72" len="48" pos="5904" name="C*: 48" />
        <note pan="0" vol="100" key="72" len="48" pos="5952" name="C*: 48" />
        <note pan="0" vol="100" key="67" len="96" pos="6000" name="G: 96" />
        <note pan="0" vol="100" key="64" len="48" pos="6096" name="E: 48" />
        <note pan="0" vol="100" key="67" len="48" pos="6144" name="G: 48" />
        <note pan="0" vol="100" key="64" len="144" pos="6192" name="E: 144" />
        <note pan="0" vol="100" key="64" len="48" pos="6336" name="E: 48" />
        <note pan="0" vol="100" key="67" len="48" pos="6384" name="G: 48" />
        <note pan="0" vol="100" key="67" len="96" pos="6432" name="G: 96" />
        <note pan="0" vol="100" key="64" len="48" pos="6528" name="E: 48" />
        <note pan="0" vol="100" key="67" len="48" pos="6576" name="G: 48" />
        <note pan="0" vol="100" key="67" len="48" pos="6624" name="G: 48" />
        <note pan="0" vol="100" key="67" len="24" pos="6672" name="G: 24" />
        <note pan="0" vol="100" key="67" len="24" pos="6696" name="G: 24" />
        <note pan="0" vol="100" key="67" len="48" pos="6720" name="G: 48" />
        <note pan="0" vol="100" key="67" len="48" pos="6768" name="G: 48" />
        <note pan="0" vol="100" key="67" len="96" pos="6816" name="G: 96" />
        <note pan="0" vol="100" key="68" len="48" pos="6912" name="G#: 48" />
        <note pan="0" vol="100" key="67" len="48" pos="6960" name="G: 48" />
        <note pan="0" vol="100" key="67" len="48" pos="7008" name="G: 48" />
        <note pan="0" vol="100" key="67" len="48" pos="7056" name="G: 48" />
        <note pan="0" vol="100" key="64" len="48" pos="7104" name="E: 48" />
        <note pan="0" vol="100" key="60" len="240" pos="7152" name="C: 240" />
        <note pan="0" vol="100" key="61" len="48" pos="7392" name="C#: 48" />
        <note pan="0" vol="100" key="64" len="48" pos="7440" name="E: 48" />
        <note pan="0" vol="100" key="61" len="48" pos="7488" name="C#: 48" />
        <note pan="0" vol="100" key="64" len="48" pos="7536" name="E: 48" />
        <note pan="0" vol="100" key="68" len="48" pos="7584" name="G#: 48" />
        <note pan="0" vol="100" key="67" len="144" pos="7632" name="G: 144" />
        <note pan="0" vol="100" key="68" len="48" pos="7776" name="G#: 48" />
        <note pan="0" vol="100" key="67" len="48" pos="7824" name="G: 48" />
        <note pan="0" vol="100" key="67" len="48" pos="7872" name="G: 48" />
        <note pan="0" vol="100" key="68" len="96" pos="7920" name="G#: 96" />
        <note pan="0" vol="100" key="67" len="48" pos="8016" name="G: 48" />
        <note pan="0" vol="100" key="67" len="144" pos="8064" name="G: 144" />
        <note pan="0" vol="100" key="72" len="144" pos="8208" name="C*: 144" />
        <note pan="0" vol="100" key="72" len="144" pos="8352" name="C*: 144" />
        <note pan="0" vol="100" key="68" len="48" pos="8496" name="G#: 48" />
        <note pan="0" vol="100" key="68" len="48" pos="8544" name="G#: 48" />
        <note pan="0" vol="100" key="72" len="48" pos="8592" name="C*: 48" />
        <note pan="0" vol="100" key="72" len="144" pos="8640" name="C*: 144" />
        <note pan="0" vol="100" key="68" len="96" pos="8784" name="G#: 96" />
        <note pan="0" vol="100" key="68" len="48" pos="8880" name="G#: 48" />
        <note pan="0" vol="100" key="72" len="48" pos="8928" name="C*: 48" />
        <note pan="0" vol="100" key="68" len="48" pos="8976" name="G#: 48" />
        <note pan="0" vol="100" key="67" len="24" pos="9024" name="G: 24" />
        <note pan="0" vol="100" key="67" len="24" pos="9048" name="G: 24" />
        <note pan="0" vol="100" key="64" len="48" pos="9072" name="E: 48" />
        <note pan="0" vol="100" key="68" len="24" pos="9120" name="G#: 24" />
        <note pan="0" vol="100" key="67" len="72" pos="9144" name="G: 72" />
        <note pan="0" vol="100" key="64" len="48" pos="9216" name="E: 48" />
        <note pan="0" vol="100" key="60" len="24" pos="9264" name="C: 24" />
        <note pan="0" vol="100" key="60" len="24" pos="9288" name="C: 24" />
        <note pan="0" vol="100" key="60" len="144" pos="9312" name="C: 144" />
        <note pan="0" vol="100" key="61" len="48" pos="9456" name="C#: 48" />
        <note pan="0" vol="100" key="60" len="48" pos="9504" name="C: 48" />
        <note pan="0" vol="100" key="60" len="96" pos="9552" name="C: 96" />
        <note pan="0" vol="100" key="61" len="48" pos="9648" name="C#: 48" />
        <note pan="0" vol="100" key="67" len="48" pos="9696" name="G: 48" />
        <note pan="0" vol="100" key="68" len="48" pos="9744" name="G#: 48" />
        <note pan="0" vol="100" key="67" len="48" pos="9792" name="G: 48" />
        <note pan="0" vol="100" key="67" len="48" pos="9840" name="G: 48" />
        <note pan="0" vol="100" key="68" len="48" pos="9888" name="G#: 48" />
        <note pan="0" vol="100" key="72" len="48" pos="9936" name="C*: 48" />
        <note pan="0" vol="100" key="72" len="48" pos="9984" name="C*: 48" />
        <note pan="0" vol="100" key="68" len="96" pos="10032" name="G#: 96" />
        <note pan="0" vol="100" key="64" len="48" pos="10128" name="E: 48" />
        <note pan="0" vol="100" key="64" len="96" pos="10176" name="E: 96" />
        <note pan="0" vol="100" key="67" len="48" pos="10272" name="G: 48" />
        <note pan="0" vol="100" key="68" len="48" pos="10320" name="G#: 48" />
        <note pan="0" vol="100" key="67" len="48" pos="10368" name="G: 48" />
        <note pan="0" vol="100" key="64" len="48" pos="10416" name="E: 48" />
        <note pan="0" vol="100" key="61" len="48" pos="10464" name="C#: 48" />
        <note pan="0" vol="100" key="60" len="48" pos="10512" name="C: 48" />
        <note pan="0" vol="100" key="61" len="48" pos="10560" name="C#: 48" />
        <note pan="0" vol="100" key="60" len="48" pos="10608" name="C: 48" />
        <note pan="0" vol="100" key="61" len="96" pos="10656" name="C#: 96" />
        <note pan="0" vol="100" key="60" len="48" pos="10752" name="C: 48" />
        <note pan="0" vol="100" key="60" len="48" pos="10800" name="C: 48" />
        <note pan="0" vol="100" key="61" len="48" pos="10848" name="C#: 48" />
        <note pan="0" vol="100" key="64" len="48" pos="10896" name="E: 48" />
        <note pan="0" vol="100" key="64" len="48" pos="10944" name="E: 48" />
        <note pan="0" vol="100" key="60" len="48" pos="10992" name="C: 48" />
        <note pan="0" vol="100" key="61" len="96" pos="11040" name="C#: 96" />
        <note pan="0" vol="100" key="64" len="48" pos="11136" name="E: 48" />
        <note pan="0" vol="100" key="64" len="48" pos="11184" name="E: 48" />
        <note pan="0" vol="100" key="67" len="96" pos="11232" name="G: 96" />
        <note pan="0" vol="100" key="67" len="48" pos="11328" name="G: 48" />
        <note pan="0" vol="100" key="68" len="48" pos="11376" name="G#: 48" />
        <note pan="0" vol="100" key="67" len="48" pos="11424" name="G: 48" />
        <note pan="0" vol="100" key="68" len="48" pos="11472" name="G#: 48" />
        <note pan="0" vol="100" key="67" len="24" pos="11520" name="G: 24" />
        <note pan="0" vol="100" key="68" len="24" pos="11544" name="G#: 24" />
        <note pan="0" vol="100" key="68" len="96" pos="11568" name="G#: 96" />
        <note pan="0" vol="100" key="67" len="144" pos="11664" name="G: 144" />
        <note pan="0" vol="100" key="67" len="96" pos="11808" name="G: 96" />
        <note pan="0" vol="100" key="72" len="48" pos="11904" name="C*: 48" />
    </midiclip>
</lmms-project>