<?xml version="1.0"?>
<!DOCTYPE lmms-project>
<lmms-project version="20" creatorversion="0.0.3" type="midiclip" creator="SWAR">
    <head/>
    <midiclip steps="16" muted="0" name="67" color="#C7A651" type="1" pos="0">
        <note pan="0" vol="100" key="60" len="24" pos="0" name="C: 24" />
        <note pan="0" vol="100" key="61" len="24" pos="24" name="C#: 24" />
        <note pan="0" vol="100" key="61" len="48" pos="48" name="C#: 48" />
        <note pan="0" vol="100" key="60" len="48" pos="96" name="C: 48" />
        <note pan="0" vol="100" key="61" len="48" pos="144" name="C#: 48" />
        <note pan="0" vol="100" key="64" len="48" pos="192" name="E: 48" />
        <note pan="0" vol="100" key="67" len="192" pos="240" name="G: 192" />
        <note pan="0" vol="100" key="67" len="48" pos="432" name="G: 48" />
        <note pan="0" vol="100" key="68" len="48" pos="480" name="G#: 48" />
        <note pan="0" vol="100" key="68" len="48" pos="528" name="G#: 48" />
        <note pan="0" vol="100" key="67" len="48" pos="576" name="G: 48" />
        <note pan="0" vol="100" key="67" len="48" pos="624" name="G: 48" />
        <note pan="0" vol="100" key="72" len="24" pos="672" name="C*: 24" />
        <note pan="0" vol="100" key="72" len="168" pos="696" name="C*: 168" />
        <note pan="0" vol="100" key="68" len="48" pos="864" name="G#: 48" />
        <note pan="0" vol="100" key="68" len="48" pos="912" name="G#: 48" />
        <note pan="0" vol="100" key="67" len="96" pos="960" name="G: 96" />
        <note pan="0" vol="100" key="64" len="48" pos="1056" name="E: 48" />
        <note pan="0" vol="100" key="67" len="24" pos="1104" name="G: 24" />
        <note pan="0" vol="100" key="68" len="24" pos="1128" name="G#: 24" />
        <note pan="0" vol="100" key="67" len="48" pos="1152" name="G: 48" />
        <note pan="0" vol="100" key="61" len="48" pos="1200" name="C#: 48" />
        <note pan="0" vol="100" key="60" len="144" pos="1248" name="C: 144" />
        <note pan="0" vol="100" key="60" len="48" pos="1392" name="C: 48" />
        <note pan="0" vol="100" key="60" len="24" pos="1440" name="C: 24" />
        <note pan="0" vol="100" key="60" len="24" pos="1464" name="C: 24" />
        <note pan="0" vol="100" key="61" len="48" pos="1488" name="C#: 48" />
        <note pan="0" vol="100" key="60" len="48" pos="1536" name="C: 48" />
        <note pan="0" vol="100" key="60" len="48" pos="1584" name="C: 48" />
        <note pan="0" vol="100" key="60" len="96" pos="1632" name="C: 96" />
        <note pan="0" vol="100" key="60" len="48" pos="1728" name="C: 48" />
        <note pan="0" vol="100" key="61" len="48" pos="1776" name="C#: 48" />
        <note pan="0" vol="100" key="61" len="48" pos="1824" name="C#: 48" />
        <note pan="0" vol="100" key="60" len="48" pos="1872" name="C: 48" />
        <note pan="0" vol="100" key="60" len="48" pos="1920" name="C: 48" />
        <note pan="0" vol="100" key="64" len="48" pos="1968" name="E: 48" />
        <note pan="0" vol="100" key="61" len="48" pos="2016" name="C#: 48" />
        <note pan="0" vol="100" key="67" len="48" pos="2064" name="G: 48" />
        <note pan="0" vol="100" key="67" len="48" pos="2112" name="G: 48" />
        <note pan="0" vol="100" key="68" len="96" pos="2160" name="G#: 96" />
        <note pan="0" vol="100" key="67" len="48" pos="2256" name="G: 48" />
        <note pan="0" vol="100" key="72" len="96" pos="2304" name="C*: 96" />
        <note pan="0" vol="100" key="72" len="24" pos="2400" name="C*: 24" />
        <note pan="0" vol="100" key="72" len="72" pos="2424" name="C*: 72" />
        <note pan="0" vol="100" key="68" len="48" pos="2496" name="G#: 48" />
        <note pan="0" vol="100" key="68" len="48" pos="2544" name="G#: 48" />
        <note pan="0" vol="100" key="72" len="48" pos="2592" name="C*: 48" />
        <note pan="0" vol="100" key="68" len="48" pos="2640" name="G#: 48" />
        <note pan="0" vol="100" key="67" len="48" pos="2688" name="G: 48" />
        <note pan="0" vol="100" key="64" len="48" pos="2736" name="E: 48" />
        <note pan="0" vol="100" key="68" len="48" pos="2784" name="G#: 48" />
        <note pan="0" vol="100" key="67" len="48" pos="2832" name="G: 48" />
        <note pan="0" vol="100" key="68" len="48" pos="2880" name="G#: 48" />
        <note pan="0" vol="100" key="67" len="48" pos="2928" name="G: 48" />
        <note pan="0" vol="100" key="67" len="144" pos="2976" name="G: 144" />
        <note pan="0" vol="100" key="72" len="48" pos="3120" name="C*: 48" />
        <note pan="0" vol="100" key="68" len="48" pos="3168" name="G#: 48" />
        <note pan="0" vol="100" key="67" len="24" pos="3216" name="G: 24" />
        <note pan="0" vol="100" key="64" len="24" pos="3240" name="E: 24" />
        <note pan="0" vol="100" key="67" len="48" pos="3264" name="G: 48" />
        <note pan="0" vol="100" key="68" len="48" pos="3312" name="G#: 48" />
        <note pan="0" vol="100" key="68" len="24" pos="3360" name="G#: 24" />
        <note pan="0" vol="100" key="68" len="24" pos="3384" name="G#: 24" />
        <note pan="0" vol="100" key="67" len="48" pos="3408" name="G: 48" />
        <note pan="0" vol="100" key="68" len="48" pos="3456" name="G#: 48" />
        <note pan="0" vol="100" key="64" len="24" pos="3504" name="E: 24" />
        <note pan="0" vol="100" key="67" len="24" pos="3528" name="G: 24" />
        <note pan="0" vol="100" key="67" len="48" pos="3552" name="G: 48" />
        <note pan="0" vol="100" key="64" len="48" pos="3600" name="E: 48" />
        <note pan="0" vol="100" key="67" len="48" pos="3648" name="G: 48" />
        <note pan="0" vol="100" key="68" len="96" pos="3696" name="G#: 96" />
        <note pan="0" vol="100" key="68" len="96" pos="3792" name="G#: 96" />
        <note pan="0" vol="100" key="67" len="48" pos="3888" name="G: 48" />
        <note pan="0" vol="100" key="67" len="48" pos="3936" name="G: 48" />
        <note pan="0" vol="100" key="68" len="48" pos="3984" name="G#: 48" />
        <note pan="0" vol="100" key="68" len="48" pos="4032" name="G#: 48" />
        <note pan="0" vol="100" key="67" len="48" pos="4080" name="G: 48" />
        <note pan="0" vol="100" key="67" len="48" pos="4128" name="G: 48" />
        <note pan="0" vol="100" key="68" len="144" pos="4176" name="G#: 144" />
        <note pan="0" vol="100" key="64" len="96" pos="4320" name="E: 96" />
        <note pan="0" vol="100" key="67" len="48" pos="4416" name="G: 48" />
        <note pan="0" vol="100" key="67" len="48" pos="4464" name="G: 48" />
        <note pan="0" vol="100" key="64" len="48" pos="4512" name="E: 48" />
        <note pan="0" vol="100" key="61" len="144" pos="4560" name="C#: 144" />
        <note pan="0" vol="100" key="60" len="96" pos="4704" name="C: 96" />
        <note pan="0" vol="100" key="61" len="24" pos="4800" name="C#: 24" />
        <note pan="0" vol="100" key="61" len="24" pos="4824" name="C#: 24" />
        <note pan="0" vol="100" key="61" len="48" pos="4848" name="C#: 48" />
        <note pan="0" vol="100" key="64" len="48" pos="4896" name="E: 48" />
        <note pan="0" vol="100" key="60" len="96" pos="4944" name="C: 96" />
        <note pan="0" vol="100" key="61" len="48" pos="5040" name="C#: 48" />
        <note pan="0" vol="100" key="64" len="48" pos="5088" name="E: 48" />
        <note pan="0" vol="100" key="67" len="96" pos="5136" name="G: 96" />
        <note pan="0" vol="100" key="67" len="24" pos="5232" name="G: 24" />
        <note pan="0" vol="100" key="67" len="168" pos="5256" name="G: 168" />
        <note pan="0" vol="100" key="67" len="96" pos="5424" name="G: 96" />
        <note pan="0" vol="100" key="72" len="48" pos="5520" name="C*: 48" />
        <note pan="0" vol="100" key="72" len="24" pos="5568" name="C*: 24" />
        <note pan="0" vol="100" key="68" len="24" pos="5592" name="G#: 24" />
        <note pan="0" vol="100" key="67" len="48" pos="5616" name="G: 48" />
        <note pan="0" vol="100" key="72" len="48" pos="5664" name="C*: 48" />
        <note pan="0" vol="100" key="68" len="48" pos="5712" name="G#: 48" />
        <note pan="0" vol="100" key="67" len="48" pos="5760" name="G: 48" />
        <note pan="0" vol="100" key="61" len="48" pos="5808" name="C#: 48" />
        <note pan="0" vol="100" key="64" len="144" pos="5856" name="E: 144" />
        <note pan="0" vol="100" key="60" len="48" pos="6000" name="C: 48" />
        <note pan="0" vol="100" key="61" len="48" pos="6048" name="C#: 48" />
        <note pan="0" vol="100" key="60" len="96" pos="6096" name="C: 96" />
        <note pan="0" vol="100" key="60" len="48" pos="6192" name="C: 48" />
        <note pan="0" vol="100" key="60" len="96" pos="6240" name="C: 96" />
        <note pan="0" vol="100" key="61" len="48" pos="6336" name="C#: 48" />
        <note pan="0" vol="100" key="61" len="48" pos="6384" name="C#: 48" />
        <note pan="0" vol="100" key="61" len="48" pos="6432" name="C#: 48" />
        <note pan="0" vol="100" key="61" len="144" pos="6480" name="C#: 144" />
        <note pan="0" vol="100" key="64" len="48" pos="6624" name="E: 48" />
        <note pan="0" vol="100" key="60" len="48" pos="6672" name="C: 48" />
        <note pan="0" vol="100" key="60" len="96" pos="6720" name="C: 96" />
        <note pan="0" vol="100" key="60" len="24" pos="6816" name="C: 24" />
        <note pan="0" vol="100" key="64" len="24" pos="6840" name="E: 24" />
        <note pan="0" vol="100" key="68" len="48" pos="6864" name="G#: 48" />
        <note pan="0" vol="100" key="67" len="48" pos="6912" name="G: 48" />
        <note pan="0" vol="100" key="67" len="144" pos="6960" name="G: 144" />
        <note pan="0" vol="100" key="72" len="48" pos="7104" name="C*: 48" />
        <note pan="0" vol="100" key="72" len="48" pos="7152" name="C*: 48" />
        <note pan="0" vol="100" key="68" len="96" pos="7200" name="G#: 96" />
        <note pan="0" vol="100" key="68" len="48" pos="7296" name="G#: 48" />
        <note pan="0" vol="100" key="64" len="48" pos="7344" name="E: 48" />
        <note pan="0" vol="100" key="67" len="48" pos="7392" name="G: 48" />
        <note pan="0" vol="100" key="68" len="48" pos="7440" name="G#: 48" />
        <note pan="0" vol="100" key="67" len="48" pos="7488" name="G: 48" />
        <note pan="0" vol="100" key="72" len="48" pos="7536" name="C*: 48" />
        <note pan="0" vol="100" key="68" len="48" pos="7584" name="G#: 48" />
        <note pan="0" vol="100" key="67" len="24" pos="7632" name="G: 24" />
        <note pan="0" vol="100" key="64" len="24" pos="7656" name="E: 24" />
        <note pan="0" vol="100" key="67" len="240" pos="7680" name="G: 240" />
        <note pan="0" vol="100" key="67" len="48" pos="7920" name="G: 48" />
        <note pan="0" vol="100" key="64" len="24" pos="7968" name="E: 24" />
        <note pan="0" vol="100" key="61" len="24" pos="7992" name="C#: 24" />
        <note pan="0" vol="100" key="60" len="48" pos="8016" name="C: 48" />
        <note pan="0" vol="100" key="64" len="48" pos="8064" name="E: 48" />
        <note pan="0" vol="100" key="64" len="48" pos="8112" name="E: 48" />
        <note pan="0" vol="100" key="61" len="48" pos="8160" name="C#: 48" />
        <note pan="0" vol="100" key="60" len="24" pos="8208" name="C: 24" />
        <note pan="0" vol="100" key="61" len="24" pos="8232" name="C#: 24" />
        <note pan="0" vol="100" key="67" len="48" pos="8256" name="G: 48" />
        <note pan="0" vol="100" key="68" len="48" pos="8304" name="G#: 48" />
        <note pan="0" vol="100" key="67" len="48" pos="8352" name="G: 48" />
        <note pan="0" vol="100" key="67" len="96" pos="8400" name="G: 96" />
        <note pan="0" vol="100" key="67" len="48" pos="8496" name="G: 48" />
        <note pan="0" vol="100" key="72" len="96" pos="8544" name="C*: 96" />
        <note pan="0" vol="100" key="72" len="96" pos="8640" name="C*: 96" />
        <note pan="0" vol="100" key="67" len="48" pos="8736" name="G: 48" />
        <note pan="0" vol="100" key="72" len="48" pos="8784" name="C*: 48" />
        <note pan="0" vol="100" key="72" len="48" pos="8832" name="C*: 48" />
        <note pan="0" vol="100" key="72" len="48" pos="8880" name="C*: 48" />
        <note pan="0" vol="100" key="72" len="48" pos="8928" name="C*: 48" />
        <note pan="0" vol="100" key="68" len="48" pos="8976" name="G#: 48" />
        <note pan="0" vol="100" key="72" len="48" pos="9024" name="C*: 48" />
        <note pan="0" vol="100" key="72" len="48" pos="9072" name="C*: 48" />
        <note pan="0" vol="100" key="68" len="48" pos="9120" name="G#: 48" />
        <note pan="0" vol="100" key="67" len="48" pos="9168" name="G: 48" />
        <note pan="0" vol="100" key="64" len="96" pos="9216" name="E: 96" />
        <note pan="0" vol="100" key="68" len="48" pos="9312" name="G#: 48" />
        <note pan="0" vol="100" key="67" len="48" pos="9360" name="G: 48" />
        <note pan="0" vol="100" key="68" len="48" pos="9408" name="G#: 48" />
        <note pan="0" vol="100" key="67" len="144" pos="9456" name="G: 144" />
        <note pan="0" vol="100" key="64" len="48" pos="9600" name="E: 48" />
        <note pan="0" vol="100" key="61" len="24" pos="9648" name="C#: 24" />
        <note pan="0" vol="100" key="60" len="24" pos="9672" name="C: 24" />
        <note pan="0" vol="100" key="60" len="24" pos="9696" name="C: 24" />
        <note pan="0" vol="100" key="61" len="24" pos="9720" name="C#: 24" />
        <note pan="0" vol="100" key="60" len="48" pos="9744" name="C: 48" />
        <note pan="0" vol="100" key="60" len="48" pos="9792" name="C: 48" />
        <note pan="0" vol="100" key="61" len="48" pos="9840" name="C#: 48" />
        <note pan="0" vol="100" key="67" len="48" pos="9888" name="G: 48" />
        <note pan="0" vol="100" key="67" len="48" pos="9936" name="G: 48" />
        <note pan="0" vol="100" key="68" len="24" pos="9984" name="G#: 24" />
        <note pan="0" vol="100" key="68" len="168" pos="10008" name="G#: 168" />
        <note pan="0" vol="100" key="72" len="48" pos="10176" name="C*: 48" />
        <note pan="0" vol="100" key="68" len="24" pos="10224" name="G#: 24" />
        <note pan="0" vol="100" key="67" len="72" pos="10248" name="G: 72" />
        <note pan="0" vol="100" key="67" len="24" pos="10320" name="G: 24" />
        <note pan="0" vol="100" key="67" len="72" pos="10344" name="G: 72" />
        <note pan="0" vol="100" key="67" len="48" pos="10416" name="G: 48" />
        <note pan="0" vol="100" key="67" len="24" pos="10464" name="G: 24" />
        <note pan="0" vol="100" key="72" len="24" pos="10488" name="C*: 24" />
        <note pan="0" vol="100" key="72" len="48" pos="10512" name="C*: 48" />
        <note pan="0" vol="100" key="68" len="48" pos="10560" name="G#: 48" />
        <note pan="0" vol="100" key="68" len="48" pos="10608" name="G#: 48" />
        <note pan="0" vol="100" key="67" len="48" pos="10656" name="G: 48" />
        <note pan="0" vol="100" key="64" len="48" pos="10704" name="E: 48" />
        <note pan="0" vol="100" key="67" len="96" pos="10752" name="G: 96" />
        <note pan="0" vol="100" key="68" len="48" pos="10848" name="G#: 48" />
        <note pan="0" vol="100" key="67" len="48" pos="10896" name="G: 48" />
        <note pan="0" vol="100" key="64" len="24" pos="10944" name="E: 24" />
        <note pan="0" vol="100" key="61" len="24" pos="10968" name="C#: 24" />
        <note pan="0" vol="100" key="60" len="24" pos="10992" name="C: 24" />
        <note pan="0" vol="100" key="64" len="24" pos="11016" name="E: 24" />
        <note pan="0" vol="100" key="61" len="48" pos="11040" name="C#: 48" />
        <note pan="0" vol="100" key="60" len="48" pos="11088" name="C: 48" />
        <note pan="0" vol="100" key="60" len="48" pos="11136" name="C: 48" />
        <note pan="0" vol="100" key="60" len="48" pos="11184" name="C: 48" />
        <note pan="0" vol="100" key="61" len="48" pos="11232" name="C#: 48" />
        <note pan="0" vol="100" key="64" len="24" pos="11280" name="E: 24" />
        <note pan="0" vol="100" key="68" len="24" pos="11304" name="G#: 24" />
        <note pan="0" vol="100" key="67" len="48" pos="11328" name="G: 48" />
        <note pan="0" vol="100" key="67" len="24" pos="11376" name="G: 24" />
        <note pan="0" vol="100" key="72" len="24" pos="11400" name="C*: 24" />
        <note pan="0" vol="100" key="72" len="48" pos="11424" name="C*: 48" />
        <note pan="0" vol="100" key="72" len="96" pos="11472" name="C*: 96" />
        <note pan="0" vol="100" key="67" len="48" pos="11568" name="G: 48" />
        <note pan="0" vol="100" key="72" len="48" pos="11616" name="C*: 48" />
        <note pan="0" vol="100" key="72" len="48" pos="11664" name="C*: 48" />
        <note pan="0" vol="100" key="72" len="48" pos="11712" name="C*: 48" />
        <note pan="0" vol="100" key="67" len="48" pos="11760" name="G: 48" />
        <note pan="0" vol="100" key="72" len="48" pos="11808" name="C*: 48" />
        <note pan="0" vol="100" key="67" len="48" pos="11856" name="G: 48" />
        <note pan="0" vol="100" key="72" len="48" pos="11904" name="C*: 48" />
        <note pan="0" vol="100" key="67" len="24" pos="11952" name="G: 24" />
        <note pan="0" vol="100" key="67" len="24" pos="11976" name="G: 24" />
    </midiclip>
</lmms-project>