<?xml version="1.0"?>
<!DOCTYPE lmms-project>
<lmms-project version="20" creatorversion="0.0.3" type="midiclip" creator="SWAR">
    <head/>
    <midiclip steps="16" muted="0" name="69" color="#C75151" type="1" pos="0">
        <note pan="0" vol="100" key="60" len="24" pos="0" name="C: 24" />
        <note pan="0" vol="100" key="60" len="24" pos="24" name="C: 24" />
        <note pan="0" vol="100" key="60" len="48" pos="48" name="C: 48" />
        <note pan="0" vol="100" key="61" len="48" pos="96" name="C#: 48" />
        <note pan="0" vol="100" key="61" len="48" pos="144" name="C#: 48" />
        <note pan="0" vol="100" key="64" len="48" pos="192" name="E: 48" />
        <note pan="0" vol="100" key="67" len="96" pos="240" name="G: 96" />
        <note pan="0" vol="100" key="67" len="144" pos="336" name="G: 144" />
        <note pan="0" vol="100" key="64" len="48" pos="480" name="E: 48" />
        <note pan="0" vol="100" key="67" len="48" pos="528" name="G: 48" />
        <note pan="0" vol="100" key="68" len="24" pos="576" name="G#: 24" />
        <note pan="0" vol="100" key="67" len="24" pos="600" name="G: 24" />
        <note pan="0" vol="100" key="72" len="48" pos="624" name="C*: 48" />
        <note pan="0" vol="100" key="67" len="96" pos="672" name="G: 96" />
        <note pan="0" vol="100" key="72" len="24" pos="768" name="C*: 24" />
        <note pan="0" vol="100" key="72" len="120" pos="792" name="C*: 120" />
        <note pan="0" vol="100" key="68" len="48" pos="912" name="G#: 48" />
        <note pan="0" vol="100" key="72" len="48" pos="960" name="C*: 48" />
        <note pan="0" vol="100" key="68" len="144" pos="1008" name="G#: 144" />
        <note pan="0" vol="100" key="67" len="96" pos="1152" name="G: 96" />
        <note pan="0" vol="100" key="72" len="48" pos="1248" name="C*: 48" />
        <note pan="0" vol="100" key="72" len="48" pos="1296" name="C*: 48" />
        <note pan="0" vol="100" key="72" len="48" pos="1344" name="C*: 48" />
        <note pan="0" vol="100" key="68" len="96" pos="1392" name="G#: 96" />
        <note pan="0" vol="100" key="67" len="48" pos="1488" name="G: 48" />
        <note pan="0" vol="100" key="68" len="48" pos="1536" name="G#: 48" />
        <note pan="0" vol="100" key="72" len="96" pos="1584" name="C*: 96" />
        <note pan="0" vol="100" key="68" len="48" pos="1680" name="G#: 48" />
        <note pan="0" vol="100" key="67" len="48" pos="1728" name="G: 48" />
        <note pan="0" vol="100" key="72" len="48" pos="1776" name="C*: 48" />
        <note pan="0" vol="100" key="72" len="192" pos="1824" name="C*: 192" />
        <note pan="0" vol="100" key="72" len="48" pos="2016" name="C*: 48" />
        <note pan="0" vol="100" key="68" len="48" pos="2064" name="G#: 48" />
        <note pan="0" vol="100" key="67" len="96" pos="2112" name="G: 96" />
        <note pan="0" vol="100" key="67" len="24" pos="2208" name="G: 24" />
        <note pan="0" vol="100" key="68" len="72" pos="2232" name="G#: 72" />
        <note pan="0" vol="100" key="67" len="144" pos="2304" name="G: 144" />
        <note pan="0" vol="100" key="64" len="48" pos="2448" name="E: 48" />
        <note pan="0" vol="100" key="61" len="48" pos="2496" name="C#: 48" />
        <note pan="0" vol="100" key="60" len="48" pos="2544" name="C: 48" />
        <note pan="0" vol="100" key="64" len="96" pos="2592" name="E: 96" />
        <note pan="0" vol="100" key="61" len="48" pos="2688" name="C#: 48" />
        <note pan="0" vol="100" key="60" len="24" pos="2736" name="C: 24" />
        <note pan="0" vol="100" key="60" len="24" pos="2760" name="C: 24" />
        <note pan="0" vol="100" key="60" len="48" pos="2784" name="C: 48" />
        <note pan="0" vol="100" key="61" len="48" pos="2832" name="C#: 48" />
        <note pan="0" vol="100" key="67" len="96" pos="2880" name="G: 96" />
        <note pan="0" vol="100" key="67" len="96" pos="2976" name="G: 96" />
        <note pan="0" vol="100" key="68" len="96" pos="3072" name="G#: 96" />
        <note pan="0" vol="100" key="67" len="48" pos="3168" name="G: 48" />
        <note pan="0" vol="100" key="72" len="96" pos="3216" name="C*: 96" />
        <note pan="0" vol="100" key="68" len="48" pos="3312" name="G#: 48" />
        <note pan="0" vol="100" key="64" len="96" pos="3360" name="E: 96" />
        <note pan="0" vol="100" key="64" len="48" pos="3456" name="E: 48" />
        <note pan="0" vol="100" key="68" len="24" pos="3504" name="G#: 24" />
        <note pan="0" vol="100" key="67" len="24" pos="3528" name="G: 24" />
        <note pan="0" vol="100" key="72" len="96" pos="3552" name="C*: 96" />
        <note pan="0" vol="100" key="68" len="48" pos="3648" name="G#: 48" />
        <note pan="0" vol="100" key="68" len="48" pos="3696" name="G#: 48" />
        <note pan="0" vol="100" key="67" len="48" pos="3744" name="G: 48" />
        <note pan="0" vol="100" key="64" len="24" pos="3792" name="E: 24" />
        <note pan="0" vol="100" key="64" len="72" pos="3816" name="E: 72" />
        <note pan="0" vol="100" key="68" len="48" pos="3888" name="G#: 48" />
        <note pan="0" vol="100" key="67" len="48" pos="3936" name="G: 48" />
        <note pan="0" vol="100" key="67" len="48" pos="3984" name="G: 48" />
        <note pan="0" vol="100" key="68" len="96" pos="4032" name="G#: 96" />
        <note pan="0" vol="100" key="67" len="48" pos="4128" name="G: 48" />
        <note pan="0" vol="100" key="64" len="48" pos="4176" name="E: 48" />
        <note pan="0" vol="100" key="64" len="48" pos="4224" name="E: 48" />
        <note pan="0" vol="100" key="61" len="48" pos="4272" name="C#: 48" />
        <note pan="0" vol="100" key="60" len="96" pos="4320" name="C: 96" />
        <note pan="0" vol="100" key="60" len="48" pos="4416" name="C: 48" />
        <note pan="0" vol="100" key="60" len="48" pos="4464" name="C: 48" />
        <note pan="0" vol="100" key="60" len="48" pos="4512" name="C: 48" />
        <note pan="0" vol="100" key="60" len="48" pos="4560" name="C: 48" />
        <note pan="0" vol="100" key="61" len="48" pos="4608" name="C#: 48" />
        <note pan="0" vol="100" key="61" len="192" pos="4656" name="C#: 192" />
        <note pan="0" vol="100" key="64" len="48" pos="4848" name="E: 48" />
        <note pan="0" vol="100" key="67" len="48" pos="4896" name="G: 48" />
        <note pan="0" vol="100" key="68" len="48" pos="4944" name="G#: 48" />
        <note pan="0" vol="100" key="72" len="48" pos="4992" name="C*: 48" />
        <note pan="0" vol="100" key="72" len="144" pos="5040" name="C*: 144" />
        <note pan="0" vol="100" key="68" len="144" pos="5184" name="G#: 144" />
        <note pan="0" vol="100" key="67" len="48" pos="5328" name="G: 48" />
        <note pan="0" vol="100" key="72" len="48" pos="5376" name="C*: 48" />
        <note pan="0" vol="100" key="68" len="96" pos="5424" name="G#: 96" />
        <note pan="0" vol="100" key="72" len="48" pos="5520" name="C*: 48" />
        <note pan="0" vol="100" key="68" len="48" pos="5568" name="G#: 48" />
        <note pan="0" vol="100" key="68" len="48" pos="5616" name="G#: 48" />
        <note pan="0" vol="100" key="67" len="24" pos="5664" name="G: 24" />
        <note pan="0" vol="100" key="67" len="24" pos="5688" name="G: 24" />
        <note pan="0" vol="100" key="72" len="144" pos="5712" name="C*: 144" />
        <note pan="0" vol="100" key="68" len="48" pos="5856" name="G#: 48" />
        <note pan="0" vol="100" key="67" len="48" pos="5904" name="G: 48" />
        <note pan="0" vol="100" key="72" len="144" pos="5952" name="C*: 144" />
        <note pan="0" vol="100" key="72" len="48" pos="6096" name="C*: 48" />
        <note pan="0" vol="100" key="68" len="48" pos="6144" name="G#: 48" />
        <note pan="0" vol="100" key="67" len="48" pos="6192" name="G: 48" />
        <note pan="0" vol="100" key="68" len="48" pos="6240" name="G#: 48" />
        <note pan="0" vol="100" key="67" len="48" pos="6288" name="G: 48" />
        <note pan="0" vol="100" key="68" len="48" pos="6336" name="G#: 48" />
        <note pan="0" vol="100" key="68" len="48" pos="6384" name="G#: 48" />
        <note pan="0" vol="100" key="67" len="48" pos="6432" name="G: 48" />
        <note pan="0" vol="100" key="72" len="48" pos="6480" name="C*: 48" />
        <note pan="0" vol="100" key="72" len="48" pos="6528" name="C*: 48" />
        <note pan="0" vol="100" key="72" len="192" pos="6576" name="C*: 192" />
        <note pan="0" vol="100" key="68" len="48" pos="6768" name="G#: 48" />
        <note pan="0" vol="100" key="67" len="48" pos="6816" name="G: 48" />
        <note pan="0" vol="100" key="67" len="48" pos="6864" name="G: 48" />
        <note pan="0" vol="100" key="67" len="96" pos="6912" name="G: 96" />
        <note pan="0" vol="100" key="64" len="96" pos="7008" name="E: 96" />
        <note pan="0" vol="100" key="67" len="96" pos="7104" name="G: 96" />
        <note pan="0" vol="100" key="64" len="24" pos="7200" name="E: 24" />
        <note pan="0" vol="100" key="64" len="24" pos="7224" name="E: 24" />
        <note pan="0" vol="100" key="67" len="48" pos="7248" name="G: 48" />
        <note pan="0" vol="100" key="67" len="144" pos="7296" name="G: 144" />
        <note pan="0" vol="100" key="68" len="96" pos="7440" name="G#: 96" />
        <note pan="0" vol="100" key="64" len="48" pos="7536" name="E: 48" />
        <note pan="0" vol="100" key="67" len="48" pos="7584" name="G: 48" />
        <note pan="0" vol="100" key="64" len="48" pos="7632" name="E: 48" />
        <note pan="0" vol="100" key="64" len="48" pos="7680" name="E: 48" />
        <note pan="0" vol="100" key="61" len="96" pos="7728" name="C#: 96" />
        <note pan="0" vol="100" key="61" len="48" pos="7824" name="C#: 48" />
        <note pan="0" vol="100" key="60" len="144" pos="7872" name="C: 144" />
        <note pan="0" vol="100" key="61" len="48" pos="8016" name="C#: 48" />
        <note pan="0" vol="100" key="60" len="48" pos="8064" name="C: 48" />
        <note pan="0" vol="100" key="61" len="48" pos="8112" name="C#: 48" />
        <note pan="0" vol="100" key="64" len="96" pos="8160" name="E: 96" />
        <note pan="0" vol="100" key="67" len="24" pos="8256" name="G: 24" />
        <note pan="0" vol="100" key="68" len="24" pos="8280" name="G#: 24" />
        <note pan="0" vol="100" key="68" len="48" pos="8304" name="G#: 48" />
        <note pan="0" vol="100" key="68" len="48" pos="8352" name="G#: 48" />
        <note pan="0" vol="100" key="67" len="48" pos="8400" name="G: 48" />
        <note pan="0" vol="100" key="72" len="48" pos="8448" name="C*: 48" />
        <note pan="0" vol="100" key="68" len="48" pos="8496" name="G#: 48" />
        <note pan="0" vol="100" key="68" len="48" pos="8544" name="G#: 48" />
        <note pan="0" vol="100" key="67" len="48" pos="8592" name="G: 48" />
        <note pan="0" vol="100" key="64" len="48" pos="8640" name="E: 48" />
        <note pan="0" vol="100" key="67" len="96" pos="8688" name="G: 96" />
        <note pan="0" vol="100" key="67" len="24" pos="8784" name="G: 24" />
        <note pan="0" vol="100" key="64" len="24" pos="8808" name="E: 24" />
        <note pan="0" vol="100" key="64" len="48" pos="8832" name="E: 48" />
        <note pan="0" vol="100" key="67" len="96" pos="8880" name="G: 96" />
        <note pan="0" vol="100" key="68" len="96" pos="8976" name="G#: 96" />
        <note pan="0" vol="100" key="67" len="48" pos="9072" name="G: 48" />
        <note pan="0" vol="100" key="67" len="48" pos="9120" name="G: 48" />
        <note pan="0" vol="100" key="61" len="96" pos="9168" name="C#: 96" />
        <note pan="0" vol="100" key="61" len="96" pos="9264" name="C#: 96" />
        <note pan="0" vol="100" key="60" len="48" pos="9360" name="C: 48" />
        <note pan="0" vol="100" key="60" len="48" pos="9408" name="C: 48" />
        <note pan="0" vol="100" key="60" len="48" pos="9456" name="C: 48" />
        <note pan="0" vol="100" key="64" len="48" pos="9504" name="E: 48" />
        <note pan="0" vol="100" key="68" len="48" pos="9552" name="G#: 48" />
        <note pan="0" vol="100" key="67" len="48" pos="9600" name="G: 48" />
        <note pan="0" vol="100" key="68" len="48" pos="9648" name="G#: 48" />
        <note pan="0" vol="100" key="68" len="48" pos="9696" name="G#: 48" />
        <note pan="0" vol="100" key="68" len="48" pos="9744" name="G#: 48" />
        <note pan="0" vol="100" key="72" len="96" pos="9792" name="C*: 96" />
        <note pan="0" vol="100" key="72" len="24" pos="9888" name="C*: 24" />
        <note pan="0" vol="100" key="72" len="72" pos="9912" name="C*: 72" />
        <note pan="0" vol="100" key="72" len="48" pos="9984" name="C*: 48" />
        <note pan="0" vol="100" key="72" len="48" pos="10032" name="C*: 48" />
        <note pan="0" vol="100" key="68" len="48" pos="10080" name="G#: 48" />
        <note pan="0" vol="100" key="67" len="48" pos="10128" name="G: 48" />
        <note pan="0" vol="100" key="64" len="48" pos="10176" name="E: 48" />
        <note pan="0" vol="100" key="68" len="24" pos="10224" name="G#: 24" />
        <note pan="0" vol="100" key="68" len="24" pos="10248" name="G#: 24" />
        <note pan="0" vol="100" key="68" len="24" pos="10272" name="G#: 24" />
        <note pan="0" vol="100" key="67" len="72" pos="10296" name="G: 72" />
        <note pan="0" vol="100" key="64" len="96" pos="10368" name="E: 96" />
        <note pan="0" vol="100" key="61" len="24" pos="10464" name="C#: 24" />
        <note pan="0" vol="100" key="60" len="24" pos="10488" name="C: 24" />
        <note pan="0" vol="100" key="61" len="96" pos="10512" name="C#: 96" />
        <note pan="0" vol="100" key="60" len="96" pos="10608" name="C: 96" />
        <note pan="0" vol="100" key="60" len="48" pos="10704" name="C: 48" />
        <note pan="0" vol="100" key="61" len="24" pos="10752" name="C#: 24" />
        <note pan="0" vol="100" key="64" len="24" pos="10776" name="E: 24" />
        <note pan="0" vol="100" key="64" len="48" pos="10800" name="E: 48" />
        <note pan="0" vol="100" key="67" len="48" pos="10848" name="G: 48" />
        <note pan="0" vol="100" key="68" len="48" pos="10896" name="G#: 48" />
        <note pan="0" vol="100" key="67" len="48" pos="10944" name="G: 48" />
        <note pan="0" vol="100" key="67" len="48" pos="10992" name="G: 48" />
        <note pan="0" vol="100" key="72" len="48" pos="11040" name="C*: 48" />
        <note pan="0" vol="100" key="68" len="48" pos="11088" name="G#: 48" />
        <note pan="0" vol="100" key="72" len="48" pos="11136" name="C*: 48" />
        <note pan="0" vol="100" key="72" len="24" pos="11184" name="C*: 24" />
        <note pan="0" vol="100" key="72" len="24" pos="11208" name="C*: 24" />
        <note pan="0" vol="100" key="72" len="48" pos="11232" name="C*: 48" />
        <note pan="0" vol="100" key="68" len="48" pos="11280" name="G#: 48" />
        <note pan="0" vol="100" key="68" len="48" pos="11328" name="G#: 48" />
        <note pan="0" vol="100" key="67" len="48" pos="11376" name="G: 48" />
        <note pan="0" vol="100" key="64" len="48" pos="11424" name="E: 48" />
        <note pan="0" vol="100" key="64" len="24" pos="11472" name="E: 24" />
        <note pan="0" vol="100" key="67" len="24" pos="11496" name="G: 24" />
        <note pan="0" vol="100" key="68" len="48" pos="11520" name="G#: 48" />
        <note pan="0" vol="100" key="64" len="48" pos="11568" name="E: 48" />
        <note pan="0" vol="100" key="61" len="48" pos="11616" name="C#: 48" />
        <note pan="0" vol="100" key="60" len="24" pos="11664" name="C: 24" />
        <note pan="0" vol="100" key="60" len="24" pos="11688" name="C: 24" />
        <note pan="0" vol="100" key="61" len="24" pos="11712" name="C#: 24" />
        <note pan="0" vol="100" key="60" len="24" pos="11736" name="C: 24" />
        <note pan="0" vol="100" key="61" len="24" pos="11760" name="C#: 24" />
        <note pan="0" vol="100" key="60" len="72" pos="11784" name="C: 72" />
        <note pan="0" vol="100" key="60" len="48" pos="11856" name="C: 48" />
        <note pan="0" vol="100" key="61" len="96" pos="11904" name="C#: 96" />
    </midiclip>
</lmms-project>