<?xml version="1.0"?>
<!DOCTYPE lmms-project>
<lmms-project version="20" creatorversion="0.0.3" type="midiclip" creator="SWAR">
    <head/>
    <midiclip steps="16" muted="0" name="86" color="#786C50" type="1" pos="0">
        <note pan="0" vol="100" key="60" len="48" pos="0" name="C: 48" />
        <note pan="0" vol="100" key="61" len="24" pos="48" name="C#: 24" />
        <note pan="0" vol="100" key="64" len="24" pos="72" name="E: 24" />
        <note pan="0" vol="100" key="68" len="96" pos="96" name="G#: 96" />
        <note pan="0" vol="100" key="64" len="24" pos="192" name="E: 24" />
        <note pan="0" vol="100" key="64" len="24" pos="216" name="E: 24" />
        <note pan="0" vol="100" key="61" len="48" pos="240" name="C#: 48" />
        <note pan="0" vol="100" key="61" len="48" pos="288" name="C#: 48" />
        <note pan="0" vol="100" key="61" len="24" pos="336" name="C#: 24" />
        <note pan="0" vol="100" key="60" len="24" pos="360" name="C: 24" />
        <note pan="0" vol="100" key="61" len="48" pos="384" name="C#: 48" />
        <note pan="0" vol="100" key="64" len="24" pos="432" name="E: 24" />
        <note pan="0" vol="100" key="61" len="120" pos="456" name="C#: 120" />
        <note pan="0" vol="100" key="67" len="48" pos="576" name="G: 48" />
        <note pan="0" vol="100" key="67" len="144" pos="624" name="G: 144" />
        <note pan="0" vol="100" key="72" len="96" pos="768" name="C*: 96" />
        <note pan="0" vol="100" key="72" len="48" pos="864" name="C*: 48" />
        <note pan="0" vol="100" key="72" len="96" pos="912" name="C*: 96" />
        <note pan="0" vol="100" key="72" len="48" pos="1008" name="C*: 48" />
        <note pan="0" vol="100" key="72" len="96" pos="1056" name="C*: 96" />
        <note pan="0" vol="100" key="67" len="96" pos="1152" name="G: 96" />
        <note pan="0" vol="100" key="67" len="48" pos="1248" name="G: 48" />
        <note pan="0" vol="100" key="68" len="48" pos="1296" name="G#: 48" />
        <note pan="0" vol="100" key="64" len="48" pos="1344" name="E: 48" />
        <note pan="0" vol="100" key="67" len="48" pos="1392" name="G: 48" />
        <note pan="0" vol="100" key="68" len="48" pos="1440" name="G#: 48" />
        <note pan="0" vol="100" key="67" len="96" pos="1488" name="G: 96" />
        <note pan="0" vol="100" key="64" len="24" pos="1584" name="E: 24" />
        <note pan="0" vol="100" key="67" len="24" pos="1608" name="G: 24" />
        <note pan="0" vol="100" key="64" len="96" pos="1632" name="E: 96" />
        <note pan="0" vol="100" key="64" len="48" pos="1728" name="E: 48" />
        <note pan="0" vol="100" key="67" len="48" pos="1776" name="G: 48" />
        <note pan="0" vol="100" key="68" len="48" pos="1824" name="G#: 48" />
        <note pan="0" vol="100" key="64" len="48" pos="1872" name="E: 48" />
        <note pan="0" vol="100" key="67" len="48" pos="1920" name="G: 48" />
        <note pan="0" vol="100" key="67" len="48" pos="1968" name="G: 48" />
        <note pan="0" vol="100" key="67" len="24" pos="2016" name="G: 24" />
        <note pan="0" vol="100" key="67" len="24" pos="2040" name="G: 24" />
        <note pan="0" vol="100" key="64" len="48" pos="2064" name="E: 48" />
        <note pan="0" vol="100" key="61" len="48" pos="2112" name="C#: 48" />
        <note pan="0" vol="100" key="60" len="144" pos="2160" name="C: 144" />
        <note pan="0" vol="100" key="60" len="48" pos="2304" name="C: 48" />
        <note pan="0" vol="100" key="61" len="48" pos="2352" name="C#: 48" />
        <note pan="0" vol="100" key="64" len="48" pos="2400" name="E: 48" />
        <note pan="0" vol="100" key="64" len="48" pos="2448" name="E: 48" />
        <note pan="0" vol="100" key="67" len="48" pos="2496" name="G: 48" />
        <note pan="0" vol="100" key="67" len="24" pos="2544" name="G: 24" />
        <note pan="0" vol="100" key="68" len="24" pos="2568" name="G#: 24" />
        <note pan="0" vol="100" key="67" len="48" pos="2592" name="G: 48" />
        <note pan="0" vol="100" key="68" len="96" pos="2640" name="G#: 96" />
        <note pan="0" vol="100" key="67" len="96" pos="2736" name="G: 96" />
        <note pan="0" vol="100" key="72" len="48" pos="2832" name="C*: 48" />
        <note pan="0" vol="100" key="67" len="48" pos="2880" name="G: 48" />
        <note pan="0" vol="100" key="72" len="48" pos="2928" name="C*: 48" />
        <note pan="0" vol="100" key="68" len="48" pos="2976" name="G#: 48" />
        <note pan="0" vol="100" key="67" len="48" pos="3024" name="G: 48" />
        <note pan="0" vol="100" key="67" len="48" pos="3072" name="G: 48" />
        <note pan="0" vol="100" key="68" len="48" pos="3120" name="G#: 48" />
        <note pan="0" vol="100" key="67" len="48" pos="3168" name="G: 48" />
        <note pan="0" vol="100" key="72" len="48" pos="3216" name="C*: 48" />
        <note pan="0" vol="100" key="68" len="48" pos="3264" name="G#: 48" />
        <note pan="0" vol="100" key="67" len="48" pos="3312" name="G: 48" />
        <note pan="0" vol="100" key="64" len="24" pos="3360" name="E: 24" />
        <note pan="0" vol="100" key="64" len="24" pos="3384" name="E: 24" />
        <note pan="0" vol="100" key="64" len="48" pos="3408" name="E: 48" />
        <note pan="0" vol="100" key="67" len="48" pos="3456" name="G: 48" />
        <note pan="0" vol="100" key="68" len="144" pos="3504" name="G#: 144" />
        <note pan="0" vol="100" key="64" len="48" pos="3648" name="E: 48" />
        <note pan="0" vol="100" key="61" len="48" pos="3696" name="C#: 48" />
        <note pan="0" vol="100" key="60" len="48" pos="3744" name="C: 48" />
        <note pan="0" vol="100" key="61" len="48" pos="3792" name="C#: 48" />
        <note pan="0" vol="100" key="60" len="48" pos="3840" name="C: 48" />
        <note pan="0" vol="100" key="60" len="48" pos="3888" name="C: 48" />
        <note pan="0" vol="100" key="61" len="48" pos="3936" name="C#: 48" />
        <note pan="0" vol="100" key="67" len="48" pos="3984" name="G: 48" />
        <note pan="0" vol="100" key="61" len="48" pos="4032" name="C#: 48" />
        <note pan="0" vol="100" key="64" len="24" pos="4080" name="E: 24" />
        <note pan="0" vol="100" key="67" len="72" pos="4104" name="G: 72" />
        <note pan="0" vol="100" key="68" len="48" pos="4176" name="G#: 48" />
        <note pan="0" vol="100" key="67" len="48" pos="4224" name="G: 48" />
        <note pan="0" vol="100" key="72" len="48" pos="4272" name="C*: 48" />
        <note pan="0" vol="100" key="68" len="48" pos="4320" name="G#: 48" />
        <note pan="0" vol="100" key="67" len="48" pos="4368" name="G: 48" />
        <note pan="0" vol="100" key="72" len="48" pos="4416" name="C*: 48" />
        <note pan="0" vol="100" key="72" len="48" pos="4464" name="C*: 48" />
        <note pan="0" vol="100" key="68" len="48" pos="4512" name="G#: 48" />
        <note pan="0" vol="100" key="72" len="48" pos="4560" name="C*: 48" />
        <note pan="0" vol="100" key="72" len="48" pos="4608" name="C*: 48" />
        <note pan="0" vol="100" key="68" len="48" pos="4656" name="G#: 48" />
        <note pan="0" vol="100" key="72" len="48" pos="4704" name="C*: 48" />
        <note pan="0" vol="100" key="72" len="48" pos="4752" name="C*: 48" />
        <note pan="0" vol="100" key="67" len="24" pos="4800" name="G: 24" />
        <note pan="0" vol="100" key="68" len="24" pos="4824" name="G#: 24" />
        <note pan="0" vol="100" key="67" len="24" pos="4848" name="G: 24" />
        <note pan="0" vol="100" key="72" len="24" pos="4872" name="C*: 24" />
        <note pan="0" vol="100" key="72" len="96" pos="4896" name="C*: 96" />
        <note pan="0" vol="100" key="68" len="48" pos="4992" name="G#: 48" />
        <note pan="0" vol="100" key="67" len="48" pos="5040" name="G: 48" />
        <note pan="0" vol="100" key="68" len="48" pos="5088" name="G#: 48" />
        <note pan="0" vol="100" key="72" len="24" pos="5136" name="C*: 24" />
        <note pan="0" vol="100" key="68" len="24" pos="5160" name="G#: 24" />
        <note pan="0" vol="100" key="68" len="48" pos="5184" name="G#: 48" />
        <note pan="0" vol="100" key="67" len="48" pos="5232" name="G: 48" />
        <note pan="0" vol="100" key="67" len="48" pos="5280" name="G: 48" />
        <note pan="0" vol="100" key="61" len="96" pos="5328" name="C#: 96" />
        <note pan="0" vol="100" key="60" len="48" pos="5424" name="C: 48" />
        <note pan="0" vol="100" key="60" len="48" pos="5472" name="C: 48" />
        <note pan="0" vol="100" key="61" len="48" pos="5520" name="C#: 48" />
        <note pan="0" vol="100" key="64" len="48" pos="5568" name="E: 48" />
        <note pan="0" vol="100" key="61" len="48" pos="5616" name="C#: 48" />
        <note pan="0" vol="100" key="60" len="96" pos="5664" name="C: 96" />
        <note pan="0" vol="100" key="61" len="48" pos="5760" name="C#: 48" />
        <note pan="0" vol="100" key="68" len="24" pos="5808" name="G#: 24" />
        <note pan="0" vol="100" key="68" len="24" pos="5832" name="G#: 24" />
        <note pan="0" vol="100" key="64" len="48" pos="5856" name="E: 48" />
        <note pan="0" vol="100" key="67" len="48" pos="5904" name="G: 48" />
        <note pan="0" vol="100" key="67" len="24" pos="5952" name="G: 24" />
        <note pan="0" vol="100" key="67" len="24" pos="5976" name="G: 24" />
        <note pan="0" vol="100" key="68" len="96" pos="6000" name="G#: 96" />
        <note pan="0" vol="100" key="67" len="144" pos="6096" name="G: 144" />
        <note pan="0" vol="100" key="68" len="48" pos="6240" name="G#: 48" />
        <note pan="0" vol="100" key="67" len="48" pos="6288" name="G: 48" />
        <note pan="0" vol="100" key="68" len="48" pos="6336" name="G#: 48" />
        <note pan="0" vol="100" key="64" len="48" pos="6384" name="E: 48" />
        <note pan="0" vol="100" key="68" len="48" pos="6432" name="G#: 48" />
        <note pan="0" vol="100" key="67" len="48" pos="6480" name="G: 48" />
        <note pan="0" vol="100" key="64" len="24" pos="6528" name="E: 24" />
        <note pan="0" vol="100" key="64" len="72" pos="6552" name="E: 72" />
        <note pan="0" vol="100" key="67" len="144" pos="6624" name="G: 144" />
        <note pan="0" vol="100" key="68" len="48" pos="6768" name="G#: 48" />
        <note pan="0" vol="100" key="61" len="48" pos="6816" name="C#: 48" />
        <note pan="0" vol="100" key="61" len="192" pos="6864" name="C#: 192" />
        <note pan="0" vol="100" key="61" len="48" pos="7056" name="C#: 48" />
        <note pan="0" vol="100" key="60" len="48" pos="7104" name="C: 48" />
        <note pan="0" vol="100" key="61" len="48" pos="7152" name="C#: 48" />
        <note pan="0" vol="100" key="60" len="48" pos="7200" name="C: 48" />
        <note pan="0" vol="100" key="61" len="96" pos="7248" name="C#: 96" />
        <note pan="0" vol="100" key="60" len="48" pos="7344" name="C: 48" />
        <note pan="0" vol="100" key="61" len="48" pos="7392" name="C#: 48" />
        <note pan="0" vol="100" key="60" len="48" pos="7440" name="C: 48" />
        <note pan="0" vol="100" key="60" len="48" pos="7488" name="C: 48" />
        <note pan="0" vol="100" key="61" len="48" pos="7536" name="C#: 48" />
        <note pan="0" vol="100" key="60" len="48" pos="7584" name="C: 48" />
        <note pan="0" vol="100" key="64" len="48" pos="7632" name="E: 48" />
        <note pan="0" vol="100" key="67" len="96" pos="7680" name="G: 96" />
        <note pan="0" vol="100" key="67" len="48" pos="7776" name="G: 48" />
        <note pan="0" vol="100" key="61" len="96" pos="7824" name="C#: 96" />
        <note pan="0" vol="100" key="67" len="48" pos="7920" name="G: 48" />
        <note pan="0" vol="100" key="68" len="48" pos="7968" name="G#: 48" />
        <note pan="0" vol="100" key="72" len="48" pos="8016" name="C*: 48" />
        <note pan="0" vol="100" key="72" len="48" pos="8064" name="C*: 48" />
        <note pan="0" vol="100" key="72" len="48" pos="8112" name="C*: 48" />
        <note pan="0" vol="100" key="72" len="96" pos="8160" name="C*: 96" />
        <note pan="0" vol="100" key="72" len="48" pos="8256" name="C*: 48" />
        <note pan="0" vol="100" key="72" len="48" pos="8304" name="C*: 48" />
        <note pan="0" vol="100" key="72" len="48" pos="8352" name="C*: 48" />
        <note pan="0" vol="100" key="68" len="144" pos="8400" name="G#: 144" />
        <note pan="0" vol="100" key="67" len="48" pos="8544" name="G: 48" />
        <note pan="0" vol="100" key="72" len="48" pos="8592" name="C*: 48" />
        <note pan="0" vol="100" key="72" len="48" pos="8640" name="C*: 48" />
        <note pan="0" vol="100" key="68" len="24" pos="8688" name="G#: 24" />
        <note pan="0" vol="100" key="68" len="72" pos="8712" name="G#: 72" />
        <note pan="0" vol="100" key="67" len="48" pos="8784" name="G: 48" />
        <note pan="0" vol="100" key="67" len="48" pos="8832" name="G: 48" />
        <note pan="0" vol="100" key="64" len="48" pos="8880" name="E: 48" />
        <note pan="0" vol="100" key="64" len="48" pos="8928" name="E: 48" />
        <note pan="0" vol="100" key="67" len="48" pos="8976" name="G: 48" />
        <note pan="0" vol="100" key="67" len="48" pos="9024" name="G: 48" />
        <note pan="0" vol="100" key="64" len="48" pos="9072" name="E: 48" />
        <note pan="0" vol="100" key="67" len="24" pos="9120" name="G: 24" />
        <note pan="0" vol="100" key="64" len="72" pos="9144" name="E: 72" />
        <note pan="0" vol="100" key="64" len="48" pos="9216" name="E: 48" />
        <note pan="0" vol="100" key="67" len="48" pos="9264" name="G: 48" />
        <note pan="0" vol="100" key="68" len="96" pos="9312" name="G#: 96" />
        <note pan="0" vol="100" key="61" len="48" pos="9408" name="C#: 48" />
        <note pan="0" vol="100" key="60" len="96" pos="9456" name="C: 96" />
        <note pan="0" vol="100" key="61" len="48" pos="9552" name="C#: 48" />
        <note pan="0" vol="100" key="60" len="48" pos="9600" name="C: 48" />
        <note pan="0" vol="100" key="60" len="48" pos="9648" name="C: 48" />
        <note pan="0" vol="100" key="61" len="48" pos="9696" name="C#: 48" />
        <note pan="0" vol="100" key="64" len="48" pos="9744" name="E: 48" />
        <note pan="0" vol="100" key="60" len="48" pos="9792" name="C: 48" />
        <note pan="0" vol="100" key="61" len="144" pos="9840" name="C#: 144" />
        <note pan="0" vol="100" key="60" len="48" pos="9984" name="C: 48" />
        <note pan="0" vol="100" key="61" len="48" pos="10032" name="C#: 48" />
        <note pan="0" vol="100" key="60" len="48" pos="10080" name="C: 48" />
        <note pan="0" vol="100" key="60" len="24" pos="10128" name="C: 24" />
        <note pan="0" vol="100" key="61" len="24" pos="10152" name="C#: 24" />
        <note pan="0" vol="100" key="64" len="48" pos="10176" name="E: 48" />
        <note pan="0" vol="100" key="64" len="48" pos="10224" name="E: 48" />
        <note pan="0" vol="100" key="67" len="48" pos="10272" name="G: 48" />
        <note pan="0" vol="100" key="68" len="96" pos="10320" name="G#: 96" />
        <note pan="0" vol="100" key="68" len="48" pos="10416" name="G#: 48" />
        <note pan="0" vol="100" key="67" len="48" pos="10464" name="G: 48" />
        <note pan="0" vol="100" key="72" len="48" pos="10512" name="C*: 48" />
        <note pan="0" vol="100" key="67" len="48" pos="10560" name="G: 48" />
        <note pan="0" vol="100" key="72" len="24" pos="10608" name="C*: 24" />
        <note pan="0" vol="100" key="68" len="72" pos="10632" name="G#: 72" />
        <note pan="0" vol="100" key="67" len="48" pos="10704" name="G: 48" />
        <note pan="0" vol="100" key="68" len="48" pos="10752" name="G#: 48" />
        <note pan="0" vol="100" key="67" len="24" pos="10800" name="G: 24" />
        <note pan="0" vol="100" key="64" len="24" pos="10824" name="E: 24" />
        <note pan="0" vol="100" key="68" len="48" pos="10848" name="G#: 48" />
        <note pan="0" vol="100" key="67" len="48" pos="10896" name="G: 48" />
        <note pan="0" vol="100" key="68" len="48" pos="10944" name="G#: 48" />
        <note pan="0" vol="100" key="67" len="48" pos="10992" name="G: 48" />
        <note pan="0" vol="100" key="67" len="48" pos="11040" name="G: 48" />
        <note pan="0" vol="100" key="64" len="48" pos="11088" name="E: 48" />
        <note pan="0" vol="100" key="64" len="24" pos="11136" name="E: 24" />
        <note pan="0" vol="100" key="68" len="24" pos="11160" name="G#: 24" />
        <note pan="0" vol="100" key="64" len="48" pos="11184" name="E: 48" />
        <note pan="0" vol="100" key="64" len="48" pos="11232" name="E: 48" />
        <note pan="0" vol="100" key="67" len="48" pos="11280" name="G: 48" />
        <note pan="0" vol="100" key="67" len="144" pos="11328" name="G: 144" />
        <note pan="0" vol="100" key="67" len="48" pos="11472" name="G: 48" />
        <note pan="0" vol="100" key="67" len="96" pos="11520" name="G: 96" />
        <note pan="0" vol="100" key="67" len="48" pos="11616" name="G: 48" />
        <note pan="0" vol="100" key="68" len="48" pos="11664" name="G#: 48" />
        <note pan="0" vol="100" key="68" len="144" pos="11712" name="G#: 144" />
        <note pan="0" vol="100" key="68" len="48" pos="11856" name="G#: 48" />
        <note pan="0" vol="100" key="67" len="96" pos="11904" name="G: 96" />
    </midiclip>
</lmms-project>