<?xml version="1.0"?>
<!DOCTYPE lmms-project>
<lmms-project version="20" creatorversion="0.0.3" type="midiclip" creator="SWAR">
    <head/>
    <midiclip steps="16" muted="0" name="11" color="#FF58C6" type="1" pos="0">
        <note pan="0" vol="100" key="62" len="48" pos="0" name="D: 48" />
        <note pan="0" vol="100" key="62" len="48" pos="48" name="D: 48" />
        <note pan="0" vol="100" key="67" len="48" pos="96" name="G: 48" />
        <note pan="0" vol="100" key="69" len="48" pos="144" name="A: 48" />
        <note pan="0" vol="100" key="69" len="48" pos="192" name="A: 48" />
        <note pan="0" vol="100" key="72" len="96" pos="240" name="C*: 96" />
        <note pan="0" vol="100" key="72" len="24" pos="336" name="C*: 24" />
        <note pan="0" vol="100" key="67" len="24" pos="360" name="G: 24" />
        <note pan="0" vol="100" key="69" len="48" pos="384" name="A: 48" />
        <note pan="0" vol="100" key="72" len="48" pos="432" name="C*: 48" />
        <note pan="0" vol="100" key="69" len="48" pos="480" name="A: 48" />
        <note pan="0" vol="100" key="67" len="48" pos="528" name="G: 48" />
        <note pan="0" vol="100" key="62" len="48" pos="576" name="D: 48" />
        <note pan="0" vol="100" key="60" len="48" pos="624" name="C: 48" />
        <note pan="0" vol="100" key="60" len="48" pos="672" name="C: 48" />
        <note pan="0" vol="100" key="62" len="96" pos="720" name="D: 96" />
        <note pan="0" vol="100" key="66" len="24" pos="816" name="F#: 24" />
        <note pan="0" vol="100" key="66" len="72" pos="840" name="F#: 72" />
        <note pan="0" vol="100" key="62" len="96" pos="912" name="D: 96" />
        <note pan="0" vol="100" key="62" len="96" pos="1008" name="D: 96" />
        <note pan="0" vol="100" key="66" len="48" pos="1104" name="F#: 48" />
        <note pan="0" vol="100" key="67" len="48" pos="1152" name="G: 48" />
        <note pan="0" vol="100" key="69" len="48" pos="1200" name="A: 48" />
        <note pan="0" vol="100" key="66" len="96" pos="1248" name="F#: 96" />
        <note pan="0" vol="100" key="69" len="96" pos="1344" name="A: 96" />
        <note pan="0" vol="100" key="72" len="48" pos="1440" name="C*: 48" />
        <note pan="0" vol="100" key="69" len="24" pos="1488" name="A: 24" />
        <note pan="0" vol="100" key="66" len="24" pos="1512" name="F#: 24" />
        <note pan="0" vol="100" key="67" len="48" pos="1536" name="G: 48" />
        <note pan="0" vol="100" key="62" len="48" pos="1584" name="D: 48" />
        <note pan="0" vol="100" key="66" len="24" pos="1632" name="F#: 24" />
        <note pan="0" vol="100" key="67" len="24" pos="1656" name="G: 24" />
        <note pan="0" vol="100" key="69" len="96" pos="1680" name="A: 96" />
        <note pan="0" vol="100" key="66" len="96" pos="1776" name="F#: 96" />
        <note pan="0" vol="100" key="67" len="48" pos="1872" name="G: 48" />
        <note pan="0" vol="100" key="69" len="48" pos="1920" name="A: 48" />
        <note pan="0" vol="100" key="67" len="48" pos="1968" name="G: 48" />
        <note pan="0" vol="100" key="69" len="24" pos="2016" name="A: 24" />
        <note pan="0" vol="100" key="67" len="24" pos="2040" name="G: 24" />
        <note pan="0" vol="100" key="69" len="48" pos="2064" name="A: 48" />
        <note pan="0" vol="100" key="66" len="48" pos="2112" name="F#: 48" />
        <note pan="0" vol="100" key="67" len="48" pos="2160" name="G: 48" />
        <note pan="0" vol="100" key="69" len="96" pos="2208" name="A: 96" />
        <note pan="0" vol="100" key="72" len="24" pos="2304" name="C*: 24" />
        <note pan="0" vol="100" key="72" len="24" pos="2328" name="C*: 24" />
        <note pan="0" vol="100" key="69" len="48" pos="2352" name="A: 48" />
        <note pan="0" vol="100" key="72" len="48" pos="2400" name="C*: 48" />
        <note pan="0" vol="100" key="72" len="48" pos="2448" name="C*: 48" />
        <note pan="0" vol="100" key="69" len="48" pos="2496" name="A: 48" />
        <note pan="0" vol="100" key="69" len="48" pos="2544" name="A: 48" />
        <note pan="0" vol="100" key="69" len="48" pos="2592" name="A: 48" />
        <note pan="0" vol="100" key="66" len="96" pos="2640" name="F#: 96" />
        <note pan="0" vol="100" key="62" len="48" pos="2736" name="D: 48" />
        <note pan="0" vol="100" key="67" len="48" pos="2784" name="G: 48" />
        <note pan="0" vol="100" key="72" len="48" pos="2832" name="C*: 48" />
        <note pan="0" vol="100" key="69" len="48" pos="2880" name="A: 48" />
        <note pan="0" vol="100" key="69" len="24" pos="2928" name="A: 24" />
        <note pan="0" vol="100" key="72" len="24" pos="2952" name="C*: 24" />
        <note pan="0" vol="100" key="72" len="48" pos="2976" name="C*: 48" />
        <note pan="0" vol="100" key="72" len="48" pos="3024" name="C*: 48" />
        <note pan="0" vol="100" key="69" len="96" pos="3072" name="A: 96" />
        <note pan="0" vol="100" key="72" len="24" pos="3168" name="C*: 24" />
        <note pan="0" vol="100" key="67" len="72" pos="3192" name="G: 72" />
        <note pan="0" vol="100" key="62" len="48" pos="3264" name="D: 48" />
        <note pan="0" vol="100" key="60" len="48" pos="3312" name="C: 48" />
        <note pan="0" vol="100" key="66" len="96" pos="3360" name="F#: 96" />
        <note pan="0" vol="100" key="60" len="48" pos="3456" name="C: 48" />
        <note pan="0" vol="100" key="62" len="96" pos="3504" name="D: 96" />
        <note pan="0" vol="100" key="62" len="48" pos="3600" name="D: 48" />
        <note pan="0" vol="100" key="60" len="48" pos="3648" name="C: 48" />
        <note pan="0" vol="100" key="60" len="48" pos="3696" name="C: 48" />
        <note pan="0" vol="100" key="62" len="24" pos="3744" name="D: 24" />
        <note pan="0" vol="100" key="60" len="24" pos="3768" name="C: 24" />
        <note pan="0" vol="100" key="60" len="24" pos="3792" name="C: 24" />
        <note pan="0" vol="100" key="62" len="24" pos="3816" name="D: 24" />
        <note pan="0" vol="100" key="60" len="48" pos="3840" name="C: 48" />
        <note pan="0" vol="100" key="62" len="48" pos="3888" name="D: 48" />
        <note pan="0" vol="100" key="66" len="48" pos="3936" name="F#: 48" />
        <note pan="0" vol="100" key="62" len="96" pos="3984" name="D: 96" />
        <note pan="0" vol="100" key="60" len="48" pos="4080" name="C: 48" />
        <note pan="0" vol="100" key="60" len="96" pos="4128" name="C: 96" />
        <note pan="0" vol="100" key="60" len="48" pos="4224" name="C: 48" />
        <note pan="0" vol="100" key="60" len="48" pos="4272" name="C: 48" />
        <note pan="0" vol="100" key="60" len="48" pos="4320" name="C: 48" />
        <note pan="0" vol="100" key="62" len="24" pos="4368" name="D: 24" />
        <note pan="0" vol="100" key="66" len="24" pos="4392" name="F#: 24" />
        <note pan="0" vol="100" key="66" len="48" pos="4416" name="F#: 48" />
        <note pan="0" vol="100" key="67" len="96" pos="4464" name="G: 96" />
        <note pan="0" vol="100" key="69" len="24" pos="4560" name="A: 24" />
        <note pan="0" vol="100" key="69" len="72" pos="4584" name="A: 72" />
        <note pan="0" vol="100" key="66" len="96" pos="4656" name="F#: 96" />
        <note pan="0" vol="100" key="69" len="48" pos="4752" name="A: 48" />
        <note pan="0" vol="100" key="72" len="48" pos="4800" name="C*: 48" />
        <note pan="0" vol="100" key="72" len="48" pos="4848" name="C*: 48" />
        <note pan="0" vol="100" key="69" len="48" pos="4896" name="A: 48" />
        <note pan="0" vol="100" key="69" len="48" pos="4944" name="A: 48" />
        <note pan="0" vol="100" key="67" len="48" pos="4992" name="G: 48" />
        <note pan="0" vol="100" key="66" len="48" pos="5040" name="F#: 48" />
        <note pan="0" vol="100" key="62" len="24" pos="5088" name="D: 24" />
        <note pan="0" vol="100" key="62" len="24" pos="5112" name="D: 24" />
        <note pan="0" vol="100" key="66" len="48" pos="5136" name="F#: 48" />
        <note pan="0" vol="100" key="62" len="48" pos="5184" name="D: 48" />
        <note pan="0" vol="100" key="67" len="48" pos="5232" name="G: 48" />
        <note pan="0" vol="100" key="66" len="48" pos="5280" name="F#: 48" />
        <note pan="0" vol="100" key="66" len="48" pos="5328" name="F#: 48" />
        <note pan="0" vol="100" key="60" len="48" pos="5376" name="C: 48" />
        <note pan="0" vol="100" key="60" len="48" pos="5424" name="C: 48" />
        <note pan="0" vol="100" key="66" len="96" pos="5472" name="F#: 96" />
        <note pan="0" vol="100" key="62" len="96" pos="5568" name="D: 96" />
        <note pan="0" vol="100" key="62" len="48" pos="5664" name="D: 48" />
        <note pan="0" vol="100" key="60" len="48" pos="5712" name="C: 48" />
        <note pan="0" vol="100" key="60" len="96" pos="5760" name="C: 96" />
        <note pan="0" vol="100" key="60" len="24" pos="5856" name="C: 24" />
        <note pan="0" vol="100" key="60" len="24" pos="5880" name="C: 24" />
        <note pan="0" vol="100" key="60" len="48" pos="5904" name="C: 48" />
        <note pan="0" vol="100" key="62" len="144" pos="5952" name="D: 144" />
        <note pan="0" vol="100" key="62" len="144" pos="6096" name="D: 144" />
        <note pan="0" vol="100" key="62" len="48" pos="6240" name="D: 48" />
        <note pan="0" vol="100" key="60" len="24" pos="6288" name="C: 24" />
        <note pan="0" vol="100" key="62" len="24" pos="6312" name="D: 24" />
        <note pan="0" vol="100" key="60" len="48" pos="6336" name="C: 48" />
        <note pan="0" vol="100" key="60" len="192" pos="6384" name="C: 192" />
        <note pan="0" vol="100" key="62" len="96" pos="6576" name="D: 96" />
        <note pan="0" vol="100" key="66" len="24" pos="6672" name="F#: 24" />
        <note pan="0" vol="100" key="66" len="72" pos="6696" name="F#: 72" />
        <note pan="0" vol="100" key="66" len="48" pos="6768" name="F#: 48" />
        <note pan="0" vol="100" key="67" len="96" pos="6816" name="G: 96" />
        <note pan="0" vol="100" key="72" len="96" pos="6912" name="C*: 96" />
        <note pan="0" vol="100" key="72" len="24" pos="7008" name="C*: 24" />
        <note pan="0" vol="100" key="69" len="120" pos="7032" name="A: 120" />
        <note pan="0" vol="100" key="67" len="48" pos="7152" name="G: 48" />
        <note pan="0" vol="100" key="66" len="96" pos="7200" name="F#: 96" />
        <note pan="0" vol="100" key="69" len="48" pos="7296" name="A: 48" />
        <note pan="0" vol="100" key="69" len="96" pos="7344" name="A: 96" />
        <note pan="0" vol="100" key="69" len="24" pos="7440" name="A: 24" />
        <note pan="0" vol="100" key="67" len="24" pos="7464" name="G: 24" />
        <note pan="0" vol="100" key="66" len="48" pos="7488" name="F#: 48" />
        <note pan="0" vol="100" key="62" len="48" pos="7536" name="D: 48" />
        <note pan="0" vol="100" key="60" len="48" pos="7584" name="C: 48" />
        <note pan="0" vol="100" key="66" len="48" pos="7632" name="F#: 48" />
        <note pan="0" vol="100" key="62" len="48" pos="7680" name="D: 48" />
        <note pan="0" vol="100" key="60" len="48" pos="7728" name="C: 48" />
        <note pan="0" vol="100" key="60" len="96" pos="7776" name="C: 96" />
        <note pan="0" vol="100" key="60" len="24" pos="7872" name="C: 24" />
        <note pan="0" vol="100" key="60" len="24" pos="7896" name="C: 24" />
        <note pan="0" vol="100" key="60" len="24" pos="7920" name="C: 24" />
        <note pan="0" vol="100" key="60" len="72" pos="7944" name="C: 72" />
        <note pan="0" vol="100" key="62" len="24" pos="8016" name="D: 24" />
        <note pan="0" vol="100" key="62" len="24" pos="8040" name="D: 24" />
        <note pan="0" vol="100" key="66" len="96" pos="8064" name="F#: 96" />
        <note pan="0" vol="100" key="67" len="48" pos="8160" name="G: 48" />
        <note pan="0" vol="100" key="69" len="48" pos="8208" name="A: 48" />
        <note pan="0" vol="100" key="72" len="48" pos="8256" name="C*: 48" />
        <note pan="0" vol="100" key="67" len="96" pos="8304" name="G: 96" />
        <note pan="0" vol="100" key="69" len="48" pos="8400" name="A: 48" />
        <note pan="0" vol="100" key="72" len="48" pos="8448" name="C*: 48" />
        <note pan="0" vol="100" key="69" len="48" pos="8496" name="A: 48" />
        <note pan="0" vol="100" key="69" len="24" pos="8544" name="A: 24" />
        <note pan="0" vol="100" key="67" len="24" pos="8568" name="G: 24" />
        <note pan="0" vol="100" key="66" len="48" pos="8592" name="F#: 48" />
        <note pan="0" vol="100" key="62" len="48" pos="8640" name="D: 48" />
        <note pan="0" vol="100" key="62" len="48" pos="8688" name="D: 48" />
        <note pan="0" vol="100" key="67" len="48" pos="8736" name="G: 48" />
        <note pan="0" vol="100" key="69" len="48" pos="8784" name="A: 48" />
        <note pan="0" vol="100" key="67" len="48" pos="8832" name="G: 48" />
        <note pan="0" vol="100" key="67" len="48" pos="8880" name="G: 48" />
        <note pan="0" vol="100" key="67" len="48" pos="8928" name="G: 48" />
        <note pan="0" vol="100" key="69" len="48" pos="8976" name="A: 48" />
        <note pan="0" vol="100" key="67" len="48" pos="9024" name="G: 48" />
        <note pan="0" vol="100" key="66" len="96" pos="9072" name="F#: 96" />
        <note pan="0" vol="100" key="67" len="48" pos="9168" name="G: 48" />
        <note pan="0" vol="100" key="69" len="48" pos="9216" name="A: 48" />
        <note pan="0" vol="100" key="67" len="48" pos="9264" name="G: 48" />
        <note pan="0" vol="100" key="67" len="48" pos="9312" name="G: 48" />
        <note pan="0" vol="100" key="66" len="24" pos="9360" name="F#: 24" />
        <note pan="0" vol="100" key="60" len="24" pos="9384" name="C: 24" />
        <note pan="0" vol="100" key="60" len="48" pos="9408" name="C: 48" />
        <note pan="0" vol="100" key="60" len="48" pos="9456" name="C: 48" />
        <note pan="0" vol="100" key="62" len="48" pos="9504" name="D: 48" />
        <note pan="0" vol="100" key="60" len="48" pos="9552" name="C: 48" />
        <note pan="0" vol="100" key="60" len="48" pos="9600" name="C: 48" />
        <note pan="0" vol="100" key="60" len="48" pos="9648" name="C: 48" />
        <note pan="0" vol="100" key="62" len="48" pos="9696" name="D: 48" />
        <note pan="0" vol="100" key="66" len="48" pos="9744" name="F#: 48" />
        <note pan="0" vol="100" key="67" len="48" pos="9792" name="G: 48" />
        <note pan="0" vol="100" key="69" len="48" pos="9840" name="A: 48" />
        <note pan="0" vol="100" key="72" len="48" pos="9888" name="C*: 48" />
        <note pan="0" vol="100" key="67" len="24" pos="9936" name="G: 24" />
        <note pan="0" vol="100" key="69" len="24" pos="9960" name="A: 24" />
        <note pan="0" vol="100" key="72" len="192" pos="9984" name="C*: 192" />
        <note pan="0" vol="100" key="72" len="48" pos="10176" name="C*: 48" />
        <note pan="0" vol="100" key="72" len="48" pos="10224" name="C*: 48" />
        <note pan="0" vol="100" key="72" len="48" pos="10272" name="C*: 48" />
        <note pan="0" vol="100" key="72" len="48" pos="10320" name="C*: 48" />
        <note pan="0" vol="100" key="69" len="96" pos="10368" name="A: 96" />
        <note pan="0" vol="100" key="67" len="48" pos="10464" name="G: 48" />
        <note pan="0" vol="100" key="66" len="48" pos="10512" name="F#: 48" />
        <note pan="0" vol="100" key="60" len="48" pos="10560" name="C: 48" />
        <note pan="0" vol="100" key="60" len="24" pos="10608" name="C: 24" />
        <note pan="0" vol="100" key="60" len="24" pos="10632" name="C: 24" />
        <note pan="0" vol="100" key="60" len="48" pos="10656" name="C: 48" />
        <note pan="0" vol="100" key="62" len="48" pos="10704" name="D: 48" />
        <note pan="0" vol="100" key="67" len="96" pos="10752" name="G: 96" />
        <note pan="0" vol="100" key="69" len="48" pos="10848" name="A: 48" />
        <note pan="0" vol="100" key="72" len="48" pos="10896" name="C*: 48" />
        <note pan="0" vol="100" key="72" len="96" pos="10944" name="C*: 96" />
        <note pan="0" vol="100" key="72" len="48" pos="11040" name="C*: 48" />
        <note pan="0" vol="100" key="67" len="48" pos="11088" name="G: 48" />
        <note pan="0" vol="100" key="66" len="48" pos="11136" name="F#: 48" />
        <note pan="0" vol="100" key="62" len="48" pos="11184" name="D: 48" />
        <note pan="0" vol="100" key="60" len="48" pos="11232" name="C: 48" />
        <note pan="0" vol="100" key="62" len="48" pos="11280" name="D: 48" />
        <note pan="0" vol="100" key="62" len="48" pos="11328" name="D: 48" />
        <note pan="0" vol="100" key="67" len="48" pos="11376" name="G: 48" />
        <note pan="0" vol="100" key="67" len="48" pos="11424" name="G: 48" />
        <note pan="0" vol="100" key="69" len="144" pos="11472" name="A: 144" />
        <note pan="0" vol="100" key="67" len="144" pos="11616" name="G: 144" />
        <note pan="0" vol="100" key="72" len="48" pos="11760" name="C*: 48" />
        <note pan="0" vol="100" key="72" len="48" pos="11808" name="C*: 48" />
        <note pan="0" vol="100" key="72" len="48" pos="11856" name="C*: 48" />
        <note pan="0" vol="100" key="72" len="48" pos="11904" name="C*: 48" />
        <note pan="0" vol="100" key="69" len="48" pos="11952" name="A: 48" />
        <note pan="0" vol="100" key="67" len="96" pos="12000" name="G: 96" />
        <note pan="0" vol="100" key="69" len="96" pos="12096" name="A: 96" />
        <note pan="0" vol="100" key="72" len="48" pos="12192" name="C*: 48" />
        <note pan="0" vol="100" key="69" len="48" pos="12240" name="A: 48" />
    </midiclip>
</lmms-project>