<?xml version="1.0"?>
<!DOCTYPE lmms-project>
<lmms-project version="20" creatorversion="0.0.3" type="midiclip" creator="SWAR">
    <head/>
    <midiclip steps="16" muted="0" name="26" color="#786C50" type="1" pos="0">
        <note pan="0" vol="100" key="62" len="48" pos="0" name="D: 48" />
        <note pan="0" vol="100" key="60" len="96" pos="48" name="C: 96" />
        <note pan="0" vol="100" key="62" len="48" pos="144" name="D: 48" />
        <note pan="0" vol="100" key="60" len="48" pos="192" name="C: 48" />
        <note pan="0" vol="100" key="62" len="48" pos="240" name="D: 48" />
        <note pan="0" vol="100" key="62" len="48" pos="288" name="D: 48" />
        <note pan="0" vol="100" key="62" len="48" pos="336" name="D: 48" />
        <note pan="0" vol="100" key="60" len="48" pos="384" name="C: 48" />
        <note pan="0" vol="100" key="62" len="96" pos="432" name="D: 96" />
        <note pan="0" vol="100" key="62" len="144" pos="528" name="D: 144" />
        <note pan="0" vol="100" key="60" len="48" pos="672" name="C: 48" />
        <note pan="0" vol="100" key="62" len="48" pos="720" name="D: 48" />
        <note pan="0" vol="100" key="66" len="48" pos="768" name="F#: 48" />
        <note pan="0" vol="100" key="67" len="48" pos="816" name="G: 48" />
        <note pan="0" vol="100" key="69" len="48" pos="864" name="A: 48" />
        <note pan="0" vol="100" key="72" len="96" pos="912" name="C*: 96" />
        <note pan="0" vol="100" key="72" len="48" pos="1008" name="C*: 48" />
        <note pan="0" vol="100" key="69" len="48" pos="1056" name="A: 48" />
        <note pan="0" vol="100" key="72" len="144" pos="1104" name="C*: 144" />
        <note pan="0" vol="100" key="67" len="48" pos="1248" name="G: 48" />
        <note pan="0" vol="100" key="72" len="48" pos="1296" name="C*: 48" />
        <note pan="0" vol="100" key="72" len="48" pos="1344" name="C*: 48" />
        <note pan="0" vol="100" key="69" len="48" pos="1392" name="A: 48" />
        <note pan="0" vol="100" key="66" len="48" pos="1440" name="F#: 48" />
        <note pan="0" vol="100" key="66" len="96" pos="1488" name="F#: 96" />
        <note pan="0" vol="100" key="67" len="48" pos="1584" name="G: 48" />
        <note pan="0" vol="100" key="66" len="96" pos="1632" name="F#: 96" />
        <note pan="0" vol="100" key="62" len="48" pos="1728" name="D: 48" />
        <note pan="0" vol="100" key="60" len="48" pos="1776" name="C: 48" />
        <note pan="0" vol="100" key="60" len="24" pos="1824" name="C: 24" />
        <note pan="0" vol="100" key="62" len="72" pos="1848" name="D: 72" />
        <note pan="0" vol="100" key="60" len="24" pos="1920" name="C: 24" />
        <note pan="0" vol="100" key="62" len="24" pos="1944" name="D: 24" />
        <note pan="0" vol="100" key="66" len="96" pos="1968" name="F#: 96" />
        <note pan="0" vol="100" key="60" len="48" pos="2064" name="C: 48" />
        <note pan="0" vol="100" key="66" len="48" pos="2112" name="F#: 48" />
        <note pan="0" vol="100" key="62" len="48" pos="2160" name="D: 48" />
        <note pan="0" vol="100" key="62" len="48" pos="2208" name="D: 48" />
        <note pan="0" vol="100" key="60" len="48" pos="2256" name="C: 48" />
        <note pan="0" vol="100" key="60" len="24" pos="2304" name="C: 24" />
        <note pan="0" vol="100" key="66" len="120" pos="2328" name="F#: 120" />
        <note pan="0" vol="100" key="60" len="96" pos="2448" name="C: 96" />
        <note pan="0" vol="100" key="60" len="48" pos="2544" name="C: 48" />
        <note pan="0" vol="100" key="62" len="48" pos="2592" name="D: 48" />
        <note pan="0" vol="100" key="67" len="48" pos="2640" name="G: 48" />
        <note pan="0" vol="100" key="69" len="48" pos="2688" name="A: 48" />
        <note pan="0" vol="100" key="66" len="96" pos="2736" name="F#: 96" />
        <note pan="0" vol="100" key="67" len="48" pos="2832" name="G: 48" />
        <note pan="0" vol="100" key="67" len="48" pos="2880" name="G: 48" />
        <note pan="0" vol="100" key="66" len="48" pos="2928" name="F#: 48" />
        <note pan="0" vol="100" key="69" len="96" pos="2976" name="A: 96" />
        <note pan="0" vol="100" key="72" len="48" pos="3072" name="C*: 48" />
        <note pan="0" vol="100" key="72" len="24" pos="3120" name="C*: 24" />
        <note pan="0" vol="100" key="69" len="24" pos="3144" name="A: 24" />
        <note pan="0" vol="100" key="67" len="96" pos="3168" name="G: 96" />
        <note pan="0" vol="100" key="67" len="24" pos="3264" name="G: 24" />
        <note pan="0" vol="100" key="62" len="24" pos="3288" name="D: 24" />
        <note pan="0" vol="100" key="60" len="48" pos="3312" name="C: 48" />
        <note pan="0" vol="100" key="60" len="96" pos="3360" name="C: 96" />
        <note pan="0" vol="100" key="62" len="48" pos="3456" name="D: 48" />
        <note pan="0" vol="100" key="66" len="48" pos="3504" name="F#: 48" />
        <note pan="0" vol="100" key="67" len="48" pos="3552" name="G: 48" />
        <note pan="0" vol="100" key="62" len="48" pos="3600" name="D: 48" />
        <note pan="0" vol="100" key="60" len="48" pos="3648" name="C: 48" />
        <note pan="0" vol="100" key="62" len="96" pos="3696" name="D: 96" />
        <note pan="0" vol="100" key="62" len="24" pos="3792" name="D: 24" />
        <note pan="0" vol="100" key="60" len="24" pos="3816" name="C: 24" />
        <note pan="0" vol="100" key="62" len="96" pos="3840" name="D: 96" />
        <note pan="0" vol="100" key="60" len="96" pos="3936" name="C: 96" />
        <note pan="0" vol="100" key="60" len="96" pos="4032" name="C: 96" />
        <note pan="0" vol="100" key="62" len="48" pos="4128" name="D: 48" />
        <note pan="0" vol="100" key="62" len="24" pos="4176" name="D: 24" />
        <note pan="0" vol="100" key="66" len="24" pos="4200" name="F#: 24" />
        <note pan="0" vol="100" key="69" len="48" pos="4224" name="A: 48" />
        <note pan="0" vol="100" key="72" len="24" pos="4272" name="C*: 24" />
        <note pan="0" vol="100" key="72" len="24" pos="4296" name="C*: 24" />
        <note pan="0" vol="100" key="69" len="48" pos="4320" name="A: 48" />
        <note pan="0" vol="100" key="67" len="48" pos="4368" name="G: 48" />
        <note pan="0" vol="100" key="69" len="48" pos="4416" name="A: 48" />
        <note pan="0" vol="100" key="69" len="24" pos="4464" name="A: 24" />
        <note pan="0" vol="100" key="66" len="24" pos="4488" name="F#: 24" />
        <note pan="0" vol="100" key="69" len="48" pos="4512" name="A: 48" />
        <note pan="0" vol="100" key="66" len="48" pos="4560" name="F#: 48" />
        <note pan="0" vol="100" key="69" len="48" pos="4608" name="A: 48" />
        <note pan="0" vol="100" key="72" len="24" pos="4656" name="C*: 24" />
        <note pan="0" vol="100" key="69" len="120" pos="4680" name="A: 120" />
        <note pan="0" vol="100" key="72" len="144" pos="4800" name="C*: 144" />
        <note pan="0" vol="100" key="72" len="48" pos="4944" name="C*: 48" />
        <note pan="0" vol="100" key="69" len="24" pos="4992" name="A: 24" />
        <note pan="0" vol="100" key="72" len="24" pos="5016" name="C*: 24" />
        <note pan="0" vol="100" key="72" len="48" pos="5040" name="C*: 48" />
        <note pan="0" vol="100" key="67" len="48" pos="5088" name="G: 48" />
        <note pan="0" vol="100" key="67" len="48" pos="5136" name="G: 48" />
        <note pan="0" vol="100" key="66" len="48" pos="5184" name="F#: 48" />
        <note pan="0" vol="100" key="67" len="24" pos="5232" name="G: 24" />
        <note pan="0" vol="100" key="67" len="24" pos="5256" name="G: 24" />
        <note pan="0" vol="100" key="66" len="48" pos="5280" name="F#: 48" />
        <note pan="0" vol="100" key="60" len="48" pos="5328" name="C: 48" />
        <note pan="0" vol="100" key="60" len="48" pos="5376" name="C: 48" />
        <note pan="0" vol="100" key="62" len="192" pos="5424" name="D: 192" />
        <note pan="0" vol="100" key="60" len="48" pos="5616" name="C: 48" />
        <note pan="0" vol="100" key="60" len="96" pos="5664" name="C: 96" />
        <note pan="0" vol="100" key="66" len="48" pos="5760" name="F#: 48" />
        <note pan="0" vol="100" key="67" len="24" pos="5808" name="G: 24" />
        <note pan="0" vol="100" key="69" len="24" pos="5832" name="A: 24" />
        <note pan="0" vol="100" key="72" len="48" pos="5856" name="C*: 48" />
        <note pan="0" vol="100" key="72" len="48" pos="5904" name="C*: 48" />
        <note pan="0" vol="100" key="69" len="48" pos="5952" name="A: 48" />
        <note pan="0" vol="100" key="69" len="48" pos="6000" name="A: 48" />
        <note pan="0" vol="100" key="72" len="48" pos="6048" name="C*: 48" />
        <note pan="0" vol="100" key="72" len="96" pos="6096" name="C*: 96" />
        <note pan="0" vol="100" key="72" len="48" pos="6192" name="C*: 48" />
        <note pan="0" vol="100" key="69" len="48" pos="6240" name="A: 48" />
        <note pan="0" vol="100" key="69" len="144" pos="6288" name="A: 144" />
        <note pan="0" vol="100" key="69" len="48" pos="6432" name="A: 48" />
        <note pan="0" vol="100" key="67" len="48" pos="6480" name="G: 48" />
        <note pan="0" vol="100" key="67" len="24" pos="6528" name="G: 24" />
        <note pan="0" vol="100" key="67" len="120" pos="6552" name="G: 120" />
        <note pan="0" vol="100" key="66" len="48" pos="6672" name="F#: 48" />
        <note pan="0" vol="100" key="62" len="48" pos="6720" name="D: 48" />
        <note pan="0" vol="100" key="60" len="48" pos="6768" name="C: 48" />
        <note pan="0" vol="100" key="60" len="144" pos="6816" name="C: 144" />
        <note pan="0" vol="100" key="60" len="48" pos="6960" name="C: 48" />
        <note pan="0" vol="100" key="62" len="96" pos="7008" name="D: 96" />
        <note pan="0" vol="100" key="60" len="96" pos="7104" name="C: 96" />
        <note pan="0" vol="100" key="60" len="96" pos="7200" name="C: 96" />
        <note pan="0" vol="100" key="60" len="48" pos="7296" name="C: 48" />
        <note pan="0" vol="100" key="60" len="48" pos="7344" name="C: 48" />
        <note pan="0" vol="100" key="60" len="48" pos="7392" name="C: 48" />
        <note pan="0" vol="100" key="62" len="192" pos="7440" name="D: 192" />
        <note pan="0" vol="100" key="60" len="48" pos="7632" name="C: 48" />
        <note pan="0" vol="100" key="62" len="48" pos="7680" name="D: 48" />
        <note pan="0" vol="100" key="66" len="48" pos="7728" name="F#: 48" />
        <note pan="0" vol="100" key="67" len="48" pos="7776" name="G: 48" />
        <note pan="0" vol="100" key="67" len="24" pos="7824" name="G: 24" />
        <note pan="0" vol="100" key="66" len="72" pos="7848" name="F#: 72" />
        <note pan="0" vol="100" key="66" len="144" pos="7920" name="F#: 144" />
        <note pan="0" vol="100" key="60" len="48" pos="8064" name="C: 48" />
        <note pan="0" vol="100" key="66" len="24" pos="8112" name="F#: 24" />
        <note pan="0" vol="100" key="67" len="24" pos="8136" name="G: 24" />
        <note pan="0" vol="100" key="69" len="24" pos="8160" name="A: 24" />
        <note pan="0" vol="100" key="66" len="24" pos="8184" name="F#: 24" />
        <note pan="0" vol="100" key="66" len="144" pos="8208" name="F#: 144" />
        <note pan="0" vol="100" key="66" len="24" pos="8352" name="F#: 24" />
        <note pan="0" vol="100" key="66" len="24" pos="8376" name="F#: 24" />
        <note pan="0" vol="100" key="62" len="96" pos="8400" name="D: 96" />
        <note pan="0" vol="100" key="66" len="48" pos="8496" name="F#: 48" />
        <note pan="0" vol="100" key="62" len="48" pos="8544" name="D: 48" />
        <note pan="0" vol="100" key="60" len="96" pos="8592" name="C: 96" />
        <note pan="0" vol="100" key="60" len="48" pos="8688" name="C: 48" />
        <note pan="0" vol="100" key="62" len="48" pos="8736" name="D: 48" />
        <note pan="0" vol="100" key="62" len="48" pos="8784" name="D: 48" />
        <note pan="0" vol="100" key="60" len="48" pos="8832" name="C: 48" />
        <note pan="0" vol="100" key="60" len="48" pos="8880" name="C: 48" />
        <note pan="0" vol="100" key="62" len="48" pos="8928" name="D: 48" />
        <note pan="0" vol="100" key="66" len="48" pos="8976" name="F#: 48" />
        <note pan="0" vol="100" key="66" len="96" pos="9024" name="F#: 96" />
        <note pan="0" vol="100" key="67" len="48" pos="9120" name="G: 48" />
        <note pan="0" vol="100" key="69" len="96" pos="9168" name="A: 96" />
        <note pan="0" vol="100" key="72" len="24" pos="9264" name="C*: 24" />
        <note pan="0" vol="100" key="72" len="24" pos="9288" name="C*: 24" />
        <note pan="0" vol="100" key="69" len="48" pos="9312" name="A: 48" />
        <note pan="0" vol="100" key="69" len="48" pos="9360" name="A: 48" />
        <note pan="0" vol="100" key="69" len="48" pos="9408" name="A: 48" />
        <note pan="0" vol="100" key="69" len="48" pos="9456" name="A: 48" />
        <note pan="0" vol="100" key="69" len="48" pos="9504" name="A: 48" />
        <note pan="0" vol="100" key="67" len="96" pos="9552" name="G: 96" />
        <note pan="0" vol="100" key="66" len="48" pos="9648" name="F#: 48" />
        <note pan="0" vol="100" key="67" len="96" pos="9696" name="G: 96" />
        <note pan="0" vol="100" key="69" len="48" pos="9792" name="A: 48" />
        <note pan="0" vol="100" key="66" len="48" pos="9840" name="F#: 48" />
        <note pan="0" vol="100" key="69" len="48" pos="9888" name="A: 48" />
        <note pan="0" vol="100" key="69" len="48" pos="9936" name="A: 48" />
        <note pan="0" vol="100" key="72" len="48" pos="9984" name="C*: 48" />
        <note pan="0" vol="100" key="72" len="48" pos="10032" name="C*: 48" />
        <note pan="0" vol="100" key="69" len="48" pos="10080" name="A: 48" />
        <note pan="0" vol="100" key="72" len="48" pos="10128" name="C*: 48" />
        <note pan="0" vol="100" key="72" len="48" pos="10176" name="C*: 48" />
        <note pan="0" vol="100" key="67" len="144" pos="10224" name="G: 144" />
        <note pan="0" vol="100" key="69" len="48" pos="10368" name="A: 48" />
        <note pan="0" vol="100" key="72" len="48" pos="10416" name="C*: 48" />
        <note pan="0" vol="100" key="69" len="48" pos="10464" name="A: 48" />
        <note pan="0" vol="100" key="67" len="48" pos="10512" name="G: 48" />
        <note pan="0" vol="100" key="66" len="48" pos="10560" name="F#: 48" />
        <note pan="0" vol="100" key="69" len="48" pos="10608" name="A: 48" />
        <note pan="0" vol="100" key="67" len="48" pos="10656" name="G: 48" />
        <note pan="0" vol="100" key="67" len="96" pos="10704" name="G: 96" />
        <note pan="0" vol="100" key="66" len="48" pos="10800" name="F#: 48" />
        <note pan="0" vol="100" key="62" len="48" pos="10848" name="D: 48" />
        <note pan="0" vol="100" key="62" len="96" pos="10896" name="D: 96" />
        <note pan="0" vol="100" key="60" len="24" pos="10992" name="C: 24" />
        <note pan="0" vol="100" key="62" len="24" pos="11016" name="D: 24" />
        <note pan="0" vol="100" key="67" len="96" pos="11040" name="G: 96" />
        <note pan="0" vol="100" key="69" len="48" pos="11136" name="A: 48" />
        <note pan="0" vol="100" key="66" len="96" pos="11184" name="F#: 96" />
        <note pan="0" vol="100" key="69" len="48" pos="11280" name="A: 48" />
        <note pan="0" vol="100" key="72" len="96" pos="11328" name="C*: 96" />
        <note pan="0" vol="100" key="72" len="48" pos="11424" name="C*: 48" />
        <note pan="0" vol="100" key="72" len="48" pos="11472" name="C*: 48" />
        <note pan="0" vol="100" key="69" len="48" pos="11520" name="A: 48" />
        <note pan="0" vol="100" key="67" len="96" pos="11568" name="G: 96" />
        <note pan="0" vol="100" key="66" len="48" pos="11664" name="F#: 48" />
        <note pan="0" vol="100" key="60" len="48" pos="11712" name="C: 48" />
        <note pan="0" vol="100" key="60" len="48" pos="11760" name="C: 48" />
        <note pan="0" vol="100" key="60" len="48" pos="11808" name="C: 48" />
        <note pan="0" vol="100" key="60" len="48" pos="11856" name="C: 48" />
        <note pan="0" vol="100" key="62" len="24" pos="11904" name="D: 24" />
        <note pan="0" vol="100" key="66" len="72" pos="11928" name="F#: 72" />
        <note pan="0" vol="100" key="67" len="96" pos="12000" name="G: 96" />
        <note pan="0" vol="100" key="72" len="48" pos="12096" name="C*: 48" />
        <note pan="0" vol="100" key="72" len="24" pos="12144" name="C*: 24" />
        <note pan="0" vol="100" key="72" len="24" pos="12168" name="C*: 24" />
        <note pan="0" vol="100" key="69" len="24" pos="12192" name="A: 24" />
        <note pan="0" vol="100" key="67" len="72" pos="12216" name="G: 72" />
    </midiclip>
</lmms-project>