<?xml version="1.0"?>
<!DOCTYPE lmms-project>
<lmms-project version="20" creatorversion="0.0.3" type="midiclip" creator="SWAR">
    <head/>
    <midiclip steps="16" muted="0" name="56" color="#786C50" type="1" pos="0">
        <note pan="0" vol="100" key="66" len="96" pos="0" name="F#: 96" />
        <note pan="0" vol="100" key="62" len="48" pos="96" name="D: 48" />
        <note pan="0" vol="100" key="66" len="48" pos="144" name="F#: 48" />
        <note pan="0" vol="100" key="62" len="48" pos="192" name="D: 48" />
        <note pan="0" vol="100" key="60" len="48" pos="240" name="C: 48" />
        <note pan="0" vol="100" key="62" len="48" pos="288" name="D: 48" />
        <note pan="0" vol="100" key="66" len="96" pos="336" name="F#: 96" />
        <note pan="0" vol="100" key="66" len="48" pos="432" name="F#: 48" />
        <note pan="0" vol="100" key="67" len="48" pos="480" name="G: 48" />
        <note pan="0" vol="100" key="69" len="48" pos="528" name="A: 48" />
        <note pan="0" vol="100" key="72" len="48" pos="576" name="C*: 48" />
        <note pan="0" vol="100" key="72" len="48" pos="624" name="C*: 48" />
        <note pan="0" vol="100" key="69" len="24" pos="672" name="A: 24" />
        <note pan="0" vol="100" key="67" len="24" pos="696" name="G: 24" />
        <note pan="0" vol="100" key="66" len="48" pos="720" name="F#: 48" />
        <note pan="0" vol="100" key="67" len="48" pos="768" name="G: 48" />
        <note pan="0" vol="100" key="67" len="48" pos="816" name="G: 48" />
        <note pan="0" vol="100" key="66" len="24" pos="864" name="F#: 24" />
        <note pan="0" vol="100" key="62" len="24" pos="888" name="D: 24" />
        <note pan="0" vol="100" key="62" len="96" pos="912" name="D: 96" />
        <note pan="0" vol="100" key="60" len="24" pos="1008" name="C: 24" />
        <note pan="0" vol="100" key="62" len="24" pos="1032" name="D: 24" />
        <note pan="0" vol="100" key="67" len="48" pos="1056" name="G: 48" />
        <note pan="0" vol="100" key="66" len="96" pos="1104" name="F#: 96" />
        <note pan="0" vol="100" key="60" len="48" pos="1200" name="C: 48" />
        <note pan="0" vol="100" key="60" len="48" pos="1248" name="C: 48" />
        <note pan="0" vol="100" key="62" len="48" pos="1296" name="D: 48" />
        <note pan="0" vol="100" key="60" len="48" pos="1344" name="C: 48" />
        <note pan="0" vol="100" key="62" len="96" pos="1392" name="D: 96" />
        <note pan="0" vol="100" key="66" len="24" pos="1488" name="F#: 24" />
        <note pan="0" vol="100" key="69" len="24" pos="1512" name="A: 24" />
        <note pan="0" vol="100" key="72" len="24" pos="1536" name="C*: 24" />
        <note pan="0" vol="100" key="69" len="24" pos="1560" name="A: 24" />
        <note pan="0" vol="100" key="72" len="96" pos="1584" name="C*: 96" />
        <note pan="0" vol="100" key="67" len="48" pos="1680" name="G: 48" />
        <note pan="0" vol="100" key="67" len="48" pos="1728" name="G: 48" />
        <note pan="0" vol="100" key="66" len="48" pos="1776" name="F#: 48" />
        <note pan="0" vol="100" key="67" len="48" pos="1824" name="G: 48" />
        <note pan="0" vol="100" key="69" len="48" pos="1872" name="A: 48" />
        <note pan="0" vol="100" key="72" len="48" pos="1920" name="C*: 48" />
        <note pan="0" vol="100" key="69" len="96" pos="1968" name="A: 96" />
        <note pan="0" vol="100" key="67" len="48" pos="2064" name="G: 48" />
        <note pan="0" vol="100" key="72" len="48" pos="2112" name="C*: 48" />
        <note pan="0" vol="100" key="69" len="96" pos="2160" name="A: 96" />
        <note pan="0" vol="100" key="67" len="96" pos="2256" name="G: 96" />
        <note pan="0" vol="100" key="66" len="96" pos="2352" name="F#: 96" />
        <note pan="0" vol="100" key="67" len="48" pos="2448" name="G: 48" />
        <note pan="0" vol="100" key="66" len="48" pos="2496" name="F#: 48" />
        <note pan="0" vol="100" key="62" len="48" pos="2544" name="D: 48" />
        <note pan="0" vol="100" key="62" len="96" pos="2592" name="D: 96" />
        <note pan="0" vol="100" key="62" len="192" pos="2688" name="D: 192" />
        <note pan="0" vol="100" key="60" len="24" pos="2880" name="C: 24" />
        <note pan="0" vol="100" key="62" len="24" pos="2904" name="D: 24" />
        <note pan="0" vol="100" key="67" len="48" pos="2928" name="G: 48" />
        <note pan="0" vol="100" key="72" len="48" pos="2976" name="C*: 48" />
        <note pan="0" vol="100" key="69" len="48" pos="3024" name="A: 48" />
        <note pan="0" vol="100" key="69" len="48" pos="3072" name="A: 48" />
        <note pan="0" vol="100" key="69" len="48" pos="3120" name="A: 48" />
        <note pan="0" vol="100" key="72" len="144" pos="3168" name="C*: 144" />
        <note pan="0" vol="100" key="72" len="48" pos="3312" name="C*: 48" />
        <note pan="0" vol="100" key="69" len="48" pos="3360" name="A: 48" />
        <note pan="0" vol="100" key="67" len="96" pos="3408" name="G: 96" />
        <note pan="0" vol="100" key="66" len="48" pos="3504" name="F#: 48" />
        <note pan="0" vol="100" key="60" len="48" pos="3552" name="C: 48" />
        <note pan="0" vol="100" key="60" len="48" pos="3600" name="C: 48" />
        <note pan="0" vol="100" key="62" len="48" pos="3648" name="D: 48" />
        <note pan="0" vol="100" key="66" len="48" pos="3696" name="F#: 48" />
        <note pan="0" vol="100" key="67" len="96" pos="3744" name="G: 96" />
        <note pan="0" vol="100" key="62" len="48" pos="3840" name="D: 48" />
        <note pan="0" vol="100" key="60" len="96" pos="3888" name="C: 96" />
        <note pan="0" vol="100" key="60" len="48" pos="3984" name="C: 48" />
        <note pan="0" vol="100" key="62" len="96" pos="4032" name="D: 96" />
        <note pan="0" vol="100" key="66" len="48" pos="4128" name="F#: 48" />
        <note pan="0" vol="100" key="66" len="48" pos="4176" name="F#: 48" />
        <note pan="0" vol="100" key="66" len="96" pos="4224" name="F#: 96" />
        <note pan="0" vol="100" key="66" len="48" pos="4320" name="F#: 48" />
        <note pan="0" vol="100" key="62" len="48" pos="4368" name="D: 48" />
        <note pan="0" vol="100" key="66" len="48" pos="4416" name="F#: 48" />
        <note pan="0" vol="100" key="67" len="96" pos="4464" name="G: 96" />
        <note pan="0" vol="100" key="62" len="96" pos="4560" name="D: 96" />
        <note pan="0" vol="100" key="60" len="48" pos="4656" name="C: 48" />
        <note pan="0" vol="100" key="60" len="96" pos="4704" name="C: 96" />
        <note pan="0" vol="100" key="60" len="96" pos="4800" name="C: 96" />
        <note pan="0" vol="100" key="62" len="24" pos="4896" name="D: 24" />
        <note pan="0" vol="100" key="62" len="24" pos="4920" name="D: 24" />
        <note pan="0" vol="100" key="66" len="48" pos="4944" name="F#: 48" />
        <note pan="0" vol="100" key="67" len="24" pos="4992" name="G: 24" />
        <note pan="0" vol="100" key="67" len="72" pos="5016" name="G: 72" />
        <note pan="0" vol="100" key="69" len="48" pos="5088" name="A: 48" />
        <note pan="0" vol="100" key="66" len="48" pos="5136" name="F#: 48" />
        <note pan="0" vol="100" key="67" len="48" pos="5184" name="G: 48" />
        <note pan="0" vol="100" key="69" len="96" pos="5232" name="A: 96" />
        <note pan="0" vol="100" key="72" len="96" pos="5328" name="C*: 96" />
        <note pan="0" vol="100" key="72" len="96" pos="5424" name="C*: 96" />
        <note pan="0" vol="100" key="67" len="48" pos="5520" name="G: 48" />
        <note pan="0" vol="100" key="66" len="48" pos="5568" name="F#: 48" />
        <note pan="0" vol="100" key="67" len="48" pos="5616" name="G: 48" />
        <note pan="0" vol="100" key="66" len="24" pos="5664" name="F#: 24" />
        <note pan="0" vol="100" key="62" len="24" pos="5688" name="D: 24" />
        <note pan="0" vol="100" key="60" len="96" pos="5712" name="C: 96" />
        <note pan="0" vol="100" key="60" len="240" pos="5808" name="C: 240" />
        <note pan="0" vol="100" key="60" len="96" pos="6048" name="C: 96" />
        <note pan="0" vol="100" key="62" len="144" pos="6144" name="D: 144" />
        <note pan="0" vol="100" key="67" len="48" pos="6288" name="G: 48" />
        <note pan="0" vol="100" key="66" len="48" pos="6336" name="F#: 48" />
        <note pan="0" vol="100" key="62" len="48" pos="6384" name="D: 48" />
        <note pan="0" vol="100" key="60" len="96" pos="6432" name="C: 96" />
        <note pan="0" vol="100" key="62" len="48" pos="6528" name="D: 48" />
        <note pan="0" vol="100" key="66" len="48" pos="6576" name="F#: 48" />
        <note pan="0" vol="100" key="66" len="48" pos="6624" name="F#: 48" />
        <note pan="0" vol="100" key="66" len="48" pos="6672" name="F#: 48" />
        <note pan="0" vol="100" key="66" len="24" pos="6720" name="F#: 24" />
        <note pan="0" vol="100" key="67" len="24" pos="6744" name="G: 24" />
        <note pan="0" vol="100" key="69" len="96" pos="6768" name="A: 96" />
        <note pan="0" vol="100" key="69" len="48" pos="6864" name="A: 48" />
        <note pan="0" vol="100" key="72" len="48" pos="6912" name="C*: 48" />
        <note pan="0" vol="100" key="67" len="24" pos="6960" name="G: 24" />
        <note pan="0" vol="100" key="67" len="24" pos="6984" name="G: 24" />
        <note pan="0" vol="100" key="69" len="48" pos="7008" name="A: 48" />
        <note pan="0" vol="100" key="72" len="48" pos="7056" name="C*: 48" />
        <note pan="0" vol="100" key="72" len="48" pos="7104" name="C*: 48" />
        <note pan="0" vol="100" key="72" len="48" pos="7152" name="C*: 48" />
        <note pan="0" vol="100" key="72" len="48" pos="7200" name="C*: 48" />
        <note pan="0" vol="100" key="72" len="48" pos="7248" name="C*: 48" />
        <note pan="0" vol="100" key="72" len="48" pos="7296" name="C*: 48" />
        <note pan="0" vol="100" key="72" len="24" pos="7344" name="C*: 24" />
        <note pan="0" vol="100" key="72" len="24" pos="7368" name="C*: 24" />
        <note pan="0" vol="100" key="69" len="48" pos="7392" name="A: 48" />
        <note pan="0" vol="100" key="72" len="96" pos="7440" name="C*: 96" />
        <note pan="0" vol="100" key="69" len="48" pos="7536" name="A: 48" />
        <note pan="0" vol="100" key="72" len="48" pos="7584" name="C*: 48" />
        <note pan="0" vol="100" key="69" len="48" pos="7632" name="A: 48" />
        <note pan="0" vol="100" key="69" len="48" pos="7680" name="A: 48" />
        <note pan="0" vol="100" key="72" len="48" pos="7728" name="C*: 48" />
        <note pan="0" vol="100" key="72" len="48" pos="7776" name="C*: 48" />
        <note pan="0" vol="100" key="69" len="96" pos="7824" name="A: 96" />
        <note pan="0" vol="100" key="67" len="96" pos="7920" name="G: 96" />
        <note pan="0" vol="100" key="66" len="48" pos="8016" name="F#: 48" />
        <note pan="0" vol="100" key="62" len="48" pos="8064" name="D: 48" />
        <note pan="0" vol="100" key="60" len="24" pos="8112" name="C: 24" />
        <note pan="0" vol="100" key="60" len="72" pos="8136" name="C: 72" />
        <note pan="0" vol="100" key="60" len="96" pos="8208" name="C: 96" />
        <note pan="0" vol="100" key="60" len="24" pos="8304" name="C: 24" />
        <note pan="0" vol="100" key="60" len="24" pos="8328" name="C: 24" />
        <note pan="0" vol="100" key="62" len="48" pos="8352" name="D: 48" />
        <note pan="0" vol="100" key="66" len="192" pos="8400" name="F#: 192" />
        <note pan="0" vol="100" key="67" len="24" pos="8592" name="G: 24" />
        <note pan="0" vol="100" key="69" len="24" pos="8616" name="A: 24" />
        <note pan="0" vol="100" key="69" len="144" pos="8640" name="A: 144" />
        <note pan="0" vol="100" key="72" len="96" pos="8784" name="C*: 96" />
        <note pan="0" vol="100" key="72" len="48" pos="8880" name="C*: 48" />
        <note pan="0" vol="100" key="72" len="96" pos="8928" name="C*: 96" />
        <note pan="0" vol="100" key="69" len="48" pos="9024" name="A: 48" />
        <note pan="0" vol="100" key="67" len="144" pos="9072" name="G: 144" />
        <note pan="0" vol="100" key="72" len="48" pos="9216" name="C*: 48" />
        <note pan="0" vol="100" key="69" len="48" pos="9264" name="A: 48" />
        <note pan="0" vol="100" key="67" len="48" pos="9312" name="G: 48" />
        <note pan="0" vol="100" key="67" len="48" pos="9360" name="G: 48" />
        <note pan="0" vol="100" key="66" len="48" pos="9408" name="F#: 48" />
        <note pan="0" vol="100" key="67" len="48" pos="9456" name="G: 48" />
        <note pan="0" vol="100" key="66" len="144" pos="9504" name="F#: 144" />
        <note pan="0" vol="100" key="62" len="96" pos="9648" name="D: 96" />
        <note pan="0" vol="100" key="62" len="48" pos="9744" name="D: 48" />
        <note pan="0" vol="100" key="60" len="144" pos="9792" name="C: 144" />
        <note pan="0" vol="100" key="60" len="48" pos="9936" name="C: 48" />
        <note pan="0" vol="100" key="62" len="48" pos="9984" name="D: 48" />
        <note pan="0" vol="100" key="66" len="48" pos="10032" name="F#: 48" />
        <note pan="0" vol="100" key="69" len="48" pos="10080" name="A: 48" />
        <note pan="0" vol="100" key="72" len="48" pos="10128" name="C*: 48" />
        <note pan="0" vol="100" key="72" len="96" pos="10176" name="C*: 96" />
        <note pan="0" vol="100" key="69" len="48" pos="10272" name="A: 48" />
        <note pan="0" vol="100" key="72" len="48" pos="10320" name="C*: 48" />
        <note pan="0" vol="100" key="69" len="48" pos="10368" name="A: 48" />
        <note pan="0" vol="100" key="69" len="96" pos="10416" name="A: 96" />
        <note pan="0" vol="100" key="67" len="48" pos="10512" name="G: 48" />
        <note pan="0" vol="100" key="66" len="48" pos="10560" name="F#: 48" />
        <note pan="0" vol="100" key="67" len="48" pos="10608" name="G: 48" />
        <note pan="0" vol="100" key="66" len="48" pos="10656" name="F#: 48" />
        <note pan="0" vol="100" key="62" len="48" pos="10704" name="D: 48" />
        <note pan="0" vol="100" key="60" len="48" pos="10752" name="C: 48" />
        <note pan="0" vol="100" key="62" len="24" pos="10800" name="D: 24" />
        <note pan="0" vol="100" key="60" len="72" pos="10824" name="C: 72" />
        <note pan="0" vol="100" key="60" len="48" pos="10896" name="C: 48" />
        <note pan="0" vol="100" key="60" len="96" pos="10944" name="C: 96" />
        <note pan="0" vol="100" key="62" len="48" pos="11040" name="D: 48" />
        <note pan="0" vol="100" key="66" len="48" pos="11088" name="F#: 48" />
        <note pan="0" vol="100" key="67" len="96" pos="11136" name="G: 96" />
        <note pan="0" vol="100" key="69" len="48" pos="11232" name="A: 48" />
        <note pan="0" vol="100" key="72" len="48" pos="11280" name="C*: 48" />
        <note pan="0" vol="100" key="69" len="144" pos="11328" name="A: 144" />
        <note pan="0" vol="100" key="67" len="48" pos="11472" name="G: 48" />
        <note pan="0" vol="100" key="69" len="48" pos="11520" name="A: 48" />
        <note pan="0" vol="100" key="72" len="144" pos="11568" name="C*: 144" />
        <note pan="0" vol="100" key="72" len="96" pos="11712" name="C*: 96" />
        <note pan="0" vol="100" key="72" len="48" pos="11808" name="C*: 48" />
        <note pan="0" vol="100" key="72" len="48" pos="11856" name="C*: 48" />
        <note pan="0" vol="100" key="72" len="144" pos="11904" name="C*: 144" />
        <note pan="0" vol="100" key="72" len="48" pos="12048" name="C*: 48" />
        <note pan="0" vol="100" key="69" len="48" pos="12096" name="A: 48" />
        <note pan="0" vol="100" key="66" len="48" pos="12144" name="F#: 48" />
        <note pan="0" vol="100" key="69" len="48" pos="12192" name="A: 48" />
        <note pan="0" vol="100" key="67" len="48" pos="12240" name="G: 48" />
    </midiclip>
</lmms-project>