<?xml version="1.0"?>
<!DOCTYPE lmms-project>
<lmms-project version="20" creatorversion="0.0.3" type="midiclip" creator="SWAR">
    <head/>
    <midiclip steps="16" muted="0" name="66" color="#4C72B8" type="1" pos="0">
        <note pan="0" vol="100" key="62" len="48" pos="0" name="D: 48" />
        <note pan="0" vol="100" key="66" len="48" pos="48" name="F#: 48" />
        <note pan="0" vol="100" key="67" len="24" pos="96" name="G: 24" />
        <note pan="0" vol="100" key="69" len="24" pos="120" name="A: 24" />
        <note pan="0" vol="100" key="72" len="96" pos="144" name="C*: 96" />
        <note pan="0" vol="100" key="72" len="192" pos="240" name="C*: 192" />
        <note pan="0" vol="100" key="72" len="24" pos="432" name="C*: 24" />
        <note pan="0" vol="100" key="69" len="72" pos="456" name="A: 72" />
        <note pan="0" vol="100" key="72" len="48" pos="528" name="C*: 48" />
        <note pan="0" vol="100" key="72" len="48" pos="576" name="C*: 48" />
        <note pan="0" vol="100" key="69" len="48" pos="624" name="A: 48" />
        <note pan="0" vol="100" key="67" len="96" pos="672" name="G: 96" />
        <note pan="0" vol="100" key="66" len="48" pos="768" name="F#: 48" />
        <note pan="0" vol="100" key="62" len="48" pos="816" name="D: 48" />
        <note pan="0" vol="100" key="62" len="24" pos="864" name="D: 24" />
        <note pan="0" vol="100" key="60" len="24" pos="888" name="C: 24" />
        <note pan="0" vol="100" key="60" len="96" pos="912" name="C: 96" />
        <note pan="0" vol="100" key="60" len="48" pos="1008" name="C: 48" />
        <note pan="0" vol="100" key="60" len="48" pos="1056" name="C: 48" />
        <note pan="0" vol="100" key="62" len="48" pos="1104" name="D: 48" />
        <note pan="0" vol="100" key="62" len="48" pos="1152" name="D: 48" />
        <note pan="0" vol="100" key="66" len="144" pos="1200" name="F#: 144" />
        <note pan="0" vol="100" key="67" len="96" pos="1344" name="G: 96" />
        <note pan="0" vol="100" key="67" len="48" pos="1440" name="G: 48" />
        <note pan="0" vol="100" key="69" len="96" pos="1488" name="A: 96" />
        <note pan="0" vol="100" key="72" len="96" pos="1584" name="C*: 96" />
        <note pan="0" vol="100" key="67" len="96" pos="1680" name="G: 96" />
        <note pan="0" vol="100" key="69" len="48" pos="1776" name="A: 48" />
        <note pan="0" vol="100" key="69" len="24" pos="1824" name="A: 24" />
        <note pan="0" vol="100" key="72" len="120" pos="1848" name="C*: 120" />
        <note pan="0" vol="100" key="72" len="48" pos="1968" name="C*: 48" />
        <note pan="0" vol="100" key="72" len="96" pos="2016" name="C*: 96" />
        <note pan="0" vol="100" key="72" len="48" pos="2112" name="C*: 48" />
        <note pan="0" vol="100" key="72" len="48" pos="2160" name="C*: 48" />
        <note pan="0" vol="100" key="72" len="48" pos="2208" name="C*: 48" />
        <note pan="0" vol="100" key="72" len="48" pos="2256" name="C*: 48" />
        <note pan="0" vol="100" key="72" len="48" pos="2304" name="C*: 48" />
        <note pan="0" vol="100" key="72" len="96" pos="2352" name="C*: 96" />
        <note pan="0" vol="100" key="72" len="48" pos="2448" name="C*: 48" />
        <note pan="0" vol="100" key="72" len="96" pos="2496" name="C*: 96" />
        <note pan="0" vol="100" key="72" len="96" pos="2592" name="C*: 96" />
        <note pan="0" vol="100" key="69" len="48" pos="2688" name="A: 48" />
        <note pan="0" vol="100" key="72" len="96" pos="2736" name="C*: 96" />
        <note pan="0" vol="100" key="72" len="96" pos="2832" name="C*: 96" />
        <note pan="0" vol="100" key="72" len="48" pos="2928" name="C*: 48" />
        <note pan="0" vol="100" key="69" len="48" pos="2976" name="A: 48" />
        <note pan="0" vol="100" key="72" len="48" pos="3024" name="C*: 48" />
        <note pan="0" vol="100" key="69" len="24" pos="3072" name="A: 24" />
        <note pan="0" vol="100" key="67" len="72" pos="3096" name="G: 72" />
        <note pan="0" vol="100" key="66" len="48" pos="3168" name="F#: 48" />
        <note pan="0" vol="100" key="62" len="48" pos="3216" name="D: 48" />
        <note pan="0" vol="100" key="67" len="48" pos="3264" name="G: 48" />
        <note pan="0" vol="100" key="69" len="48" pos="3312" name="A: 48" />
        <note pan="0" vol="100" key="69" len="48" pos="3360" name="A: 48" />
        <note pan="0" vol="100" key="67" len="96" pos="3408" name="G: 96" />
        <note pan="0" vol="100" key="72" len="24" pos="3504" name="C*: 24" />
        <note pan="0" vol="100" key="67" len="24" pos="3528" name="G: 24" />
        <note pan="0" vol="100" key="66" len="48" pos="3552" name="F#: 48" />
        <note pan="0" vol="100" key="62" len="48" pos="3600" name="D: 48" />
        <note pan="0" vol="100" key="67" len="96" pos="3648" name="G: 96" />
        <note pan="0" vol="100" key="66" len="24" pos="3744" name="F#: 24" />
        <note pan="0" vol="100" key="62" len="24" pos="3768" name="D: 24" />
        <note pan="0" vol="100" key="66" len="48" pos="3792" name="F#: 48" />
        <note pan="0" vol="100" key="62" len="48" pos="3840" name="D: 48" />
        <note pan="0" vol="100" key="62" len="48" pos="3888" name="D: 48" />
        <note pan="0" vol="100" key="62" len="48" pos="3936" name="D: 48" />
        <note pan="0" vol="100" key="66" len="48" pos="3984" name="F#: 48" />
        <note pan="0" vol="100" key="62" len="24" pos="4032" name="D: 24" />
        <note pan="0" vol="100" key="60" len="24" pos="4056" name="C: 24" />
        <note pan="0" vol="100" key="60" len="48" pos="4080" name="C: 48" />
        <note pan="0" vol="100" key="60" len="48" pos="4128" name="C: 48" />
        <note pan="0" vol="100" key="60" len="48" pos="4176" name="C: 48" />
        <note pan="0" vol="100" key="60" len="48" pos="4224" name="C: 48" />
        <note pan="0" vol="100" key="62" len="48" pos="4272" name="D: 48" />
        <note pan="0" vol="100" key="62" len="48" pos="4320" name="D: 48" />
        <note pan="0" vol="100" key="60" len="48" pos="4368" name="C: 48" />
        <note pan="0" vol="100" key="60" len="48" pos="4416" name="C: 48" />
        <note pan="0" vol="100" key="60" len="48" pos="4464" name="C: 48" />
        <note pan="0" vol="100" key="62" len="48" pos="4512" name="D: 48" />
        <note pan="0" vol="100" key="67" len="48" pos="4560" name="G: 48" />
        <note pan="0" vol="100" key="66" len="48" pos="4608" name="F#: 48" />
        <note pan="0" vol="100" key="67" len="48" pos="4656" name="G: 48" />
        <note pan="0" vol="100" key="69" len="144" pos="4704" name="A: 144" />
        <note pan="0" vol="100" key="72" len="48" pos="4848" name="C*: 48" />
        <note pan="0" vol="100" key="69" len="48" pos="4896" name="A: 48" />
        <note pan="0" vol="100" key="67" len="48" pos="4944" name="G: 48" />
        <note pan="0" vol="100" key="67" len="48" pos="4992" name="G: 48" />
        <note pan="0" vol="100" key="67" len="48" pos="5040" name="G: 48" />
        <note pan="0" vol="100" key="66" len="48" pos="5088" name="F#: 48" />
        <note pan="0" vol="100" key="62" len="96" pos="5136" name="D: 96" />
        <note pan="0" vol="100" key="67" len="24" pos="5232" name="G: 24" />
        <note pan="0" vol="100" key="66" len="24" pos="5256" name="F#: 24" />
        <note pan="0" vol="100" key="66" len="48" pos="5280" name="F#: 48" />
        <note pan="0" vol="100" key="67" len="48" pos="5328" name="G: 48" />
        <note pan="0" vol="100" key="66" len="48" pos="5376" name="F#: 48" />
        <note pan="0" vol="100" key="62" len="48" pos="5424" name="D: 48" />
        <note pan="0" vol="100" key="60" len="96" pos="5472" name="C: 96" />
        <note pan="0" vol="100" key="60" len="48" pos="5568" name="C: 48" />
        <note pan="0" vol="100" key="60" len="96" pos="5616" name="C: 96" />
        <note pan="0" vol="100" key="60" len="24" pos="5712" name="C: 24" />
        <note pan="0" vol="100" key="60" len="24" pos="5736" name="C: 24" />
        <note pan="0" vol="100" key="62" len="24" pos="5760" name="D: 24" />
        <note pan="0" vol="100" key="66" len="120" pos="5784" name="F#: 120" />
        <note pan="0" vol="100" key="67" len="96" pos="5904" name="G: 96" />
        <note pan="0" vol="100" key="72" len="48" pos="6000" name="C*: 48" />
        <note pan="0" vol="100" key="69" len="48" pos="6048" name="A: 48" />
        <note pan="0" vol="100" key="72" len="48" pos="6096" name="C*: 48" />
        <note pan="0" vol="100" key="69" len="96" pos="6144" name="A: 96" />
        <note pan="0" vol="100" key="67" len="96" pos="6240" name="G: 96" />
        <note pan="0" vol="100" key="66" len="144" pos="6336" name="F#: 144" />
        <note pan="0" vol="100" key="62" len="48" pos="6480" name="D: 48" />
        <note pan="0" vol="100" key="60" len="48" pos="6528" name="C: 48" />
        <note pan="0" vol="100" key="60" len="96" pos="6576" name="C: 96" />
        <note pan="0" vol="100" key="60" len="48" pos="6672" name="C: 48" />
        <note pan="0" vol="100" key="62" len="48" pos="6720" name="D: 48" />
        <note pan="0" vol="100" key="66" len="48" pos="6768" name="F#: 48" />
        <note pan="0" vol="100" key="67" len="48" pos="6816" name="G: 48" />
        <note pan="0" vol="100" key="69" len="48" pos="6864" name="A: 48" />
        <note pan="0" vol="100" key="66" len="24" pos="6912" name="F#: 24" />
        <note pan="0" vol="100" key="60" len="24" pos="6936" name="C: 24" />
        <note pan="0" vol="100" key="60" len="48" pos="6960" name="C: 48" />
        <note pan="0" vol="100" key="60" len="24" pos="7008" name="C: 24" />
        <note pan="0" vol="100" key="60" len="24" pos="7032" name="C: 24" />
        <note pan="0" vol="100" key="62" len="96" pos="7056" name="D: 96" />
        <note pan="0" vol="100" key="62" len="96" pos="7152" name="D: 96" />
        <note pan="0" vol="100" key="66" len="48" pos="7248" name="F#: 48" />
        <note pan="0" vol="100" key="67" len="48" pos="7296" name="G: 48" />
        <note pan="0" vol="100" key="72" len="24" pos="7344" name="C*: 24" />
        <note pan="0" vol="100" key="72" len="24" pos="7368" name="C*: 24" />
        <note pan="0" vol="100" key="69" len="192" pos="7392" name="A: 192" />
        <note pan="0" vol="100" key="72" len="48" pos="7584" name="C*: 48" />
        <note pan="0" vol="100" key="72" len="48" pos="7632" name="C*: 48" />
        <note pan="0" vol="100" key="72" len="48" pos="7680" name="C*: 48" />
        <note pan="0" vol="100" key="67" len="96" pos="7728" name="G: 96" />
        <note pan="0" vol="100" key="69" len="48" pos="7824" name="A: 48" />
        <note pan="0" vol="100" key="72" len="144" pos="7872" name="C*: 144" />
        <note pan="0" vol="100" key="69" len="96" pos="8016" name="A: 96" />
        <note pan="0" vol="100" key="67" len="96" pos="8112" name="G: 96" />
        <note pan="0" vol="100" key="62" len="48" pos="8208" name="D: 48" />
        <note pan="0" vol="100" key="62" len="96" pos="8256" name="D: 96" />
        <note pan="0" vol="100" key="67" len="48" pos="8352" name="G: 48" />
        <note pan="0" vol="100" key="62" len="48" pos="8400" name="D: 48" />
        <note pan="0" vol="100" key="66" len="96" pos="8448" name="F#: 96" />
        <note pan="0" vol="100" key="66" len="48" pos="8544" name="F#: 48" />
        <note pan="0" vol="100" key="67" len="48" pos="8592" name="G: 48" />
        <note pan="0" vol="100" key="69" len="48" pos="8640" name="A: 48" />
        <note pan="0" vol="100" key="66" len="48" pos="8688" name="F#: 48" />
        <note pan="0" vol="100" key="67" len="48" pos="8736" name="G: 48" />
        <note pan="0" vol="100" key="69" len="144" pos="8784" name="A: 144" />
        <note pan="0" vol="100" key="72" len="48" pos="8928" name="C*: 48" />
        <note pan="0" vol="100" key="72" len="96" pos="8976" name="C*: 96" />
        <note pan="0" vol="100" key="69" len="24" pos="9072" name="A: 24" />
        <note pan="0" vol="100" key="69" len="24" pos="9096" name="A: 24" />
        <note pan="0" vol="100" key="69" len="48" pos="9120" name="A: 48" />
        <note pan="0" vol="100" key="72" len="96" pos="9168" name="C*: 96" />
        <note pan="0" vol="100" key="72" len="96" pos="9264" name="C*: 96" />
        <note pan="0" vol="100" key="69" len="48" pos="9360" name="A: 48" />
        <note pan="0" vol="100" key="72" len="48" pos="9408" name="C*: 48" />
        <note pan="0" vol="100" key="72" len="48" pos="9456" name="C*: 48" />
        <note pan="0" vol="100" key="69" len="48" pos="9504" name="A: 48" />
        <note pan="0" vol="100" key="72" len="48" pos="9552" name="C*: 48" />
        <note pan="0" vol="100" key="67" len="48" pos="9600" name="G: 48" />
        <note pan="0" vol="100" key="69" len="48" pos="9648" name="A: 48" />
        <note pan="0" vol="100" key="72" len="48" pos="9696" name="C*: 48" />
        <note pan="0" vol="100" key="72" len="48" pos="9744" name="C*: 48" />
        <note pan="0" vol="100" key="69" len="48" pos="9792" name="A: 48" />
        <note pan="0" vol="100" key="67" len="48" pos="9840" name="G: 48" />
        <note pan="0" vol="100" key="62" len="96" pos="9888" name="D: 96" />
        <note pan="0" vol="100" key="60" len="48" pos="9984" name="C: 48" />
        <note pan="0" vol="100" key="60" len="24" pos="10032" name="C: 24" />
        <note pan="0" vol="100" key="62" len="24" pos="10056" name="D: 24" />
        <note pan="0" vol="100" key="62" len="48" pos="10080" name="D: 48" />
        <note pan="0" vol="100" key="60" len="48" pos="10128" name="C: 48" />
        <note pan="0" vol="100" key="60" len="96" pos="10176" name="C: 96" />
        <note pan="0" vol="100" key="62" len="96" pos="10272" name="D: 96" />
        <note pan="0" vol="100" key="60" len="24" pos="10368" name="C: 24" />
        <note pan="0" vol="100" key="62" len="24" pos="10392" name="D: 24" />
        <note pan="0" vol="100" key="66" len="48" pos="10416" name="F#: 48" />
        <note pan="0" vol="100" key="60" len="48" pos="10464" name="C: 48" />
        <note pan="0" vol="100" key="66" len="48" pos="10512" name="F#: 48" />
        <note pan="0" vol="100" key="66" len="48" pos="10560" name="F#: 48" />
        <note pan="0" vol="100" key="67" len="96" pos="10608" name="G: 96" />
        <note pan="0" vol="100" key="67" len="144" pos="10704" name="G: 144" />
        <note pan="0" vol="100" key="69" len="48" pos="10848" name="A: 48" />
        <note pan="0" vol="100" key="72" len="48" pos="10896" name="C*: 48" />
        <note pan="0" vol="100" key="72" len="48" pos="10944" name="C*: 48" />
        <note pan="0" vol="100" key="72" len="48" pos="10992" name="C*: 48" />
        <note pan="0" vol="100" key="69" len="48" pos="11040" name="A: 48" />
        <note pan="0" vol="100" key="67" len="48" pos="11088" name="G: 48" />
        <note pan="0" vol="100" key="69" len="48" pos="11136" name="A: 48" />
        <note pan="0" vol="100" key="67" len="48" pos="11184" name="G: 48" />
        <note pan="0" vol="100" key="72" len="24" pos="11232" name="C*: 24" />
        <note pan="0" vol="100" key="72" len="24" pos="11256" name="C*: 24" />
        <note pan="0" vol="100" key="69" len="96" pos="11280" name="A: 96" />
        <note pan="0" vol="100" key="67" len="144" pos="11376" name="G: 144" />
        <note pan="0" vol="100" key="66" len="48" pos="11520" name="F#: 48" />
        <note pan="0" vol="100" key="60" len="24" pos="11568" name="C: 24" />
        <note pan="0" vol="100" key="62" len="24" pos="11592" name="D: 24" />
        <note pan="0" vol="100" key="66" len="24" pos="11616" name="F#: 24" />
        <note pan="0" vol="100" key="69" len="24" pos="11640" name="A: 24" />
        <note pan="0" vol="100" key="72" len="48" pos="11664" name="C*: 48" />
        <note pan="0" vol="100" key="69" len="48" pos="11712" name="A: 48" />
        <note pan="0" vol="100" key="69" len="48" pos="11760" name="A: 48" />
        <note pan="0" vol="100" key="69" len="96" pos="11808" name="A: 96" />
        <note pan="0" vol="100" key="67" len="48" pos="11904" name="G: 48" />
        <note pan="0" vol="100" key="69" len="48" pos="11952" name="A: 48" />
        <note pan="0" vol="100" key="66" len="96" pos="12000" name="F#: 96" />
        <note pan="0" vol="100" key="66" len="48" pos="12096" name="F#: 48" />
        <note pan="0" vol="100" key="66" len="48" pos="12144" name="F#: 48" />
        <note pan="0" vol="100" key="69" len="48" pos="12192" name="A: 48" />
        <note pan="0" vol="100" key="72" len="48" pos="12240" name="C*: 48" />
    </midiclip>
</lmms-project>