<?xml version="1.0"?>
<!DOCTYPE lmms-project>
<lmms-project version="20" creatorversion="0.0.3" type="midiclip" creator="SWAR">
    <head/>
    <midiclip steps="16" muted="0" name="11" color="#FF58C6" type="1" pos="0">
        <note pan="0" vol="100" key="60" len="48" pos="0" name="C: 48" />
        <note pan="0" vol="100" key="62" len="48" pos="48" name="D: 48" />
        <note pan="0" vol="100" key="63" len="48" pos="96" name="D#: 48" />
        <note pan="0" vol="100" key="67" len="192" pos="144" name="G: 192" />
        <note pan="0" vol="100" key="62" len="48" pos="336" name="D: 48" />
        <note pan="0" vol="100" key="63" len="48" pos="384" name="D#: 48" />
        <note pan="0" vol="100" key="69" len="48" pos="432" name="A: 48" />
        <note pan="0" vol="100" key="72" len="48" pos="480" name="C*: 48" />
        <note pan="0" vol="100" key="72" len="48" pos="528" name="C*: 48" />
        <note pan="0" vol="100" key="69" len="48" pos="576" name="A: 48" />
        <note pan="0" vol="100" key="72" len="48" pos="624" name="C*: 48" />
        <note pan="0" vol="100" key="69" len="48" pos="672" name="A: 48" />
        <note pan="0" vol="100" key="63" len="48" pos="720" name="D#: 48" />
        <note pan="0" vol="100" key="63" len="24" pos="768" name="D#: 24" />
        <note pan="0" vol="100" key="67" len="24" pos="792" name="G: 24" />
        <note pan="0" vol="100" key="72" len="48" pos="816" name="C*: 48" />
        <note pan="0" vol="100" key="72" len="96" pos="864" name="C*: 96" />
        <note pan="0" vol="100" key="69" len="48" pos="960" name="A: 48" />
        <note pan="0" vol="100" key="67" len="48" pos="1008" name="G: 48" />
        <note pan="0" vol="100" key="69" len="48" pos="1056" name="A: 48" />
        <note pan="0" vol="100" key="72" len="144" pos="1104" name="C*: 144" />
        <note pan="0" vol="100" key="69" len="48" pos="1248" name="A: 48" />
        <note pan="0" vol="100" key="69" len="48" pos="1296" name="A: 48" />
        <note pan="0" vol="100" key="72" len="48" pos="1344" name="C*: 48" />
        <note pan="0" vol="100" key="67" len="24" pos="1392" name="G: 24" />
        <note pan="0" vol="100" key="63" len="72" pos="1416" name="D#: 72" />
        <note pan="0" vol="100" key="67" len="96" pos="1488" name="G: 96" />
        <note pan="0" vol="100" key="69" len="48" pos="1584" name="A: 48" />
        <note pan="0" vol="100" key="63" len="48" pos="1632" name="D#: 48" />
        <note pan="0" vol="100" key="63" len="144" pos="1680" name="D#: 144" />
        <note pan="0" vol="100" key="62" len="48" pos="1824" name="D: 48" />
        <note pan="0" vol="100" key="63" len="48" pos="1872" name="D#: 48" />
        <note pan="0" vol="100" key="67" len="48" pos="1920" name="G: 48" />
        <note pan="0" vol="100" key="69" len="48" pos="1968" name="A: 48" />
        <note pan="0" vol="100" key="63" len="96" pos="2016" name="D#: 96" />
        <note pan="0" vol="100" key="69" len="24" pos="2112" name="A: 24" />
        <note pan="0" vol="100" key="72" len="24" pos="2136" name="C*: 24" />
        <note pan="0" vol="100" key="72" len="48" pos="2160" name="C*: 48" />
        <note pan="0" vol="100" key="72" len="96" pos="2208" name="C*: 96" />
        <note pan="0" vol="100" key="72" len="48" pos="2304" name="C*: 48" />
        <note pan="0" vol="100" key="69" len="144" pos="2352" name="A: 144" />
        <note pan="0" vol="100" key="72" len="96" pos="2496" name="C*: 96" />
        <note pan="0" vol="100" key="69" len="24" pos="2592" name="A: 24" />
        <note pan="0" vol="100" key="67" len="24" pos="2616" name="G: 24" />
        <note pan="0" vol="100" key="63" len="48" pos="2640" name="D#: 48" />
        <note pan="0" vol="100" key="69" len="48" pos="2688" name="A: 48" />
        <note pan="0" vol="100" key="69" len="96" pos="2736" name="A: 96" />
        <note pan="0" vol="100" key="67" len="48" pos="2832" name="G: 48" />
        <note pan="0" vol="100" key="63" len="48" pos="2880" name="D#: 48" />
        <note pan="0" vol="100" key="69" len="96" pos="2928" name="A: 96" />
        <note pan="0" vol="100" key="67" len="48" pos="3024" name="G: 48" />
        <note pan="0" vol="100" key="63" len="96" pos="3072" name="D#: 96" />
        <note pan="0" vol="100" key="62" len="48" pos="3168" name="D: 48" />
        <note pan="0" vol="100" key="60" len="48" pos="3216" name="C: 48" />
        <note pan="0" vol="100" key="60" len="48" pos="3264" name="C: 48" />
        <note pan="0" vol="100" key="60" len="48" pos="3312" name="C: 48" />
        <note pan="0" vol="100" key="60" len="48" pos="3360" name="C: 48" />
        <note pan="0" vol="100" key="60" len="48" pos="3408" name="C: 48" />
        <note pan="0" vol="100" key="60" len="96" pos="3456" name="C: 96" />
        <note pan="0" vol="100" key="62" len="48" pos="3552" name="D: 48" />
        <note pan="0" vol="100" key="63" len="48" pos="3600" name="D#: 48" />
        <note pan="0" vol="100" key="67" len="96" pos="3648" name="G: 96" />
        <note pan="0" vol="100" key="72" len="48" pos="3744" name="C*: 48" />
        <note pan="0" vol="100" key="69" len="48" pos="3792" name="A: 48" />
        <note pan="0" vol="100" key="67" len="24" pos="3840" name="G: 24" />
        <note pan="0" vol="100" key="63" len="24" pos="3864" name="D#: 24" />
        <note pan="0" vol="100" key="63" len="48" pos="3888" name="D#: 48" />
        <note pan="0" vol="100" key="60" len="24" pos="3936" name="C: 24" />
        <note pan="0" vol="100" key="60" len="72" pos="3960" name="C: 72" />
        <note pan="0" vol="100" key="60" len="48" pos="4032" name="C: 48" />
        <note pan="0" vol="100" key="62" len="48" pos="4080" name="D: 48" />
        <note pan="0" vol="100" key="60" len="48" pos="4128" name="C: 48" />
        <note pan="0" vol="100" key="63" len="48" pos="4176" name="D#: 48" />
        <note pan="0" vol="100" key="62" len="48" pos="4224" name="D: 48" />
        <note pan="0" vol="100" key="60" len="24" pos="4272" name="C: 24" />
        <note pan="0" vol="100" key="60" len="72" pos="4296" name="C: 72" />
        <note pan="0" vol="100" key="62" len="48" pos="4368" name="D: 48" />
        <note pan="0" vol="100" key="60" len="96" pos="4416" name="C: 96" />
        <note pan="0" vol="100" key="60" len="48" pos="4512" name="C: 48" />
        <note pan="0" vol="100" key="62" len="24" pos="4560" name="D: 24" />
        <note pan="0" vol="100" key="60" len="72" pos="4584" name="C: 72" />
        <note pan="0" vol="100" key="60" len="96" pos="4656" name="C: 96" />
        <note pan="0" vol="100" key="62" len="24" pos="4752" name="D: 24" />
        <note pan="0" vol="100" key="63" len="72" pos="4776" name="D#: 72" />
        <note pan="0" vol="100" key="63" len="48" pos="4848" name="D#: 48" />
        <note pan="0" vol="100" key="67" len="96" pos="4896" name="G: 96" />
        <note pan="0" vol="100" key="62" len="48" pos="4992" name="D: 48" />
        <note pan="0" vol="100" key="63" len="48" pos="5040" name="D#: 48" />
        <note pan="0" vol="100" key="67" len="48" pos="5088" name="G: 48" />
        <note pan="0" vol="100" key="69" len="24" pos="5136" name="A: 24" />
        <note pan="0" vol="100" key="63" len="24" pos="5160" name="D#: 24" />
        <note pan="0" vol="100" key="67" len="144" pos="5184" name="G: 144" />
        <note pan="0" vol="100" key="63" len="48" pos="5328" name="D#: 48" />
        <note pan="0" vol="100" key="60" len="48" pos="5376" name="C: 48" />
        <note pan="0" vol="100" key="62" len="48" pos="5424" name="D: 48" />
        <note pan="0" vol="100" key="63" len="96" pos="5472" name="D#: 96" />
        <note pan="0" vol="100" key="67" len="48" pos="5568" name="G: 48" />
        <note pan="0" vol="100" key="69" len="48" pos="5616" name="A: 48" />
        <note pan="0" vol="100" key="72" len="96" pos="5664" name="C*: 96" />
        <note pan="0" vol="100" key="72" len="48" pos="5760" name="C*: 48" />
        <note pan="0" vol="100" key="67" len="48" pos="5808" name="G: 48" />
        <note pan="0" vol="100" key="67" len="96" pos="5856" name="G: 96" />
        <note pan="0" vol="100" key="69" len="48" pos="5952" name="A: 48" />
        <note pan="0" vol="100" key="69" len="24" pos="6000" name="A: 24" />
        <note pan="0" vol="100" key="69" len="120" pos="6024" name="A: 120" />
        <note pan="0" vol="100" key="67" len="48" pos="6144" name="G: 48" />
        <note pan="0" vol="100" key="62" len="48" pos="6192" name="D: 48" />
        <note pan="0" vol="100" key="62" len="96" pos="6240" name="D: 96" />
        <note pan="0" vol="100" key="63" len="48" pos="6336" name="D#: 48" />
        <note pan="0" vol="100" key="62" len="48" pos="6384" name="D: 48" />
        <note pan="0" vol="100" key="67" len="48" pos="6432" name="G: 48" />
        <note pan="0" vol="100" key="69" len="48" pos="6480" name="A: 48" />
        <note pan="0" vol="100" key="69" len="48" pos="6528" name="A: 48" />
        <note pan="0" vol="100" key="72" len="48" pos="6576" name="C*: 48" />
        <note pan="0" vol="100" key="69" len="48" pos="6624" name="A: 48" />
        <note pan="0" vol="100" key="69" len="24" pos="6672" name="A: 24" />
        <note pan="0" vol="100" key="72" len="24" pos="6696" name="C*: 24" />
        <note pan="0" vol="100" key="72" len="48" pos="6720" name="C*: 48" />
        <note pan="0" vol="100" key="72" len="96" pos="6768" name="C*: 96" />
        <note pan="0" vol="100" key="67" len="48" pos="6864" name="G: 48" />
        <note pan="0" vol="100" key="62" len="48" pos="6912" name="D: 48" />
        <note pan="0" vol="100" key="60" len="96" pos="6960" name="C: 96" />
        <note pan="0" vol="100" key="60" len="24" pos="7056" name="C: 24" />
        <note pan="0" vol="100" key="62" len="24" pos="7080" name="D: 24" />
        <note pan="0" vol="100" key="63" len="48" pos="7104" name="D#: 48" />
        <note pan="0" vol="100" key="67" len="48" pos="7152" name="G: 48" />
        <note pan="0" vol="100" key="69" len="48" pos="7200" name="A: 48" />
        <note pan="0" vol="100" key="69" len="48" pos="7248" name="A: 48" />
        <note pan="0" vol="100" key="72" len="48" pos="7296" name="C*: 48" />
        <note pan="0" vol="100" key="72" len="48" pos="7344" name="C*: 48" />
        <note pan="0" vol="100" key="72" len="48" pos="7392" name="C*: 48" />
        <note pan="0" vol="100" key="72" len="48" pos="7440" name="C*: 48" />
        <note pan="0" vol="100" key="69" len="96" pos="7488" name="A: 96" />
        <note pan="0" vol="100" key="67" len="48" pos="7584" name="G: 48" />
        <note pan="0" vol="100" key="63" len="48" pos="7632" name="D#: 48" />
        <note pan="0" vol="100" key="63" len="48" pos="7680" name="D#: 48" />
        <note pan="0" vol="100" key="63" len="48" pos="7728" name="D#: 48" />
        <note pan="0" vol="100" key="62" len="48" pos="7776" name="D: 48" />
        <note pan="0" vol="100" key="62" len="48" pos="7824" name="D: 48" />
        <note pan="0" vol="100" key="67" len="24" pos="7872" name="G: 24" />
        <note pan="0" vol="100" key="67" len="24" pos="7896" name="G: 24" />
        <note pan="0" vol="100" key="72" len="96" pos="7920" name="C*: 96" />
        <note pan="0" vol="100" key="72" len="24" pos="8016" name="C*: 24" />
        <note pan="0" vol="100" key="69" len="24" pos="8040" name="A: 24" />
        <note pan="0" vol="100" key="69" len="96" pos="8064" name="A: 96" />
        <note pan="0" vol="100" key="67" len="48" pos="8160" name="G: 48" />
        <note pan="0" vol="100" key="69" len="24" pos="8208" name="A: 24" />
        <note pan="0" vol="100" key="72" len="24" pos="8232" name="C*: 24" />
        <note pan="0" vol="100" key="72" len="24" pos="8256" name="C*: 24" />
        <note pan="0" vol="100" key="69" len="24" pos="8280" name="A: 24" />
        <note pan="0" vol="100" key="67" len="48" pos="8304" name="G: 48" />
        <note pan="0" vol="100" key="69" len="48" pos="8352" name="A: 48" />
        <note pan="0" vol="100" key="67" len="48" pos="8400" name="G: 48" />
        <note pan="0" vol="100" key="63" len="48" pos="8448" name="D#: 48" />
        <note pan="0" vol="100" key="62" len="48" pos="8496" name="D: 48" />
        <note pan="0" vol="100" key="62" len="48" pos="8544" name="D: 48" />
        <note pan="0" vol="100" key="62" len="48" pos="8592" name="D: 48" />
        <note pan="0" vol="100" key="62" len="96" pos="8640" name="D: 96" />
        <note pan="0" vol="100" key="67" len="48" pos="8736" name="G: 48" />
        <note pan="0" vol="100" key="67" len="48" pos="8784" name="G: 48" />
        <note pan="0" vol="100" key="63" len="96" pos="8832" name="D#: 96" />
        <note pan="0" vol="100" key="69" len="24" pos="8928" name="A: 24" />
        <note pan="0" vol="100" key="67" len="24" pos="8952" name="G: 24" />
        <note pan="0" vol="100" key="63" len="48" pos="8976" name="D#: 48" />
        <note pan="0" vol="100" key="63" len="48" pos="9024" name="D#: 48" />
        <note pan="0" vol="100" key="62" len="48" pos="9072" name="D: 48" />
        <note pan="0" vol="100" key="60" len="96" pos="9120" name="C: 96" />
        <note pan="0" vol="100" key="60" len="48" pos="9216" name="C: 48" />
        <note pan="0" vol="100" key="60" len="48" pos="9264" name="C: 48" />
        <note pan="0" vol="100" key="60" len="48" pos="9312" name="C: 48" />
        <note pan="0" vol="100" key="60" len="48" pos="9360" name="C: 48" />
        <note pan="0" vol="100" key="62" len="48" pos="9408" name="D: 48" />
        <note pan="0" vol="100" key="60" len="96" pos="9456" name="C: 96" />
        <note pan="0" vol="100" key="60" len="48" pos="9552" name="C: 48" />
        <note pan="0" vol="100" key="63" len="144" pos="9600" name="D#: 144" />
        <note pan="0" vol="100" key="63" len="48" pos="9744" name="D#: 48" />
        <note pan="0" vol="100" key="67" len="24" pos="9792" name="G: 24" />
        <note pan="0" vol="100" key="69" len="24" pos="9816" name="A: 24" />
        <note pan="0" vol="100" key="72" len="24" pos="9840" name="C*: 24" />
        <note pan="0" vol="100" key="72" len="24" pos="9864" name="C*: 24" />
        <note pan="0" vol="100" key="69" len="48" pos="9888" name="A: 48" />
        <note pan="0" vol="100" key="67" len="144" pos="9936" name="G: 144" />
        <note pan="0" vol="100" key="63" len="96" pos="10080" name="D#: 96" />
        <note pan="0" vol="100" key="62" len="96" pos="10176" name="D: 96" />
        <note pan="0" vol="100" key="60" len="48" pos="10272" name="C: 48" />
        <note pan="0" vol="100" key="60" len="48" pos="10320" name="C: 48" />
        <note pan="0" vol="100" key="60" len="48" pos="10368" name="C: 48" />
        <note pan="0" vol="100" key="62" len="48" pos="10416" name="D: 48" />
        <note pan="0" vol="100" key="63" len="48" pos="10464" name="D#: 48" />
        <note pan="0" vol="100" key="67" len="96" pos="10512" name="G: 96" />
        <note pan="0" vol="100" key="72" len="48" pos="10608" name="C*: 48" />
        <note pan="0" vol="100" key="69" len="24" pos="10656" name="A: 24" />
        <note pan="0" vol="100" key="63" len="72" pos="10680" name="D#: 72" />
        <note pan="0" vol="100" key="63" len="96" pos="10752" name="D#: 96" />
        <note pan="0" vol="100" key="62" len="144" pos="10848" name="D: 144" />
        <note pan="0" vol="100" key="62" len="48" pos="10992" name="D: 48" />
        <note pan="0" vol="100" key="60" len="24" pos="11040" name="C: 24" />
        <note pan="0" vol="100" key="62" len="24" pos="11064" name="D: 24" />
        <note pan="0" vol="100" key="62" len="48" pos="11088" name="D: 48" />
        <note pan="0" vol="100" key="60" len="144" pos="11136" name="C: 144" />
        <note pan="0" vol="100" key="62" len="48" pos="11280" name="D: 48" />
        <note pan="0" vol="100" key="63" len="24" pos="11328" name="D#: 24" />
        <note pan="0" vol="100" key="62" len="24" pos="11352" name="D: 24" />
        <note pan="0" vol="100" key="60" len="48" pos="11376" name="C: 48" />
        <note pan="0" vol="100" key="60" len="48" pos="11424" name="C: 48" />
        <note pan="0" vol="100" key="62" len="48" pos="11472" name="D: 48" />
        <note pan="0" vol="100" key="62" len="48" pos="11520" name="D: 48" />
        <note pan="0" vol="100" key="62" len="48" pos="11568" name="D: 48" />
        <note pan="0" vol="100" key="60" len="24" pos="11616" name="C: 24" />
        <note pan="0" vol="100" key="62" len="72" pos="11640" name="D: 72" />
        <note pan="0" vol="100" key="63" len="48" pos="11712" name="D#: 48" />
        <note pan="0" vol="100" key="62" len="48" pos="11760" name="D: 48" />
        <note pan="0" vol="100" key="62" len="24" pos="11808" name="D: 24" />
        <note pan="0" vol="100" key="63" len="72" pos="11832" name="D#: 72" />
        <note pan="0" vol="100" key="60" len="48" pos="11904" name="C: 48" />
        <note pan="0" vol="100" key="62" len="144" pos="11952" name="D: 144" />
        <note pan="0" vol="100" key="63" len="48" pos="12096" name="D#: 48" />
        <note pan="0" vol="100" key="67" len="96" pos="12144" name="G: 96" />
        <note pan="0" vol="100" key="67" len="48" pos="12240" name="G: 48" />
    </midiclip>
</lmms-project>