<?xml version="1.0"?>
<!DOCTYPE lmms-project>
<lmms-project version="20" creatorversion="0.0.3" type="midiclip" creator="SWAR">
    <head/>
    <midiclip steps="16" muted="0" name="31" color="#C7A651" type="1" pos="0">
        <note pan="0" vol="100" key="62" len="48" pos="0" name="D: 48" />
        <note pan="0" vol="100" key="63" len="48" pos="48" name="D#: 48" />
        <note pan="0" vol="100" key="63" len="48" pos="96" name="D#: 48" />
        <note pan="0" vol="100" key="67" len="48" pos="144" name="G: 48" />
        <note pan="0" vol="100" key="67" len="48" pos="192" name="G: 48" />
        <note pan="0" vol="100" key="67" len="48" pos="240" name="G: 48" />
        <note pan="0" vol="100" key="69" len="48" pos="288" name="A: 48" />
        <note pan="0" vol="100" key="72" len="48" pos="336" name="C*: 48" />
        <note pan="0" vol="100" key="72" len="48" pos="384" name="C*: 48" />
        <note pan="0" vol="100" key="72" len="48" pos="432" name="C*: 48" />
        <note pan="0" vol="100" key="69" len="48" pos="480" name="A: 48" />
        <note pan="0" vol="100" key="67" len="96" pos="528" name="G: 96" />
        <note pan="0" vol="100" key="63" len="48" pos="624" name="D#: 48" />
        <note pan="0" vol="100" key="62" len="48" pos="672" name="D: 48" />
        <note pan="0" vol="100" key="63" len="48" pos="720" name="D#: 48" />
        <note pan="0" vol="100" key="62" len="144" pos="768" name="D: 144" />
        <note pan="0" vol="100" key="62" len="48" pos="912" name="D: 48" />
        <note pan="0" vol="100" key="60" len="144" pos="960" name="C: 144" />
        <note pan="0" vol="100" key="62" len="96" pos="1104" name="D: 96" />
        <note pan="0" vol="100" key="62" len="48" pos="1200" name="D: 48" />
        <note pan="0" vol="100" key="67" len="48" pos="1248" name="G: 48" />
        <note pan="0" vol="100" key="63" len="48" pos="1296" name="D#: 48" />
        <note pan="0" vol="100" key="63" len="48" pos="1344" name="D#: 48" />
        <note pan="0" vol="100" key="63" len="96" pos="1392" name="D#: 96" />
        <note pan="0" vol="100" key="62" len="48" pos="1488" name="D: 48" />
        <note pan="0" vol="100" key="60" len="96" pos="1536" name="C: 96" />
        <note pan="0" vol="100" key="60" len="48" pos="1632" name="C: 48" />
        <note pan="0" vol="100" key="62" len="144" pos="1680" name="D: 144" />
        <note pan="0" vol="100" key="63" len="144" pos="1824" name="D#: 144" />
        <note pan="0" vol="100" key="62" len="48" pos="1968" name="D: 48" />
        <note pan="0" vol="100" key="60" len="48" pos="2016" name="C: 48" />
        <note pan="0" vol="100" key="63" len="48" pos="2064" name="D#: 48" />
        <note pan="0" vol="100" key="62" len="96" pos="2112" name="D: 96" />
        <note pan="0" vol="100" key="67" len="96" pos="2208" name="G: 96" />
        <note pan="0" vol="100" key="69" len="24" pos="2304" name="A: 24" />
        <note pan="0" vol="100" key="72" len="24" pos="2328" name="C*: 24" />
        <note pan="0" vol="100" key="69" len="48" pos="2352" name="A: 48" />
        <note pan="0" vol="100" key="67" len="48" pos="2400" name="G: 48" />
        <note pan="0" vol="100" key="63" len="48" pos="2448" name="D#: 48" />
        <note pan="0" vol="100" key="62" len="48" pos="2496" name="D: 48" />
        <note pan="0" vol="100" key="60" len="24" pos="2544" name="C: 24" />
        <note pan="0" vol="100" key="60" len="72" pos="2568" name="C: 72" />
        <note pan="0" vol="100" key="62" len="96" pos="2640" name="D: 96" />
        <note pan="0" vol="100" key="63" len="48" pos="2736" name="D#: 48" />
        <note pan="0" vol="100" key="67" len="48" pos="2784" name="G: 48" />
        <note pan="0" vol="100" key="67" len="96" pos="2832" name="G: 96" />
        <note pan="0" vol="100" key="69" len="24" pos="2928" name="A: 24" />
        <note pan="0" vol="100" key="72" len="24" pos="2952" name="C*: 24" />
        <note pan="0" vol="100" key="72" len="48" pos="2976" name="C*: 48" />
        <note pan="0" vol="100" key="72" len="24" pos="3024" name="C*: 24" />
        <note pan="0" vol="100" key="69" len="24" pos="3048" name="A: 24" />
        <note pan="0" vol="100" key="67" len="48" pos="3072" name="G: 48" />
        <note pan="0" vol="100" key="62" len="48" pos="3120" name="D: 48" />
        <note pan="0" vol="100" key="63" len="48" pos="3168" name="D#: 48" />
        <note pan="0" vol="100" key="67" len="48" pos="3216" name="G: 48" />
        <note pan="0" vol="100" key="69" len="48" pos="3264" name="A: 48" />
        <note pan="0" vol="100" key="69" len="96" pos="3312" name="A: 96" />
        <note pan="0" vol="100" key="67" len="48" pos="3408" name="G: 48" />
        <note pan="0" vol="100" key="69" len="96" pos="3456" name="A: 96" />
        <note pan="0" vol="100" key="69" len="48" pos="3552" name="A: 48" />
        <note pan="0" vol="100" key="67" len="48" pos="3600" name="G: 48" />
        <note pan="0" vol="100" key="63" len="48" pos="3648" name="D#: 48" />
        <note pan="0" vol="100" key="67" len="48" pos="3696" name="G: 48" />
        <note pan="0" vol="100" key="63" len="48" pos="3744" name="D#: 48" />
        <note pan="0" vol="100" key="69" len="48" pos="3792" name="A: 48" />
        <note pan="0" vol="100" key="69" len="48" pos="3840" name="A: 48" />
        <note pan="0" vol="100" key="67" len="48" pos="3888" name="G: 48" />
        <note pan="0" vol="100" key="63" len="48" pos="3936" name="D#: 48" />
        <note pan="0" vol="100" key="67" len="48" pos="3984" name="G: 48" />
        <note pan="0" vol="100" key="63" len="48" pos="4032" name="D#: 48" />
        <note pan="0" vol="100" key="63" len="48" pos="4080" name="D#: 48" />
        <note pan="0" vol="100" key="62" len="96" pos="4128" name="D: 96" />
        <note pan="0" vol="100" key="60" len="48" pos="4224" name="C: 48" />
        <note pan="0" vol="100" key="62" len="48" pos="4272" name="D: 48" />
        <note pan="0" vol="100" key="62" len="48" pos="4320" name="D: 48" />
        <note pan="0" vol="100" key="63" len="96" pos="4368" name="D#: 96" />
        <note pan="0" vol="100" key="67" len="48" pos="4464" name="G: 48" />
        <note pan="0" vol="100" key="69" len="48" pos="4512" name="A: 48" />
        <note pan="0" vol="100" key="72" len="48" pos="4560" name="C*: 48" />
        <note pan="0" vol="100" key="69" len="96" pos="4608" name="A: 96" />
        <note pan="0" vol="100" key="67" len="48" pos="4704" name="G: 48" />
        <note pan="0" vol="100" key="69" len="96" pos="4752" name="A: 96" />
        <note pan="0" vol="100" key="72" len="48" pos="4848" name="C*: 48" />
        <note pan="0" vol="100" key="67" len="24" pos="4896" name="G: 24" />
        <note pan="0" vol="100" key="67" len="24" pos="4920" name="G: 24" />
        <note pan="0" vol="100" key="69" len="48" pos="4944" name="A: 48" />
        <note pan="0" vol="100" key="67" len="48" pos="4992" name="G: 48" />
        <note pan="0" vol="100" key="67" len="96" pos="5040" name="G: 96" />
        <note pan="0" vol="100" key="67" len="48" pos="5136" name="G: 48" />
        <note pan="0" vol="100" key="69" len="48" pos="5184" name="A: 48" />
        <note pan="0" vol="100" key="72" len="24" pos="5232" name="C*: 24" />
        <note pan="0" vol="100" key="72" len="24" pos="5256" name="C*: 24" />
        <note pan="0" vol="100" key="69" len="48" pos="5280" name="A: 48" />
        <note pan="0" vol="100" key="67" len="48" pos="5328" name="G: 48" />
        <note pan="0" vol="100" key="67" len="96" pos="5376" name="G: 96" />
        <note pan="0" vol="100" key="63" len="96" pos="5472" name="D#: 96" />
        <note pan="0" vol="100" key="62" len="48" pos="5568" name="D: 48" />
        <note pan="0" vol="100" key="60" len="48" pos="5616" name="C: 48" />
        <note pan="0" vol="100" key="62" len="48" pos="5664" name="D: 48" />
        <note pan="0" vol="100" key="67" len="96" pos="5712" name="G: 96" />
        <note pan="0" vol="100" key="69" len="24" pos="5808" name="A: 24" />
        <note pan="0" vol="100" key="69" len="24" pos="5832" name="A: 24" />
        <note pan="0" vol="100" key="72" len="96" pos="5856" name="C*: 96" />
        <note pan="0" vol="100" key="72" len="48" pos="5952" name="C*: 48" />
        <note pan="0" vol="100" key="69" len="48" pos="6000" name="A: 48" />
        <note pan="0" vol="100" key="72" len="48" pos="6048" name="C*: 48" />
        <note pan="0" vol="100" key="69" len="48" pos="6096" name="A: 48" />
        <note pan="0" vol="100" key="72" len="48" pos="6144" name="C*: 48" />
        <note pan="0" vol="100" key="69" len="48" pos="6192" name="A: 48" />
        <note pan="0" vol="100" key="67" len="96" pos="6240" name="G: 96" />
        <note pan="0" vol="100" key="63" len="48" pos="6336" name="D#: 48" />
        <note pan="0" vol="100" key="60" len="48" pos="6384" name="C: 48" />
        <note pan="0" vol="100" key="60" len="96" pos="6432" name="C: 96" />
        <note pan="0" vol="100" key="60" len="48" pos="6528" name="C: 48" />
        <note pan="0" vol="100" key="62" len="48" pos="6576" name="D: 48" />
        <note pan="0" vol="100" key="60" len="96" pos="6624" name="C: 96" />
        <note pan="0" vol="100" key="62" len="24" pos="6720" name="D: 24" />
        <note pan="0" vol="100" key="63" len="24" pos="6744" name="D#: 24" />
        <note pan="0" vol="100" key="67" len="48" pos="6768" name="G: 48" />
        <note pan="0" vol="100" key="62" len="48" pos="6816" name="D: 48" />
        <note pan="0" vol="100" key="63" len="144" pos="6864" name="D#: 144" />
        <note pan="0" vol="100" key="67" len="48" pos="7008" name="G: 48" />
        <note pan="0" vol="100" key="67" len="48" pos="7056" name="G: 48" />
        <note pan="0" vol="100" key="69" len="48" pos="7104" name="A: 48" />
        <note pan="0" vol="100" key="72" len="96" pos="7152" name="C*: 96" />
        <note pan="0" vol="100" key="69" len="48" pos="7248" name="A: 48" />
        <note pan="0" vol="100" key="72" len="24" pos="7296" name="C*: 24" />
        <note pan="0" vol="100" key="67" len="24" pos="7320" name="G: 24" />
        <note pan="0" vol="100" key="62" len="48" pos="7344" name="D: 48" />
        <note pan="0" vol="100" key="60" len="24" pos="7392" name="C: 24" />
        <note pan="0" vol="100" key="63" len="24" pos="7416" name="D#: 24" />
        <note pan="0" vol="100" key="60" len="48" pos="7440" name="C: 48" />
        <note pan="0" vol="100" key="60" len="96" pos="7488" name="C: 96" />
        <note pan="0" vol="100" key="63" len="48" pos="7584" name="D#: 48" />
        <note pan="0" vol="100" key="67" len="48" pos="7632" name="G: 48" />
        <note pan="0" vol="100" key="62" len="48" pos="7680" name="D: 48" />
        <note pan="0" vol="100" key="67" len="48" pos="7728" name="G: 48" />
        <note pan="0" vol="100" key="63" len="48" pos="7776" name="D#: 48" />
        <note pan="0" vol="100" key="67" len="48" pos="7824" name="G: 48" />
        <note pan="0" vol="100" key="69" len="96" pos="7872" name="A: 96" />
        <note pan="0" vol="100" key="63" len="24" pos="7968" name="D#: 24" />
        <note pan="0" vol="100" key="67" len="72" pos="7992" name="G: 72" />
        <note pan="0" vol="100" key="69" len="96" pos="8064" name="A: 96" />
        <note pan="0" vol="100" key="63" len="24" pos="8160" name="D#: 24" />
        <note pan="0" vol="100" key="67" len="24" pos="8184" name="G: 24" />
        <note pan="0" vol="100" key="69" len="48" pos="8208" name="A: 48" />
        <note pan="0" vol="100" key="72" len="48" pos="8256" name="C*: 48" />
        <note pan="0" vol="100" key="67" len="48" pos="8304" name="G: 48" />
        <note pan="0" vol="100" key="67" len="48" pos="8352" name="G: 48" />
        <note pan="0" vol="100" key="62" len="48" pos="8400" name="D: 48" />
        <note pan="0" vol="100" key="63" len="48" pos="8448" name="D#: 48" />
        <note pan="0" vol="100" key="63" len="48" pos="8496" name="D#: 48" />
        <note pan="0" vol="100" key="69" len="48" pos="8544" name="A: 48" />
        <note pan="0" vol="100" key="69" len="48" pos="8592" name="A: 48" />
        <note pan="0" vol="100" key="72" len="48" pos="8640" name="C*: 48" />
        <note pan="0" vol="100" key="72" len="48" pos="8688" name="C*: 48" />
        <note pan="0" vol="100" key="72" len="48" pos="8736" name="C*: 48" />
        <note pan="0" vol="100" key="67" len="48" pos="8784" name="G: 48" />
        <note pan="0" vol="100" key="69" len="96" pos="8832" name="A: 96" />
        <note pan="0" vol="100" key="67" len="48" pos="8928" name="G: 48" />
        <note pan="0" vol="100" key="67" len="48" pos="8976" name="G: 48" />
        <note pan="0" vol="100" key="67" len="24" pos="9024" name="G: 24" />
        <note pan="0" vol="100" key="67" len="24" pos="9048" name="G: 24" />
        <note pan="0" vol="100" key="62" len="48" pos="9072" name="D: 48" />
        <note pan="0" vol="100" key="60" len="24" pos="9120" name="C: 24" />
        <note pan="0" vol="100" key="60" len="120" pos="9144" name="C: 120" />
        <note pan="0" vol="100" key="63" len="48" pos="9264" name="D#: 48" />
        <note pan="0" vol="100" key="67" len="48" pos="9312" name="G: 48" />
        <note pan="0" vol="100" key="69" len="24" pos="9360" name="A: 24" />
        <note pan="0" vol="100" key="72" len="24" pos="9384" name="C*: 24" />
        <note pan="0" vol="100" key="72" len="48" pos="9408" name="C*: 48" />
        <note pan="0" vol="100" key="69" len="48" pos="9456" name="A: 48" />
        <note pan="0" vol="100" key="69" len="96" pos="9504" name="A: 96" />
        <note pan="0" vol="100" key="67" len="48" pos="9600" name="G: 48" />
        <note pan="0" vol="100" key="63" len="48" pos="9648" name="D#: 48" />
        <note pan="0" vol="100" key="60" len="96" pos="9696" name="C: 96" />
        <note pan="0" vol="100" key="60" len="48" pos="9792" name="C: 48" />
        <note pan="0" vol="100" key="62" len="48" pos="9840" name="D: 48" />
        <note pan="0" vol="100" key="62" len="48" pos="9888" name="D: 48" />
        <note pan="0" vol="100" key="60" len="48" pos="9936" name="C: 48" />
        <note pan="0" vol="100" key="60" len="48" pos="9984" name="C: 48" />
        <note pan="0" vol="100" key="62" len="48" pos="10032" name="D: 48" />
        <note pan="0" vol="100" key="62" len="96" pos="10080" name="D: 96" />
        <note pan="0" vol="100" key="60" len="48" pos="10176" name="C: 48" />
        <note pan="0" vol="100" key="60" len="96" pos="10224" name="C: 96" />
        <note pan="0" vol="100" key="60" len="96" pos="10320" name="C: 96" />
        <note pan="0" vol="100" key="62" len="48" pos="10416" name="D: 48" />
        <note pan="0" vol="100" key="60" len="48" pos="10464" name="C: 48" />
        <note pan="0" vol="100" key="60" len="48" pos="10512" name="C: 48" />
        <note pan="0" vol="100" key="62" len="24" pos="10560" name="D: 24" />
        <note pan="0" vol="100" key="63" len="24" pos="10584" name="D#: 24" />
        <note pan="0" vol="100" key="62" len="48" pos="10608" name="D: 48" />
        <note pan="0" vol="100" key="63" len="24" pos="10656" name="D#: 24" />
        <note pan="0" vol="100" key="67" len="72" pos="10680" name="G: 72" />
        <note pan="0" vol="100" key="69" len="24" pos="10752" name="A: 24" />
        <note pan="0" vol="100" key="69" len="24" pos="10776" name="A: 24" />
        <note pan="0" vol="100" key="72" len="48" pos="10800" name="C*: 48" />
        <note pan="0" vol="100" key="72" len="144" pos="10848" name="C*: 144" />
        <note pan="0" vol="100" key="72" len="48" pos="10992" name="C*: 48" />
        <note pan="0" vol="100" key="72" len="96" pos="11040" name="C*: 96" />
        <note pan="0" vol="100" key="72" len="48" pos="11136" name="C*: 48" />
        <note pan="0" vol="100" key="69" len="24" pos="11184" name="A: 24" />
        <note pan="0" vol="100" key="69" len="24" pos="11208" name="A: 24" />
        <note pan="0" vol="100" key="67" len="48" pos="11232" name="G: 48" />
        <note pan="0" vol="100" key="63" len="48" pos="11280" name="D#: 48" />
        <note pan="0" vol="100" key="67" len="96" pos="11328" name="G: 96" />
        <note pan="0" vol="100" key="62" len="48" pos="11424" name="D: 48" />
        <note pan="0" vol="100" key="62" len="48" pos="11472" name="D: 48" />
        <note pan="0" vol="100" key="60" len="96" pos="11520" name="C: 96" />
        <note pan="0" vol="100" key="60" len="48" pos="11616" name="C: 48" />
        <note pan="0" vol="100" key="62" len="96" pos="11664" name="D: 96" />
        <note pan="0" vol="100" key="63" len="48" pos="11760" name="D#: 48" />
        <note pan="0" vol="100" key="67" len="48" pos="11808" name="G: 48" />
        <note pan="0" vol="100" key="69" len="96" pos="11856" name="A: 96" />
        <note pan="0" vol="100" key="72" len="48" pos="11952" name="C*: 48" />
        <note pan="0" vol="100" key="72" len="96" pos="12000" name="C*: 96" />
        <note pan="0" vol="100" key="72" len="48" pos="12096" name="C*: 48" />
        <note pan="0" vol="100" key="69" len="48" pos="12144" name="A: 48" />
        <note pan="0" vol="100" key="72" len="48" pos="12192" name="C*: 48" />
        <note pan="0" vol="100" key="72" len="48" pos="12240" name="C*: 48" />
    </midiclip>
</lmms-project>