<?xml version="1.0"?>
<!DOCTYPE lmms-project>
<lmms-project version="20" creatorversion="0.0.3" type="midiclip" creator="SWAR">
    <head/>
    <midiclip steps="16" muted="0" name="47" color="#FF58C6" type="1" pos="0">
        <note pan="0" vol="100" key="60" len="48" pos="0" name="C: 48" />
        <note pan="0" vol="100" key="62" len="48" pos="48" name="D: 48" />
        <note pan="0" vol="100" key="60" len="24" pos="96" name="C: 24" />
        <note pan="0" vol="100" key="60" len="24" pos="120" name="C: 24" />
        <note pan="0" vol="100" key="62" len="48" pos="144" name="D: 48" />
        <note pan="0" vol="100" key="62" len="48" pos="192" name="D: 48" />
        <note pan="0" vol="100" key="60" len="48" pos="240" name="C: 48" />
        <note pan="0" vol="100" key="62" len="24" pos="288" name="D: 24" />
        <note pan="0" vol="100" key="63" len="24" pos="312" name="D#: 24" />
        <note pan="0" vol="100" key="67" len="48" pos="336" name="G: 48" />
        <note pan="0" vol="100" key="69" len="96" pos="384" name="A: 96" />
        <note pan="0" vol="100" key="72" len="24" pos="480" name="C*: 24" />
        <note pan="0" vol="100" key="72" len="24" pos="504" name="C*: 24" />
        <note pan="0" vol="100" key="72" len="48" pos="528" name="C*: 48" />
        <note pan="0" vol="100" key="69" len="48" pos="576" name="A: 48" />
        <note pan="0" vol="100" key="69" len="24" pos="624" name="A: 24" />
        <note pan="0" vol="100" key="67" len="24" pos="648" name="G: 24" />
        <note pan="0" vol="100" key="63" len="96" pos="672" name="D#: 96" />
        <note pan="0" vol="100" key="67" len="48" pos="768" name="G: 48" />
        <note pan="0" vol="100" key="63" len="48" pos="816" name="D#: 48" />
        <note pan="0" vol="100" key="62" len="48" pos="864" name="D: 48" />
        <note pan="0" vol="100" key="60" len="96" pos="912" name="C: 96" />
        <note pan="0" vol="100" key="60" len="48" pos="1008" name="C: 48" />
        <note pan="0" vol="100" key="62" len="48" pos="1056" name="D: 48" />
        <note pan="0" vol="100" key="60" len="48" pos="1104" name="C: 48" />
        <note pan="0" vol="100" key="62" len="48" pos="1152" name="D: 48" />
        <note pan="0" vol="100" key="60" len="144" pos="1200" name="C: 144" />
        <note pan="0" vol="100" key="60" len="144" pos="1344" name="C: 144" />
        <note pan="0" vol="100" key="62" len="48" pos="1488" name="D: 48" />
        <note pan="0" vol="100" key="60" len="48" pos="1536" name="C: 48" />
        <note pan="0" vol="100" key="60" len="24" pos="1584" name="C: 24" />
        <note pan="0" vol="100" key="62" len="24" pos="1608" name="D: 24" />
        <note pan="0" vol="100" key="60" len="96" pos="1632" name="C: 96" />
        <note pan="0" vol="100" key="60" len="48" pos="1728" name="C: 48" />
        <note pan="0" vol="100" key="63" len="24" pos="1776" name="D#: 24" />
        <note pan="0" vol="100" key="62" len="24" pos="1800" name="D: 24" />
        <note pan="0" vol="100" key="60" len="48" pos="1824" name="C: 48" />
        <note pan="0" vol="100" key="62" len="48" pos="1872" name="D: 48" />
        <note pan="0" vol="100" key="60" len="144" pos="1920" name="C: 144" />
        <note pan="0" vol="100" key="60" len="48" pos="2064" name="C: 48" />
        <note pan="0" vol="100" key="60" len="144" pos="2112" name="C: 144" />
        <note pan="0" vol="100" key="60" len="48" pos="2256" name="C: 48" />
        <note pan="0" vol="100" key="60" len="192" pos="2304" name="C: 192" />
        <note pan="0" vol="100" key="62" len="48" pos="2496" name="D: 48" />
        <note pan="0" vol="100" key="62" len="96" pos="2544" name="D: 96" />
        <note pan="0" vol="100" key="60" len="48" pos="2640" name="C: 48" />
        <note pan="0" vol="100" key="60" len="48" pos="2688" name="C: 48" />
        <note pan="0" vol="100" key="60" len="24" pos="2736" name="C: 24" />
        <note pan="0" vol="100" key="62" len="24" pos="2760" name="D: 24" />
        <note pan="0" vol="100" key="60" len="24" pos="2784" name="C: 24" />
        <note pan="0" vol="100" key="62" len="24" pos="2808" name="D: 24" />
        <note pan="0" vol="100" key="62" len="48" pos="2832" name="D: 48" />
        <note pan="0" vol="100" key="60" len="144" pos="2880" name="C: 144" />
        <note pan="0" vol="100" key="60" len="24" pos="3024" name="C: 24" />
        <note pan="0" vol="100" key="62" len="72" pos="3048" name="D: 72" />
        <note pan="0" vol="100" key="63" len="48" pos="3120" name="D#: 48" />
        <note pan="0" vol="100" key="63" len="48" pos="3168" name="D#: 48" />
        <note pan="0" vol="100" key="67" len="48" pos="3216" name="G: 48" />
        <note pan="0" vol="100" key="72" len="96" pos="3264" name="C*: 96" />
        <note pan="0" vol="100" key="72" len="48" pos="3360" name="C*: 48" />
        <note pan="0" vol="100" key="69" len="48" pos="3408" name="A: 48" />
        <note pan="0" vol="100" key="69" len="192" pos="3456" name="A: 192" />
        <note pan="0" vol="100" key="67" len="48" pos="3648" name="G: 48" />
        <note pan="0" vol="100" key="63" len="48" pos="3696" name="D#: 48" />
        <note pan="0" vol="100" key="62" len="24" pos="3744" name="D: 24" />
        <note pan="0" vol="100" key="60" len="24" pos="3768" name="C: 24" />
        <note pan="0" vol="100" key="63" len="24" pos="3792" name="D#: 24" />
        <note pan="0" vol="100" key="62" len="24" pos="3816" name="D: 24" />
        <note pan="0" vol="100" key="67" len="96" pos="3840" name="G: 96" />
        <note pan="0" vol="100" key="63" len="96" pos="3936" name="D#: 96" />
        <note pan="0" vol="100" key="62" len="48" pos="4032" name="D: 48" />
        <note pan="0" vol="100" key="62" len="48" pos="4080" name="D: 48" />
        <note pan="0" vol="100" key="63" len="48" pos="4128" name="D#: 48" />
        <note pan="0" vol="100" key="60" len="192" pos="4176" name="C: 192" />
        <note pan="0" vol="100" key="63" len="96" pos="4368" name="D#: 96" />
        <note pan="0" vol="100" key="69" len="24" pos="4464" name="A: 24" />
        <note pan="0" vol="100" key="67" len="24" pos="4488" name="G: 24" />
        <note pan="0" vol="100" key="72" len="48" pos="4512" name="C*: 48" />
        <note pan="0" vol="100" key="69" len="48" pos="4560" name="A: 48" />
        <note pan="0" vol="100" key="69" len="48" pos="4608" name="A: 48" />
        <note pan="0" vol="100" key="67" len="192" pos="4656" name="G: 192" />
        <note pan="0" vol="100" key="63" len="48" pos="4848" name="D#: 48" />
        <note pan="0" vol="100" key="62" len="48" pos="4896" name="D: 48" />
        <note pan="0" vol="100" key="67" len="48" pos="4944" name="G: 48" />
        <note pan="0" vol="100" key="63" len="240" pos="4992" name="D#: 240" />
        <note pan="0" vol="100" key="67" len="48" pos="5232" name="G: 48" />
        <note pan="0" vol="100" key="63" len="48" pos="5280" name="D#: 48" />
        <note pan="0" vol="100" key="67" len="48" pos="5328" name="G: 48" />
        <note pan="0" vol="100" key="67" len="24" pos="5376" name="G: 24" />
        <note pan="0" vol="100" key="63" len="24" pos="5400" name="D#: 24" />
        <note pan="0" vol="100" key="62" len="48" pos="5424" name="D: 48" />
        <note pan="0" vol="100" key="60" len="48" pos="5472" name="C: 48" />
        <note pan="0" vol="100" key="60" len="48" pos="5520" name="C: 48" />
        <note pan="0" vol="100" key="60" len="24" pos="5568" name="C: 24" />
        <note pan="0" vol="100" key="62" len="24" pos="5592" name="D: 24" />
        <note pan="0" vol="100" key="62" len="144" pos="5616" name="D: 144" />
        <note pan="0" vol="100" key="62" len="48" pos="5760" name="D: 48" />
        <note pan="0" vol="100" key="60" len="96" pos="5808" name="C: 96" />
        <note pan="0" vol="100" key="62" len="48" pos="5904" name="D: 48" />
        <note pan="0" vol="100" key="60" len="48" pos="5952" name="C: 48" />
        <note pan="0" vol="100" key="60" len="48" pos="6000" name="C: 48" />
        <note pan="0" vol="100" key="62" len="48" pos="6048" name="D: 48" />
        <note pan="0" vol="100" key="60" len="48" pos="6096" name="C: 48" />
        <note pan="0" vol="100" key="62" len="48" pos="6144" name="D: 48" />
        <note pan="0" vol="100" key="63" len="48" pos="6192" name="D#: 48" />
        <note pan="0" vol="100" key="67" len="24" pos="6240" name="G: 24" />
        <note pan="0" vol="100" key="69" len="120" pos="6264" name="A: 120" />
        <note pan="0" vol="100" key="72" len="48" pos="6384" name="C*: 48" />
        <note pan="0" vol="100" key="72" len="48" pos="6432" name="C*: 48" />
        <note pan="0" vol="100" key="72" len="48" pos="6480" name="C*: 48" />
        <note pan="0" vol="100" key="69" len="24" pos="6528" name="A: 24" />
        <note pan="0" vol="100" key="69" len="72" pos="6552" name="A: 72" />
        <note pan="0" vol="100" key="67" len="48" pos="6624" name="G: 48" />
        <note pan="0" vol="100" key="63" len="48" pos="6672" name="D#: 48" />
        <note pan="0" vol="100" key="62" len="48" pos="6720" name="D: 48" />
        <note pan="0" vol="100" key="62" len="48" pos="6768" name="D: 48" />
        <note pan="0" vol="100" key="60" len="96" pos="6816" name="C: 96" />
        <note pan="0" vol="100" key="60" len="96" pos="6912" name="C: 96" />
        <note pan="0" vol="100" key="62" len="96" pos="7008" name="D: 96" />
        <note pan="0" vol="100" key="62" len="240" pos="7104" name="D: 240" />
        <note pan="0" vol="100" key="63" len="48" pos="7344" name="D#: 48" />
        <note pan="0" vol="100" key="67" len="48" pos="7392" name="G: 48" />
        <note pan="0" vol="100" key="67" len="48" pos="7440" name="G: 48" />
        <note pan="0" vol="100" key="67" len="48" pos="7488" name="G: 48" />
        <note pan="0" vol="100" key="62" len="48" pos="7536" name="D: 48" />
        <note pan="0" vol="100" key="60" len="48" pos="7584" name="C: 48" />
        <note pan="0" vol="100" key="60" len="144" pos="7632" name="C: 144" />
        <note pan="0" vol="100" key="60" len="192" pos="7776" name="C: 192" />
        <note pan="0" vol="100" key="62" len="48" pos="7968" name="D: 48" />
        <note pan="0" vol="100" key="63" len="48" pos="8016" name="D#: 48" />
        <note pan="0" vol="100" key="67" len="48" pos="8064" name="G: 48" />
        <note pan="0" vol="100" key="69" len="48" pos="8112" name="A: 48" />
        <note pan="0" vol="100" key="72" len="192" pos="8160" name="C*: 192" />
        <note pan="0" vol="100" key="72" len="48" pos="8352" name="C*: 48" />
        <note pan="0" vol="100" key="69" len="48" pos="8400" name="A: 48" />
        <note pan="0" vol="100" key="67" len="48" pos="8448" name="G: 48" />
        <note pan="0" vol="100" key="62" len="48" pos="8496" name="D: 48" />
        <note pan="0" vol="100" key="60" len="48" pos="8544" name="C: 48" />
        <note pan="0" vol="100" key="62" len="96" pos="8592" name="D: 96" />
        <note pan="0" vol="100" key="63" len="192" pos="8688" name="D#: 192" />
        <note pan="0" vol="100" key="67" len="24" pos="8880" name="G: 24" />
        <note pan="0" vol="100" key="63" len="24" pos="8904" name="D#: 24" />
        <note pan="0" vol="100" key="60" len="48" pos="8928" name="C: 48" />
        <note pan="0" vol="100" key="60" len="48" pos="8976" name="C: 48" />
        <note pan="0" vol="100" key="62" len="48" pos="9024" name="D: 48" />
        <note pan="0" vol="100" key="60" len="48" pos="9072" name="C: 48" />
        <note pan="0" vol="100" key="60" len="48" pos="9120" name="C: 48" />
        <note pan="0" vol="100" key="62" len="48" pos="9168" name="D: 48" />
        <note pan="0" vol="100" key="62" len="48" pos="9216" name="D: 48" />
        <note pan="0" vol="100" key="63" len="48" pos="9264" name="D#: 48" />
        <note pan="0" vol="100" key="67" len="96" pos="9312" name="G: 96" />
        <note pan="0" vol="100" key="69" len="48" pos="9408" name="A: 48" />
        <note pan="0" vol="100" key="63" len="96" pos="9456" name="D#: 96" />
        <note pan="0" vol="100" key="67" len="48" pos="9552" name="G: 48" />
        <note pan="0" vol="100" key="69" len="48" pos="9600" name="A: 48" />
        <note pan="0" vol="100" key="72" len="144" pos="9648" name="C*: 144" />
        <note pan="0" vol="100" key="69" len="24" pos="9792" name="A: 24" />
        <note pan="0" vol="100" key="67" len="24" pos="9816" name="G: 24" />
        <note pan="0" vol="100" key="67" len="48" pos="9840" name="G: 48" />
        <note pan="0" vol="100" key="63" len="48" pos="9888" name="D#: 48" />
        <note pan="0" vol="100" key="62" len="48" pos="9936" name="D: 48" />
        <note pan="0" vol="100" key="60" len="48" pos="9984" name="C: 48" />
        <note pan="0" vol="100" key="60" len="48" pos="10032" name="C: 48" />
        <note pan="0" vol="100" key="60" len="48" pos="10080" name="C: 48" />
        <note pan="0" vol="100" key="60" len="96" pos="10128" name="C: 96" />
        <note pan="0" vol="100" key="62" len="24" pos="10224" name="D: 24" />
        <note pan="0" vol="100" key="63" len="24" pos="10248" name="D#: 24" />
        <note pan="0" vol="100" key="67" len="48" pos="10272" name="G: 48" />
        <note pan="0" vol="100" key="62" len="96" pos="10320" name="D: 96" />
        <note pan="0" vol="100" key="63" len="144" pos="10416" name="D#: 144" />
        <note pan="0" vol="100" key="63" len="192" pos="10560" name="D#: 192" />
        <note pan="0" vol="100" key="67" len="48" pos="10752" name="G: 48" />
        <note pan="0" vol="100" key="69" len="48" pos="10800" name="A: 48" />
        <note pan="0" vol="100" key="72" len="48" pos="10848" name="C*: 48" />
        <note pan="0" vol="100" key="72" len="48" pos="10896" name="C*: 48" />
        <note pan="0" vol="100" key="72" len="48" pos="10944" name="C*: 48" />
        <note pan="0" vol="100" key="69" len="48" pos="10992" name="A: 48" />
        <note pan="0" vol="100" key="69" len="48" pos="11040" name="A: 48" />
        <note pan="0" vol="100" key="67" len="48" pos="11088" name="G: 48" />
        <note pan="0" vol="100" key="67" len="48" pos="11136" name="G: 48" />
        <note pan="0" vol="100" key="63" len="48" pos="11184" name="D#: 48" />
        <note pan="0" vol="100" key="63" len="48" pos="11232" name="D#: 48" />
        <note pan="0" vol="100" key="63" len="48" pos="11280" name="D#: 48" />
        <note pan="0" vol="100" key="62" len="96" pos="11328" name="D: 96" />
        <note pan="0" vol="100" key="62" len="48" pos="11424" name="D: 48" />
        <note pan="0" vol="100" key="60" len="96" pos="11472" name="C: 96" />
        <note pan="0" vol="100" key="62" len="24" pos="11568" name="D: 24" />
        <note pan="0" vol="100" key="60" len="24" pos="11592" name="C: 24" />
        <note pan="0" vol="100" key="60" len="192" pos="11616" name="C: 192" />
        <note pan="0" vol="100" key="62" len="24" pos="11808" name="D: 24" />
        <note pan="0" vol="100" key="63" len="24" pos="11832" name="D#: 24" />
        <note pan="0" vol="100" key="62" len="48" pos="11856" name="D: 48" />
        <note pan="0" vol="100" key="62" len="96" pos="11904" name="D: 96" />
        <note pan="0" vol="100" key="62" len="96" pos="12000" name="D: 96" />
        <note pan="0" vol="100" key="63" len="48" pos="12096" name="D#: 48" />
        <note pan="0" vol="100" key="63" len="144" pos="12144" name="D#: 144" />
    </midiclip>
</lmms-project>