<?xml version="1.0"?>
<!DOCTYPE lmms-project>
<lmms-project version="20" creatorversion="0.0.3" type="midiclip" creator="SWAR">
    <head/>
    <midiclip steps="16" muted="0" name="64" color="#58D46F" type="1" pos="0">
        <note pan="0" vol="100" key="60" len="48" pos="0" name="C: 48" />
        <note pan="0" vol="100" key="60" len="48" pos="48" name="C: 48" />
        <note pan="0" vol="100" key="60" len="144" pos="96" name="C: 144" />
        <note pan="0" vol="100" key="62" len="144" pos="240" name="D: 144" />
        <note pan="0" vol="100" key="62" len="96" pos="384" name="D: 96" />
        <note pan="0" vol="100" key="60" len="48" pos="480" name="C: 48" />
        <note pan="0" vol="100" key="62" len="24" pos="528" name="D: 24" />
        <note pan="0" vol="100" key="63" len="24" pos="552" name="D#: 24" />
        <note pan="0" vol="100" key="60" len="144" pos="576" name="C: 144" />
        <note pan="0" vol="100" key="62" len="96" pos="720" name="D: 96" />
        <note pan="0" vol="100" key="60" len="48" pos="816" name="C: 48" />
        <note pan="0" vol="100" key="60" len="48" pos="864" name="C: 48" />
        <note pan="0" vol="100" key="62" len="48" pos="912" name="D: 48" />
        <note pan="0" vol="100" key="67" len="48" pos="960" name="G: 48" />
        <note pan="0" vol="100" key="63" len="48" pos="1008" name="D#: 48" />
        <note pan="0" vol="100" key="62" len="48" pos="1056" name="D: 48" />
        <note pan="0" vol="100" key="62" len="48" pos="1104" name="D: 48" />
        <note pan="0" vol="100" key="62" len="96" pos="1152" name="D: 96" />
        <note pan="0" vol="100" key="62" len="144" pos="1248" name="D: 144" />
        <note pan="0" vol="100" key="60" len="48" pos="1392" name="C: 48" />
        <note pan="0" vol="100" key="62" len="48" pos="1440" name="D: 48" />
        <note pan="0" vol="100" key="60" len="144" pos="1488" name="C: 144" />
        <note pan="0" vol="100" key="63" len="48" pos="1632" name="D#: 48" />
        <note pan="0" vol="100" key="67" len="48" pos="1680" name="G: 48" />
        <note pan="0" vol="100" key="72" len="48" pos="1728" name="C*: 48" />
        <note pan="0" vol="100" key="67" len="48" pos="1776" name="G: 48" />
        <note pan="0" vol="100" key="63" len="48" pos="1824" name="D#: 48" />
        <note pan="0" vol="100" key="62" len="48" pos="1872" name="D: 48" />
        <note pan="0" vol="100" key="62" len="48" pos="1920" name="D: 48" />
        <note pan="0" vol="100" key="67" len="24" pos="1968" name="G: 24" />
        <note pan="0" vol="100" key="72" len="24" pos="1992" name="C*: 24" />
        <note pan="0" vol="100" key="69" len="48" pos="2016" name="A: 48" />
        <note pan="0" vol="100" key="67" len="48" pos="2064" name="G: 48" />
        <note pan="0" vol="100" key="63" len="96" pos="2112" name="D#: 96" />
        <note pan="0" vol="100" key="63" len="48" pos="2208" name="D#: 48" />
        <note pan="0" vol="100" key="62" len="48" pos="2256" name="D: 48" />
        <note pan="0" vol="100" key="60" len="144" pos="2304" name="C: 144" />
        <note pan="0" vol="100" key="62" len="48" pos="2448" name="D: 48" />
        <note pan="0" vol="100" key="63" len="48" pos="2496" name="D#: 48" />
        <note pan="0" vol="100" key="63" len="96" pos="2544" name="D#: 96" />
        <note pan="0" vol="100" key="67" len="144" pos="2640" name="G: 144" />
        <note pan="0" vol="100" key="69" len="24" pos="2784" name="A: 24" />
        <note pan="0" vol="100" key="72" len="24" pos="2808" name="C*: 24" />
        <note pan="0" vol="100" key="69" len="48" pos="2832" name="A: 48" />
        <note pan="0" vol="100" key="72" len="96" pos="2880" name="C*: 96" />
        <note pan="0" vol="100" key="72" len="48" pos="2976" name="C*: 48" />
        <note pan="0" vol="100" key="72" len="24" pos="3024" name="C*: 24" />
        <note pan="0" vol="100" key="72" len="24" pos="3048" name="C*: 24" />
        <note pan="0" vol="100" key="69" len="96" pos="3072" name="A: 96" />
        <note pan="0" vol="100" key="69" len="48" pos="3168" name="A: 48" />
        <note pan="0" vol="100" key="63" len="48" pos="3216" name="D#: 48" />
        <note pan="0" vol="100" key="67" len="48" pos="3264" name="G: 48" />
        <note pan="0" vol="100" key="69" len="48" pos="3312" name="A: 48" />
        <note pan="0" vol="100" key="72" len="48" pos="3360" name="C*: 48" />
        <note pan="0" vol="100" key="72" len="48" pos="3408" name="C*: 48" />
        <note pan="0" vol="100" key="72" len="48" pos="3456" name="C*: 48" />
        <note pan="0" vol="100" key="67" len="24" pos="3504" name="G: 24" />
        <note pan="0" vol="100" key="67" len="24" pos="3528" name="G: 24" />
        <note pan="0" vol="100" key="69" len="48" pos="3552" name="A: 48" />
        <note pan="0" vol="100" key="63" len="48" pos="3600" name="D#: 48" />
        <note pan="0" vol="100" key="67" len="48" pos="3648" name="G: 48" />
        <note pan="0" vol="100" key="67" len="48" pos="3696" name="G: 48" />
        <note pan="0" vol="100" key="63" len="48" pos="3744" name="D#: 48" />
        <note pan="0" vol="100" key="69" len="48" pos="3792" name="A: 48" />
        <note pan="0" vol="100" key="72" len="96" pos="3840" name="C*: 96" />
        <note pan="0" vol="100" key="72" len="24" pos="3936" name="C*: 24" />
        <note pan="0" vol="100" key="69" len="24" pos="3960" name="A: 24" />
        <note pan="0" vol="100" key="72" len="48" pos="3984" name="C*: 48" />
        <note pan="0" vol="100" key="72" len="48" pos="4032" name="C*: 48" />
        <note pan="0" vol="100" key="72" len="48" pos="4080" name="C*: 48" />
        <note pan="0" vol="100" key="72" len="144" pos="4128" name="C*: 144" />
        <note pan="0" vol="100" key="69" len="24" pos="4272" name="A: 24" />
        <note pan="0" vol="100" key="72" len="24" pos="4296" name="C*: 24" />
        <note pan="0" vol="100" key="69" len="24" pos="4320" name="A: 24" />
        <note pan="0" vol="100" key="72" len="72" pos="4344" name="C*: 72" />
        <note pan="0" vol="100" key="69" len="24" pos="4416" name="A: 24" />
        <note pan="0" vol="100" key="63" len="24" pos="4440" name="D#: 24" />
        <note pan="0" vol="100" key="62" len="48" pos="4464" name="D: 48" />
        <note pan="0" vol="100" key="60" len="48" pos="4512" name="C: 48" />
        <note pan="0" vol="100" key="60" len="48" pos="4560" name="C: 48" />
        <note pan="0" vol="100" key="63" len="48" pos="4608" name="D#: 48" />
        <note pan="0" vol="100" key="69" len="48" pos="4656" name="A: 48" />
        <note pan="0" vol="100" key="67" len="96" pos="4704" name="G: 96" />
        <note pan="0" vol="100" key="69" len="48" pos="4800" name="A: 48" />
        <note pan="0" vol="100" key="67" len="96" pos="4848" name="G: 96" />
        <note pan="0" vol="100" key="67" len="48" pos="4944" name="G: 48" />
        <note pan="0" vol="100" key="63" len="48" pos="4992" name="D#: 48" />
        <note pan="0" vol="100" key="67" len="48" pos="5040" name="G: 48" />
        <note pan="0" vol="100" key="69" len="48" pos="5088" name="A: 48" />
        <note pan="0" vol="100" key="69" len="48" pos="5136" name="A: 48" />
        <note pan="0" vol="100" key="72" len="48" pos="5184" name="C*: 48" />
        <note pan="0" vol="100" key="69" len="48" pos="5232" name="A: 48" />
        <note pan="0" vol="100" key="72" len="96" pos="5280" name="C*: 96" />
        <note pan="0" vol="100" key="72" len="48" pos="5376" name="C*: 48" />
        <note pan="0" vol="100" key="67" len="48" pos="5424" name="G: 48" />
        <note pan="0" vol="100" key="63" len="96" pos="5472" name="D#: 96" />
        <note pan="0" vol="100" key="62" len="24" pos="5568" name="D: 24" />
        <note pan="0" vol="100" key="60" len="72" pos="5592" name="C: 72" />
        <note pan="0" vol="100" key="60" len="144" pos="5664" name="C: 144" />
        <note pan="0" vol="100" key="62" len="48" pos="5808" name="D: 48" />
        <note pan="0" vol="100" key="67" len="96" pos="5856" name="G: 96" />
        <note pan="0" vol="100" key="69" len="48" pos="5952" name="A: 48" />
        <note pan="0" vol="100" key="72" len="48" pos="6000" name="C*: 48" />
        <note pan="0" vol="100" key="69" len="96" pos="6048" name="A: 96" />
        <note pan="0" vol="100" key="69" len="48" pos="6144" name="A: 48" />
        <note pan="0" vol="100" key="69" len="48" pos="6192" name="A: 48" />
        <note pan="0" vol="100" key="72" len="48" pos="6240" name="C*: 48" />
        <note pan="0" vol="100" key="72" len="48" pos="6288" name="C*: 48" />
        <note pan="0" vol="100" key="72" len="96" pos="6336" name="C*: 96" />
        <note pan="0" vol="100" key="69" len="48" pos="6432" name="A: 48" />
        <note pan="0" vol="100" key="67" len="48" pos="6480" name="G: 48" />
        <note pan="0" vol="100" key="72" len="96" pos="6528" name="C*: 96" />
        <note pan="0" vol="100" key="72" len="48" pos="6624" name="C*: 48" />
        <note pan="0" vol="100" key="72" len="48" pos="6672" name="C*: 48" />
        <note pan="0" vol="100" key="72" len="48" pos="6720" name="C*: 48" />
        <note pan="0" vol="100" key="69" len="48" pos="6768" name="A: 48" />
        <note pan="0" vol="100" key="69" len="48" pos="6816" name="A: 48" />
        <note pan="0" vol="100" key="67" len="48" pos="6864" name="G: 48" />
        <note pan="0" vol="100" key="62" len="48" pos="6912" name="D: 48" />
        <note pan="0" vol="100" key="60" len="48" pos="6960" name="C: 48" />
        <note pan="0" vol="100" key="60" len="48" pos="7008" name="C: 48" />
        <note pan="0" vol="100" key="60" len="48" pos="7056" name="C: 48" />
        <note pan="0" vol="100" key="63" len="48" pos="7104" name="D#: 48" />
        <note pan="0" vol="100" key="67" len="48" pos="7152" name="G: 48" />
        <note pan="0" vol="100" key="69" len="144" pos="7200" name="A: 144" />
        <note pan="0" vol="100" key="72" len="96" pos="7344" name="C*: 96" />
        <note pan="0" vol="100" key="69" len="96" pos="7440" name="A: 96" />
        <note pan="0" vol="100" key="72" len="48" pos="7536" name="C*: 48" />
        <note pan="0" vol="100" key="67" len="48" pos="7584" name="G: 48" />
        <note pan="0" vol="100" key="69" len="24" pos="7632" name="A: 24" />
        <note pan="0" vol="100" key="72" len="24" pos="7656" name="C*: 24" />
        <note pan="0" vol="100" key="69" len="48" pos="7680" name="A: 48" />
        <note pan="0" vol="100" key="72" len="96" pos="7728" name="C*: 96" />
        <note pan="0" vol="100" key="67" len="48" pos="7824" name="G: 48" />
        <note pan="0" vol="100" key="63" len="48" pos="7872" name="D#: 48" />
        <note pan="0" vol="100" key="63" len="48" pos="7920" name="D#: 48" />
        <note pan="0" vol="100" key="63" len="48" pos="7968" name="D#: 48" />
        <note pan="0" vol="100" key="69" len="48" pos="8016" name="A: 48" />
        <note pan="0" vol="100" key="69" len="48" pos="8064" name="A: 48" />
        <note pan="0" vol="100" key="63" len="48" pos="8112" name="D#: 48" />
        <note pan="0" vol="100" key="62" len="48" pos="8160" name="D: 48" />
        <note pan="0" vol="100" key="60" len="24" pos="8208" name="C: 24" />
        <note pan="0" vol="100" key="60" len="24" pos="8232" name="C: 24" />
        <note pan="0" vol="100" key="63" len="48" pos="8256" name="D#: 48" />
        <note pan="0" vol="100" key="63" len="144" pos="8304" name="D#: 144" />
        <note pan="0" vol="100" key="63" len="48" pos="8448" name="D#: 48" />
        <note pan="0" vol="100" key="60" len="48" pos="8496" name="C: 48" />
        <note pan="0" vol="100" key="62" len="48" pos="8544" name="D: 48" />
        <note pan="0" vol="100" key="67" len="48" pos="8592" name="G: 48" />
        <note pan="0" vol="100" key="72" len="96" pos="8640" name="C*: 96" />
        <note pan="0" vol="100" key="69" len="48" pos="8736" name="A: 48" />
        <note pan="0" vol="100" key="67" len="48" pos="8784" name="G: 48" />
        <note pan="0" vol="100" key="67" len="48" pos="8832" name="G: 48" />
        <note pan="0" vol="100" key="67" len="48" pos="8880" name="G: 48" />
        <note pan="0" vol="100" key="63" len="48" pos="8928" name="D#: 48" />
        <note pan="0" vol="100" key="62" len="144" pos="8976" name="D: 144" />
        <note pan="0" vol="100" key="62" len="192" pos="9120" name="D: 192" />
        <note pan="0" vol="100" key="60" len="48" pos="9312" name="C: 48" />
        <note pan="0" vol="100" key="60" len="48" pos="9360" name="C: 48" />
        <note pan="0" vol="100" key="62" len="96" pos="9408" name="D: 96" />
        <note pan="0" vol="100" key="60" len="48" pos="9504" name="C: 48" />
        <note pan="0" vol="100" key="60" len="48" pos="9552" name="C: 48" />
        <note pan="0" vol="100" key="60" len="48" pos="9600" name="C: 48" />
        <note pan="0" vol="100" key="62" len="96" pos="9648" name="D: 96" />
        <note pan="0" vol="100" key="62" len="48" pos="9744" name="D: 48" />
        <note pan="0" vol="100" key="60" len="144" pos="9792" name="C: 144" />
        <note pan="0" vol="100" key="62" len="96" pos="9936" name="D: 96" />
        <note pan="0" vol="100" key="63" len="96" pos="10032" name="D#: 96" />
        <note pan="0" vol="100" key="60" len="48" pos="10128" name="C: 48" />
        <note pan="0" vol="100" key="62" len="48" pos="10176" name="D: 48" />
        <note pan="0" vol="100" key="60" len="96" pos="10224" name="C: 96" />
        <note pan="0" vol="100" key="60" len="48" pos="10320" name="C: 48" />
        <note pan="0" vol="100" key="62" len="48" pos="10368" name="D: 48" />
        <note pan="0" vol="100" key="63" len="96" pos="10416" name="D#: 96" />
        <note pan="0" vol="100" key="62" len="96" pos="10512" name="D: 96" />
        <note pan="0" vol="100" key="60" len="48" pos="10608" name="C: 48" />
        <note pan="0" vol="100" key="63" len="48" pos="10656" name="D#: 48" />
        <note pan="0" vol="100" key="60" len="96" pos="10704" name="C: 96" />
        <note pan="0" vol="100" key="62" len="48" pos="10800" name="D: 48" />
        <note pan="0" vol="100" key="67" len="48" pos="10848" name="G: 48" />
        <note pan="0" vol="100" key="62" len="48" pos="10896" name="D: 48" />
        <note pan="0" vol="100" key="62" len="24" pos="10944" name="D: 24" />
        <note pan="0" vol="100" key="60" len="24" pos="10968" name="C: 24" />
        <note pan="0" vol="100" key="60" len="24" pos="10992" name="C: 24" />
        <note pan="0" vol="100" key="60" len="24" pos="11016" name="C: 24" />
        <note pan="0" vol="100" key="62" len="96" pos="11040" name="D: 96" />
        <note pan="0" vol="100" key="63" len="48" pos="11136" name="D#: 48" />
        <note pan="0" vol="100" key="62" len="48" pos="11184" name="D: 48" />
        <note pan="0" vol="100" key="63" len="48" pos="11232" name="D#: 48" />
        <note pan="0" vol="100" key="60" len="48" pos="11280" name="C: 48" />
        <note pan="0" vol="100" key="63" len="48" pos="11328" name="D#: 48" />
        <note pan="0" vol="100" key="69" len="48" pos="11376" name="A: 48" />
        <note pan="0" vol="100" key="72" len="48" pos="11424" name="C*: 48" />
        <note pan="0" vol="100" key="69" len="48" pos="11472" name="A: 48" />
        <note pan="0" vol="100" key="67" len="48" pos="11520" name="G: 48" />
        <note pan="0" vol="100" key="63" len="48" pos="11568" name="D#: 48" />
        <note pan="0" vol="100" key="63" len="48" pos="11616" name="D#: 48" />
        <note pan="0" vol="100" key="67" len="48" pos="11664" name="G: 48" />
        <note pan="0" vol="100" key="63" len="48" pos="11712" name="D#: 48" />
        <note pan="0" vol="100" key="62" len="48" pos="11760" name="D: 48" />
        <note pan="0" vol="100" key="60" len="48" pos="11808" name="C: 48" />
        <note pan="0" vol="100" key="60" len="24" pos="11856" name="C: 24" />
        <note pan="0" vol="100" key="62" len="72" pos="11880" name="D: 72" />
        <note pan="0" vol="100" key="60" len="48" pos="11952" name="C: 48" />
        <note pan="0" vol="100" key="63" len="96" pos="12000" name="D#: 96" />
        <note pan="0" vol="100" key="62" len="48" pos="12096" name="D: 48" />
        <note pan="0" vol="100" key="60" len="48" pos="12144" name="C: 48" />
        <note pan="0" vol="100" key="62" len="48" pos="12192" name="D: 48" />
        <note pan="0" vol="100" key="60" len="48" pos="12240" name="C: 48" />
    </midiclip>
</lmms-project>