<?xml version="1.0"?>
<!DOCTYPE lmms-project>
<lmms-project version="20" creatorversion="0.0.3" type="midiclip" creator="SWAR">
    <head/>
    <midiclip steps="16" muted="0" name="97" color="#C7A651" type="1" pos="0">
        <note pan="0" vol="100" key="62" len="24" pos="0" name="D: 24" />
        <note pan="0" vol="100" key="63" len="72" pos="24" name="D#: 72" />
        <note pan="0" vol="100" key="63" len="96" pos="96" name="D#: 96" />
        <note pan="0" vol="100" key="60" len="96" pos="192" name="C: 96" />
        <note pan="0" vol="100" key="63" len="24" pos="288" name="D#: 24" />
        <note pan="0" vol="100" key="63" len="24" pos="312" name="D#: 24" />
        <note pan="0" vol="100" key="62" len="48" pos="336" name="D: 48" />
        <note pan="0" vol="100" key="60" len="48" pos="384" name="C: 48" />
        <note pan="0" vol="100" key="62" len="48" pos="432" name="D: 48" />
        <note pan="0" vol="100" key="63" len="24" pos="480" name="D#: 24" />
        <note pan="0" vol="100" key="62" len="72" pos="504" name="D: 72" />
        <note pan="0" vol="100" key="63" len="48" pos="576" name="D#: 48" />
        <note pan="0" vol="100" key="67" len="48" pos="624" name="G: 48" />
        <note pan="0" vol="100" key="67" len="48" pos="672" name="G: 48" />
        <note pan="0" vol="100" key="72" len="96" pos="720" name="C*: 96" />
        <note pan="0" vol="100" key="72" len="48" pos="816" name="C*: 48" />
        <note pan="0" vol="100" key="69" len="48" pos="864" name="A: 48" />
        <note pan="0" vol="100" key="69" len="48" pos="912" name="A: 48" />
        <note pan="0" vol="100" key="72" len="48" pos="960" name="C*: 48" />
        <note pan="0" vol="100" key="67" len="48" pos="1008" name="G: 48" />
        <note pan="0" vol="100" key="69" len="96" pos="1056" name="A: 96" />
        <note pan="0" vol="100" key="72" len="48" pos="1152" name="C*: 48" />
        <note pan="0" vol="100" key="69" len="24" pos="1200" name="A: 24" />
        <note pan="0" vol="100" key="69" len="24" pos="1224" name="A: 24" />
        <note pan="0" vol="100" key="67" len="144" pos="1248" name="G: 144" />
        <note pan="0" vol="100" key="67" len="48" pos="1392" name="G: 48" />
        <note pan="0" vol="100" key="69" len="48" pos="1440" name="A: 48" />
        <note pan="0" vol="100" key="69" len="192" pos="1488" name="A: 192" />
        <note pan="0" vol="100" key="67" len="24" pos="1680" name="G: 24" />
        <note pan="0" vol="100" key="72" len="24" pos="1704" name="C*: 24" />
        <note pan="0" vol="100" key="69" len="96" pos="1728" name="A: 96" />
        <note pan="0" vol="100" key="69" len="48" pos="1824" name="A: 48" />
        <note pan="0" vol="100" key="63" len="48" pos="1872" name="D#: 48" />
        <note pan="0" vol="100" key="62" len="96" pos="1920" name="D: 96" />
        <note pan="0" vol="100" key="62" len="48" pos="2016" name="D: 48" />
        <note pan="0" vol="100" key="60" len="96" pos="2064" name="C: 96" />
        <note pan="0" vol="100" key="60" len="48" pos="2160" name="C: 48" />
        <note pan="0" vol="100" key="62" len="24" pos="2208" name="D: 24" />
        <note pan="0" vol="100" key="63" len="24" pos="2232" name="D#: 24" />
        <note pan="0" vol="100" key="67" len="48" pos="2256" name="G: 48" />
        <note pan="0" vol="100" key="67" len="96" pos="2304" name="G: 96" />
        <note pan="0" vol="100" key="62" len="144" pos="2400" name="D: 144" />
        <note pan="0" vol="100" key="60" len="48" pos="2544" name="C: 48" />
        <note pan="0" vol="100" key="62" len="48" pos="2592" name="D: 48" />
        <note pan="0" vol="100" key="62" len="48" pos="2640" name="D: 48" />
        <note pan="0" vol="100" key="63" len="48" pos="2688" name="D#: 48" />
        <note pan="0" vol="100" key="63" len="96" pos="2736" name="D#: 96" />
        <note pan="0" vol="100" key="62" len="96" pos="2832" name="D: 96" />
        <note pan="0" vol="100" key="62" len="48" pos="2928" name="D: 48" />
        <note pan="0" vol="100" key="60" len="96" pos="2976" name="C: 96" />
        <note pan="0" vol="100" key="60" len="48" pos="3072" name="C: 48" />
        <note pan="0" vol="100" key="62" len="48" pos="3120" name="D: 48" />
        <note pan="0" vol="100" key="63" len="48" pos="3168" name="D#: 48" />
        <note pan="0" vol="100" key="62" len="24" pos="3216" name="D: 24" />
        <note pan="0" vol="100" key="63" len="24" pos="3240" name="D#: 24" />
        <note pan="0" vol="100" key="62" len="48" pos="3264" name="D: 48" />
        <note pan="0" vol="100" key="62" len="96" pos="3312" name="D: 96" />
        <note pan="0" vol="100" key="63" len="144" pos="3408" name="D#: 144" />
        <note pan="0" vol="100" key="67" len="144" pos="3552" name="G: 144" />
        <note pan="0" vol="100" key="67" len="24" pos="3696" name="G: 24" />
        <note pan="0" vol="100" key="69" len="24" pos="3720" name="A: 24" />
        <note pan="0" vol="100" key="69" len="24" pos="3744" name="A: 24" />
        <note pan="0" vol="100" key="72" len="24" pos="3768" name="C*: 24" />
        <note pan="0" vol="100" key="72" len="96" pos="3792" name="C*: 96" />
        <note pan="0" vol="100" key="67" len="48" pos="3888" name="G: 48" />
        <note pan="0" vol="100" key="63" len="48" pos="3936" name="D#: 48" />
        <note pan="0" vol="100" key="62" len="48" pos="3984" name="D: 48" />
        <note pan="0" vol="100" key="60" len="48" pos="4032" name="C: 48" />
        <note pan="0" vol="100" key="60" len="48" pos="4080" name="C: 48" />
        <note pan="0" vol="100" key="60" len="48" pos="4128" name="C: 48" />
        <note pan="0" vol="100" key="62" len="48" pos="4176" name="D: 48" />
        <note pan="0" vol="100" key="63" len="48" pos="4224" name="D#: 48" />
        <note pan="0" vol="100" key="63" len="48" pos="4272" name="D#: 48" />
        <note pan="0" vol="100" key="60" len="48" pos="4320" name="C: 48" />
        <note pan="0" vol="100" key="62" len="24" pos="4368" name="D: 24" />
        <note pan="0" vol="100" key="60" len="24" pos="4392" name="C: 24" />
        <note pan="0" vol="100" key="63" len="96" pos="4416" name="D#: 96" />
        <note pan="0" vol="100" key="69" len="48" pos="4512" name="A: 48" />
        <note pan="0" vol="100" key="72" len="144" pos="4560" name="C*: 144" />
        <note pan="0" vol="100" key="72" len="24" pos="4704" name="C*: 24" />
        <note pan="0" vol="100" key="67" len="24" pos="4728" name="G: 24" />
        <note pan="0" vol="100" key="72" len="96" pos="4752" name="C*: 96" />
        <note pan="0" vol="100" key="69" len="48" pos="4848" name="A: 48" />
        <note pan="0" vol="100" key="72" len="48" pos="4896" name="C*: 48" />
        <note pan="0" vol="100" key="67" len="96" pos="4944" name="G: 96" />
        <note pan="0" vol="100" key="72" len="24" pos="5040" name="C*: 24" />
        <note pan="0" vol="100" key="72" len="24" pos="5064" name="C*: 24" />
        <note pan="0" vol="100" key="69" len="48" pos="5088" name="A: 48" />
        <note pan="0" vol="100" key="72" len="48" pos="5136" name="C*: 48" />
        <note pan="0" vol="100" key="72" len="96" pos="5184" name="C*: 96" />
        <note pan="0" vol="100" key="69" len="48" pos="5280" name="A: 48" />
        <note pan="0" vol="100" key="67" len="48" pos="5328" name="G: 48" />
        <note pan="0" vol="100" key="63" len="48" pos="5376" name="D#: 48" />
        <note pan="0" vol="100" key="69" len="48" pos="5424" name="A: 48" />
        <note pan="0" vol="100" key="67" len="48" pos="5472" name="G: 48" />
        <note pan="0" vol="100" key="62" len="24" pos="5520" name="D: 24" />
        <note pan="0" vol="100" key="60" len="24" pos="5544" name="C: 24" />
        <note pan="0" vol="100" key="62" len="48" pos="5568" name="D: 48" />
        <note pan="0" vol="100" key="60" len="96" pos="5616" name="C: 96" />
        <note pan="0" vol="100" key="62" len="48" pos="5712" name="D: 48" />
        <note pan="0" vol="100" key="60" len="48" pos="5760" name="C: 48" />
        <note pan="0" vol="100" key="60" len="48" pos="5808" name="C: 48" />
        <note pan="0" vol="100" key="62" len="24" pos="5856" name="D: 24" />
        <note pan="0" vol="100" key="63" len="24" pos="5880" name="D#: 24" />
        <note pan="0" vol="100" key="67" len="24" pos="5904" name="G: 24" />
        <note pan="0" vol="100" key="69" len="24" pos="5928" name="A: 24" />
        <note pan="0" vol="100" key="69" len="48" pos="5952" name="A: 48" />
        <note pan="0" vol="100" key="69" len="48" pos="6000" name="A: 48" />
        <note pan="0" vol="100" key="72" len="96" pos="6048" name="C*: 96" />
        <note pan="0" vol="100" key="72" len="48" pos="6144" name="C*: 48" />
        <note pan="0" vol="100" key="69" len="48" pos="6192" name="A: 48" />
        <note pan="0" vol="100" key="69" len="96" pos="6240" name="A: 96" />
        <note pan="0" vol="100" key="69" len="48" pos="6336" name="A: 48" />
        <note pan="0" vol="100" key="72" len="96" pos="6384" name="C*: 96" />
        <note pan="0" vol="100" key="72" len="48" pos="6480" name="C*: 48" />
        <note pan="0" vol="100" key="72" len="48" pos="6528" name="C*: 48" />
        <note pan="0" vol="100" key="69" len="48" pos="6576" name="A: 48" />
        <note pan="0" vol="100" key="72" len="24" pos="6624" name="C*: 24" />
        <note pan="0" vol="100" key="72" len="24" pos="6648" name="C*: 24" />
        <note pan="0" vol="100" key="67" len="24" pos="6672" name="G: 24" />
        <note pan="0" vol="100" key="62" len="24" pos="6696" name="D: 24" />
        <note pan="0" vol="100" key="63" len="96" pos="6720" name="D#: 96" />
        <note pan="0" vol="100" key="67" len="48" pos="6816" name="G: 48" />
        <note pan="0" vol="100" key="69" len="48" pos="6864" name="A: 48" />
        <note pan="0" vol="100" key="72" len="24" pos="6912" name="C*: 24" />
        <note pan="0" vol="100" key="69" len="24" pos="6936" name="A: 24" />
        <note pan="0" vol="100" key="67" len="24" pos="6960" name="G: 24" />
        <note pan="0" vol="100" key="63" len="24" pos="6984" name="D#: 24" />
        <note pan="0" vol="100" key="67" len="48" pos="7008" name="G: 48" />
        <note pan="0" vol="100" key="63" len="48" pos="7056" name="D#: 48" />
        <note pan="0" vol="100" key="62" len="24" pos="7104" name="D: 24" />
        <note pan="0" vol="100" key="60" len="24" pos="7128" name="C: 24" />
        <note pan="0" vol="100" key="62" len="24" pos="7152" name="D: 24" />
        <note pan="0" vol="100" key="62" len="24" pos="7176" name="D: 24" />
        <note pan="0" vol="100" key="62" len="48" pos="7200" name="D: 48" />
        <note pan="0" vol="100" key="60" len="48" pos="7248" name="C: 48" />
        <note pan="0" vol="100" key="60" len="24" pos="7296" name="C: 24" />
        <note pan="0" vol="100" key="60" len="24" pos="7320" name="C: 24" />
        <note pan="0" vol="100" key="62" len="96" pos="7344" name="D: 96" />
        <note pan="0" vol="100" key="63" len="48" pos="7440" name="D#: 48" />
        <note pan="0" vol="100" key="63" len="48" pos="7488" name="D#: 48" />
        <note pan="0" vol="100" key="67" len="24" pos="7536" name="G: 24" />
        <note pan="0" vol="100" key="69" len="24" pos="7560" name="A: 24" />
        <note pan="0" vol="100" key="72" len="96" pos="7584" name="C*: 96" />
        <note pan="0" vol="100" key="72" len="48" pos="7680" name="C*: 48" />
        <note pan="0" vol="100" key="69" len="96" pos="7728" name="A: 96" />
        <note pan="0" vol="100" key="72" len="48" pos="7824" name="C*: 48" />
        <note pan="0" vol="100" key="72" len="48" pos="7872" name="C*: 48" />
        <note pan="0" vol="100" key="69" len="48" pos="7920" name="A: 48" />
        <note pan="0" vol="100" key="72" len="96" pos="7968" name="C*: 96" />
        <note pan="0" vol="100" key="69" len="48" pos="8064" name="A: 48" />
        <note pan="0" vol="100" key="69" len="24" pos="8112" name="A: 24" />
        <note pan="0" vol="100" key="67" len="72" pos="8136" name="G: 72" />
        <note pan="0" vol="100" key="67" len="96" pos="8208" name="G: 96" />
        <note pan="0" vol="100" key="63" len="48" pos="8304" name="D#: 48" />
        <note pan="0" vol="100" key="62" len="48" pos="8352" name="D: 48" />
        <note pan="0" vol="100" key="60" len="48" pos="8400" name="C: 48" />
        <note pan="0" vol="100" key="62" len="96" pos="8448" name="D: 96" />
        <note pan="0" vol="100" key="67" len="48" pos="8544" name="G: 48" />
        <note pan="0" vol="100" key="62" len="48" pos="8592" name="D: 48" />
        <note pan="0" vol="100" key="67" len="24" pos="8640" name="G: 24" />
        <note pan="0" vol="100" key="62" len="24" pos="8664" name="D: 24" />
        <note pan="0" vol="100" key="62" len="48" pos="8688" name="D: 48" />
        <note pan="0" vol="100" key="60" len="24" pos="8736" name="C: 24" />
        <note pan="0" vol="100" key="60" len="24" pos="8760" name="C: 24" />
        <note pan="0" vol="100" key="60" len="48" pos="8784" name="C: 48" />
        <note pan="0" vol="100" key="62" len="96" pos="8832" name="D: 96" />
        <note pan="0" vol="100" key="63" len="96" pos="8928" name="D#: 96" />
        <note pan="0" vol="100" key="67" len="48" pos="9024" name="G: 48" />
        <note pan="0" vol="100" key="63" len="48" pos="9072" name="D#: 48" />
        <note pan="0" vol="100" key="62" len="48" pos="9120" name="D: 48" />
        <note pan="0" vol="100" key="63" len="48" pos="9168" name="D#: 48" />
        <note pan="0" vol="100" key="63" len="48" pos="9216" name="D#: 48" />
        <note pan="0" vol="100" key="62" len="48" pos="9264" name="D: 48" />
        <note pan="0" vol="100" key="60" len="48" pos="9312" name="C: 48" />
        <note pan="0" vol="100" key="63" len="96" pos="9360" name="D#: 96" />
        <note pan="0" vol="100" key="60" len="48" pos="9456" name="C: 48" />
        <note pan="0" vol="100" key="60" len="48" pos="9504" name="C: 48" />
        <note pan="0" vol="100" key="60" len="96" pos="9552" name="C: 96" />
        <note pan="0" vol="100" key="62" len="48" pos="9648" name="D: 48" />
        <note pan="0" vol="100" key="62" len="48" pos="9696" name="D: 48" />
        <note pan="0" vol="100" key="67" len="48" pos="9744" name="G: 48" />
        <note pan="0" vol="100" key="67" len="48" pos="9792" name="G: 48" />
        <note pan="0" vol="100" key="69" len="48" pos="9840" name="A: 48" />
        <note pan="0" vol="100" key="72" len="48" pos="9888" name="C*: 48" />
        <note pan="0" vol="100" key="69" len="48" pos="9936" name="A: 48" />
        <note pan="0" vol="100" key="72" len="96" pos="9984" name="C*: 96" />
        <note pan="0" vol="100" key="72" len="48" pos="10080" name="C*: 48" />
        <note pan="0" vol="100" key="69" len="48" pos="10128" name="A: 48" />
        <note pan="0" vol="100" key="67" len="192" pos="10176" name="G: 192" />
        <note pan="0" vol="100" key="63" len="48" pos="10368" name="D#: 48" />
        <note pan="0" vol="100" key="63" len="48" pos="10416" name="D#: 48" />
        <note pan="0" vol="100" key="67" len="96" pos="10464" name="G: 96" />
        <note pan="0" vol="100" key="63" len="48" pos="10560" name="D#: 48" />
        <note pan="0" vol="100" key="62" len="96" pos="10608" name="D: 96" />
        <note pan="0" vol="100" key="60" len="48" pos="10704" name="C: 48" />
        <note pan="0" vol="100" key="62" len="48" pos="10752" name="D: 48" />
        <note pan="0" vol="100" key="63" len="24" pos="10800" name="D#: 24" />
        <note pan="0" vol="100" key="63" len="24" pos="10824" name="D#: 24" />
        <note pan="0" vol="100" key="60" len="48" pos="10848" name="C: 48" />
        <note pan="0" vol="100" key="60" len="24" pos="10896" name="C: 24" />
        <note pan="0" vol="100" key="63" len="24" pos="10920" name="D#: 24" />
        <note pan="0" vol="100" key="67" len="24" pos="10944" name="G: 24" />
        <note pan="0" vol="100" key="69" len="24" pos="10968" name="A: 24" />
        <note pan="0" vol="100" key="63" len="24" pos="10992" name="D#: 24" />
        <note pan="0" vol="100" key="67" len="24" pos="11016" name="G: 24" />
        <note pan="0" vol="100" key="69" len="48" pos="11040" name="A: 48" />
        <note pan="0" vol="100" key="69" len="48" pos="11088" name="A: 48" />
        <note pan="0" vol="100" key="72" len="96" pos="11136" name="C*: 96" />
        <note pan="0" vol="100" key="72" len="48" pos="11232" name="C*: 48" />
        <note pan="0" vol="100" key="69" len="48" pos="11280" name="A: 48" />
        <note pan="0" vol="100" key="69" len="48" pos="11328" name="A: 48" />
        <note pan="0" vol="100" key="67" len="48" pos="11376" name="G: 48" />
        <note pan="0" vol="100" key="72" len="48" pos="11424" name="C*: 48" />
        <note pan="0" vol="100" key="72" len="48" pos="11472" name="C*: 48" />
        <note pan="0" vol="100" key="69" len="96" pos="11520" name="A: 96" />
        <note pan="0" vol="100" key="67" len="48" pos="11616" name="G: 48" />
        <note pan="0" vol="100" key="63" len="48" pos="11664" name="D#: 48" />
        <note pan="0" vol="100" key="69" len="24" pos="11712" name="A: 24" />
        <note pan="0" vol="100" key="67" len="24" pos="11736" name="G: 24" />
        <note pan="0" vol="100" key="63" len="96" pos="11760" name="D#: 96" />
        <note pan="0" vol="100" key="62" len="48" pos="11856" name="D: 48" />
        <note pan="0" vol="100" key="60" len="24" pos="11904" name="C: 24" />
        <note pan="0" vol="100" key="60" len="24" pos="11928" name="C: 24" />
        <note pan="0" vol="100" key="62" len="24" pos="11952" name="D: 24" />
        <note pan="0" vol="100" key="63" len="72" pos="11976" name="D#: 72" />
        <note pan="0" vol="100" key="69" len="48" pos="12048" name="A: 48" />
        <note pan="0" vol="100" key="72" len="48" pos="12096" name="C*: 48" />
        <note pan="0" vol="100" key="72" len="24" pos="12144" name="C*: 24" />
        <note pan="0" vol="100" key="69" len="72" pos="12168" name="A: 72" />
        <note pan="0" vol="100" key="72" len="24" pos="12240" name="C*: 24" />
        <note pan="0" vol="100" key="67" len="24" pos="12264" name="G: 24" />
    </midiclip>
</lmms-project>